<svg width="144" height="25" viewBox="0 0 144 25" fill="none" xmlns="http://www.w3.org/2000/svg">
<g clip-path="url(#clip0_87_2142)">
<path d="M132.102 19.5562C129.013 19.5562 126.269 17.3181 125.561 14.228H143.902C143.902 14.228 144 13.1084 144 12.7123C144 6.15376 138.664 0.81665 132.106 0.81665C125.547 0.81665 120.211 6.15265 120.211 12.7123C120.211 19.272 125.517 24.484 132.106 24.484C138.694 24.484 142.541 19.6303 143.501 16.1166H137.911C137.911 16.1166 136.133 19.5562 132.102 19.5562ZM132.106 5.74219C135.067 5.74219 137.639 7.69824 138.519 10.6135H125.692C126.569 7.69824 129.142 5.74219 132.106 5.74219Z" fill="#9896FF"/>
<path d="M62.1171 24.484C55.5586 24.484 50.4141 19.2033 50.4141 12.7123C50.4141 6.22125 55.75 0.81665 62.3085 0.81665C68.8672 0.81665 74.2031 6.36286 74.2031 12.6492C74.2031 15.3277 74.2031 23.8943 74.2031 23.8943H69.5851V20.1415L69.2488 20.053C68.4357 22.0467 65.4893 24.484 62.1161 24.484H62.1171ZM62.3085 5.74219C58.6044 5.74219 55.5896 8.85218 55.5896 12.6758C55.5896 16.4994 58.6034 19.5574 62.3085 19.5574C66.0138 19.5574 69.0276 16.4706 69.0276 12.6758C69.0276 8.88094 66.0138 5.74219 62.3085 5.74219Z" fill="#9896FF"/>
<path d="M87.3805 24.484C80.8218 24.484 75.6772 19.2033 75.6772 12.7123C75.6772 6.22125 81.0134 0.81665 87.5718 0.81665C94.1303 0.81665 99.4663 6.36286 99.4663 12.6492C99.4663 15.3277 99.4663 23.8943 99.4663 23.8943H94.8484V20.1415L94.512 20.053C93.6989 22.0467 90.7526 24.484 87.3793 24.484H87.3805ZM87.5718 5.74219C83.8678 5.74219 80.8529 8.85218 80.8529 12.6758C80.8529 16.4994 83.8666 19.5574 87.5718 19.5574C91.2771 19.5574 94.2908 16.4706 94.2908 12.6758C94.2908 8.88094 91.2771 5.74219 87.5718 5.74219Z" fill="#9896FF"/>
<path d="M107.219 23.8919L97.7405 1.40833H102.926L109.873 17.9706L116.821 1.40833H122.005L112.528 23.8919H107.219Z" fill="#9896FF"/>
<path d="M16.8619 24.4487C19.4409 24.4487 21.5318 22.3579 21.5318 19.7787C21.5318 17.1996 19.4409 15.1088 16.8619 15.1088C14.2827 15.1088 12.1919 17.1996 12.1919 19.7787C12.1919 22.3579 14.2827 24.4487 16.8619 24.4487Z" fill="#9896FF"/>
<path d="M29.0678 24.4487C31.647 24.4487 33.7379 22.3579 33.7379 19.7787C33.7379 17.1996 31.647 15.1088 29.0678 15.1088C26.4888 15.1088 24.3979 17.1996 24.3979 19.7787C24.3979 22.3579 26.4888 24.4487 29.0678 24.4487Z" fill="#9896FF"/>
<path d="M22.957 0.50061C10.277 0.50061 -0.00331829 10.9768 8.03473e-07 23.8959H5.86483C5.86483 14.214 13.4567 6.36433 22.957 6.36433C32.4574 6.36433 40.0493 14.214 40.0493 23.8959H45.914C45.9163 10.9768 35.6359 0.50061 22.957 0.50061Z" fill="#9896FF"/>
</g>
<defs>
<clipPath id="clip0_87_2142">
<rect width="144" height="24.0288" fill="white" transform="translate(0 0.50061)"/>
</clipPath>
</defs>
</svg>
