<svg width="199" height="35" viewBox="0 0 199 35" fill="none" xmlns="http://www.w3.org/2000/svg">
<g clip-path="url(#clip0_87_2270)">
<mask id="mask0_87_2270" style="mask-type:luminance" maskUnits="userSpaceOnUse" x="0" y="0" width="198" height="35">
<path d="M0 0.677246H197.346V34.3704H0V0.677246Z" fill="white"/>
</mask>
<g mask="url(#mask0_87_2270)">
<path d="M56.5946 10.2746C59.548 10.2746 61.4338 11.4223 61.4338 13.8019C61.4338 15.4423 60.5314 16.4268 59.3016 16.8364C60.6957 17.247 61.9265 18.2315 61.9265 20.2815C61.9265 23.3981 58.891 24.1372 56.5125 24.1372H50.5256V10.2736L56.5946 10.2746ZM56.5946 18.1493H53.478V21.7577H56.4304C57.7433 21.7577 58.9731 21.5123 58.9731 19.954C58.9731 18.4768 57.7433 18.1493 56.5946 18.1493ZM56.2672 12.6532H53.3959V15.8519H56.4304C57.5791 15.8519 58.3993 15.3602 58.3993 14.2936C58.3993 13.1459 57.5791 12.6532 56.2672 12.6532ZM64.2229 24.1362L69.8813 10.2757H73.08L78.7394 24.1372H75.7049L74.6383 21.5134H68.323L67.2564 24.1372H64.2219L64.2229 24.1362ZM69.2264 19.0506H73.737L71.7681 14.0483C71.687 13.8019 71.6049 13.4734 71.4406 12.9817C71.3585 13.5555 71.2764 13.8019 71.1121 14.0483L69.2264 19.0506ZM82.2688 24.1362V10.2757H88.0103C90.7163 10.2757 93.5054 11.2602 93.5054 14.7874C93.5054 17.1659 92.1935 18.3957 90.4709 18.8885L94.6531 24.1372H91.209L87.4354 19.2981H85.2222V24.1372L82.2688 24.1362ZM85.2211 16.7553H88.0924C89.3222 16.7553 90.4709 16.1804 90.4709 14.7863C90.4709 13.3923 89.4043 12.8174 88.0914 12.8174H85.2222L85.2211 16.7553ZM98.2625 24.1362V10.2757H101.051L107.53 19.2991C107.53 18.7242 107.448 18.0672 107.448 17.4123V10.2746H110.401V24.1362H107.612L101.133 15.1138C101.133 15.6887 101.215 16.3447 101.215 17.0006V24.1362H98.2625ZM121.474 10.2746C124.427 10.2746 126.314 11.4223 126.314 13.8019C126.314 15.4423 125.412 16.4268 124.181 16.8364C125.575 17.247 126.806 18.2315 126.806 20.2815C126.806 23.3981 123.771 24.1372 121.393 24.1372H115.405V10.2736L121.474 10.2746ZM121.474 18.1493H118.357V21.7577H121.311C122.623 21.7577 123.853 21.5123 123.853 19.954C123.853 18.4768 122.705 18.1493 121.474 18.1493ZM121.229 12.6532H118.357V15.8519H121.393C122.54 15.8519 123.361 15.3602 123.361 14.2936C123.28 13.1459 122.54 12.6532 121.229 12.6532ZM130.989 24.1362V10.2757H136.729C139.438 10.2757 142.226 11.2602 142.226 14.7874C142.226 17.1659 140.914 18.3957 139.191 18.8885L143.374 24.1372H139.929L136.156 19.2981H133.941V24.1372L130.989 24.1362ZM133.941 16.7553H136.813C138.042 16.7553 139.191 16.1804 139.191 14.7863C139.191 13.3923 138.125 12.8174 136.813 12.8174H133.941V16.7553ZM149.936 10.2746V24.1362H146.984V10.2757L149.936 10.2746ZM160.107 10.2746C165.029 10.2746 167.406 13.228 167.406 17.247C167.406 21.266 165.029 24.2183 160.107 24.2183H154.94V10.2746H160.107ZM160.107 12.8174H157.892V21.4302H160.107C162.895 21.4302 164.372 19.954 164.372 17.0817C164.372 14.2115 162.813 12.8174 160.107 12.8174ZM178.398 9.94612C179.876 9.94612 181.352 10.2736 182.664 10.8485V13.7187C181.597 13.0627 180.202 12.6532 178.809 12.6532C176.348 12.6532 173.888 13.9651 173.888 17.2459C173.888 20.9364 176.594 21.8387 178.644 21.8387C179.219 21.8387 179.794 21.7566 180.202 21.5934V16.6711H183.073V23.5602C181.642 24.149 180.11 24.4554 178.563 24.4626C174.708 24.4626 170.934 22.3304 170.934 17.2449C170.852 12.1593 174.544 9.94507 178.398 9.94507V9.94612ZM197.263 10.2746V12.8995H190.455V15.8519H196.69V18.4768H190.455V21.5934H197.346V24.2183H187.42V10.2746H197.263Z" fill="#100F0F"/>
<path d="M17.1428 15.4402H16.9786C14.7643 15.4402 13.0417 17.2449 13.0417 19.5423V23.9709L17.0607 20.9364L21.0797 23.9709V19.5423C21.0797 17.327 19.276 15.5223 17.1428 15.4402Z" fill="#FF4339"/>
<path d="M0 0.677246V33.6502L10.2532 26.0218V17.328L8.36642 15.8518L17.0603 9.29005L25.7552 15.8518L23.8684 17.328V26.0218L34.1217 33.6502V0.677246H0Z" fill="#FF4339"/>
</g>
</g>
<defs>
<clipPath id="clip0_87_2270">
<rect width="199" height="33.6931" fill="white" transform="translate(0 0.677246)"/>
</clipPath>
</defs>
</svg>
