<svg width="137" height="36" viewBox="0 0 137 36" fill="none" xmlns="http://www.w3.org/2000/svg">
<g clip-path="url(#clip0_87_2234)">
<mask id="mask0_87_2234" style="mask-type:luminance" maskUnits="userSpaceOnUse" x="0" y="0" width="36" height="36">
<path d="M0.154053 0.0778809H35.6445V35.5683H0.154053V0.0778809Z" fill="white"/>
</mask>
<g mask="url(#mask0_87_2234)">
<path fill-rule="evenodd" clip-rule="evenodd" d="M15.4149 0.0778809L20.5019 0.196182L20.6202 2.68051L22.8679 2.79881L22.7496 5.04654L20.5019 5.16484L20.6202 7.64917L22.8679 7.76748L22.9862 15.2205L25.4706 15.3388L25.5889 17.8231L28.0732 17.9414L28.1915 20.4257L30.6758 20.544L30.7941 22.7918L33.0419 22.6735L33.1602 17.8231L35.6445 17.9414L35.5262 35.5683L22.8679 35.45L22.7496 22.7918L20.5019 22.6735L20.3836 20.4257L15.2966 20.544L15.1783 22.7918L12.9306 22.9101L12.8123 35.5683L0.154053 35.45L0.272354 17.8231L2.75668 17.9414L2.87499 22.7918L5.12271 22.6735L5.24102 20.4257L7.72535 20.3074L7.84365 17.8231L10.328 17.7048L10.4463 15.2205L12.9306 15.1022L13.0489 7.64917L15.2966 7.53087L15.1783 5.04654L12.9306 4.92824L13.0489 2.68051L15.2966 2.56221L15.4149 0.0778809ZM5.24102 26.814L7.72535 26.9323L7.60704 29.18L5.12271 29.0617L5.24102 26.814ZM28.1915 26.814L30.6758 26.9323L30.5575 29.18L28.0732 29.0617L28.1915 26.814Z" fill="#100F0F"/>
</g>
</g>
<path d="M61.4811 33.8837C54.4341 33.8837 48.7896 28.1708 48.7896 21.158C48.7896 14.0768 54.4341 8.43227 61.4811 8.43227C64.9704 8.43227 68.836 9.73221 70.8886 12.2979L67.3993 16.1293C65.8599 14.5899 64.3889 13.8031 61.4811 13.8031C57.7181 13.8031 54.6393 16.9161 54.6393 21.158C54.6393 25.3315 57.7181 28.4787 61.4811 28.4787C63.6363 28.4787 64.9362 28.1024 66.3046 26.8367V24.0658H61.4811V18.5923H72.0859V28.2393C70.9912 29.9839 67.4335 33.8837 61.4811 33.8837ZM83.2062 33.8837C78.2801 33.8837 74.825 30.4286 74.825 25.8446V14.3162H80.6747V26.2209C80.6747 27.6235 81.5642 28.4103 83.2062 28.4103C85.0193 28.4103 85.7035 27.4525 85.7035 26.2209V14.3162H91.5874V25.8446C91.5874 30.4286 88.1665 33.8837 83.2062 33.8837ZM98.0817 11.819C96.2687 11.819 94.7977 10.348 94.7977 8.5349C94.7977 6.75603 96.2687 5.28505 98.0817 5.28505C99.8606 5.28505 101.332 6.75603 101.332 8.5349C101.332 10.348 99.8606 11.819 98.0817 11.819ZM95.1398 33.3022V14.3162H101.024V33.3022H95.1398ZM105.054 33.3706V8.94541H110.869V33.3706H105.054ZM122.118 33.8837C117.158 33.8837 113.429 29.4366 113.429 23.8605C113.429 18.2502 117.158 13.8031 122.118 13.8031C125.026 13.8031 127.523 15.2399 128.584 17.2582H128.755V8.94541H134.639V33.3706H128.926V30.6339H128.755C127.01 33.1654 124.684 33.8837 122.118 33.8837ZM123.829 28.4103C126.497 28.4103 128.07 26.5288 128.07 23.8605C128.07 21.158 126.497 19.2765 123.829 19.2765C121.126 19.2765 119.689 21.158 119.689 23.8605C119.689 26.5288 121.126 28.4103 123.829 28.4103Z" fill="#100F0F"/>
<defs>
<clipPath id="clip0_87_2234">
<rect width="35.4904" height="35.4904" fill="white" transform="translate(0.154053 0.0773926)"/>
</clipPath>
</defs>
</svg>
