<svg width="113" height="36" viewBox="0 0 113 36" fill="none" xmlns="http://www.w3.org/2000/svg">
<g clip-path="url(#clip0_87_2243)">
<path d="M101.753 31.1003C95.8601 31.1003 90.9397 28.7626 90.2864 23.1786C90.266 23.0058 90.3906 22.8494 90.563 22.8273L96.6095 22.0532C96.7988 22.029 96.9666 22.1741 96.9836 22.3645C97.226 25.1459 99.1937 26.4027 101.905 26.4027C104.779 26.4027 106.242 25.3419 106.242 23.4729C106.242 21.806 104.326 21.1999 100.341 20.2402C95.4995 19.0784 91.0613 17.563 91.0613 12.3602C91.0613 6.80386 95.9534 4.63184 101.4 4.63184C106.848 4.63184 111.518 6.43426 112.305 11.9526C112.329 12.123 112.212 12.2819 112.042 12.3108L106.196 13.3093C106.006 13.3419 105.83 13.1995 105.81 13.0067C105.539 10.4332 103.912 9.27898 101.501 9.27898C99.4334 9.27898 97.7186 10.0367 97.7186 11.8046C97.7186 13.522 99.5343 14.1282 102.913 14.8858C107.402 15.8961 113 17.1084 113 23.1194C113 29.1808 107.654 31.1003 101.753 31.1003Z" fill="#0884C1"/>
<path d="M86.3372 7.03694C88.3545 9.05744 88.6067 11.7851 88.6067 15.0684V30.5555C88.6067 30.7346 88.4618 30.8798 88.283 30.8798H81.8195C81.6408 30.8798 81.4959 30.7346 81.4959 30.5555V15.6745C81.4959 13.351 81.2941 12.1387 80.1846 11.0779C79.2767 10.2192 78.4194 10.0677 76.9063 10.0677C74.7377 10.0677 72.2159 11.5325 72.2159 16.7353V30.5555C72.2159 30.7346 72.071 30.8798 71.8923 30.8798H65.4792C65.3004 30.8798 65.1555 30.7346 65.1555 30.5555V5.5932C65.1555 5.41416 65.3004 5.26899 65.4792 5.26899H71.8418C72.0206 5.26899 72.1655 5.41416 72.1655 5.5932V8.34199C72.1655 8.49728 72.3958 8.5464 72.4681 8.40894C73.887 5.70909 76.5842 4.66284 79.6298 4.66284C82.8576 4.66284 84.7233 5.42056 86.3372 7.03694Z" fill="#0884C1"/>
<path d="M59.5678 7.87988C62.0165 10.3737 63.2499 14.1641 63.3538 18.9641C63.3576 19.1406 63.2179 19.2869 63.0422 19.2924L45.237 19.8561C45.0571 19.8619 44.9155 20.0147 44.928 20.1949C45.2042 24.2146 47.2777 26.2098 50.9594 26.0932C54.066 25.9949 55.634 24.5861 56.1221 22.1232C56.1545 21.9601 56.2998 21.8417 56.4654 21.8511L62.6665 22.2018C62.8664 22.2132 63.0079 22.4027 62.959 22.5969C61.5807 28.0536 57.4763 30.8902 51.1171 31.0915C47.1855 31.2159 44.0201 30.0527 41.8375 28.0498C39.3433 25.7535 38.0283 22.4596 37.8943 18.2187C37.767 14.1798 38.7675 10.7115 41.1627 8.26043C43.3122 6.01926 46.2999 4.76228 50.2318 4.63782C54.2139 4.51173 57.3792 5.67496 59.5678 7.87988ZM50.3862 9.53506C48.3195 9.60051 46.8768 10.2526 45.9589 11.5451C45.3424 12.3934 44.9829 13.4432 44.8422 14.6576C44.8199 14.8495 44.9758 15.0128 45.1685 15.0067L55.6919 14.6735C55.8827 14.6675 56.0273 14.4976 55.9975 14.3086C55.7766 12.9051 55.331 11.7308 54.4653 10.8715C53.4754 9.89209 52.201 9.47763 50.3862 9.53506Z" fill="#0884C1"/>
<path fill-rule="evenodd" clip-rule="evenodd" d="M16.0733 0.670507C15.9439 0.473618 16.1819 0.243058 16.375 0.378252L24.4605 6.03777C29.5565 9.60475 31.903 15.9735 30.2873 21.9753C30.1593 22.4508 30.022 22.867 29.893 23.2157C29.813 23.4319 29.4951 23.3852 29.4791 23.1553C29.3428 21.2011 27.9356 18.9669 26.9143 17.3453C26.732 17.0558 26.5619 16.7858 26.4136 16.5405C25.421 14.8983 18.2351 3.95845 16.0733 0.670507ZM5.36742 16.5882L15.0455 0.663552C15.1579 0.478703 14.9557 0.263086 14.7637 0.363161C13.0718 1.24523 8.50665 3.79735 4.92254 7.37688C0.99477 11.2996 4.169 15.6035 5.021 16.6152C5.11517 16.7269 5.2915 16.7131 5.36742 16.5882ZM14.8063 35.047C14.9357 35.2439 14.6977 35.4745 14.5046 35.3393L6.41909 29.6797C1.32309 26.1128 -1.02335 19.744 0.59232 13.7422C0.720299 13.2667 0.857623 12.8505 0.986603 12.5018C1.06658 12.2856 1.38451 12.3323 1.40054 12.5622C1.53686 14.5164 2.94402 16.7507 3.96535 18.3722C4.14766 18.6617 4.31767 18.9317 4.466 19.177C5.45865 20.8192 12.6446 31.7591 14.8063 35.047ZM15.8349 35.0523L25.513 19.1277C25.5889 19.0028 25.7652 18.9889 25.8594 19.1007C26.7114 20.1123 29.8856 24.4162 25.9579 28.3389C22.3738 31.9185 17.8086 34.4706 16.1167 35.3527C15.9247 35.4527 15.7225 35.2371 15.8349 35.0523Z" fill="#0884C1"/>
</g>
<defs>
<clipPath id="clip0_87_2243">
<rect width="112.913" height="35.3793" fill="white" transform="translate(0.0874023 0.0874023)"/>
</clipPath>
</defs>
</svg>
