<svg width="199" height="43" viewBox="0 0 199 43" fill="none" xmlns="http://www.w3.org/2000/svg">
<g clip-path="url(#clip0_87_2249)">
<path d="M80.8206 29.825V12.344H88.4393C89.2324 12.344 89.9599 12.5081 90.6217 12.8364C91.3006 13.1634 91.883 13.6065 92.3688 14.1659C92.8705 14.724 93.2506 15.3478 93.5093 16.0371C93.7851 16.7265 93.9229 17.4317 93.9229 18.1526C93.9229 18.8919 93.7929 19.6062 93.5329 20.2956C93.3014 20.953 92.9381 21.5562 92.4654 22.0683C92.0038 22.5724 91.4423 22.9749 90.8167 23.2501L94.7463 29.823H91.059L87.5175 23.9632H84.169V29.825H80.8206ZM84.169 20.985H88.3645C88.768 20.9923 89.162 20.8617 89.4813 20.6147C89.8056 20.3521 90.0643 20.008 90.2573 19.5826C90.4517 19.1558 90.5489 18.6792 90.5489 18.1526C90.5609 17.6747 90.4568 17.2009 90.2455 16.7721C90.0341 16.3432 89.7219 15.9721 89.3355 15.6905C89.0137 15.45 88.6224 15.3207 88.2207 15.3221H84.169V20.985ZM109.401 26.8448V29.823H97.4388V12.342H109.184V15.3221H100.789V19.5314H108.044V22.2889H100.789V26.8448H109.401ZM112.497 29.825V12.344H115.846V26.8448H124.626V29.823L112.497 29.825ZM131.832 12.344H135.227L141.56 29.823H138.115L136.514 25.4661H130.496L128.92 29.823H125.473L131.832 12.344ZM135.909 23.0788L133.529 15.8638L131.056 23.0768H135.907L135.909 23.0788ZM155.206 15.3221H149.699V29.825H146.376V15.3221H140.869V12.344H155.206V15.3221ZM157.832 29.825V12.344H161.18V29.823L157.832 29.825ZM172.608 29.9471C171.419 29.9641 170.241 29.7116 169.163 29.2085C168.159 28.7246 167.26 28.0472 166.518 27.2151C165.794 26.3661 165.22 25.4004 164.82 24.3591C164.421 23.3129 164.216 22.2031 164.213 21.0835C164.213 19.9187 164.423 18.8105 164.844 17.7587C165.281 16.6924 165.872 15.7489 166.616 14.9282C167.363 14.0984 168.27 13.4284 169.283 12.9585C170.347 12.4623 171.508 12.21 172.681 12.2199C173.926 12.2199 175.058 12.474 176.077 12.9822C177.111 13.493 177.993 14.1745 178.722 15.0267C179.45 15.8802 180.015 16.8322 180.42 17.8827C181.24 19.9992 181.232 22.3471 180.396 24.4576C179.979 25.4986 179.379 26.457 178.626 27.288C177.881 28.1087 176.991 28.7574 175.957 29.2341C174.906 29.7143 173.763 29.9577 172.608 29.9471ZM167.611 21.0835C167.611 21.8385 167.724 22.5693 167.95 23.2758C168.176 23.9809 168.499 24.6125 168.921 25.1706C169.357 25.7116 169.882 26.1469 170.497 26.4765C171.162 26.7968 171.893 26.9566 172.632 26.9433C173.441 26.9433 174.16 26.7792 174.791 26.4509C175.422 26.1069 175.948 25.6551 176.368 25.0957C176.79 24.5219 177.105 23.8903 177.314 23.2009C177.541 22.4944 177.654 21.7886 177.654 21.0835C177.654 20.3284 177.533 19.6062 177.29 18.9168C177.078 18.2365 176.741 17.6019 176.295 17.0456C175.882 16.4915 175.341 16.0444 174.72 15.7417C174.076 15.4052 173.358 15.2358 172.632 15.2493C171.807 15.2493 171.08 15.4213 170.449 15.7653C169.84 16.0898 169.31 16.5436 168.895 17.0949C168.473 17.6617 168.145 18.2938 167.926 18.9661C167.716 19.6555 167.611 20.3613 167.611 21.0835ZM187.428 18.5977V29.825H184.08V12.344H186.749L195.654 23.8667V12.3676H199V29.825H196.211L187.428 18.5977Z" fill="#100F0F"/>
<g clip-path="url(#clip1_87_2249)">
<g clip-path="url(#clip2_87_2249)">
<path fill-rule="evenodd" clip-rule="evenodd" d="M28.5987 33.2613C28.5987 32.0419 28.6665 30.7773 29.2764 29.721L29.3413 29.609C30.1476 28.2123 31.6774 27.4418 33.1355 26.7508C35.3282 25.7131 36.8452 23.4801 36.8452 20.892C36.8456 19.7019 36.5181 18.5347 35.8987 17.5185C35.2793 16.5023 34.3919 15.6764 33.3339 15.1314C31.8409 14.3604 30.2513 13.5486 29.4115 12.0935L29.2455 11.8062C28.6793 10.8255 28.5987 9.65522 28.5987 8.52275C28.5987 4.94461 25.6978 2.0437 22.1202 2.0437C18.5415 2.0437 15.6406 4.94461 15.6406 8.52275C15.6403 9.67418 15.9469 10.8049 16.5289 11.7984C17.1109 12.7919 17.9471 13.6124 18.9516 14.1753C20.4779 15.0332 22.1305 15.8882 23.0061 17.4042L23.2747 17.8703C23.7968 18.7739 23.8871 19.8479 23.8871 20.892C23.8871 21.8443 23.7894 22.8196 23.3135 23.6436L22.9388 24.2934C22.0254 25.8747 20.306 26.7763 18.7473 27.7281C17.7984 28.3065 17.0143 29.1193 16.4703 30.0883C15.9263 31.0573 15.6408 32.15 15.6411 33.2613C15.6411 36.8399 18.5415 39.7408 22.1202 39.7408C25.6983 39.7408 28.5987 36.8399 28.5987 33.2613Z" fill="#100F0F"/>
<path fill-rule="evenodd" clip-rule="evenodd" d="M28.5987 33.2613C28.5987 32.0419 28.6665 30.7773 29.2764 29.721L29.3413 29.609C30.1476 28.2123 31.6774 27.4418 33.1355 26.7508C35.3282 25.7131 36.8452 23.4801 36.8452 20.892C36.8456 19.7019 36.5181 18.5347 35.8987 17.5185C35.2793 16.5023 34.3919 15.6764 33.3339 15.1314C31.8409 14.3604 30.2513 13.5486 29.4115 12.0935L29.2455 11.8062C28.6793 10.8255 28.5987 9.65522 28.5987 8.52275C28.5987 4.94461 25.6978 2.0437 22.1202 2.0437C18.5415 2.0437 15.6406 4.94461 15.6406 8.52275C15.6403 9.67418 15.9469 10.8049 16.5289 11.7984C17.1109 12.7919 17.9471 13.6124 18.9516 14.1753C20.4779 15.0332 22.1305 15.8882 23.0061 17.4042L23.2747 17.8703C23.7968 18.7739 23.8871 19.8479 23.8871 20.892C23.8871 21.8443 23.7894 22.8196 23.3135 23.6436L22.9388 24.2934C22.0254 25.8747 20.306 26.7763 18.7473 27.7281C17.7984 28.3065 17.0143 29.1193 16.4703 30.0883C15.9263 31.0573 15.6408 32.15 15.6411 33.2613C15.6411 36.8399 18.5415 39.7408 22.1202 39.7408C25.6983 39.7408 28.5987 36.8399 28.5987 33.2613Z" fill="#100F0F"/>
<path d="M43.2983 15.0023C39.7197 15.0023 36.8188 12.1009 36.8188 8.52275C36.8193 4.94461 39.7197 2.0437 43.2988 2.0437C46.877 2.0437 49.7779 4.94461 49.7779 8.52275C49.7779 12.1009 46.876 15.0023 43.2983 15.0023ZM43.3234 39.7408C39.7452 39.7408 36.8443 36.8399 36.8443 33.2613C36.8443 29.6832 39.7452 26.7822 43.3239 26.7822C46.902 26.7822 49.8029 29.6832 49.8029 33.2618C49.8029 36.8399 46.902 39.7408 43.3234 39.7408ZM58.8597 26.5554C55.2816 26.5554 52.3807 23.6544 52.3807 20.0763C52.3807 16.4977 55.2816 13.5973 58.8597 13.5973C62.4384 13.5973 65.3393 16.4977 65.3393 20.0763C65.3393 23.6544 62.4384 26.5554 58.8597 26.5554ZM9.16069 26.5554C5.58255 26.5554 2.68213 23.6544 2.68213 20.0763C2.68213 16.4977 5.58304 13.5973 9.16118 13.5973C12.7393 13.5973 15.6402 16.4977 15.6402 20.0763C15.6402 23.6544 12.7393 26.5554 9.16118 26.5554H9.16069Z" fill="#100F0F"/>
</g>
</g>
</g>
<defs>
<clipPath id="clip0_87_2249">
<rect width="199" height="41.7181" fill="white" transform="translate(0 0.387939)"/>
</clipPath>
<clipPath id="clip1_87_2249">
<rect width="62.8605" height="38.3056" fill="white" transform="translate(2.55469 1.73657)"/>
</clipPath>
<clipPath id="clip2_87_2249">
<rect width="62.8605" height="38.3056" fill="white" transform="translate(2.55469 1.73657)"/>
</clipPath>
</defs>
</svg>
