<svg width="189" height="211" viewBox="0 0 189 211" fill="none" xmlns="http://www.w3.org/2000/svg">
<path d="M146.077 110.862C146.138 115.391 145.726 131.435 132.994 145.175C117.661 161.716 96.7349 161.68 93.7426 161.626C70.0127 161.194 56.1077 144.959 53.7648 142.12C50.7192 138.427 42.5177 127.431 42.1349 111.332C42.021 106.568 42.336 90.5183 54.9762 76.7837C69.894 60.5672 90.2681 60.3181 93.7426 60.3322C110.671 60.4004 122.292 68.5391 125.725 71.1432C127.823 72.7319 145.752 86.8167 146.077 110.862Z" fill="url(#paint0_linear_102_1411)"/>
<path d="M157.918 110.072C157.993 115.619 157.487 135.266 141.898 152.089C123.123 172.346 97.4982 172.301 93.8324 172.235C64.7746 171.706 47.7465 151.826 44.8899 148.348C41.1513 143.828 31.1133 130.362 30.6287 110.641C30.4906 104.808 30.871 85.1552 46.3557 68.3371C64.6219 48.4873 89.5705 48.1747 93.8251 48.1911C114.555 48.2757 128.785 58.243 132.989 61.4299C135.564 63.3829 157.521 80.6264 157.918 110.072Z" stroke="#232323" stroke-width="0.470042" stroke-linecap="round" stroke-linejoin="round"/>
<path d="M55.7034 115.327L57.884 110.392L59.0954 115.562L62.7298 116.972L59.3377 118.382L57.6417 123.083L56.9148 118.382L52.7959 116.737L55.7034 115.327Z" stroke="white" stroke-width="0.470042" stroke-linecap="round" stroke-linejoin="round"/>
<path d="M123.893 104.932L125.429 101.461L126.282 105.099L128.838 106.091L126.452 107.082L125.257 110.391L124.746 107.082L121.848 105.926L123.893 104.932Z" stroke="white" stroke-width="0.470042" stroke-linecap="round" stroke-linejoin="round"/>
<path d="M74.8439 77.4885C75.6468 77.4885 76.2976 76.8571 76.2976 76.0783C76.2976 75.2995 75.6468 74.6682 74.8439 74.6682C74.041 74.6682 73.3901 75.2995 73.3901 76.0783C73.3901 76.8571 74.041 77.4885 74.8439 77.4885Z" stroke="white" stroke-width="0.470042" stroke-linecap="round" stroke-linejoin="round"/>
<path d="M95.4387 143.06C96.3754 143.06 97.1347 142.323 97.1347 141.414C97.1347 140.506 96.3754 139.769 95.4387 139.769C94.502 139.769 93.7427 140.506 93.7427 141.414C93.7427 142.323 94.502 143.06 95.4387 143.06Z" stroke="white" stroke-width="0.470042" stroke-linecap="round" stroke-linejoin="round"/>
<path d="M133.236 110.862C133.637 110.862 133.963 110.546 133.963 110.157C133.963 109.767 133.637 109.452 133.236 109.452C132.834 109.452 132.509 109.767 132.509 110.157C132.509 110.546 132.834 110.862 133.236 110.862Z" stroke="white" stroke-width="0.470042" stroke-linecap="round" stroke-linejoin="round"/>
<path d="M52.1923 172.416L61.0262 164.212C61.9781 161.626 63.2818 159.176 64.9028 156.926C64.2567 155.123 63.6106 153.321 62.9645 151.521C83.356 156.221 104.599 156.221 124.991 151.521C124.425 153.477 123.86 155.436 123.295 157.396C123.702 158.052 124.109 158.754 124.506 159.511C125.263 160.952 125.911 162.445 126.444 163.977L135.991 171.967C136.268 172.199 136.475 172.498 136.59 172.835C136.705 173.171 136.724 173.532 136.644 173.878C136.565 174.224 136.39 174.542 136.138 174.799C135.886 175.057 135.567 175.243 135.215 175.338C108.37 182.621 79.9967 182.755 53.0791 175.725C52.7314 175.638 52.4142 175.461 52.1602 175.215C51.9062 174.968 51.7246 174.661 51.6343 174.323C51.5439 173.986 51.5479 173.631 51.646 173.296C51.7441 172.961 51.9327 172.657 52.1923 172.416Z" fill="white" stroke="#232323" stroke-width="0.470042" stroke-linecap="round" stroke-linejoin="round"/>
<path d="M64.9099 156.926C83.9884 162.089 104.137 162.251 123.302 157.396" stroke="#232323" stroke-width="0.470042" stroke-linecap="round" stroke-linejoin="round"/>
<path d="M61.2759 164.446C68.6318 166.435 82.4665 168.644 94.7119 168.677C106.356 168.705 119.035 165.793 126.21 163.976" stroke="#232323" stroke-width="0.470042" stroke-linecap="round" stroke-linejoin="round"/>
<path d="M27.447 140.677C27.8262 140.297 28.3455 140.078 28.8907 140.069C29.4359 140.061 29.9624 140.262 30.3545 140.63L100.737 206.621C101.128 206.99 101.352 207.493 101.361 208.022C101.37 208.55 101.163 209.061 100.786 209.441C100.406 209.821 99.8869 210.039 99.3419 210.048C98.797 210.057 98.2706 209.855 97.8782 209.488L27.4979 143.502C27.3033 143.319 27.1476 143.102 27.0398 142.861C26.9319 142.621 26.8739 142.362 26.8692 142.099C26.8645 141.837 26.9131 141.576 27.0122 141.332C27.1114 141.088 27.2591 140.865 27.447 140.677Z" fill="white" stroke="#232323" stroke-width="0.470042" stroke-linecap="round" stroke-linejoin="round"/>
<path d="M55.7369 170.113L58.8333 167.008L30.5145 140.451C30.0871 140.049 29.5129 139.829 28.9182 139.838C28.3235 139.848 27.7569 140.086 27.3429 140.5C26.9334 140.911 26.7071 141.462 26.713 142.034C26.7189 142.606 26.9565 143.152 27.3744 143.555C33.5359 149.499 55.7514 170.844 55.7369 170.113Z" fill="#232323"/>
<path d="M141.958 111.097C141.164 123.132 136.213 134.557 127.906 143.53" stroke="white" stroke-width="0.470042" stroke-linecap="round" stroke-linejoin="round"/>
<path d="M64.6677 76.0786C64.6677 76.0786 59.3374 78.6638 54.2493 87.3596" stroke="white" stroke-width="0.470042" stroke-linecap="round" stroke-linejoin="round"/>
<path d="M62.7297 82.894C62.7297 82.894 59.3376 85.4793 58.853 87.5945" stroke="white" stroke-width="0.470042" stroke-linecap="round" stroke-linejoin="round"/>
<path d="M102.741 107.597C104.877 107.355 106.846 106.361 108.275 104.804C109.704 103.246 110.494 101.234 110.495 99.1483V97.5666C110.495 96.4499 110.269 95.3442 109.828 94.3124C109.388 93.2807 108.743 92.3431 107.929 91.5533C107.115 90.7635 106.149 90.1369 105.085 89.7093C104.022 89.2817 102.882 89.0615 101.731 89.0612H96.7738V83.5593H91.9934V88.9648H89.3064V83.5593H84.2304V89.1998L77.3639 89.2539V96.368H84.2304V120.176H77.0659V127.743H84.2304V132.794H89.9048V127.858H91.9934V132.794H97.3674V127.581H102.741C104.879 127.58 106.929 126.756 108.441 125.29C109.952 123.824 110.802 121.836 110.802 119.762V119.762V115.416C110.802 113.343 109.952 111.354 108.441 109.888C106.929 108.422 104.879 107.598 102.741 107.597V107.597ZM89.7474 96.4479C89.7474 96.3092 95.0123 96.3445 98.8744 96.3915C99.9343 96.4222 100.94 96.8539 101.676 97.5942C102.412 98.3345 102.82 99.3248 102.814 100.353C102.807 101.382 102.386 102.367 101.64 103.098C100.895 103.83 99.8838 104.249 98.8235 104.267H89.7474V96.4479ZM100.018 120.185H89.7474V112.375C89.7474 112.237 96.2068 112.274 100.069 112.319C101.129 112.35 102.134 112.781 102.87 113.522C103.607 114.262 104.015 115.252 104.008 116.281C104.002 117.309 103.581 118.295 102.835 119.026C102.089 119.757 101.078 120.177 100.018 120.194V120.185Z" stroke="white" stroke-width="0.470042" stroke-miterlimit="10"/>
<path d="M105.959 107.597C108.094 107.355 110.063 106.361 111.493 104.804C112.922 103.246 113.712 101.234 113.712 99.1483V97.5666C113.712 95.3108 112.788 93.1474 111.144 91.5523C109.5 89.9573 107.269 89.0612 104.944 89.0612H99.9767V83.5593H95.2109V88.9648H92.5239V83.5593H87.4358V89.1998L80.5693 89.2539V96.368H87.4358V120.176H80.281V127.743H87.4479V132.794H93.1199V127.858H95.2109V132.794H100.585V127.581H105.959C108.097 127.58 110.147 126.756 111.658 125.29C113.17 123.824 114.019 121.836 114.02 119.762V115.416C114.019 113.343 113.17 111.354 111.658 109.888C110.147 108.422 108.097 107.598 105.959 107.597ZM92.9721 96.4479C92.9721 96.3092 98.2347 96.3445 102.099 96.3915C103.159 96.4222 104.165 96.8539 104.901 97.5942C105.637 98.3345 106.045 99.3248 106.039 100.353C106.032 101.382 105.611 102.367 104.865 103.098C104.12 103.83 103.109 104.249 102.048 104.267H92.9721V96.4479ZM103.243 120.185H92.9721V112.375C92.9721 112.237 99.4292 112.274 103.294 112.319C104.354 112.35 105.359 112.781 106.095 113.522C106.831 114.262 107.24 115.252 107.233 116.281C107.226 117.309 106.805 118.295 106.06 119.026C105.314 119.757 104.303 120.177 103.243 120.194V120.185Z" fill="url(#paint1_linear_102_1411)" stroke="white" stroke-width="0.470042" stroke-miterlimit="10"/>
<path d="M116.838 183.84C118.379 184.482 120.823 185.535 123.767 186.943C140.243 194.83 140.572 198.734 146.373 198.837C150.286 198.905 150.194 197.129 169.616 187.356C171.888 186.214 173.776 185.288 175.055 184.668C173.875 184.101 172.094 183.241 169.935 182.186C149.399 172.129 149.428 170.987 146.053 171.015C141.343 171.053 141.619 173.272 124.087 180.842C121.029 182.162 118.492 183.185 116.838 183.84Z" stroke="#232323" stroke-width="0.470042" stroke-linecap="round" stroke-linejoin="round"/>
<path d="M146.053 189.218C148.643 189.218 150.744 187.181 150.744 184.668C150.744 182.155 148.643 180.118 146.053 180.118C143.462 180.118 141.362 182.155 141.362 184.668C141.362 187.181 143.462 189.218 146.053 189.218Z" stroke="#232323" stroke-width="0.470042" stroke-linecap="round" stroke-linejoin="round"/>
<path d="M146.063 194.205C151.481 194.205 155.873 189.944 155.873 184.689C155.873 179.433 151.481 175.173 146.063 175.173C140.644 175.173 136.252 179.433 136.252 184.689C136.252 189.944 140.644 194.205 146.063 194.205Z" stroke="#232323" stroke-width="0.470042" stroke-linecap="round" stroke-linejoin="round"/>
<path d="M120.249 182.703C120.514 183.103 120.627 183.579 120.568 184.051C120.51 184.523 120.284 184.96 119.929 185.288" stroke="#232323" stroke-width="0.470042" stroke-linecap="round" stroke-linejoin="round"/>
<path d="M172.068 183.53C171.707 184.195 171.591 184.96 171.741 185.697C171.79 185.913 171.863 186.122 171.961 186.322" stroke="#232323" stroke-width="0.470042" stroke-linecap="round" stroke-linejoin="round"/>
<path d="M146.227 200.858V204.938" stroke="#232323" stroke-width="0.470042" stroke-linecap="round" stroke-linejoin="round"/>
<path d="M149.442 200.139L151.587 203.018" stroke="#232323" stroke-width="0.470042" stroke-linecap="round" stroke-linejoin="round"/>
<path d="M143.179 200.374L141.035 203.253" stroke="#232323" stroke-width="0.470042" stroke-linecap="round" stroke-linejoin="round"/>
<path d="M94.438 20.8016V37.4012" stroke="#232323" stroke-width="0.470042" stroke-linecap="round" stroke-linejoin="round"/>
<path d="M58.407 10.0682L70.3906 42.0099" stroke="#232323" stroke-width="0.470042" stroke-linecap="round" stroke-linejoin="round"/>
<path d="M26.8948 26.7195L49.418 52.7575" stroke="#232323" stroke-width="0.470042" stroke-linecap="round" stroke-linejoin="round"/>
<path d="M2.4187 51.1687L32.7655 68.1631" stroke="#232323" stroke-width="0.470042" stroke-linecap="round" stroke-linejoin="round"/>
<path d="M0.301025 90.6897L20.6752 94.4101" stroke="#232323" stroke-width="0.470042" stroke-linecap="round" stroke-linejoin="round"/>
<path d="M1.53955 121.651L19.893 117.557" stroke="#232323" stroke-width="0.470042" stroke-linecap="round" stroke-linejoin="round"/>
<path d="M13.4163 152.855L29.0682 144.719" stroke="#232323" stroke-width="0.470042" stroke-linecap="round" stroke-linejoin="round"/>
<path d="M81.902 38.0193C81.1509 34.4846 80.4006 30.9506 79.6511 27.4175" stroke="#232323" stroke-width="0.470042" stroke-linecap="round" stroke-linejoin="round"/>
<path d="M59.5893 46.1463C57.6397 43.0754 55.6885 40.0037 53.7356 36.9312" stroke="#232323" stroke-width="0.470042" stroke-linecap="round" stroke-linejoin="round"/>
<path d="M39.4527 60.0806L30.7036 53.3613" stroke="#232323" stroke-width="0.470042" stroke-linecap="round" stroke-linejoin="round"/>
<path d="M24.4453 84.0411C20.9152 82.906 19.6674 81.9847 16.1372 80.8472" stroke="#232323" stroke-width="0.470042" stroke-linecap="round" stroke-linejoin="round"/>
<path d="M19.5656 106.645C15.8464 106.749 17.1427 106.676 13.4163 106.779" stroke="#232323" stroke-width="0.470042" stroke-linecap="round" stroke-linejoin="round"/>
<path d="M22.4269 131.957L12.0544 135.952" stroke="#232323" stroke-width="0.470042" stroke-linecap="round" stroke-linejoin="round"/>
<path d="M38.2703 158.884L29.9282 166.075" stroke="#232323" stroke-width="0.470042" stroke-linecap="round" stroke-linejoin="round"/>
<path d="M130.718 10.0682L118.735 42.0099" stroke="#232323" stroke-width="0.470042" stroke-linecap="round" stroke-linejoin="round"/>
<path d="M162.231 26.7195L139.708 52.7575" stroke="#232323" stroke-width="0.470042" stroke-linecap="round" stroke-linejoin="round"/>
<path d="M186.707 51.1804L171.59 59.5777L156.36 68.1748" stroke="#232323" stroke-width="0.470042" stroke-linecap="round" stroke-linejoin="round"/>
<path d="M187.121 90.9297L168.45 94.4103" stroke="#232323" stroke-width="0.470042" stroke-linecap="round" stroke-linejoin="round"/>
<path d="M188.606 121.891L169.232 117.557" stroke="#232323" stroke-width="0.470042" stroke-linecap="round" stroke-linejoin="round"/>
<path d="M178.709 155.015L160.057 144.719" stroke="#232323" stroke-width="0.470042" stroke-linecap="round" stroke-linejoin="round"/>
<path d="M107.224 38.0193C107.975 34.4846 108.725 30.9506 109.474 27.4175" stroke="#232323" stroke-width="0.470042" stroke-linecap="round" stroke-linejoin="round"/>
<path d="M129.536 46.1463C131.486 43.0754 133.437 40.0037 135.39 36.9312" stroke="#232323" stroke-width="0.470042" stroke-linecap="round" stroke-linejoin="round"/>
<path d="M149.673 60.0806L158.422 53.3613" stroke="#232323" stroke-width="0.470042" stroke-linecap="round" stroke-linejoin="round"/>
<path d="M164.68 84.0411C168.21 82.906 170.229 81.9847 173.759 80.8472" stroke="#232323" stroke-width="0.470042" stroke-linecap="round" stroke-linejoin="round"/>
<path d="M169.56 106.645C173.279 106.749 172.763 106.676 176.482 106.779" stroke="#232323" stroke-width="0.470042" stroke-linecap="round" stroke-linejoin="round"/>
<path d="M165.487 134.542C168.945 135.872 169.313 136.404 172.77 137.734" stroke="#232323" stroke-width="0.470042" stroke-linecap="round" stroke-linejoin="round"/>
<path d="M150.857 158.884L159.197 166.075" stroke="#232323" stroke-width="0.470042" stroke-linecap="round" stroke-linejoin="round"/>
<path d="M73.7246 9.93196C74.7931 10.3785 76.4867 11.1071 78.5268 12.0824C89.9459 17.5466 90.1688 20.2494 94.1884 20.3222C96.8996 20.3716 96.8342 19.1471 110.291 12.3691C111.866 11.5771 113.172 10.9355 114.059 10.5054C113.242 10.1129 112.009 9.51832 110.514 8.78506C96.2891 1.82609 96.306 1.02937 93.9655 1.04817C90.7043 1.07402 90.8957 2.61106 78.7473 7.86378C76.6297 8.76861 74.8731 9.47837 73.7246 9.93196Z" stroke="#232323" stroke-width="0.470042" stroke-linecap="round" stroke-linejoin="round"/>
<path d="M93.9654 13.6594C95.7612 13.6594 97.2169 12.2473 97.2169 10.5054C97.2169 8.76353 95.7612 7.35144 93.9654 7.35144C92.1696 7.35144 90.7139 8.76353 90.7139 10.5054C90.7139 12.2473 92.1696 13.6594 93.9654 13.6594Z" fill="#E9E9E9" stroke="#232323" stroke-width="0.470042" stroke-linecap="round" stroke-linejoin="round"/>
<path d="M100.606 12.0649C101.695 8.56972 99.6565 4.88029 96.0532 3.82435C92.4499 2.76842 88.6463 4.74585 87.5577 8.24106C86.4691 11.7363 88.5077 15.4257 92.111 16.4816C95.7144 17.5376 99.5179 15.5601 100.606 12.0649Z" stroke="#232323" stroke-width="0.470042" stroke-linecap="round" stroke-linejoin="round"/>
<path d="M76.0891 9.14465C76.2735 9.42139 76.3522 9.75204 76.3115 10.0792C76.2708 10.4063 76.1132 10.7093 75.8662 10.9355" fill="#E9E9E9"/>
<path d="M76.0891 9.14465C76.2735 9.42139 76.3522 9.75204 76.3115 10.0792C76.2708 10.4063 76.1132 10.7093 75.8662 10.9355" stroke="#232323" stroke-width="0.470042" stroke-linecap="round" stroke-linejoin="round"/>
<path d="M111.989 9.71802C111.74 10.1791 111.66 10.7086 111.761 11.2198C111.797 11.3688 111.849 11.5137 111.917 11.6522" fill="#E9E9E9"/>
<path d="M111.989 9.71802C111.74 10.1791 111.66 10.7086 111.761 11.2198C111.797 11.3688 111.849 11.5137 111.917 11.6522" stroke="#232323" stroke-width="0.470042" stroke-linecap="round" stroke-linejoin="round"/>
<defs>
<linearGradient id="paint0_linear_102_1411" x1="97.6387" y1="74.4013" x2="98.5939" y2="184.63" gradientUnits="userSpaceOnUse">
<stop stop-color="#FB6008"/>
<stop offset="1" stop-color="#FB6008"/>
</linearGradient>
<linearGradient id="paint1_linear_102_1411" x1="98.2984" y1="90.3975" x2="98.9936" y2="143.966" gradientUnits="userSpaceOnUse">
<stop stop-color="#FB6008"/>
<stop offset="1" stop-color="#FB6008"/>
</linearGradient>
</defs>
</svg>
