<svg width="195" height="210" viewBox="0 0 195 210" fill="none" xmlns="http://www.w3.org/2000/svg">
<path d="M132.7 147.172L163.707 164.597L194.459 147.172L163.963 129.488L132.7 147.172Z" stroke="#232323" stroke-width="0.43728" stroke-linecap="round" stroke-linejoin="round"/>
<path d="M138.07 150.246L163.686 164.641L189.089 150.246L163.898 135.639L138.07 150.246Z" fill="url(#paint0_linear_106_3312)"/>
<path d="M138.07 179.673L163.474 194.068L163.686 164.641L138.07 150.246V179.673Z" fill="url(#paint1_linear_106_3312)"/>
<path d="M163.685 164.641L189.089 150.246V179.461L163.451 194.068" fill="url(#paint2_linear_106_3312)"/>
<path d="M132.7 182.793L163.452 200.218L163.707 164.597L132.7 147.172V182.793Z" stroke="#232323" stroke-width="0.43728" stroke-linecap="round" stroke-linejoin="round"/>
<path d="M194.459 147.172V182.535L163.451 200.218L163.707 164.597L194.459 147.172Z" stroke="#232323" stroke-width="0.43728" stroke-linecap="round" stroke-linejoin="round"/>
<path d="M87.5989 19.9104L121.768 39.1135L155.653 19.9104L122.05 0.427368L87.5989 19.9104Z" stroke="#232323" stroke-width="0.43728" stroke-linecap="round" stroke-linejoin="round"/>
<path d="M93.5176 23.2994L121.744 39.1617L149.736 23.2994L121.976 7.20312L93.5176 23.2994Z" fill="url(#paint3_linear_106_3312)"/>
<path d="M93.5176 55.7236L121.51 71.5859L121.744 39.1616L93.5176 23.2993V55.7236Z" fill="url(#paint4_linear_106_3312)"/>
<path d="M121.744 39.1616L149.736 23.2993V55.4918L121.486 71.5859" fill="url(#paint5_linear_106_3312)"/>
<path d="M87.5989 59.1628L121.486 78.3638L121.768 39.1135L87.5989 19.9104V59.1628Z" stroke="#232323" stroke-width="0.43728" stroke-linecap="round" stroke-linejoin="round"/>
<path d="M155.653 19.9104V58.8808L121.486 78.3638L121.768 39.1135L155.653 19.9104Z" stroke="#232323" stroke-width="0.43728" stroke-linecap="round" stroke-linejoin="round"/>
<path d="M27.8052 111.162L34.9066 115.154L41.9512 111.162L34.9656 107.113L27.8052 111.162Z" fill="#232323" stroke="#232323" stroke-width="0.43728" stroke-linecap="round" stroke-linejoin="round"/>
<path d="M27.8052 119.322L34.8476 123.314L34.9066 115.154L27.8052 111.162V119.322Z" stroke="#232323" stroke-width="0.43728" stroke-linecap="round" stroke-linejoin="round"/>
<path d="M41.9513 111.162V119.262L34.8477 123.314L34.9067 115.154L41.9513 111.162Z" stroke="#232323" stroke-width="0.43728" stroke-linecap="round" stroke-linejoin="round"/>
<path d="M155.957 101.983L163.681 106.323L171.342 101.983L163.747 97.5779L155.957 101.983Z" fill="#232323" stroke="#232323" stroke-width="0.43728" stroke-linecap="round" stroke-linejoin="round"/>
<path d="M155.957 110.856L163.618 115.198L163.681 106.324L155.957 101.984V110.856Z" stroke="#232323" stroke-width="0.43728" stroke-linecap="round" stroke-linejoin="round"/>
<path d="M171.342 101.984V110.793L163.618 115.198L163.681 106.324L171.342 101.984Z" stroke="#232323" stroke-width="0.43728" stroke-linecap="round" stroke-linejoin="round"/>
<path d="M0.540771 150.974L34.7076 170.177L68.5946 150.974L34.9897 131.489L0.540771 150.974Z" stroke="#232323" stroke-width="0.43728" stroke-linecap="round" stroke-linejoin="round"/>
<path d="M6.45728 154.363L34.6837 170.225L62.6761 154.363L34.9176 138.267L6.45728 154.363Z" fill="url(#paint6_linear_106_3312)"/>
<path d="M6.45728 186.787L34.4497 202.65L34.6837 170.225L6.45728 154.363V186.787Z" fill="url(#paint7_linear_106_3312)"/>
<path d="M34.6835 170.225L62.676 154.363V186.553L34.4255 202.65" fill="url(#paint8_linear_106_3312)"/>
<path d="M0.540771 190.224L34.4256 209.427L34.7076 170.177L0.540771 150.974V190.224Z" stroke="#232323" stroke-width="0.43728" stroke-linecap="round" stroke-linejoin="round"/>
<path d="M68.5946 150.974V189.942L34.4255 209.427L34.7076 170.177L68.5946 150.974Z" stroke="#232323" stroke-width="0.43728" stroke-linecap="round" stroke-linejoin="round"/>
<path d="M34.9174 131.498V106.135C34.906 104.995 35.1389 103.865 35.6005 102.822C36.0621 101.779 36.7417 100.846 37.5935 100.088L87.2794 59.3792" stroke="#232323" stroke-width="0.43728" stroke-linecap="round" stroke-linejoin="round"/>
<path d="M136.692 47.9224L160.323 74.2881C162.597 76.5847 163.871 79.6863 163.869 82.9179V150.631" stroke="#232323" stroke-width="0.43728" stroke-linecap="round" stroke-linejoin="round"/>
<path d="M68.5793 175.976H90.3406C90.9094 175.976 91.455 175.75 91.8572 175.347C92.2594 174.945 92.4854 174.399 92.4854 173.831V173.831C92.4854 173.262 92.7114 172.716 93.1136 172.314C93.5159 171.912 94.0614 171.686 94.6303 171.686H149.996" stroke="#232323" stroke-width="0.43728" stroke-linecap="round" stroke-linejoin="round"/>
<path d="M149.863 174.594C150.477 174.594 150.974 173.369 150.974 171.858C150.974 170.348 150.477 169.123 149.863 169.123C149.25 169.123 148.752 170.348 148.752 171.858C148.752 173.369 149.25 174.594 149.863 174.594Z" stroke="#232323" stroke-width="0.43728" stroke-linecap="round" stroke-linejoin="round"/>
<path d="M137.182 49.934C137.796 49.934 138.293 48.7094 138.293 47.1988C138.293 45.6882 137.796 44.4636 137.182 44.4636C136.569 44.4636 136.072 45.6882 136.072 47.1988C136.072 48.7094 136.569 49.934 137.182 49.934Z" stroke="#232323" stroke-width="0.43728" stroke-linecap="round" stroke-linejoin="round"/>
<path d="M25.4919 27.683L40.1649 35.9301L54.7175 27.683L40.2851 19.3157L25.4919 27.683Z" fill="#232323" stroke="#232323" stroke-width="0.43728" stroke-linecap="round" stroke-linejoin="round"/>
<path d="M25.4919 44.5402L40.0446 52.7873L40.1649 35.9302L25.4919 27.6831V44.5402Z" stroke="#232323" stroke-width="0.43728" stroke-linecap="round" stroke-linejoin="round"/>
<path d="M54.7174 27.6831V44.42L40.0444 52.7873L40.1647 35.9302L54.7174 27.6831Z" stroke="#232323" stroke-width="0.43728" stroke-linecap="round" stroke-linejoin="round"/>
<path d="M175.704 58.8174L184.299 79.9183" stroke="#232323" stroke-width="0.43728" stroke-linecap="round" stroke-linejoin="round"/>
<path d="M8.34644 50.8894L21.6332 81.147L41.5054 63.2819" stroke="#232323" stroke-width="0.43728" stroke-linecap="round" stroke-linejoin="round"/>
<path d="M8.4579 52.8987C9.69077 52.8987 10.6902 51.8993 10.6902 50.6664C10.6902 49.4335 9.69077 48.4341 8.4579 48.4341C7.22503 48.4341 6.22559 49.4335 6.22559 50.6664C6.22559 51.8993 7.22503 52.8987 8.4579 52.8987Z" fill="#E9E9E9" stroke="#232323" stroke-width="0.43728" stroke-miterlimit="10"/>
<path d="M21.7445 83.1563C22.9774 83.1563 23.9768 82.1568 23.9768 80.924C23.9768 79.6911 22.9774 78.6917 21.7445 78.6917C20.5116 78.6917 19.5122 79.6911 19.5122 80.924C19.5122 82.1568 20.5116 83.1563 21.7445 83.1563Z" fill="#E9E9E9" stroke="#232323" stroke-width="0.43728" stroke-miterlimit="10"/>
<path d="M42.3973 64.8452C43.6302 64.8452 44.6297 63.8458 44.6297 62.6129C44.6297 61.3801 43.6302 60.3806 42.3973 60.3806C41.1645 60.3806 40.165 61.3801 40.165 62.6129C40.165 63.8458 41.1645 64.8452 42.3973 64.8452Z" fill="#E9E9E9" stroke="#232323" stroke-width="0.43728" stroke-miterlimit="10"/>
<path d="M184.747 83.6023C185.98 83.6023 186.979 82.6029 186.979 81.37C186.979 80.1371 185.98 79.1377 184.747 79.1377C183.514 79.1377 182.515 80.1371 182.515 81.37C182.515 82.6029 183.514 83.6023 184.747 83.6023Z" fill="#E9E9E9" stroke="#232323" stroke-width="0.43728" stroke-miterlimit="10"/>
<path d="M175.704 61.7209C177.308 61.7209 178.608 60.4209 178.608 58.8174C178.608 57.2138 177.308 55.9138 175.704 55.9138C174.101 55.9138 172.801 57.2138 172.801 58.8174C172.801 60.4209 174.101 61.7209 175.704 61.7209Z" fill="#E9E9E9" stroke="#232323" stroke-width="0.43728" stroke-miterlimit="10"/>
<path d="M112.495 137.41C121.17 137.41 128.202 130.377 128.202 121.703C128.202 113.028 121.17 105.996 112.495 105.996C103.821 105.996 96.7883 113.028 96.7883 121.703C96.7883 130.377 103.821 137.41 112.495 137.41Z" fill="white" stroke="#232323" stroke-width="0.43728" stroke-linecap="round" stroke-linejoin="round"/>
<path d="M112.495 135.284C119.996 135.284 126.077 129.204 126.077 121.703C126.077 114.201 119.996 108.121 112.495 108.121C104.994 108.121 98.9133 114.201 98.9133 121.703C98.9133 129.204 104.994 135.284 112.495 135.284Z" stroke="#232323" stroke-width="0.43728" stroke-miterlimit="10"/>
<path d="M95.295 133.514C107.986 133.514 118.274 123.225 118.274 110.534C118.274 97.8435 107.986 87.5554 95.295 87.5554C82.604 87.5554 72.3159 97.8435 72.3159 110.534C72.3159 123.225 82.604 133.514 95.295 133.514Z" fill="white" stroke="#232323" stroke-width="0.43728" stroke-linecap="round" stroke-linejoin="round"/>
<path d="M95.295 130.407C106.27 130.407 115.167 121.51 115.167 110.535C115.167 99.5594 106.27 90.6624 95.295 90.6624C84.3199 90.6624 75.4229 99.5594 75.4229 110.535C75.4229 121.51 84.3199 130.407 95.295 130.407Z" stroke="#232323" stroke-width="0.43728" stroke-miterlimit="10"/>
<path d="M88.305 102.097V105.497H91.202V115.447H88.1782V119.348H91.202V121.237H93.5939V119.096H94.4685V121.237H96.7336V118.972H99.0009C99.9028 118.972 100.768 118.614 101.406 117.976C102.044 117.339 102.402 116.474 102.403 115.572V113.683C102.402 112.781 102.044 111.916 101.406 111.279C100.768 110.641 99.9028 110.283 99.0009 110.283C99.9029 110.18 100.735 109.748 101.34 109.071C101.945 108.394 102.279 107.518 102.28 106.61V105.921C102.28 104.94 101.89 104 101.196 103.306C100.503 102.612 99.5621 102.222 98.5811 102.222H96.4865V99.8298H94.4729V101.97H93.3381V99.8298H91.1976V101.97C91.1976 101.97 88.305 101.944 88.305 102.097Z" fill="#E9E9E9" stroke="#232323" stroke-width="0.43728" stroke-miterlimit="10"/>
<path d="M93.5327 105.434V108.834H97.3611C97.815 108.833 98.2501 108.652 98.571 108.332C98.8919 108.011 99.0725 107.575 99.0731 107.122C99.0737 106.671 98.8965 106.239 98.58 105.918C98.2636 105.598 97.8334 105.415 97.383 105.41C95.7519 105.39 93.5327 105.375 93.5327 105.434Z" fill="white" stroke="#232323" stroke-width="0.43728" stroke-linecap="round" stroke-linejoin="round"/>
<path d="M93.5327 112.351V115.762H97.864C98.3178 115.762 98.7529 115.581 99.0739 115.26C99.3948 114.939 99.5753 114.504 99.5759 114.05C99.5765 113.6 99.3994 113.167 99.0829 112.847C98.7664 112.526 98.3363 112.344 97.8858 112.338C96.257 112.317 93.5327 112.301 93.5327 112.351Z" fill="white" stroke="#232323" stroke-width="0.43728" stroke-linecap="round" stroke-linejoin="round"/>
<path d="M120.885 103.923C121.325 103.908 121.754 103.776 122.127 103.54C122.499 103.304 122.803 102.974 123.005 102.582L124.457 101.577" stroke="#232323" stroke-width="0.43728" stroke-linecap="round" stroke-linejoin="round"/>
<path d="M121.108 97.1121L120.438 99.1214L119.658 101.354" stroke="#232323" stroke-width="0.43728" stroke-linecap="round" stroke-linejoin="round"/>
<path d="M99.5236 135.746C99.4714 136.593 99.1962 137.411 98.7258 138.117C98.2554 138.823 97.6066 139.392 96.8452 139.767" stroke="#232323" stroke-width="0.43728" stroke-linecap="round" stroke-linejoin="round"/>
<path d="M102.309 140.882C102.073 140.561 101.859 140.225 101.668 139.876C101.377 139.344 101.144 138.783 100.971 138.201" stroke="#232323" stroke-width="0.43728" stroke-linecap="round" stroke-linejoin="round"/>
<defs>
<linearGradient id="paint0_linear_106_3312" x1="165.316" y1="139.667" x2="165.475" y2="171.227" gradientUnits="userSpaceOnUse">
<stop stop-color="#FB6008"/>
<stop offset="1" stop-color="#FB6008"/>
</linearGradient>
<linearGradient id="paint1_linear_106_3312" x1="151.749" y1="156.332" x2="152.475" y2="204.009" gradientUnits="userSpaceOnUse">
<stop stop-color="#FB6008"/>
<stop offset="1" stop-color="#FB6008"/>
</linearGradient>
<linearGradient id="paint2_linear_106_3312" x1="177.143" y1="156.332" x2="177.867" y2="204.009" gradientUnits="userSpaceOnUse">
<stop stop-color="#FB6008"/>
<stop offset="1" stop-color="#FB6008"/>
</linearGradient>
<linearGradient id="paint3_linear_106_3312" x1="123.54" y1="11.6418" x2="123.716" y2="46.4188" gradientUnits="userSpaceOnUse">
<stop stop-color="#FB6008"/>
<stop offset="1" stop-color="#FB6008"/>
</linearGradient>
<linearGradient id="paint4_linear_106_3312" x1="108.591" y1="30.0058" x2="109.39" y2="82.54" gradientUnits="userSpaceOnUse">
<stop stop-color="#FB6008"/>
<stop offset="1" stop-color="#FB6008"/>
</linearGradient>
<linearGradient id="paint5_linear_106_3312" x1="136.572" y1="30.0058" x2="137.371" y2="82.54" gradientUnits="userSpaceOnUse">
<stop stop-color="#FB6008"/>
<stop offset="1" stop-color="#FB6008"/>
</linearGradient>
<linearGradient id="paint6_linear_106_3312" x1="36.4796" y1="142.705" x2="36.6554" y2="177.482" gradientUnits="userSpaceOnUse">
<stop stop-color="#FB6008"/>
<stop offset="1" stop-color="#FB6008"/>
</linearGradient>
<linearGradient id="paint7_linear_106_3312" x1="21.5309" y1="161.07" x2="22.3301" y2="213.604" gradientUnits="userSpaceOnUse">
<stop stop-color="#FB6008"/>
<stop offset="1" stop-color="#FB6008"/>
</linearGradient>
<linearGradient id="paint8_linear_106_3312" x1="49.512" y1="161.07" x2="50.3106" y2="213.604" gradientUnits="userSpaceOnUse">
<stop stop-color="#FB6008"/>
<stop offset="1" stop-color="#FB6008"/>
</linearGradient>
</defs>
</svg>
