<svg width="191" height="211" viewBox="0 0 191 211" fill="none" xmlns="http://www.w3.org/2000/svg">
<path d="M124.664 205.104H57.969C57.3327 205.123 56.729 205.39 56.2858 205.847C55.8426 206.304 55.5947 206.915 55.5947 207.552C55.5947 208.188 55.8426 208.8 56.2858 209.257C56.729 209.714 57.3327 209.981 57.969 210H124.664C125.3 209.981 125.904 209.714 126.347 209.257C126.79 208.8 127.038 208.188 127.038 207.552C127.038 206.915 126.79 206.304 126.347 205.847C125.904 205.39 125.3 205.123 124.664 205.104V205.104Z" stroke="#232323" stroke-width="0.459094" stroke-miterlimit="10"/>
<path d="M111.268 190.002C98.2845 190.064 85.2991 189.896 72.3159 189.958L66.5359 205.033H116.097L111.268 190.002Z" stroke="#232323" stroke-width="0.459094" stroke-miterlimit="10"/>
<path d="M4.63851 78.7151H178.077C178.536 78.7148 178.989 78.8048 179.413 78.9801C179.836 79.1553 180.221 79.4123 180.545 79.7364C180.869 80.0604 181.126 80.4452 181.301 80.8686C181.477 81.2921 181.567 81.7459 181.566 82.2042V186.969C181.566 187.791 181.24 188.578 180.66 189.159C180.079 189.74 179.291 190.066 178.47 190.066H4.16105C3.33978 190.066 2.55215 189.74 1.97143 189.159C1.39071 188.578 1.06446 187.791 1.06446 186.969V82.296C1.06355 81.8261 1.15533 81.3606 1.33454 80.9262C1.51375 80.4918 1.77687 80.0969 2.10884 79.7643C2.44081 79.4317 2.83511 79.1679 3.26919 78.9878C3.70326 78.8078 4.16858 78.7151 4.63851 78.7151V78.7151Z" stroke="#232323" stroke-width="0.459094" stroke-miterlimit="10"/>
<path d="M1 172.882H181.633" stroke="#232323" stroke-width="0.459094" stroke-miterlimit="10"/>
<path d="M55.8022 207.454H126.831" stroke="#232323" stroke-width="0.459094" stroke-miterlimit="10"/>
<path d="M92.6648 184.786C94.4627 184.041 95.3164 181.98 94.5717 180.182C93.827 178.384 91.7659 177.531 89.968 178.275C88.1701 179.02 87.3163 181.081 88.061 182.879C88.8057 184.677 90.8669 185.531 92.6648 184.786Z" stroke="#232323" stroke-width="0.459094" stroke-miterlimit="10"/>
<path d="M181.569 173.128V82.3741C181.569 81.4036 181.183 80.473 180.497 79.7868C179.811 79.1006 178.88 78.7151 177.91 78.7151H4.72343C3.75301 78.7151 2.82234 79.1006 2.13614 79.7868C1.44995 80.473 1.06445 81.4036 1.06445 82.3741V173.128H181.569Z" fill="white" stroke="#232323" stroke-width="0.459094" stroke-linecap="round" stroke-linejoin="round"/>
<path d="M163.214 111.242H100.275C98.8509 111.242 97.6968 112.396 97.6968 113.82V152.076C97.6968 153.5 98.8509 154.654 100.275 154.654H163.214C164.638 154.654 165.792 153.5 165.792 152.076V113.82C165.792 112.396 164.638 111.242 163.214 111.242Z" fill="url(#paint0_linear_108_3785)" stroke="#232323" stroke-width="0.459094" stroke-miterlimit="10"/>
<path d="M100.275 111.242H163.212C163.895 111.242 164.551 111.514 165.035 111.997C165.518 112.48 165.79 113.136 165.79 113.82V117.669H97.6968V113.822C97.6965 113.484 97.7629 113.148 97.8921 112.835C98.0214 112.523 98.211 112.238 98.4502 111.999C98.6893 111.759 98.9733 111.569 99.286 111.439C99.5986 111.309 99.9338 111.242 100.272 111.242H100.275Z" fill="white" stroke="#232323" stroke-width="0.459094" stroke-linecap="round" stroke-linejoin="round"/>
<path d="M89.1209 95.743C90.3007 95.6673 91.1868 95.6673 91.5288 95.6696C92.9049 95.6764 94.2793 95.7661 95.6446 95.9381C95.6446 95.9381 96.6845 96.0414 97.7863 96.2228C101.941 96.9114 106.121 98.8419 106.121 98.8419C111.977 101.546 115.422 105.111 116.203 105.942C116.554 106.318 116.832 106.63 116.96 106.78C118.959 109.068 120.595 111.649 121.811 114.433L122.559 116.561C123.007 118.122 123.303 119.717 123.615 121.308C125.081 121.45 126.467 122.043 127.581 123.006C127.995 123.376 128.823 124.092 129.156 125.283C129.292 125.785 129.358 126.302 129.354 126.821C129.354 131.541 129.357 136.26 129.365 140.98C129.365 142.082 129.425 143.19 129.135 144.274C128.754 144.985 128.292 145.651 127.758 146.257L127.586 146.374C126.882 146.856 126.117 147.242 125.311 147.522C125.088 147.595 124.857 147.637 124.623 147.648C123.801 147.579 123.672 148.038 123.769 148.697C123.624 149.543 123.544 150.399 123.528 151.257C123.493 151.78 123.298 152.287 123.369 152.822C123.17 152.981 123.218 153.194 123.241 153.401C123.144 153.933 123.041 154.463 122.954 155.007C122.917 155.237 122.869 155.432 123.154 155.604C124.531 156.44 125.32 157.718 125.786 159.227C125.858 159.984 125.862 160.746 125.8 161.504C125.288 164.052 123.686 165.539 121.232 166.2L119.093 166.216C116.404 165.532 114.835 163.822 114.385 161.086C114.433 160.466 114.362 159.835 114.525 159.224C114.871 157.721 115.751 156.587 116.97 155.687L117.977 155.164C118.308 154.9 118.983 155.182 119.063 154.576C119.221 153.396 119.563 152.241 119.554 151.039C119.653 150.254 119.731 149.432 119.784 148.564C119.871 147.189 119.885 145.809 119.827 144.432V123.11C119.774 121.616 119.525 120.136 119.088 118.707C118.95 118.026 118.738 117.363 118.457 116.728C117.883 115.113 117.091 113.583 116.104 112.181C115.751 111.619 115.337 111.033 114.862 110.416C114.205 109.573 113.488 108.779 112.716 108.04C110.866 106.149 108.731 104.559 106.39 103.327C105.632 102.93 104.893 102.595 104.181 102.306C101.502 101.154 98.6853 100.354 95.8007 99.9254C94.8205 99.7853 94.024 99.7165 93.5213 99.6798C89.9303 99.4275 86.3224 99.7829 82.8496 100.731C81.3978 101.126 79.9763 101.624 78.5961 102.223C75.3731 103.557 72.4373 105.499 69.9491 107.943C68.6293 109.263 67.4563 110.721 66.4508 112.293C65.5162 113.609 64.7734 115.05 64.2449 116.574C63.9657 117.258 63.7213 117.955 63.5126 118.663C63.1914 119.692 62.973 120.75 62.8607 121.822C62.8469 122.001 62.8079 122.687 62.7803 123.521V144.568C62.8069 145.135 62.7699 145.703 62.6702 146.262C62.4123 146.835 61.9413 147.284 61.3572 147.515C60.6479 147.85 59.8812 147.774 59.1328 147.82L57.4204 147.563C56.6786 147.309 55.9691 146.968 55.3063 146.549C54.4416 145.869 53.8017 144.944 53.4699 143.895C53.3363 143.44 53.2728 142.967 53.2817 142.493C53.3276 137.527 53.3597 132.565 53.2817 127.602C53.2518 125.752 53.688 124.214 55.0905 122.988C56.1507 122.458 57.2571 122.026 58.396 121.698C58.6003 121.641 58.8 121.585 58.9997 121.537C59.2223 119.853 59.5941 118.193 60.1107 116.574C60.4413 115.541 60.7511 114.768 60.8774 114.467C61.5047 112.975 62.2589 111.54 63.1316 110.177C63.8335 109.078 64.6121 108.03 65.4615 107.041C66.8367 105.425 68.3899 103.969 70.0914 102.701L71.5054 101.656C76.7275 98.1179 82.817 96.0732 89.1163 95.743H89.1209Z" fill="url(#paint1_linear_108_3785)" stroke="white" stroke-width="0.459094" stroke-miterlimit="10"/>
<path d="M123.615 121.312L123.909 147.609" stroke="white" stroke-width="0.459094" stroke-miterlimit="10"/>
<path d="M58.9653 121.7V147.609" stroke="white" stroke-width="0.459094" stroke-miterlimit="10"/>
<path d="M33.2698 93.0527H17.2015C15.7448 93.0527 14.564 94.2336 14.564 95.6902V162.688C14.564 164.145 15.7448 165.326 17.2015 165.326H33.2698C34.7264 165.326 35.9072 164.145 35.9072 162.688V95.6902C35.9072 94.2336 34.7264 93.0527 33.2698 93.0527Z" fill="url(#paint2_linear_108_3785)" stroke="#232323" stroke-width="0.459094" stroke-miterlimit="10"/>
<path d="M160.014 113.303L162.562 115.851" stroke="#232323" stroke-width="0.459094" stroke-miterlimit="10"/>
<path d="M162.562 113.303L160.014 115.851" stroke="#232323" stroke-width="0.459094" stroke-miterlimit="10"/>
<path d="M14.564 157.323H35.9118V162.725C35.9118 163.415 35.6376 164.077 35.1494 164.565C34.6612 165.054 33.9992 165.328 33.3088 165.328H17.1716C16.4812 165.328 15.8191 165.054 15.331 164.565C14.8428 164.077 14.5686 163.415 14.5686 162.725V157.323H14.564Z" fill="white" stroke="#232323" stroke-width="0.459094" stroke-linecap="round" stroke-linejoin="round"/>
<path d="M37.3949 1.002C36.6901 0.982753 35.9885 1.10261 35.3301 1.3547C34.6718 1.6068 34.0695 1.98619 33.5579 2.4712C33.0462 2.9562 32.6352 3.5373 32.3483 4.18127C32.0614 4.82524 31.9042 5.51944 31.8857 6.22419C31.8857 6.29306 31.8857 6.36192 31.8857 6.43079L32.7741 81.1713C32.7753 81.9571 33.0883 82.7103 33.6444 83.2654C34.2004 83.8206 34.9541 84.1325 35.7398 84.1325H44.8827L38.9925 102.783L65.5006 84.1325C134.463 83.7606 147.545 83.5058 147.851 83.3497C147.902 83.3242 147.951 83.2951 147.998 83.2625C148.274 82.9882 148.493 82.6617 148.643 82.3019C148.792 81.9421 148.869 81.5563 148.868 81.1667C148.868 80.3197 149.294 49.7188 149.894 6.85775C149.912 5.43452 149.364 4.06223 148.371 3.04252C147.378 2.02281 146.021 1.43913 144.598 1.41978C144.4 1.41456 144.202 1.423 144.006 1.44503C140.521 1.90412 124.581 1.72966 123.055 1.70441C113.157 1.53685 47.5271 1.26598 37.3949 1.002Z" fill="#E9E9E9" stroke="#232323" stroke-width="0.459094" stroke-miterlimit="10"/>
<path d="M134.238 33.2075H88.8753C88.3897 33.2075 87.9961 33.6011 87.9961 34.0867V34.3208C87.9961 34.8064 88.3897 35.2 88.8753 35.2H134.238C134.724 35.2 135.118 34.8064 135.118 34.3208V34.0867C135.118 33.6011 134.724 33.2075 134.238 33.2075Z" fill="#E9E9E9" stroke="#232323" stroke-width="0.459094" stroke-miterlimit="10"/>
<path d="M134.238 43.9685H88.8753C88.3897 43.9685 87.9961 44.3621 87.9961 44.8477V45.0818C87.9961 45.5674 88.3897 45.961 88.8753 45.961H134.238C134.724 45.961 135.118 45.5674 135.118 45.0818V44.8477C135.118 44.3621 134.724 43.9685 134.238 43.9685Z" fill="#E9E9E9" stroke="#232323" stroke-width="0.459094" stroke-miterlimit="10"/>
<path d="M134.238 55.127H88.8753C88.3897 55.127 87.9961 55.5206 87.9961 56.0061V56.2403C87.9961 56.7258 88.3897 57.1194 88.8753 57.1194H134.238C134.724 57.1194 135.118 56.7258 135.118 56.2403V56.0061C135.118 55.5206 134.724 55.127 134.238 55.127Z" fill="#E9E9E9" stroke="#232323" stroke-width="0.459094" stroke-miterlimit="10"/>
<path d="M53.4976 13.7533C52.3411 13.753 51.196 13.9805 50.1275 14.423C49.0591 14.8654 48.0882 15.514 47.2705 16.3317C46.4528 17.1494 45.8042 18.1202 45.3618 19.1887C44.9194 20.2571 44.6918 21.4023 44.6921 22.5587V48.0384C44.6918 48.4327 44.7692 48.8232 44.9198 49.1876C45.0704 49.552 45.2913 49.8832 45.5699 50.1622C45.8485 50.4412 46.1793 50.6626 46.5435 50.8138C46.9077 50.965 47.298 51.0429 47.6923 51.0432H54.1196C54.9162 51.0426 55.6798 50.7258 56.2428 50.1623C56.8059 49.5989 57.1221 48.835 57.1221 48.0384V37.9935C57.1221 37.1969 56.8059 36.433 56.2428 35.8696C55.6798 35.3061 54.9162 34.9893 54.1196 34.9887H51.427V31.3687C51.427 26.5046 51.9435 20.4882 58.6784 21.5235V13.7533H53.4976Z" fill="white" stroke="#232323" stroke-width="0.459094" stroke-linecap="round" stroke-linejoin="round"/>
<path d="M71.6317 13.7533C69.2957 13.7533 67.0555 14.6812 65.4037 16.333C63.7519 17.9848 62.824 20.2251 62.824 22.561V48.0407C62.824 48.8373 63.1402 49.6012 63.7032 50.1646C64.2662 50.7281 65.0299 51.0449 65.8265 51.0455H72.2538C73.0507 51.0455 73.815 50.7289 74.3785 50.1654C74.942 49.6019 75.2585 48.8377 75.2585 48.0407V37.9935C75.2585 37.1966 74.942 36.4323 74.3785 35.8688C73.815 35.3053 73.0507 34.9887 72.2538 34.9887H69.5589V31.3687C69.5589 26.5046 70.0777 20.4882 76.8126 21.5235V13.7533H71.6317Z" fill="white" stroke="#232323" stroke-width="0.459094" stroke-linecap="round" stroke-linejoin="round"/>
<path d="M183.871 46.3169H124.648C122.814 46.3175 121.055 47.0463 119.757 48.3431C118.46 49.64 117.731 51.3988 117.729 53.2331V91.7259C117.731 93.5602 118.46 95.319 119.757 96.6159C121.055 97.9127 122.814 98.6415 124.648 98.6421H164.435L186.637 114.71L181.44 98.6421H183.864C185.699 98.6421 187.458 97.9135 188.755 96.6164C190.052 95.3194 190.781 93.5602 190.781 91.7259V53.2331C190.781 51.4 190.053 49.6419 188.757 48.345C187.462 47.0482 185.704 46.3187 183.871 46.3169Z" fill="#E9E9E9" stroke="#232323" stroke-width="0.459094" stroke-miterlimit="10"/>
<path d="M140.689 76.6012C142.249 76.6012 143.514 75.336 143.514 73.7754C143.514 72.2148 142.249 70.9497 140.689 70.9497C139.128 70.9497 137.863 72.2148 137.863 73.7754C137.863 75.336 139.128 76.6012 140.689 76.6012Z" fill="white" stroke="#232323" stroke-width="0.459094" stroke-linecap="round" stroke-linejoin="round"/>
<path d="M154.005 76.6012C155.565 76.6012 156.83 75.336 156.83 73.7754C156.83 72.2148 155.565 70.9497 154.005 70.9497C152.444 70.9497 151.179 72.2148 151.179 73.7754C151.179 75.336 152.444 76.6012 154.005 76.6012Z" fill="white" stroke="#232323" stroke-width="0.459094" stroke-linecap="round" stroke-linejoin="round"/>
<path d="M167.321 76.6012C168.881 76.6012 170.146 75.336 170.146 73.7754C170.146 72.2148 168.881 70.9497 167.321 70.9497C165.76 70.9497 164.495 72.2148 164.495 73.7754C164.495 75.336 165.76 76.6012 167.321 76.6012Z" fill="white" stroke="#232323" stroke-width="0.459094" stroke-linecap="round" stroke-linejoin="round"/>
<defs>
<linearGradient id="paint0_linear_108_3785" x1="134.061" y1="117.271" x2="134.329" y2="164.511" gradientUnits="userSpaceOnUse">
<stop stop-color="#FB6008"/>
<stop offset="1" stop-color="#FB6008"/>
</linearGradient>
<linearGradient id="paint1_linear_108_3785" x1="93.9142" y1="105.467" x2="94.5472" y2="182.233" gradientUnits="userSpaceOnUse">
<stop stop-color="#FB6008"/>
<stop offset="1" stop-color="#FB6008"/>
</linearGradient>
<linearGradient id="paint2_linear_108_3785" x1="25.9618" y1="103.091" x2="28.3281" y2="181.668" gradientUnits="userSpaceOnUse">
<stop stop-color="#FB6008"/>
<stop offset="1" stop-color="#FB6008"/>
</linearGradient>
</defs>
</svg>
