<svg width="215" height="211" viewBox="0 0 215 211" fill="none" xmlns="http://www.w3.org/2000/svg">
<path d="M50.0801 1.66393L43.2235 18.8652M48.1029 1.05614C21.9996 1.05614 0.841553 22.2166 0.841553 48.3224C0.841553 74.4281 21.9996 95.5862 48.1029 95.5862C74.2062 95.5862 95.3642 74.4208 95.3642 48.3224C95.3642 22.2239 74.2038 1.05614 48.1029 1.05614ZM48.1029 77.9626C42.2393 77.9631 36.5073 76.2247 31.6318 72.9674C26.7562 69.71 22.9562 65.0799 20.7122 59.6627C18.4682 54.2456 17.881 48.2846 19.025 42.5337C20.169 36.7828 22.9927 31.5003 27.139 27.3543C31.2854 23.2084 36.5681 20.3851 42.3191 19.2416C48.0701 18.0981 54.031 18.6857 59.448 20.9301C64.865 23.1746 69.4947 26.975 72.7517 31.8508C76.0087 36.7266 77.7465 42.4588 77.7456 48.3224V48.3224C77.7436 56.1833 74.6199 63.7216 69.0611 69.2799C63.5024 74.8382 55.9638 77.9613 48.1029 77.9626V77.9626ZM18.4578 48.3224H0.841553H18.4578ZM50.1997 1.41496C49.3404 7.17556 48.4821 12.937 47.6245 18.6992L50.1997 1.41496ZM29.171 4.98849L36.7379 20.7764L29.171 4.98849ZM35.0756 2.92101L31.9195 10.566L35.0756 2.92101ZM33.6623 14.4715L39.1471 1.92267L33.6623 14.4715ZM42.9696 1.34173L35.908 18.6992L42.9696 1.34173ZM39.0641 19.8611C41.5864 13.5765 44.1087 7.28947 46.631 1L39.0641 19.8611Z" stroke="#232323" stroke-width="0.488187" stroke-linecap="round" stroke-linejoin="round"/>
<path d="M91.4563 14.3787L101.247 4.58573C102.76 3.07454 104.811 2.22559 106.949 2.22534H173.721" stroke="#232323" stroke-width="0.488187" stroke-linecap="round" stroke-linejoin="round"/>
<path d="M172.5 7.66858H165.043V15.1256H172.5V7.66858Z" stroke="#232323" stroke-width="0.488187" stroke-linecap="round" stroke-linejoin="round"/>
<path d="M159.878 7.66858H152.421V15.1256H159.878V7.66858Z" stroke="#232323" stroke-width="0.488187" stroke-linecap="round" stroke-linejoin="round"/>
<path d="M147.258 7.66858H139.801V15.1256H147.258V7.66858Z" stroke="#232323" stroke-width="0.488187" stroke-linecap="round" stroke-linejoin="round"/>
<path d="M206.253 129.291C207.165 129.291 207.903 128.552 207.903 127.641C207.903 126.729 207.165 125.99 206.253 125.99C205.342 125.99 204.603 126.729 204.603 127.641C204.603 128.552 205.342 129.291 206.253 129.291Z" stroke="#232323" stroke-width="0.488187" stroke-linecap="round" stroke-linejoin="round"/>
<path d="M206.253 138.676C207.165 138.676 207.903 137.937 207.903 137.026C207.903 136.114 207.165 135.376 206.253 135.376C205.342 135.376 204.603 136.114 204.603 137.026C204.603 137.937 205.342 138.676 206.253 138.676Z" stroke="#232323" stroke-width="0.488187" stroke-linecap="round" stroke-linejoin="round"/>
<path d="M15.4043 136.167H20.2471L17.8257 140.36L15.4043 144.554L12.9854 140.36L10.564 136.167H15.4043Z" stroke="#232323" stroke-width="0.488187" stroke-linecap="round" stroke-linejoin="round"/>
<path d="M161.755 33.7036H172.6" stroke="#232323" stroke-width="0.488187" stroke-linecap="round" stroke-linejoin="round"/>
<path d="M161.755 40.8066H172.6" stroke="#232323" stroke-width="0.488187" stroke-linecap="round" stroke-linejoin="round"/>
<path d="M161.755 47.9121H172.6" stroke="#232323" stroke-width="0.488187" stroke-linecap="round" stroke-linejoin="round"/>
<path d="M186.436 30.4573V58.5012" stroke="#232323" stroke-width="0.488187" stroke-linecap="round" stroke-linejoin="round"/>
<path d="M180.077 41.6755L186.436 48.0317L192.418 42.7959L196.905 48.4051L213.732 27.4644" stroke="#232323" stroke-width="0.488187" stroke-linecap="round" stroke-linejoin="round"/>
<path d="M173.347 58.5012H191.295" stroke="#232323" stroke-width="0.488187" stroke-linecap="round" stroke-linejoin="round"/>
<path d="M206.253 129.291V135.378" stroke="#232323" stroke-width="0.488187" stroke-linecap="round" stroke-linejoin="round"/>
<path d="M209.431 28.6484L213.608 27.3303L213.981 31.7557" stroke="#232323" stroke-width="0.488187" stroke-linecap="round" stroke-linejoin="round"/>
<path d="M206.253 138.676V154.784" stroke="#232323" stroke-width="0.488187" stroke-miterlimit="10"/>
<path d="M15.4041 144.554V159.377" stroke="#232323" stroke-width="0.488187" stroke-linecap="round" stroke-linejoin="round"/>
<path d="M180.451 96.0818H42.2842V188.068H180.451V96.0818Z" fill="url(#paint0_linear_108_3480)"/>
<path d="M54.1667 105.616H39.8579V181.817H54.1667V105.616Z" fill="#E9E9E9" stroke="#232323" stroke-width="0.488187" stroke-linecap="round" stroke-linejoin="round"/>
<path d="M44.5979 111.579V156.67" stroke="#232323" stroke-width="0.488187" stroke-linecap="round" stroke-linejoin="round"/>
<path d="M49.8022 124.584C49.3677 125.019 49.8022 181.683 49.8022 181.683V124.584Z" fill="#E9E9E9"/>
<path d="M49.8022 124.584C49.3677 125.019 49.8022 181.683 49.8022 181.683" stroke="#232323" stroke-width="0.488187" stroke-linecap="round" stroke-linejoin="round"/>
<path d="M38.0272 181.817H55.9949C56.2814 181.817 56.5652 181.874 56.83 181.983C57.0947 182.093 57.3353 182.254 57.5379 182.456C57.7406 182.659 57.9013 182.899 58.011 183.164C58.1206 183.429 58.1771 183.713 58.1771 183.999V187.456H35.8474V183.999C35.8512 183.422 36.082 182.87 36.4899 182.461C36.8978 182.053 37.45 181.822 38.0272 181.817Z" fill="#E9E9E9" stroke="#232323" stroke-width="0.488187" stroke-linecap="round" stroke-linejoin="round"/>
<path d="M58.7703 97.0311C58.503 96.9456 58.2297 96.8804 57.9526 96.8358C57.3717 96.7601 56.7834 96.7601 56.2025 96.8358H34.9883C34.3317 97.1873 32.3643 98.3516 31.6467 100.671C31.3038 101.781 31.3186 102.972 31.6889 104.074C32.0592 105.176 32.7664 106.134 33.7105 106.812C34.6547 107.491 35.7881 107.856 36.9507 107.855C38.1134 107.855 39.2464 107.489 40.19 106.809H53.825C54.4752 107.278 55.2192 107.6 56.0059 107.754C56.7926 107.907 57.6032 107.889 58.3819 107.699C59.1606 107.509 59.8889 107.152 60.5166 106.654C61.1443 106.156 61.6565 105.527 62.0179 104.812C62.3794 104.096 62.5815 103.311 62.6103 102.51C62.6391 101.709 62.4939 100.911 62.1848 100.172C61.8756 99.4323 61.4099 98.7686 60.8196 98.2264C60.2293 97.6842 59.5285 97.2764 58.7655 97.0311H58.7703Z" fill="#E9E9E9" stroke="#232323" stroke-width="0.488187" stroke-linecap="round" stroke-linejoin="round"/>
<path d="M36.8676 104.993C38.3478 104.993 39.5478 103.793 39.5478 102.313C39.5478 100.833 38.3478 99.6331 36.8676 99.6331C35.3874 99.6331 34.1875 100.833 34.1875 102.313C34.1875 103.793 35.3874 104.993 36.8676 104.993Z" fill="#E9E9E9" stroke="#232323" stroke-width="0.488187" stroke-linecap="round" stroke-linejoin="round"/>
<path d="M57.2422 104.993C58.7224 104.993 59.9223 103.793 59.9223 102.313C59.9223 100.833 58.7224 99.6331 57.2422 99.6331C55.762 99.6331 54.562 100.833 54.562 102.313C54.562 103.793 55.762 104.993 57.2422 104.993Z" fill="#E9E9E9" stroke="#232323" stroke-width="0.488187" stroke-linecap="round" stroke-linejoin="round"/>
<path d="M87.3217 105.616H73.0129V181.817H87.3217V105.616Z" fill="#E9E9E9" stroke="#232323" stroke-width="0.488187" stroke-linecap="round" stroke-linejoin="round"/>
<path d="M77.7534 111.579V156.67" stroke="#232323" stroke-width="0.488187" stroke-linecap="round" stroke-linejoin="round"/>
<path d="M82.9575 124.584C82.523 125.019 82.9575 181.683 82.9575 181.683V124.584Z" fill="#E9E9E9"/>
<path d="M82.9575 124.584C82.523 125.019 82.9575 181.683 82.9575 181.683" stroke="#232323" stroke-width="0.488187" stroke-linecap="round" stroke-linejoin="round"/>
<path d="M71.1824 181.817H89.1502C89.4367 181.817 89.7205 181.874 89.9852 181.983C90.25 182.093 90.4906 182.254 90.6932 182.456C90.8958 182.659 91.0566 182.899 91.1662 183.164C91.2759 183.429 91.3323 183.713 91.3323 183.999V187.456H69.0027V183.999C69.0065 183.422 69.2373 182.87 69.6452 182.461C70.0531 182.053 70.6053 181.822 71.1824 181.817Z" fill="#E9E9E9" stroke="#232323" stroke-width="0.488187" stroke-linecap="round" stroke-linejoin="round"/>
<path d="M91.9251 97.0311C91.6578 96.9456 91.3845 96.8804 91.1074 96.8358C90.5265 96.7601 89.9382 96.7601 89.3573 96.8358H68.1431C67.4938 97.1873 65.5191 98.3614 64.8088 100.671C64.4659 101.781 64.4807 102.972 64.851 104.074C65.2213 105.176 65.9285 106.134 66.8726 106.812C67.8168 107.491 68.9502 107.856 70.1128 107.855C71.2755 107.855 72.4085 107.489 73.3521 106.809H86.9871C87.6373 107.278 88.3813 107.6 89.168 107.754C89.9547 107.907 90.7653 107.889 91.544 107.699C92.3227 107.509 93.051 107.152 93.6787 106.654C94.3064 106.156 94.8186 105.527 95.1801 104.812C95.5415 104.096 95.7436 103.311 95.7724 102.51C95.8012 101.709 95.656 100.911 95.3469 100.172C95.0378 99.4323 94.572 98.7686 93.9817 98.2264C93.3914 97.6842 92.6906 97.2764 91.9276 97.0311H91.9251Z" fill="#E9E9E9" stroke="#232323" stroke-width="0.488187" stroke-linecap="round" stroke-linejoin="round"/>
<path d="M70.0227 104.993C71.5029 104.993 72.7028 103.793 72.7028 102.313C72.7028 100.833 71.5029 99.6331 70.0227 99.6331C68.5425 99.6331 67.3425 100.833 67.3425 102.313C67.3425 103.793 68.5425 104.993 70.0227 104.993Z" fill="#E9E9E9" stroke="#232323" stroke-width="0.488187" stroke-linecap="round" stroke-linejoin="round"/>
<path d="M90.3974 104.993C91.8776 104.993 93.0776 103.793 93.0776 102.313C93.0776 100.833 91.8776 99.6331 90.3974 99.6331C88.9172 99.6331 87.7173 100.833 87.7173 102.313C87.7173 103.793 88.9172 104.993 90.3974 104.993Z" fill="#E9E9E9" stroke="#232323" stroke-width="0.488187" stroke-linecap="round" stroke-linejoin="round"/>
<path d="M120.477 105.616H106.168V181.817H120.477V105.616Z" fill="#E9E9E9" stroke="#232323" stroke-width="0.488187" stroke-linecap="round" stroke-linejoin="round"/>
<path d="M110.908 111.579V156.67" stroke="#232323" stroke-width="0.488187" stroke-linecap="round" stroke-linejoin="round"/>
<path d="M116.112 124.584C115.678 125.019 116.112 181.683 116.112 181.683V124.584Z" fill="#E9E9E9"/>
<path d="M116.112 124.584C115.678 125.019 116.112 181.683 116.112 181.683" stroke="#232323" stroke-width="0.488187" stroke-linecap="round" stroke-linejoin="round"/>
<path d="M104.337 181.817H122.305C122.592 181.817 122.876 181.874 123.14 181.983C123.405 182.093 123.646 182.254 123.848 182.456C124.051 182.659 124.212 182.899 124.321 183.164C124.431 183.429 124.487 183.713 124.487 183.999V187.456H102.155V183.999C102.155 183.713 102.212 183.429 102.321 183.164C102.431 182.899 102.592 182.659 102.794 182.456C102.997 182.254 103.238 182.093 103.502 181.983C103.767 181.874 104.051 181.817 104.337 181.817Z" fill="#E9E9E9" stroke="#232323" stroke-width="0.488187" stroke-linecap="round" stroke-linejoin="round"/>
<path d="M125.081 97.0311C124.813 96.9456 124.54 96.8804 124.263 96.8358C123.682 96.7601 123.094 96.7601 122.513 96.8358H101.299C100.642 97.1873 98.6746 98.3516 97.957 100.671C97.6141 101.781 97.6289 102.972 97.9992 104.074C98.3695 105.176 99.0767 106.134 100.021 106.812C100.965 107.491 102.098 107.856 103.261 107.855C104.424 107.855 105.557 107.489 106.5 106.809H120.135C120.785 107.278 121.53 107.6 122.316 107.754C123.103 107.907 123.913 107.889 124.692 107.699C125.471 107.509 126.199 107.152 126.827 106.654C127.455 106.156 127.967 105.527 128.328 104.812C128.69 104.096 128.892 103.311 128.921 102.51C128.949 101.709 128.804 100.911 128.495 100.172C128.186 99.4323 127.72 98.7686 127.13 98.2264C126.54 97.6842 125.839 97.2764 125.076 97.0311H125.081Z" fill="#E9E9E9" stroke="#232323" stroke-width="0.488187" stroke-linecap="round" stroke-linejoin="round"/>
<path d="M104.204 104.79C105.572 104.224 106.221 102.656 105.655 101.288C105.088 99.9208 103.521 99.2714 102.153 99.8379C100.786 100.404 100.136 101.972 100.703 103.34C101.269 104.707 102.837 105.357 104.204 104.79Z" fill="#E9E9E9" stroke="#232323" stroke-width="0.488187" stroke-linecap="round" stroke-linejoin="round"/>
<path d="M123.553 104.993C125.033 104.993 126.233 103.793 126.233 102.313C126.233 100.833 125.033 99.6331 123.553 99.6331C122.072 99.6331 120.873 100.833 120.873 102.313C120.873 103.793 122.072 104.993 123.553 104.993Z" fill="#E9E9E9" stroke="#232323" stroke-width="0.488187" stroke-linecap="round" stroke-linejoin="round"/>
<path d="M153.632 105.616H139.323V181.817H153.632V105.616Z" fill="#E9E9E9" stroke="#232323" stroke-width="0.488187" stroke-linecap="round" stroke-linejoin="round"/>
<path d="M144.064 111.579V156.67" stroke="#232323" stroke-width="0.488187" stroke-linecap="round" stroke-linejoin="round"/>
<path d="M149.265 124.584C148.831 125.019 149.265 181.683 149.265 181.683V124.584Z" fill="#E9E9E9"/>
<path d="M149.265 124.584C148.831 125.019 149.265 181.683 149.265 181.683" stroke="#232323" stroke-width="0.488187" stroke-linecap="round" stroke-linejoin="round"/>
<path d="M137.493 181.817H155.46C155.747 181.817 156.031 181.874 156.296 181.983C156.56 182.093 156.801 182.254 157.003 182.456C157.206 182.659 157.367 182.899 157.477 183.164C157.586 183.429 157.643 183.713 157.643 183.999V187.456H135.313V183.999C135.317 183.422 135.548 182.87 135.956 182.461C136.363 182.053 136.916 181.822 137.493 181.817Z" fill="#E9E9E9" stroke="#232323" stroke-width="0.488187" stroke-linecap="round" stroke-linejoin="round"/>
<path d="M158.236 97.0311C157.968 96.9456 157.695 96.8804 157.418 96.8358C156.837 96.7601 156.249 96.7601 155.668 96.8358H134.454C133.797 97.1873 131.83 98.3516 131.112 100.671C130.769 101.781 130.784 102.972 131.154 104.074C131.525 105.176 132.232 106.134 133.176 106.812C134.12 107.491 135.253 107.856 136.416 107.855C137.579 107.855 138.712 107.489 139.655 106.809H153.29C153.941 107.278 154.685 107.6 155.471 107.754C156.258 107.907 157.069 107.889 157.847 107.699C158.626 107.509 159.354 107.152 159.982 106.654C160.61 106.156 161.122 105.527 161.483 104.812C161.845 104.096 162.047 103.311 162.076 102.51C162.104 101.709 161.959 100.911 161.65 100.172C161.341 99.4323 160.875 98.7686 160.285 98.2264C159.695 97.6842 158.994 97.2764 158.231 97.0311H158.236Z" fill="#E9E9E9" stroke="#232323" stroke-width="0.488187" stroke-linecap="round" stroke-linejoin="round"/>
<path d="M136.333 104.993C137.813 104.993 139.013 103.793 139.013 102.313C139.013 100.833 137.813 99.6331 136.333 99.6331C134.853 99.6331 133.653 100.833 133.653 102.313C133.653 103.793 134.853 104.993 136.333 104.993Z" fill="#E9E9E9" stroke="#232323" stroke-width="0.488187" stroke-linecap="round" stroke-linejoin="round"/>
<path d="M156.708 104.993C158.188 104.993 159.388 103.793 159.388 102.313C159.388 100.833 158.188 99.6331 156.708 99.6331C155.228 99.6331 154.028 100.833 154.028 102.313C154.028 103.793 155.228 104.993 156.708 104.993Z" fill="#E9E9E9" stroke="#232323" stroke-width="0.488187" stroke-linecap="round" stroke-linejoin="round"/>
<path d="M186.788 105.616H172.479V181.817H186.788V105.616Z" fill="#E9E9E9" stroke="#232323" stroke-width="0.488187" stroke-linecap="round" stroke-linejoin="round"/>
<path d="M177.219 111.579V156.67" stroke="#232323" stroke-width="0.488187" stroke-linecap="round" stroke-linejoin="round"/>
<path d="M182.423 124.584C181.988 125.019 182.423 181.683 182.423 181.683V124.584Z" fill="#E9E9E9"/>
<path d="M182.423 124.584C181.988 125.019 182.423 181.683 182.423 181.683" stroke="#232323" stroke-width="0.488187" stroke-linecap="round" stroke-linejoin="round"/>
<path d="M170.648 181.817H188.615C188.902 181.817 189.186 181.874 189.451 181.983C189.715 182.093 189.956 182.254 190.159 182.456C190.361 182.659 190.522 182.899 190.632 183.164C190.741 183.429 190.798 183.713 190.798 183.999V187.456H168.468V183.999C168.472 183.422 168.703 182.87 169.111 182.461C169.518 182.053 170.071 181.822 170.648 181.817Z" fill="#E9E9E9" stroke="#232323" stroke-width="0.488187" stroke-linecap="round" stroke-linejoin="round"/>
<path d="M191.389 97.0311C191.122 96.9453 190.85 96.8801 190.573 96.8358C189.993 96.7601 189.404 96.7601 188.823 96.8358H167.609C166.953 97.1873 164.985 98.3516 164.268 100.671C163.925 101.781 163.939 102.972 164.31 104.074C164.68 105.176 165.387 106.134 166.331 106.812C167.276 107.491 168.409 107.856 169.572 107.855C170.734 107.855 171.867 107.489 172.811 106.809H186.446C187.096 107.279 187.84 107.601 188.627 107.755C189.414 107.909 190.225 107.89 191.004 107.7C191.783 107.51 192.512 107.154 193.14 106.655C193.767 106.157 194.28 105.528 194.641 104.812C195.003 104.096 195.205 103.311 195.233 102.509C195.262 101.708 195.116 100.91 194.806 100.171C194.497 99.431 194.031 98.7673 193.44 98.2253C192.849 97.6833 192.147 97.2758 191.384 97.0311H191.389Z" fill="#E9E9E9" stroke="#232323" stroke-width="0.488187" stroke-linecap="round" stroke-linejoin="round"/>
<path d="M169.488 104.993C170.969 104.993 172.169 103.793 172.169 102.313C172.169 100.833 170.969 99.6331 169.488 99.6331C168.008 99.6331 166.808 100.833 166.808 102.313C166.808 103.793 168.008 104.993 169.488 104.993Z" fill="#E9E9E9" stroke="#232323" stroke-width="0.488187" stroke-linecap="round" stroke-linejoin="round"/>
<path d="M189.863 104.993C191.343 104.993 192.543 103.793 192.543 102.313C192.543 100.833 191.343 99.6331 189.863 99.6331C188.383 99.6331 187.183 100.833 187.183 102.313C187.183 103.793 188.383 104.993 189.863 104.993Z" fill="#E9E9E9" stroke="#232323" stroke-width="0.488187" stroke-linecap="round" stroke-linejoin="round"/>
<path d="M192.011 86.4302H114.348H34.9688V96.8359H192.011V86.4302Z" fill="white" stroke="#232323" stroke-width="0.488187" stroke-linecap="round" stroke-linejoin="round"/>
<path d="M37.2264 187.456H189.76C190.316 187.456 190.849 187.677 191.242 188.07C191.635 188.463 191.856 188.996 191.857 189.552V196.995H35.1199V189.55C35.1205 189.274 35.1755 189.001 35.2818 188.746C35.388 188.492 35.5434 188.261 35.739 188.066C35.9347 187.872 36.1667 187.718 36.4219 187.613C36.6772 187.508 36.9505 187.455 37.2264 187.456Z" fill="white" stroke="#232323" stroke-width="0.488187" stroke-linecap="round" stroke-linejoin="round"/>
<path d="M34.854 196.992H192.126C193.272 196.992 194.408 197.217 195.467 197.656C196.527 198.095 197.49 198.738 198.3 199.549C199.111 200.36 199.754 201.322 200.193 202.382C200.632 203.441 200.857 204.577 200.857 205.723V210H26.1228V205.723C26.1225 204.577 26.3481 203.441 26.7868 202.382C27.2254 201.322 27.8686 200.36 28.6794 199.549C29.4902 198.738 30.4529 198.095 31.5124 197.656C32.5718 197.217 33.7073 196.992 34.854 196.992Z" fill="white" stroke="#232323" stroke-width="0.488187" stroke-linecap="round" stroke-linejoin="round"/>
<path d="M113.489 86.4278H35.0127L74.2507 67.7864L113.489 49.1426L152.727 67.7864L191.965 86.4278H113.489Z" fill="white" stroke="#232323" stroke-width="0.488187" stroke-linecap="round" stroke-linejoin="round"/>
<path d="M113.489 77.7577H86.116L99.8023 71.2551L113.489 64.7524L127.175 71.2551L140.861 77.7577H113.489Z" fill="#E9E9E9" stroke="#232323" stroke-width="0.488187" stroke-linecap="round" stroke-linejoin="round"/>
<path d="M36.1914 191.808H190.785C191.401 191.808 191.992 192.052 192.427 192.488C192.862 192.923 193.107 193.513 193.107 194.129V196.995H33.8726V194.129C33.8726 193.514 34.1168 192.924 34.5516 192.488C34.9864 192.053 35.5762 191.808 36.1914 191.808Z" fill="white" stroke="#232323" stroke-width="0.488187" stroke-linecap="round" stroke-linejoin="round"/>
<path d="M94.3176 77.76L113.498 66.3535C120.421 70.259 127.343 73.9204 134.266 77.8259C120.951 77.7234 107.635 77.8576 94.3176 77.76Z" fill="#E9E9E9" stroke="#232323" stroke-width="0.488187" stroke-linecap="round" stroke-linejoin="round"/>
<defs>
<linearGradient id="paint0_linear_108_3480" x1="116.069" y1="108.858" x2="116.661" y2="208.956" gradientUnits="userSpaceOnUse">
<stop stop-color="#FB6008"/>
<stop offset="1" stop-color="#FB6008"/>
</linearGradient>
</defs>
</svg>
