<svg width="201" height="211" viewBox="0 0 201 211" fill="none" xmlns="http://www.w3.org/2000/svg">
<path d="M172.571 52.887H25.5275C22.583 52.887 20.196 55.2739 20.196 58.2184V204.668C20.196 207.613 22.583 210 25.5275 210H172.571C175.516 210 177.903 207.613 177.903 204.668V58.2184C177.903 55.2739 175.516 52.887 172.571 52.887Z" stroke="#232323" stroke-width="0.480747" stroke-miterlimit="10"/>
<path d="M20.79 71.0039H177.903" stroke="#232323" stroke-width="0.480747" stroke-miterlimit="10"/>
<path d="M144.914 65.6002C146.964 65.6002 148.625 63.9386 148.625 61.8889C148.625 59.8391 146.964 58.1775 144.914 58.1775C142.864 58.1775 141.203 59.8391 141.203 61.8889C141.203 63.9386 142.864 65.6002 144.914 65.6002Z" fill="#E9E9E9" stroke="#232323" stroke-width="0.480747" stroke-linecap="round" stroke-linejoin="round"/>
<path d="M155.476 65.6002C157.526 65.6002 159.187 63.9386 159.187 61.8889C159.187 59.8391 157.526 58.1775 155.476 58.1775C153.426 58.1775 151.765 59.8391 151.765 61.8889C151.765 63.9386 153.426 65.6002 155.476 65.6002Z" fill="#E9E9E9" stroke="#232323" stroke-width="0.480747" stroke-linecap="round" stroke-linejoin="round"/>
<path d="M166.038 65.6002C168.088 65.6002 169.749 63.9386 169.749 61.8889C169.749 59.8391 168.088 58.1775 166.038 58.1775C163.988 58.1775 162.327 59.8391 162.327 61.8889C162.327 63.9386 163.988 65.6002 166.038 65.6002Z" fill="#E9E9E9" stroke="#232323" stroke-width="0.480747" stroke-linecap="round" stroke-linejoin="round"/>
<path d="M28.2151 113.771H31.1861" stroke="#232323" stroke-width="0.480747" stroke-miterlimit="10"/>
<path d="M28.2151 126.247H31.1861" stroke="#232323" stroke-width="0.480747" stroke-miterlimit="10"/>
<path d="M28.2151 138.72H31.1861" stroke="#232323" stroke-width="0.480747" stroke-miterlimit="10"/>
<path d="M28.2151 151.195H31.1861" stroke="#232323" stroke-width="0.480747" stroke-miterlimit="10"/>
<path d="M28.2151 163.668H31.1861" stroke="#232323" stroke-width="0.480747" stroke-miterlimit="10"/>
<path d="M28.2151 176.141H31.1861" stroke="#232323" stroke-width="0.480747" stroke-miterlimit="10"/>
<path d="M28.2151 188.616H31.1861" stroke="#232323" stroke-width="0.480747" stroke-miterlimit="10"/>
<path d="M71.7082 26.1575H1.94703C0.871713 26.1575 0 27.0292 0 28.1045V94.599C0 95.6743 0.871713 96.5461 1.94703 96.5461H71.7082C72.7836 96.5461 73.6553 95.6743 73.6553 94.599V28.1045C73.6553 27.0292 72.7836 26.1575 71.7082 26.1575Z" fill="url(#paint0_linear_108_3545)"/>
<path d="M17.1075 43.1062H11.2544V87.6546H17.1075V43.1062Z" stroke="white" stroke-width="0.480747" stroke-miterlimit="10"/>
<path d="M28.4722 34.7676H22.6191V87.6546H28.4722V34.7676Z" stroke="white" stroke-width="0.480747" stroke-miterlimit="10"/>
<path d="M40.1783 38.8179H34.3252V87.6546H40.1783V38.8179Z" stroke="white" stroke-width="0.480747" stroke-miterlimit="10"/>
<path d="M51.887 48.8223H46.0339V87.6522H51.887V48.8223Z" stroke="white" stroke-width="0.480747" stroke-miterlimit="10"/>
<path d="M63.5931 39.532H57.74V87.6524H63.5931V39.532Z" stroke="white" stroke-width="0.480747" stroke-miterlimit="10"/>
<path d="M28.4722 34.7676H22.6191V61.7255H28.4722V34.7676Z" fill="white" stroke="white" stroke-width="0.480747" stroke-miterlimit="10"/>
<path d="M17.1075 43.1062H11.2544V48.6733H17.1075V43.1062Z" fill="white" stroke="white" stroke-width="0.480747" stroke-miterlimit="10"/>
<path d="M40.1783 38.8179H34.3252V51.2524H40.1783V38.8179Z" fill="white" stroke="white" stroke-width="0.480747" stroke-miterlimit="10"/>
<path d="M51.887 48.8223H46.0339V70.5833H51.887V48.8223Z" fill="white" stroke="white" stroke-width="0.480747" stroke-miterlimit="10"/>
<path d="M63.5931 39.532H57.74V48.6734H63.5931V39.532Z" fill="white" stroke="white" stroke-width="0.480747" stroke-miterlimit="10"/>
<path d="M113.274 197.799V200.77" stroke="#232323" stroke-width="0.480747" stroke-miterlimit="10"/>
<path d="M100.801 197.799V200.77" stroke="#232323" stroke-width="0.480747" stroke-miterlimit="10"/>
<path d="M88.3252 197.799V200.77" stroke="#232323" stroke-width="0.480747" stroke-miterlimit="10"/>
<path d="M75.8523 197.799V200.77" stroke="#232323" stroke-width="0.480747" stroke-miterlimit="10"/>
<path d="M63.377 197.799V200.77" stroke="#232323" stroke-width="0.480747" stroke-miterlimit="10"/>
<path d="M50.9041 197.799V200.77" stroke="#232323" stroke-width="0.480747" stroke-miterlimit="10"/>
<path d="M38.4309 197.799V200.77" stroke="#232323" stroke-width="0.480747" stroke-miterlimit="10"/>
<path d="M47.0216 188.078C46.7707 188.079 46.5232 188.019 46.3004 187.903C46.0775 187.788 45.8857 187.621 45.7413 187.415C45.597 187.21 45.5042 186.973 45.471 186.724C45.4378 186.476 45.4651 186.223 45.5505 185.987L62.8334 137.912C63.2202 136.806 63.9435 135.849 64.9017 135.175C65.86 134.5 67.0052 134.143 68.1769 134.153H68.2658C69.4534 134.16 70.6079 134.544 71.5633 135.25C72.5188 135.955 73.2259 136.945 73.5829 138.078L81.4046 162.149L84.7578 155.027C86.0047 152.378 88.2523 150.333 91.0064 149.342C93.7605 148.35 96.7957 148.493 99.4447 149.738C100.011 150.007 100.555 150.322 101.07 150.681L101.106 150.707L110.413 157.599L126.814 146.878C126.907 146.808 127.001 146.738 127.097 146.674C128.606 145.605 130.4 145.013 132.248 144.974C134.096 144.934 135.914 145.449 137.467 146.452C139.079 147.44 140.358 148.888 141.14 150.609C141.922 152.331 142.171 154.247 141.854 156.111L140.222 166.187L161.745 142.974C162.026 142.67 162.418 142.49 162.832 142.475C163.246 142.459 163.65 142.608 163.954 142.89C164.258 143.172 164.438 143.563 164.453 143.977C164.469 144.391 164.32 144.795 164.038 145.099L138.998 172.112C138.77 172.357 138.468 172.523 138.139 172.584C137.809 172.645 137.469 172.598 137.168 172.451C136.866 172.304 136.62 172.065 136.466 171.767C136.311 171.47 136.256 171.131 136.308 170.8L138.77 155.62C138.982 154.363 138.813 153.072 138.286 151.911C137.759 150.75 136.897 149.774 135.811 149.106C134.775 148.438 133.562 148.094 132.329 148.119C131.096 148.143 129.899 148.536 128.89 149.246C128.814 149.298 128.737 149.356 128.65 149.414L128.564 149.474L111.209 160.82C110.941 160.994 110.627 161.083 110.307 161.074C109.988 161.064 109.679 160.957 109.423 160.767L99.274 153.229C98.3289 152.572 97.2522 152.13 96.1187 151.932C94.9852 151.734 93.8222 151.786 92.7107 152.083C91.5992 152.381 90.5659 152.917 89.6827 153.654C88.7995 154.392 88.0876 155.313 87.5967 156.353L82.5656 167.045C82.4325 167.329 82.217 167.566 81.9472 167.726C81.6774 167.886 81.3658 167.961 81.0528 167.941C80.7398 167.922 80.4401 167.808 80.1924 167.616C79.9448 167.423 79.7608 167.161 79.6643 166.863L70.6143 139.044C70.4487 138.537 70.129 138.095 69.6998 137.779C69.2706 137.462 68.7534 137.288 68.2203 137.28C67.6872 137.271 67.1648 137.43 66.7261 137.733C66.2874 138.036 65.9543 138.468 65.7731 138.97L48.4903 187.044C48.3818 187.347 48.1825 187.609 47.9196 187.794C47.6567 187.979 47.3431 188.078 47.0216 188.078Z" fill="#E9E9E9" stroke="#232323" stroke-width="0.480747" stroke-linecap="round" stroke-linejoin="round"/>
<path d="M65.9248 184.641C65.7768 184.64 65.6295 184.619 65.4874 184.578C65.0924 184.462 64.759 184.196 64.5596 183.836C64.3602 183.475 64.3109 183.051 64.4225 182.655L86.1427 108.038C86.4019 107.154 86.9539 106.383 87.7082 105.853C88.4624 105.323 89.3743 105.065 90.2945 105.121C91.2147 105.177 92.0886 105.543 92.7733 106.161C93.4579 106.778 93.9126 107.61 94.063 108.519L103.459 165.093L146.438 109.969C146.561 109.798 146.717 109.653 146.897 109.544C147.077 109.435 147.278 109.363 147.486 109.333C147.695 109.303 147.907 109.316 148.11 109.37C148.314 109.424 148.504 109.519 148.67 109.648C148.837 109.778 148.975 109.939 149.077 110.124C149.179 110.308 149.243 110.511 149.265 110.72C149.286 110.93 149.266 111.141 149.204 111.343C149.142 111.544 149.04 111.731 148.904 111.892L103.733 169.822C103.546 170.062 103.292 170.242 103.003 170.341C102.714 170.439 102.403 170.45 102.108 170.373C101.813 170.297 101.547 170.135 101.342 169.909C101.138 169.683 101.004 169.402 100.957 169.1L90.9766 109.007C90.9428 108.795 90.8378 108.601 90.6789 108.457C90.52 108.313 90.3168 108.228 90.1027 108.215C89.8887 108.202 89.6766 108.263 89.5016 108.386C89.3266 108.51 89.1991 108.69 89.1401 108.896L67.4248 183.516C67.3301 183.84 67.1328 184.125 66.8623 184.328C66.5919 184.531 66.2629 184.641 65.9248 184.641Z" fill="#E9E9E9" stroke="#232323" stroke-width="0.480747" stroke-linecap="round" stroke-linejoin="round"/>
<path d="M149.01 111.887C150.908 111.887 152.447 110.348 152.447 108.449C152.447 106.551 150.908 105.012 149.01 105.012C147.112 105.012 145.573 106.551 145.573 108.449C145.573 110.348 147.112 111.887 149.01 111.887Z" fill="#232323"/>
<path d="M146.909 104.329C147.592 100.621 148.274 96.9136 148.955 93.207C150.107 96.7101 151.259 100.212 152.411 103.711L160.947 105.918L152.75 109.524C151.949 113.072 151.156 116.618 150.373 120.163L146.147 109.985L139.765 107.012L146.909 104.329Z" fill="white" stroke="#232323" stroke-width="0.480747" stroke-linecap="round" stroke-linejoin="round"/>
<path d="M97.2263 9.01904H135.539" stroke="#232323" stroke-width="0.480747" stroke-linecap="round" stroke-linejoin="round"/>
<path d="M135.539 10.1006H97.2262C96.9393 10.1006 96.6642 9.98665 96.4613 9.7838C96.2585 9.58095 96.1445 9.30582 96.1445 9.01894C96.1445 8.73206 96.2585 8.45692 96.4613 8.25407C96.6642 8.05122 96.9393 7.93726 97.2262 7.93726H135.539C135.826 7.93726 136.101 8.05122 136.304 8.25407C136.507 8.45692 136.621 8.73206 136.621 9.01894C136.621 9.30582 136.507 9.58095 136.304 9.7838C136.101 9.98665 135.826 10.1006 135.539 10.1006Z" fill="#E9E9E9" stroke="#232323" stroke-width="0.480747" stroke-linecap="round" stroke-linejoin="round"/>
<path d="M136.321 28.3232H155.33" stroke="#232323" stroke-width="0.480747" stroke-linecap="round" stroke-linejoin="round"/>
<path d="M155.329 29.4048H136.321C136.034 29.4048 135.759 29.2909 135.556 29.088C135.353 28.8851 135.239 28.61 135.239 28.3231C135.239 28.0363 135.353 27.7611 135.556 27.5583C135.759 27.3554 136.034 27.2415 136.321 27.2415H155.329C155.616 27.2415 155.891 27.3554 156.094 27.5583C156.297 27.7611 156.411 28.0363 156.411 28.3231C156.411 28.61 156.297 28.8851 156.094 29.088C155.891 29.2909 155.616 29.4048 155.329 29.4048Z" fill="#E9E9E9" stroke="#232323" stroke-width="0.480747" stroke-linecap="round" stroke-linejoin="round"/>
<path d="M97.1157 19.1169H154.736" stroke="#232323" stroke-width="0.480747" stroke-linecap="round" stroke-linejoin="round"/>
<path d="M154.735 20.1985H97.1107C96.8239 20.1985 96.5487 20.0846 96.3459 19.8817C96.143 19.6788 96.0291 19.4037 96.0291 19.1168C96.0291 18.83 96.143 18.5548 96.3459 18.352C96.5487 18.1491 96.8239 18.0352 97.1107 18.0352H154.735C155.022 18.0352 155.298 18.1491 155.5 18.352C155.703 18.5548 155.817 18.83 155.817 19.1168C155.817 19.4037 155.703 19.6788 155.5 19.8817C155.298 20.0846 155.022 20.1985 154.735 20.1985Z" fill="#E9E9E9" stroke="#232323" stroke-width="0.480747" stroke-linecap="round" stroke-linejoin="round"/>
<path d="M139.4 9.01904H146.529" stroke="#232323" stroke-width="0.480747" stroke-linecap="round" stroke-linejoin="round"/>
<path d="M146.529 10.1006H139.4C139.113 10.1006 138.838 9.98665 138.635 9.7838C138.432 9.58095 138.318 9.30582 138.318 9.01894C138.318 8.73206 138.432 8.45692 138.635 8.25407C138.838 8.05122 139.113 7.93726 139.4 7.93726H146.529C146.816 7.93726 147.091 8.05122 147.294 8.25407C147.497 8.45692 147.611 8.73206 147.611 9.01894C147.611 9.30582 147.497 9.58095 147.294 9.7838C147.091 9.98665 146.816 10.1006 146.529 10.1006Z" fill="#E9E9E9" stroke="#232323" stroke-width="0.480747" stroke-linecap="round" stroke-linejoin="round"/>
<path d="M182.318 39.8277C192.324 39.8277 200.435 31.7164 200.435 21.7107C200.435 11.705 192.324 3.59375 182.318 3.59375C172.313 3.59375 164.201 11.705 164.201 21.7107C164.201 31.7164 172.313 39.8277 182.318 39.8277Z" stroke="#232323" stroke-width="0.480747" stroke-linecap="round" stroke-linejoin="round"/>
<path d="M179.951 37.2339C189.956 37.2339 198.068 29.1227 198.068 19.117C198.068 9.11124 189.956 1 179.951 1C169.945 1 161.834 9.11124 161.834 19.117C161.834 29.1227 169.945 37.2339 179.951 37.2339Z" fill="white" stroke="#232323" stroke-width="0.480747" stroke-linecap="round" stroke-linejoin="round"/>
<path d="M177.232 26.8787C177.114 26.8788 176.998 26.8558 176.889 26.8108C176.78 26.7658 176.681 26.6999 176.598 26.6166L169.641 19.6602C169.558 19.5767 169.491 19.4776 169.446 19.3685C169.401 19.2595 169.378 19.1425 169.378 19.0244C169.378 18.9064 169.401 18.7894 169.446 18.6803C169.491 18.5713 169.558 18.4721 169.641 18.3887L176.963 11.0669C177.134 10.9077 177.36 10.821 177.593 10.8251C177.827 10.8292 178.05 10.9238 178.215 11.089C178.38 11.2541 178.475 11.4769 178.479 11.7105C178.483 11.944 178.396 12.17 178.237 12.3409L171.55 19.0232L177.876 25.3427C178.003 25.4684 178.089 25.6288 178.123 25.8036C178.158 25.9783 178.141 26.1594 178.072 26.324C178.004 26.4886 177.888 26.6292 177.74 26.728C177.592 26.8267 177.417 26.8792 177.239 26.8787H177.232Z" fill="white" stroke="#232323" stroke-width="0.480747" stroke-linecap="round" stroke-linejoin="round"/>
<path d="M183.061 26.8785C182.883 26.8791 182.709 26.8266 182.56 26.7279C182.412 26.6291 182.296 26.4885 182.228 26.3239C182.16 26.1593 182.142 25.9782 182.177 25.8034C182.212 25.6287 182.298 25.4683 182.424 25.3426L188.744 19.0231L182.059 12.3383C181.884 12.1755 181.781 11.9497 181.772 11.7108C181.763 11.4719 181.85 11.2394 182.013 11.0644C182.176 10.8894 182.402 10.7862 182.641 10.7777C182.88 10.7691 183.112 10.8558 183.287 11.0187C183.304 11.0331 183.318 11.0499 183.333 11.0644L190.655 18.3861C190.823 18.5552 190.918 18.7843 190.918 19.0231C190.918 19.262 190.823 19.4911 190.655 19.6601L183.698 26.6165C183.529 26.7847 183.3 26.879 183.061 26.8785Z" fill="white" stroke="#232323" stroke-width="0.480747" stroke-linecap="round" stroke-linejoin="round"/>
<defs>
<linearGradient id="paint0_linear_108_3545" x1="39.3338" y1="35.9337" x2="39.9848" y2="112.526" gradientUnits="userSpaceOnUse">
<stop stop-color="#FB6008"/>
<stop offset="1" stop-color="#FB6008"/>
</linearGradient>
</defs>
</svg>
