<svg width="171" height="211" viewBox="0 0 171 211" fill="none" xmlns="http://www.w3.org/2000/svg">
<path d="M168.959 153.737H120.844V201.369H168.959V153.737Z" stroke="#232323" stroke-width="0.471113" stroke-linecap="round" stroke-linejoin="round"/>
<path d="M88.076 196.039C125.442 196.039 155.733 165.748 155.733 128.382C155.733 91.0165 125.442 60.7256 88.076 60.7256C50.7103 60.7256 20.4194 91.0165 20.4194 128.382C20.4194 165.748 50.7103 196.039 88.076 196.039Z" fill="white" stroke="#232323" stroke-width="0.471113" stroke-linecap="round" stroke-linejoin="round"/>
<path d="M88.0759 192.691C123.593 192.691 152.385 163.899 152.385 128.382C152.385 92.865 123.593 64.0728 88.0759 64.0728C52.5589 64.0728 23.7666 92.865 23.7666 128.382C23.7666 163.899 52.5589 192.691 88.0759 192.691Z" stroke="#232323" stroke-width="0.471113" stroke-linecap="round" stroke-linejoin="round"/>
<path d="M62.8337 113.283C65.3613 100.327 76.1615 91.1404 87.9629 90.9873C99.6088 90.846 110.138 99.5521 111.959 107.804C112.539 110.428 112.531 114.345 112.527 118.385C112.527 121.212 112.4 123.739 112.242 125.836C112.169 126.809 112.338 127.785 112.734 128.677C113.13 129.569 113.74 130.35 114.51 130.949L115.361 131.611" stroke="#232323" stroke-width="0.471113" stroke-miterlimit="10"/>
<path d="M60.1885 120.086L63.8019 119.363C64.8919 119.148 65.895 118.619 66.6871 117.84C67.4793 117.061 68.0257 116.068 68.2586 114.981C70.5647 104.03 79.2662 96.1604 88.5307 96.4666C93.296 96.6245 97.8611 98.8222 101.439 102.372C102.987 103.927 104.213 105.773 105.046 107.803C105.878 109.833 106.302 112.007 106.292 114.202V127.186C106.292 128.583 106.577 129.966 107.131 131.25C107.684 132.533 108.493 133.691 109.509 134.65C110.704 135.779 112.141 135.699 113.335 136.827" stroke="#232323" stroke-width="0.471113" stroke-miterlimit="10"/>
<path d="M59.8115 126.29L64.8595 125.565C67.1716 125.408 69.3439 124.401 70.9581 122.738C72.4379 121.352 73.5335 119.607 74.1381 117.671C74.3754 116.943 74.5133 116.187 74.5479 115.422C74.5479 108.31 80.1424 102.362 87.2492 102.141H88.1537C88.3008 102.137 88.4481 102.145 88.5942 102.162C95.7127 102.614 101.189 108.661 101.189 115.794V128.42C101.241 129.449 101.399 130.471 101.661 131.468C102.685 135.34 105.069 137.877 106.471 139.138L112.718 142.386" stroke="#232323" stroke-width="0.471113" stroke-miterlimit="10"/>
<path d="M59.8115 132.577C61.0553 132.577 62.8738 132.306 65.1021 132.146C66.9748 132.012 67.9123 131.218 68.692 131.044C72.2089 130.255 74.5267 128.029 75.4925 127.077C76.748 125.84 78.4229 124.189 79.0824 121.596C79.1649 121.273 79.2214 120.981 79.4617 117.061C79.7231 112.821 79.6831 112.746 79.8385 112.35C80.8185 109.808 84.1539 107.961 87.3976 108.004C90.7778 108.051 93.7317 110.147 94.9542 112.729C95.3264 113.514 95.6114 114.498 95.5219 118.017C95.456 120.538 95.3547 124.5 94.5797 127.277C92.6952 133.988 85.7298 137.778 80.0317 140.881C74.0543 144.113 67.5111 146.166 60.7585 146.927" stroke="#232323" stroke-width="0.471113" stroke-miterlimit="10"/>
<path d="M87.301 114.991C87.0419 117.688 88.5377 125.402 83.9114 130.212C79.4193 134.886 71.7684 136.978 68.6921 137.847C65.6167 138.712 62.4385 139.156 59.2439 139.168" stroke="#232323" stroke-width="0.471113" stroke-miterlimit="10"/>
<path d="M96.2781 136.523C98.9022 141.215 101.87 143.75 104.212 145.215C104.212 145.215 105.154 145.804 112.148 149.182" stroke="#232323" stroke-width="0.471113" stroke-miterlimit="10"/>
<path d="M63.0247 153.528C64.6055 153.505 66.1831 153.379 67.7476 153.151C72.7108 152.425 75.8507 150.906 82.1165 148.237C84.4862 147.227 88.1185 145.703 92.6977 143.891L103.399 151.026C104.942 152.056 106.662 152.79 108.473 153.191L110.829 154.199" stroke="#232323" stroke-width="0.471113" stroke-miterlimit="10"/>
<path d="M66.9912 158.934C70.355 158.319 73.9613 157.52 77.7609 156.477C82.1819 155.264 86.5343 153.813 90.7989 152.131C93.6751 153.483 96.8268 154.828 100.245 156.1C103.003 157.125 105.663 157.999 108.181 158.745" stroke="#232323" stroke-width="0.471113" stroke-miterlimit="10"/>
<path d="M73.2263 163.393C78.9331 162.477 84.5129 160.896 89.8519 158.682C92.0002 159.773 94.3958 160.868 97.0317 161.895C99.1517 162.717 101.173 163.402 103.078 163.972" stroke="#232323" stroke-width="0.471113" stroke-miterlimit="10"/>
<path d="M88.0759 68.831C87.7011 68.831 87.3416 68.6821 87.0766 68.4171C86.8115 68.152 86.6626 67.7925 86.6626 67.4177V48.1751C86.6626 47.8002 86.8115 47.4407 87.0766 47.1757C87.3416 46.9106 87.7011 46.7617 88.0759 46.7617C88.4508 46.7617 88.8103 46.9106 89.0753 47.1757C89.3404 47.4407 89.4893 47.8002 89.4893 48.1751V67.4177C89.4893 67.7925 89.3404 68.152 89.0753 68.4171C88.8103 68.6821 88.4508 68.831 88.0759 68.831Z" fill="white" stroke="#232323" stroke-width="0.471113" stroke-linecap="round" stroke-linejoin="round"/>
<path d="M88.1419 210C87.767 210 87.4075 209.851 87.1425 209.586C86.8774 209.321 86.7285 208.962 86.7285 208.587V189.344C86.7285 188.969 86.8774 188.61 87.1425 188.345C87.4075 188.08 87.767 187.931 88.1419 187.931C88.5167 187.931 88.8762 188.08 89.1412 188.345C89.4063 188.61 89.5552 188.969 89.5552 189.344V208.587C89.5552 208.962 89.4063 209.321 89.1412 209.586C88.8762 209.851 88.5167 210 88.1419 210Z" fill="white" stroke="#232323" stroke-width="0.471113" stroke-linecap="round" stroke-linejoin="round"/>
<path d="M168.316 129.76H149.076C148.701 129.76 148.341 129.611 148.076 129.346C147.811 129.081 147.662 128.722 147.662 128.347C147.662 127.972 147.811 127.612 148.076 127.347C148.341 127.082 148.701 126.933 149.076 126.933H168.316C168.691 126.933 169.05 127.082 169.315 127.347C169.58 127.612 169.729 127.972 169.729 128.347C169.729 128.722 169.58 129.081 169.315 129.346C169.05 129.611 168.691 129.76 168.316 129.76Z" fill="white" stroke="#232323" stroke-width="0.471113" stroke-linecap="round" stroke-linejoin="round"/>
<path d="M27.1468 129.828H7.9065C7.53166 129.828 7.17217 129.679 6.90712 129.414C6.64207 129.149 6.49316 128.79 6.49316 128.415C6.49316 128.04 6.64207 127.681 6.90712 127.416C7.17217 127.151 7.53166 127.002 7.9065 127.002H27.1468C27.5216 127.002 27.8811 127.151 28.1462 127.416C28.4112 127.681 28.5601 128.04 28.5601 128.415C28.5601 128.79 28.4112 129.149 28.1462 129.414C27.8811 129.679 27.5216 129.828 27.1468 129.828Z" fill="white" stroke="#232323" stroke-width="0.471113" stroke-linecap="round" stroke-linejoin="round"/>
<path d="M55.0369 89.7202L41.8928 66.9513L28.7464 44.1824C28.6308 43.9823 28.4646 43.8162 28.2645 43.7007C28.0643 43.5852 27.8374 43.5244 27.6063 43.5244C27.3753 43.5244 27.1483 43.5852 26.9481 43.7007C26.748 43.8162 26.5818 43.9823 26.4662 44.1824L13.3221 66.9513L0.175733 89.7202C0.0604669 89.9203 -0.000137609 90.1472 2.34618e-07 90.3782C0.000138079 90.6091 0.0610153 90.8359 0.17652 91.0359C0.292025 91.2359 0.458095 91.402 0.658068 91.5175C0.858041 91.6331 1.08488 91.694 1.31583 91.6941H53.8968C54.128 91.6947 54.3553 91.6342 54.5557 91.5189C54.7561 91.4035 54.9225 91.2373 55.0381 91.0371C55.1538 90.8369 55.2146 90.6097 55.2143 90.3785C55.2141 90.1472 55.1529 89.9202 55.0369 89.7202Z" fill="url(#paint0_linear_108_3595)"/>
<path d="M25.2485 82.4981C25.2485 81.2544 25.9905 80.3075 27.0647 80.0672C28.8007 79.6762 30.2635 81.3062 29.9338 83.0564C29.8499 83.6061 29.5675 84.106 29.1399 84.4615C28.7124 84.817 28.1693 85.0035 27.6135 84.9856C26.2025 84.9856 25.2485 83.9044 25.2485 82.4981ZM26.2497 76.7294L25.7456 59.4112C25.7341 58.9162 25.9179 58.4365 26.2573 58.0759C26.5968 57.7153 27.0645 57.5028 27.5593 57.4844H27.6159C27.8616 57.4841 28.1049 57.5322 28.332 57.6261C28.559 57.72 28.7653 57.8578 28.9391 58.0315C29.1128 58.2052 29.2506 58.4115 29.3445 58.6386C29.4383 58.8656 29.4865 59.109 29.4862 59.3547V59.4112L28.9821 76.7294C28.9821 76.7328 28.9814 76.7361 28.9801 76.7393C28.9788 76.7424 28.9769 76.7453 28.9745 76.7477C28.9721 76.7501 28.9693 76.752 28.9661 76.7533C28.963 76.7546 28.9596 76.7553 28.9562 76.7553H26.2661C26.2627 76.7553 26.2594 76.7546 26.2562 76.7533C26.2531 76.752 26.2502 76.7501 26.2478 76.7477C26.2454 76.7453 26.2435 76.7424 26.2422 76.7393C26.2409 76.7361 26.2402 76.7328 26.2402 76.7294H26.2497Z" fill="url(#paint1_linear_108_3595)" stroke="white" stroke-width="0.471113" stroke-miterlimit="10"/>
<path d="M167.47 27.5051H130.724C129.863 27.5058 129.038 27.848 128.43 28.4567C127.822 29.0654 127.48 29.8906 127.48 30.7511V59.7811C127.48 60.642 127.822 61.4676 128.431 62.0764C129.039 62.6851 129.865 63.0271 130.726 63.0271H167.473C168.334 63.0271 169.159 62.6851 169.768 62.0764C170.377 61.4676 170.719 60.642 170.719 59.7811V30.7511C170.719 30.3246 170.635 29.9023 170.471 29.5084C170.308 29.1144 170.069 28.7565 169.767 28.455C169.466 28.1536 169.107 27.9145 168.713 27.7515C168.319 27.5885 167.897 27.5048 167.47 27.5051ZM150.934 46.6276V53.0465H147.253V46.6276C146.207 46.2009 145.342 45.4243 144.806 44.4305C144.27 43.4367 144.096 42.2876 144.313 41.1795C144.531 40.0715 145.126 39.0734 145.998 38.356C146.87 37.6385 147.964 37.2462 149.093 37.2462C150.223 37.2462 151.317 37.6385 152.189 38.356C153.061 39.0734 153.656 40.0715 153.874 41.1795C154.091 42.2876 153.917 43.4367 153.381 44.4305C152.845 45.4243 151.98 46.2009 150.934 46.6276Z" fill="white" stroke="#232323" stroke-width="0.471113" stroke-linecap="round" stroke-linejoin="round"/>
<path d="M161.468 9.44719C158.425 6.65114 154.319 5.1106 149.905 5.1106H149.669C145.307 5.11621 141.125 6.85151 138.041 9.93595C134.956 13.0204 133.221 17.2022 133.216 21.5642V27.505H137.844V21.5642C137.85 18.4313 139.098 15.4284 141.314 13.2139C143.53 10.9995 146.534 9.75417 149.667 9.75106H149.902C156.642 9.75106 161.723 14.4763 161.723 20.7398V21.0978C161.742 21.6995 161.994 22.27 162.427 22.6888C162.859 23.1076 163.437 23.3418 164.039 23.3418C164.641 23.3418 165.22 23.1076 165.652 22.6888C166.084 22.27 166.337 21.6995 166.356 21.0978V20.7398C166.378 18.62 165.955 16.5193 165.113 14.5739C164.271 12.6284 163.029 10.8818 161.468 9.44719Z" fill="white" stroke="#232323" stroke-width="0.471113" stroke-linecap="round" stroke-linejoin="round"/>
<path d="M126.821 5.39795H54.6295C50.9427 5.39795 47.9539 8.38675 47.9539 12.0736V24.1318C47.9539 27.8186 50.9427 30.8074 54.6295 30.8074H126.821C130.507 30.8074 133.496 27.8186 133.496 24.1318V12.0736C133.496 8.38675 130.507 5.39795 126.821 5.39795Z" fill="#E9E9E9" stroke="#232323" stroke-width="0.471113" stroke-linecap="round" stroke-linejoin="round"/>
<path d="M126.821 1H54.6295C50.9427 1 47.9539 3.9888 47.9539 7.67568V19.7338C47.9539 23.4207 50.9427 26.4095 54.6295 26.4095H126.821C130.507 26.4095 133.496 23.4207 133.496 19.7338V7.67568C133.496 3.9888 130.507 1 126.821 1Z" fill="#E9E9E9" stroke="#232323" stroke-width="0.471113" stroke-linecap="round" stroke-linejoin="round"/>
<path d="M63.3801 18.0024C65.6112 18.0024 67.4199 16.1938 67.4199 13.9627C67.4199 11.7315 65.6112 9.92285 63.3801 9.92285C61.149 9.92285 59.3403 11.7315 59.3403 13.9627C59.3403 16.1938 61.149 18.0024 63.3801 18.0024Z" fill="#232323" stroke="#232323" stroke-width="0.471113" stroke-linecap="round" stroke-linejoin="round"/>
<path d="M77.5161 18.0024C79.7472 18.0024 81.5559 16.1938 81.5559 13.9627C81.5559 11.7315 79.7472 9.92285 77.5161 9.92285C75.285 9.92285 73.4763 11.7315 73.4763 13.9627C73.4763 16.1938 75.285 18.0024 77.5161 18.0024Z" fill="#232323" stroke="#232323" stroke-width="0.471113" stroke-linecap="round" stroke-linejoin="round"/>
<path d="M95.6459 14.6119C96.0034 12.4096 94.5079 10.3345 92.3056 9.97701C90.1033 9.61952 88.0282 11.115 87.6707 13.3173C87.3132 15.5196 88.8088 17.5947 91.011 17.9522C93.2133 18.3097 95.2884 16.8142 95.6459 14.6119Z" fill="#232323" stroke="#232323" stroke-width="0.471113" stroke-linecap="round" stroke-linejoin="round"/>
<path d="M105.792 18.0024C108.024 18.0024 109.832 16.1938 109.832 13.9627C109.832 11.7315 108.024 9.92285 105.792 9.92285C103.561 9.92285 101.753 11.7315 101.753 13.9627C101.753 16.1938 103.561 18.0024 105.792 18.0024Z" fill="white" stroke="#232323" stroke-width="0.471113" stroke-linecap="round" stroke-linejoin="round"/>
<path d="M119.928 18.0024C122.159 18.0024 123.968 16.1938 123.968 13.9627C123.968 11.7315 122.159 9.92285 119.928 9.92285C117.697 9.92285 115.888 11.7315 115.888 13.9627C115.888 16.1938 117.697 18.0024 119.928 18.0024Z" fill="white" stroke="#232323" stroke-width="0.471113" stroke-linecap="round" stroke-linejoin="round"/>
<path d="M149.172 27.6392V36.7764" stroke="#232323" stroke-width="0.471113" stroke-linecap="round" stroke-linejoin="round"/>
<path d="M149.172 53.249V62.6218" stroke="#232323" stroke-width="0.471113" stroke-linecap="round" stroke-linejoin="round"/>
<defs>
<linearGradient id="paint0_linear_108_3595" x1="29.4859" y1="50.2147" x2="29.8926" y2="102.631" gradientUnits="userSpaceOnUse">
<stop stop-color="#FB6008"/>
<stop offset="1" stop-color="#FB6008"/>
</linearGradient>
<linearGradient id="paint1_linear_108_3595" x1="27.7755" y1="61.3042" x2="29.3183" y2="91.153" gradientUnits="userSpaceOnUse">
<stop stop-color="#FB6008"/>
<stop offset="1" stop-color="#FB6008"/>
</linearGradient>
</defs>
</svg>
