<svg width="194" height="211" viewBox="0 0 194 211" fill="none" xmlns="http://www.w3.org/2000/svg">
<path d="M2.12744 155.976V151.717L1.3313 152.041V151.681L2.47158 151.24V155.976H2.12744Z" fill="#232323"/>
<path d="M0.886849 161.351C0.871113 160.958 0.972097 160.569 1.17706 160.233C1.28253 160.068 1.42972 159.934 1.60377 159.844C1.77782 159.753 1.97257 159.711 2.16838 159.72C2.37168 159.708 2.57411 159.754 2.75227 159.853C2.93042 159.952 3.07702 160.099 3.17512 160.277C3.36192 160.645 3.45039 161.054 3.43194 161.466V162.866C3.4475 163.254 3.34932 163.639 3.14944 163.973C3.04621 164.137 2.9013 164.271 2.72943 164.361C2.55757 164.452 2.36487 164.495 2.17095 164.486C1.97599 164.495 1.7823 164.451 1.60923 164.361C1.43617 164.271 1.2898 164.137 1.18476 163.973C0.976785 163.637 0.873927 163.247 0.88942 162.853L0.886849 161.351ZM1.23356 162.843C1.21775 163.146 1.27777 163.449 1.4082 163.724C1.46956 163.822 1.54973 163.908 1.64412 163.975C1.73852 164.043 1.84529 164.091 1.95833 164.117C2.07138 164.143 2.18849 164.147 2.30296 164.128C2.41744 164.109 2.52705 164.068 2.62552 164.006C2.74025 163.935 2.83695 163.838 2.90802 163.724C3.0409 163.45 3.10356 163.147 3.09036 162.843V161.369C3.10489 161.065 3.04494 160.763 2.91573 160.488C2.84226 160.354 2.73219 160.244 2.59845 160.171C2.4647 160.098 2.31283 160.064 2.16068 160.074C2.01002 160.065 1.85984 160.099 1.72787 160.172C1.5959 160.245 1.48765 160.355 1.4159 160.488C1.27879 160.76 1.21339 161.064 1.22585 161.369L1.23356 162.843Z" fill="#232323"/>
<path d="M2.12744 172.867V168.608L1.3313 168.932V168.572L2.47158 168.128V172.867H2.12744Z" fill="#232323"/>
<path d="M0.886849 178.242C0.871113 177.849 0.972097 177.46 1.17706 177.125C1.28253 176.96 1.42972 176.825 1.60377 176.735C1.77782 176.645 1.97257 176.602 2.16838 176.611C2.37168 176.6 2.57411 176.646 2.75227 176.744C2.93042 176.843 3.07702 176.99 3.17512 177.168C3.36192 177.536 3.45039 177.946 3.43194 178.358V179.757C3.4475 180.146 3.34932 180.53 3.14944 180.864C3.04621 181.028 2.9013 181.163 2.72943 181.253C2.55757 181.343 2.36487 181.386 2.17095 181.378C1.97599 181.386 1.7823 181.343 1.60923 181.253C1.43617 181.163 1.2898 181.029 1.18476 180.864C0.979346 180.528 0.876696 180.138 0.88942 179.744L0.886849 178.242ZM1.23356 179.734C1.21775 180.038 1.27777 180.34 1.4082 180.615C1.46956 180.713 1.54973 180.799 1.64412 180.866C1.73852 180.934 1.84529 180.982 1.95833 181.008C2.07138 181.035 2.18849 181.038 2.30296 181.019C2.41744 181 2.52705 180.959 2.62552 180.897C2.74025 180.826 2.83695 180.73 2.90802 180.615C3.0409 180.341 3.10356 180.038 3.09036 179.734V178.257C3.10489 177.954 3.04494 177.651 2.91573 177.376C2.84226 177.243 2.73219 177.133 2.59845 177.06C2.4647 176.986 2.31283 176.953 2.16068 176.963C2.01002 176.954 1.85984 176.988 1.72787 177.061C1.5959 177.134 1.48765 177.244 1.4159 177.376C1.28145 177.65 1.2187 177.953 1.23356 178.257V179.734Z" fill="#232323"/>
<path d="M0.886858 186.688C0.871074 186.295 0.972042 185.905 1.17707 185.569C1.28274 185.404 1.42996 185.269 1.60396 185.179C1.77797 185.089 1.97262 185.046 2.16839 185.055C2.37152 185.043 2.57401 185.088 2.75226 185.186C2.9305 185.284 3.07716 185.431 3.17512 185.61C3.36193 185.977 3.4504 186.387 3.43194 186.799V188.201C3.44776 188.589 3.34954 188.973 3.14944 189.305C3.04682 189.47 2.90202 189.605 2.73001 189.695C2.558 189.785 2.36501 189.828 2.17096 189.819C1.97588 189.828 1.78189 189.785 1.60869 189.695C1.43549 189.605 1.28923 189.47 1.18477 189.305C0.976794 188.97 0.873937 188.58 0.889429 188.186L0.886858 186.688ZM1.22586 188.181C1.21005 188.483 1.27008 188.785 1.4005 189.059C1.46186 189.157 1.54203 189.243 1.63643 189.31C1.73082 189.378 1.83759 189.426 1.95064 189.452C2.06368 189.479 2.18079 189.482 2.29527 189.463C2.40975 189.444 2.51935 189.403 2.61783 189.341C2.73256 189.27 2.82926 189.174 2.90033 189.059C3.03341 188.786 3.09609 188.484 3.08267 188.181V186.701C3.0972 186.399 3.03723 186.097 2.90803 185.823C2.82869 185.695 2.71821 185.59 2.587 185.518C2.4558 185.445 2.3082 185.406 2.15812 185.406C2.00804 185.406 1.86044 185.445 1.72923 185.518C1.59803 185.59 1.48755 185.695 1.40821 185.823C1.27418 186.096 1.21145 186.398 1.22586 186.701V188.181Z" fill="#232323"/>
<path d="M63.5305 170.761V166.505L62.7344 166.829V166.469L63.8747 166.028V170.763L63.5305 170.761Z" fill="#232323"/>
<path d="M62.2899 176.136C62.2742 175.743 62.3752 175.354 62.5801 175.019C62.6852 174.853 62.8323 174.718 63.0065 174.628C63.1806 174.538 63.3756 174.495 63.5715 174.505C63.7746 174.492 63.9771 174.538 64.1553 174.636C64.3336 174.734 64.4802 174.881 64.5782 175.06C64.765 175.427 64.8535 175.837 64.835 176.249V177.648C64.8506 178.037 64.7524 178.422 64.5525 178.755C64.4493 178.92 64.3044 179.054 64.1325 179.144C63.9606 179.234 63.7679 179.277 63.574 179.269C63.3791 179.277 63.1856 179.233 63.0127 179.143C62.8397 179.053 62.6933 178.919 62.5878 178.755C62.3799 178.42 62.277 178.03 62.2925 177.636L62.2899 176.136ZM62.6366 177.628C62.6208 177.931 62.6808 178.234 62.8113 178.509C62.8726 178.607 62.9528 178.693 63.0472 178.76C63.1416 178.828 63.2484 178.876 63.3614 178.902C63.4745 178.928 63.5916 178.932 63.706 178.913C63.8205 178.894 63.9301 178.853 64.0286 178.791C64.1433 178.72 64.24 178.623 64.3111 178.509C64.444 178.235 64.5066 177.932 64.4934 177.628V176.151C64.508 175.848 64.448 175.545 64.3188 175.27C64.2453 175.137 64.1353 175.027 64.0015 174.954C63.8678 174.88 63.7159 174.847 63.5638 174.857C63.4131 174.847 63.2629 174.881 63.131 174.955C62.999 175.028 62.8907 175.137 62.819 175.27C62.6845 175.544 62.6218 175.847 62.6366 176.151V177.628Z" fill="#232323"/>
<path d="M63.5305 187.652V183.394L62.7344 183.712V183.353L63.8747 182.911V187.647L63.5305 187.652Z" fill="#232323"/>
<path d="M62.2899 193.027C62.2742 192.634 62.3752 192.245 62.5801 191.91C62.6856 191.744 62.8328 191.61 63.0068 191.52C63.1809 191.43 63.3757 191.387 63.5715 191.396C63.7748 191.384 63.9772 191.431 64.1553 191.529C64.3335 191.628 64.4801 191.775 64.5782 191.953C64.765 192.321 64.8535 192.731 64.835 193.142V194.542C64.8506 194.931 64.7524 195.315 64.5525 195.649C64.4493 195.813 64.3044 195.947 64.1325 196.038C63.9606 196.128 63.7679 196.171 63.574 196.163C63.3791 196.171 63.1854 196.128 63.0123 196.038C62.8392 195.947 62.6929 195.813 62.5878 195.649C62.3824 195.312 62.2798 194.923 62.2925 194.529L62.2899 193.027ZM62.6366 194.519C62.6208 194.823 62.6808 195.125 62.8113 195.4C62.8726 195.498 62.9528 195.584 63.0472 195.651C63.1416 195.719 63.2484 195.767 63.3614 195.793C63.4745 195.82 63.5916 195.823 63.706 195.804C63.8205 195.785 63.9301 195.744 64.0286 195.682C64.1433 195.611 64.24 195.515 64.3111 195.4C64.444 195.126 64.5066 194.823 64.4934 194.519V193.042C64.508 192.739 64.448 192.436 64.3188 192.161C64.2453 192.028 64.1353 191.918 64.0015 191.845C63.8678 191.771 63.7159 191.738 63.5638 191.748C63.4131 191.739 63.2629 191.773 63.131 191.846C62.999 191.919 62.8907 192.029 62.819 192.161C62.6845 192.435 62.6218 192.738 62.6366 193.042V194.519Z" fill="#232323"/>
<path d="M80.8398 170.761V166.505L80.0437 166.829V166.469L81.184 166.028V170.763L80.8398 170.761Z" fill="#232323"/>
<path d="M79.6021 176.136C79.5842 175.743 79.6844 175.354 79.8898 175.019C79.9954 174.854 80.1427 174.719 80.3167 174.629C80.4907 174.539 80.6853 174.496 80.8811 174.505C81.0843 174.492 81.2869 174.538 81.4652 174.636C81.6435 174.734 81.7901 174.881 81.8878 175.06C82.0746 175.427 82.1631 175.837 82.1447 176.249V177.649C82.1602 178.037 82.062 178.422 81.8622 178.755C81.7595 178.92 81.6147 179.055 81.4427 179.145C81.2707 179.236 81.0777 179.278 80.8837 179.269C80.6891 179.277 80.4957 179.234 80.323 179.144C80.1504 179.054 80.0045 178.92 79.9001 178.755C79.6921 178.42 79.5892 178.03 79.6047 177.636L79.6021 176.136ZM79.9463 177.628C79.9314 177.932 79.9923 178.234 80.1235 178.509C80.2465 178.707 80.4433 178.849 80.6706 178.902C80.8979 178.956 81.1371 178.917 81.3357 178.794C81.4513 178.722 81.5488 178.624 81.6207 178.509C81.7552 178.235 81.8179 177.932 81.8031 177.628V176.151C81.8189 175.848 81.7589 175.545 81.6285 175.27C81.5487 175.144 81.438 175.039 81.3069 174.967C81.1757 174.894 81.0284 174.856 80.8785 174.856C80.7287 174.856 80.5813 174.894 80.4502 174.967C80.3191 175.039 80.2084 175.144 80.1286 175.27C79.9958 175.544 79.9331 175.847 79.9463 176.151V177.628Z" fill="#232323"/>
<path d="M80.8398 187.652V183.394L80.0437 183.712V183.353L81.184 182.911V187.647L80.8398 187.652Z" fill="#232323"/>
<path d="M79.6021 193.027C79.5842 192.634 79.6844 192.245 79.8898 191.91C79.9954 191.745 80.1427 191.61 80.3167 191.52C80.4907 191.43 80.6853 191.387 80.8811 191.396C81.0845 191.384 81.2872 191.43 81.4654 191.529C81.6437 191.627 81.7902 191.775 81.8878 191.954C82.0746 192.321 82.1631 192.731 82.1447 193.143V194.542C82.1602 194.931 82.062 195.316 81.8622 195.649C81.7595 195.814 81.6147 195.949 81.4427 196.039C81.2707 196.129 81.0777 196.172 80.8837 196.163C80.6891 196.171 80.4957 196.128 80.323 196.038C80.1504 195.948 80.0045 195.814 79.9001 195.649C79.6921 195.314 79.5892 194.924 79.6047 194.529L79.6021 193.027ZM79.9463 194.519C79.9314 194.823 79.9923 195.126 80.1235 195.4C80.2465 195.599 80.4433 195.74 80.6706 195.793C80.8979 195.847 81.1371 195.808 81.3357 195.685C81.4513 195.613 81.5488 195.516 81.6207 195.4C81.7552 195.127 81.8179 194.823 81.8031 194.519V193.042C81.8189 192.739 81.7589 192.436 81.6285 192.162C81.5487 192.035 81.438 191.93 81.3069 191.858C81.1757 191.785 81.0284 191.747 80.8785 191.747C80.7287 191.747 80.5813 191.785 80.4502 191.858C80.3191 191.93 80.2084 192.035 80.1286 192.162C79.9958 192.436 79.9331 192.738 79.9463 193.042V194.519Z" fill="#232323"/>
<path d="M105.934 170.761V166.505L105.138 166.829V166.469L106.278 166.028V170.763L105.934 170.761Z" fill="#232323"/>
<path d="M104.696 176.136C104.678 175.743 104.778 175.354 104.984 175.019C105.089 174.854 105.236 174.719 105.41 174.629C105.584 174.539 105.779 174.496 105.975 174.505C106.178 174.492 106.38 174.538 106.559 174.636C106.737 174.734 106.884 174.881 106.982 175.06C107.168 175.427 107.257 175.837 107.238 176.249V177.648C107.254 178.037 107.156 178.422 106.956 178.755C106.853 178.92 106.708 179.054 106.536 179.145C106.364 179.235 106.171 179.278 105.977 179.269C105.783 179.277 105.589 179.234 105.417 179.144C105.244 179.054 105.098 178.92 104.994 178.755C104.786 178.42 104.683 178.03 104.698 177.636L104.696 176.136ZM105.04 177.628C105.025 177.932 105.086 178.234 105.217 178.509C105.34 178.707 105.537 178.849 105.764 178.902C105.992 178.956 106.231 178.917 106.429 178.794C106.545 178.722 106.643 178.624 106.714 178.509C106.849 178.235 106.912 177.932 106.897 177.628V176.151C106.913 175.848 106.853 175.545 106.722 175.27C106.642 175.143 106.532 175.039 106.401 174.967C106.269 174.894 106.122 174.856 105.972 174.856C105.822 174.856 105.675 174.894 105.544 174.967C105.413 175.039 105.302 175.143 105.222 175.27C105.089 175.544 105.027 175.847 105.04 176.151V177.628Z" fill="#232323"/>
<path d="M105.934 187.652V183.393L105.138 183.717V183.357L106.278 182.916V187.652H105.934Z" fill="#232323"/>
<path d="M104.696 193.027C104.678 192.634 104.778 192.245 104.984 191.91C105.089 191.745 105.236 191.61 105.41 191.52C105.584 191.43 105.779 191.387 105.975 191.396C106.178 191.384 106.381 191.431 106.559 191.529C106.737 191.628 106.883 191.775 106.982 191.953C107.168 192.321 107.257 192.731 107.238 193.142V194.542C107.254 194.931 107.156 195.315 106.956 195.649C106.853 195.814 106.708 195.948 106.536 196.038C106.364 196.129 106.171 196.172 105.977 196.163C105.783 196.171 105.589 196.128 105.417 196.038C105.244 195.947 105.098 195.813 104.994 195.649C104.786 195.314 104.683 194.924 104.698 194.529L104.696 193.027ZM105.04 194.519C105.025 194.823 105.086 195.125 105.217 195.4C105.34 195.598 105.537 195.74 105.764 195.793C105.992 195.847 106.231 195.808 106.429 195.685C106.545 195.613 106.643 195.515 106.714 195.4C106.849 195.126 106.912 194.823 106.897 194.519V193.042C106.913 192.739 106.853 192.436 106.722 192.161C106.642 192.035 106.532 191.93 106.401 191.858C106.269 191.785 106.122 191.747 105.972 191.747C105.822 191.747 105.675 191.785 105.544 191.858C105.413 191.93 105.302 192.035 105.222 192.161C105.089 192.435 105.027 192.738 105.04 193.042V194.519Z" fill="#232323"/>
<path d="M123.244 170.761V166.505L122.445 166.826V166.467L123.585 166.025V170.761H123.244Z" fill="#232323"/>
<path d="M122.006 176.136C121.99 175.743 122.091 175.354 122.296 175.019C122.401 174.853 122.548 174.718 122.722 174.628C122.896 174.538 123.091 174.495 123.287 174.505C123.49 174.492 123.693 174.538 123.871 174.636C124.049 174.734 124.196 174.881 124.294 175.06C124.481 175.427 124.569 175.837 124.551 176.249V177.648C124.569 178.037 124.471 178.422 124.271 178.755C124.168 178.92 124.023 179.054 123.851 179.144C123.679 179.234 123.486 179.277 123.292 179.269C123.098 179.277 122.904 179.233 122.731 179.143C122.558 179.053 122.412 178.919 122.306 178.755C122.098 178.42 121.995 178.03 122.011 177.636L122.006 176.136ZM122.35 177.628C122.335 177.932 122.396 178.234 122.527 178.509C122.588 178.607 122.669 178.693 122.763 178.76C122.857 178.828 122.964 178.876 123.077 178.902C123.19 178.928 123.307 178.932 123.422 178.913C123.536 178.894 123.646 178.853 123.744 178.791C123.859 178.72 123.956 178.623 124.027 178.509C124.16 178.235 124.222 177.932 124.209 177.628V176.151C124.224 175.847 124.163 175.545 124.032 175.27C123.908 175.072 123.71 174.931 123.481 174.878C123.253 174.826 123.013 174.866 122.815 174.99C122.702 175.062 122.606 175.158 122.535 175.27C122.399 175.543 122.336 175.847 122.35 176.151V177.628Z" fill="#232323"/>
<path d="M123.244 187.652V183.394L122.445 183.712V183.353L123.585 182.911V187.647L123.244 187.652Z" fill="#232323"/>
<path d="M122.006 193.027C121.99 192.634 122.091 192.245 122.296 191.91C122.401 191.744 122.549 191.61 122.723 191.52C122.897 191.43 123.091 191.387 123.287 191.396C123.491 191.384 123.693 191.431 123.871 191.529C124.049 191.628 124.196 191.775 124.294 191.953C124.481 192.321 124.569 192.731 124.551 193.142V194.542C124.569 194.931 124.471 195.316 124.271 195.649C124.168 195.813 124.023 195.947 123.851 196.038C123.679 196.128 123.486 196.171 123.292 196.163C123.097 196.171 122.904 196.128 122.731 196.038C122.558 195.947 122.411 195.813 122.306 195.649C122.101 195.312 121.998 194.923 122.011 194.529L122.006 193.027ZM122.35 194.519C122.335 194.823 122.396 195.125 122.527 195.4C122.588 195.498 122.669 195.584 122.763 195.651C122.857 195.719 122.964 195.767 123.077 195.793C123.19 195.82 123.307 195.823 123.422 195.804C123.536 195.785 123.646 195.744 123.744 195.682C123.859 195.611 123.956 195.515 124.027 195.4C124.16 195.126 124.222 194.823 124.209 194.519V193.042C124.224 192.738 124.163 192.436 124.032 192.161C123.908 191.963 123.71 191.822 123.481 191.769C123.253 191.717 123.013 191.757 122.815 191.881C122.702 191.953 122.606 192.049 122.535 192.161C122.399 192.435 122.336 192.738 122.35 193.042V194.519Z" fill="#232323"/>
<path d="M2.39932 19.6042V11.386L0.858398 12.0126V11.3192L3.06191 10.4614V19.6042H2.39932Z" fill="#232323"/>
<path d="M44.7466 210V180.569L39.248 182.808V180.327L47.1298 177.261V210H44.7466Z" fill="white" stroke="#232323" stroke-width="0.51364" stroke-linecap="round" stroke-linejoin="round"/>
<path d="M164.088 52.6313V27.1162L159.324 29.0552V26.9056L166.155 24.2476V52.6313H164.088Z" fill="white" stroke="#232323" stroke-width="0.51364" stroke-linecap="round" stroke-linejoin="round"/>
<path d="M92.0089 24.4068V3.37069L88.0796 4.96554V3.19092L93.7116 1.00024V24.4068H92.0089Z" fill="white" stroke="#232323" stroke-width="0.51364" stroke-linecap="round" stroke-linejoin="round"/>
<path d="M0.00347147 30.008C-0.0288477 29.2471 0.165086 28.4937 0.56077 27.843C0.767182 27.5265 1.05292 27.2696 1.38952 27.0979C1.72612 26.9263 2.10183 26.8458 2.47921 26.8645C2.87242 26.8403 3.26437 26.9287 3.60915 27.1193C3.95392 27.3099 4.23725 27.5948 4.42591 27.9406C4.78689 28.6555 4.95591 29.452 4.91643 30.252V32.9588C4.94808 33.709 4.75876 34.452 4.37198 35.0956C4.17172 35.4122 3.89093 35.6698 3.55835 35.8422C3.22576 36.0146 2.85334 36.0955 2.47921 36.0766C2.10352 36.0941 1.72981 36.0127 1.39542 35.8405C1.06103 35.6684 0.777659 35.4115 0.573612 35.0956C0.172131 34.4468 -0.0264035 33.6929 0.00347147 32.9306V30.008ZM0.668634 32.8946C0.639517 33.4809 0.756908 34.0652 1.0102 34.5948C1.16403 34.8405 1.37777 35.0431 1.63136 35.1835C1.88495 35.3239 2.17007 35.3976 2.45995 35.3976C2.74983 35.3976 3.03495 35.3239 3.28854 35.1835C3.54214 35.0431 3.75588 34.8405 3.9097 34.5948C4.16846 34.0667 4.29033 33.4821 4.26411 32.8946V30.0362C4.29194 29.45 4.17461 28.866 3.92254 28.3361C3.76827 28.091 3.55437 27.889 3.30084 27.749C3.0473 27.609 2.76241 27.5355 2.47279 27.5355C2.18317 27.5355 1.89828 27.609 1.64475 27.749C1.39121 27.889 1.17732 28.091 1.02305 28.3361C0.764281 28.8651 0.64242 29.4505 0.668634 30.0388V32.8946Z" fill="#232323"/>
<path d="M2.39932 52.2767V44.0405L0.858398 44.6672V43.9738L3.06191 43.116V52.2767H2.39932Z" fill="#232323"/>
<path d="M0.00347147 62.6755C-0.0288477 61.9146 0.165086 61.1612 0.56077 60.5105C0.767182 60.194 1.05292 59.9371 1.38952 59.7654C1.72612 59.5937 2.10183 59.5133 2.47921 59.532C2.87242 59.5078 3.26437 59.5962 3.60915 59.7867C3.95392 59.9773 4.23725 60.2622 4.42591 60.6081C4.78571 61.3188 4.95473 62.1109 4.91643 62.9066V65.6161C4.94808 66.3662 4.75876 67.1092 4.37198 67.7528C4.17172 68.0694 3.89093 68.3271 3.55835 68.4994C3.22576 68.6718 2.85334 68.7527 2.47921 68.7338C2.10352 68.7513 1.72981 68.6699 1.39542 68.4978C1.06103 68.3256 0.777659 68.0687 0.573612 67.7528C0.172131 67.104 -0.0264035 66.3501 0.00347147 65.5878V62.6755ZM0.668634 65.575C0.639517 66.1612 0.756908 66.7456 1.0102 67.2751C1.16403 67.5208 1.37777 67.7234 1.63136 67.8638C1.88495 68.0042 2.17007 68.0779 2.45995 68.0779C2.74983 68.0779 3.03495 68.0042 3.28854 67.8638C3.54214 67.7234 3.75588 67.5208 3.9097 67.2751C4.16846 66.7471 4.29033 66.1624 4.26411 65.575V62.7037C4.29323 62.1166 4.17584 61.5315 3.92254 61.001C3.76827 60.7559 3.55437 60.5539 3.30084 60.4139C3.0473 60.2739 2.76241 60.2005 2.47279 60.2005C2.18317 60.2005 1.89828 60.2739 1.64475 60.4139C1.39121 60.5539 1.17732 60.7559 1.02305 61.001C0.764281 61.53 0.64242 62.1154 0.668634 62.7037V65.575Z" fill="#232323"/>
<path d="M0.00347147 79.0091C-0.0288477 78.2482 0.165086 77.4948 0.56077 76.8441C0.767182 76.5276 1.05292 76.2707 1.38952 76.0991C1.72612 75.9274 2.10183 75.8469 2.47921 75.8656C2.87237 75.8418 3.2642 75.9303 3.60892 76.1208C3.95364 76.3114 4.23701 76.5961 4.42591 76.9417C4.78571 77.6525 4.95473 78.4445 4.91643 79.2402V81.9497C4.94808 82.6999 4.75876 83.4429 4.37198 84.0864C4.17172 84.403 3.89093 84.6607 3.55835 84.8331C3.22576 85.0055 2.85334 85.0864 2.47921 85.0675C2.10344 85.0855 1.72954 85.0043 1.39505 84.8321C1.06057 84.6599 0.777279 84.4027 0.573612 84.0864C0.172131 83.4377 -0.0264035 82.6838 0.00347147 81.9214V79.0091ZM0.668634 81.8958C0.639517 82.482 0.756908 83.0664 1.0102 83.5959C1.16403 83.8416 1.37777 84.0442 1.63136 84.1846C1.88495 84.325 2.17007 84.3987 2.45995 84.3987C2.74983 84.3987 3.03495 84.325 3.28854 84.1846C3.54214 84.0442 3.75588 83.8416 3.9097 83.5959C4.16846 83.0679 4.29033 82.4832 4.26411 81.8958V79.0374C4.29323 78.4502 4.17584 77.8651 3.92254 77.3346C3.76827 77.0895 3.55437 76.8875 3.30084 76.7475C3.0473 76.6075 2.76241 76.5341 2.47279 76.5341C2.18317 76.5341 1.89828 76.6075 1.64475 76.7475C1.39121 76.8875 1.17732 77.0895 1.02305 77.3346C0.764281 77.8636 0.64242 78.4491 0.668634 79.0374V81.8958Z" fill="#232323"/>
<path d="M0.00347147 95.3429C-0.0288477 94.5821 0.165086 93.8287 0.56077 93.178C0.767182 92.8615 1.05292 92.6046 1.38952 92.4329C1.72612 92.2612 2.10183 92.1807 2.47921 92.1995C2.87242 92.1753 3.26437 92.2636 3.60915 92.4542C3.95392 92.6448 4.23725 92.9297 4.42591 93.2755C4.78571 93.9863 4.95473 94.7783 4.91643 95.5741V98.2835C4.94808 99.0337 4.75876 99.7767 4.37198 100.42C4.17172 100.737 3.89093 100.995 3.55835 101.167C3.22576 101.339 2.85334 101.42 2.47921 101.401C2.10352 101.419 1.72981 101.337 1.39542 101.165C1.06103 100.993 0.777659 100.736 0.573612 100.42C0.172131 99.7715 -0.0264035 99.0176 0.00347147 98.2553V95.3429ZM0.668634 98.2296C0.639517 98.8159 0.756908 99.4002 1.0102 99.9297C1.16403 100.175 1.37777 100.378 1.63136 100.518C1.88495 100.659 2.17007 100.733 2.45995 100.733C2.74983 100.733 3.03495 100.659 3.28854 100.518C3.54214 100.378 3.75588 100.175 3.9097 99.9297C4.16846 99.4017 4.29033 98.8171 4.26411 98.2296V95.3661C4.29323 94.7789 4.17584 94.1938 3.92254 93.6633C3.76827 93.4182 3.55437 93.2162 3.30084 93.0762C3.0473 92.9362 2.76241 92.8628 2.47279 92.8628C2.18317 92.8628 1.89828 92.9362 1.64475 93.0762C1.39121 93.2162 1.17732 93.4182 1.02305 93.6633C0.764281 94.1923 0.64242 94.7778 0.668634 95.3661V98.2296Z" fill="#232323"/>
<path d="M2.39932 117.612V109.375L0.858398 110.002V109.309L3.06191 108.451V117.612H2.39932Z" fill="#232323"/>
<path d="M2.39932 133.945V125.709L0.858398 126.336V125.642L3.06191 124.785V133.945H2.39932Z" fill="#232323"/>
<path d="M13.9386 43.604V35.3704L12.3977 35.997V35.301L14.6038 34.4458V43.604H13.9386Z" fill="#232323"/>
<path d="M11.5422 54.0179C11.5116 53.2569 11.7063 52.5037 12.1021 51.8529C12.308 51.5358 12.5935 51.2782 12.9302 51.1061C13.2669 50.9339 13.6428 50.8531 14.0205 50.8719C14.4135 50.8492 14.8048 50.9383 15.1493 51.1287C15.4938 51.3191 15.7773 51.6031 15.9672 51.9479C16.3271 52.6633 16.496 53.4595 16.4577 54.2593V56.9662C16.4881 57.7171 16.2989 58.4605 15.9133 59.1055C15.7123 59.4212 15.4313 59.6781 15.0988 59.85C14.7664 60.0219 14.3943 60.1026 14.0205 60.084C13.6451 60.1017 13.2715 60.0207 12.9371 59.849C12.6028 59.6773 12.3193 59.421 12.1149 59.1055C11.7127 58.457 11.5132 57.7031 11.5422 56.9405V54.0179ZM12.2099 56.902C12.1793 57.4892 12.2967 58.0747 12.5515 58.6047C12.7931 58.9883 13.177 59.2604 13.6189 59.3615C14.0608 59.4626 14.5247 59.3844 14.9091 59.144C15.1276 59.0077 15.3121 58.8232 15.4484 58.6047C15.7072 58.0757 15.829 57.4903 15.8028 56.902V54.0307C15.8329 53.4447 15.7163 52.8603 15.4638 52.3306C15.31 52.0849 15.0963 51.8823 14.8427 51.7419C14.5891 51.6015 14.304 51.5278 14.0141 51.5278C13.7242 51.5278 13.4391 51.6015 13.1855 51.7419C12.9319 51.8823 12.7182 52.0849 12.5643 52.3306C12.3056 52.8587 12.1837 53.4433 12.2099 54.0307V56.902Z" fill="#232323"/>
<path d="M13.9386 76.2713V68.0377L12.3977 68.6643V67.9684L14.6064 67.1157V76.2739L13.9386 76.2713Z" fill="#232323"/>
<path d="M11.5422 86.6727C11.5116 85.9116 11.7063 85.1585 12.1021 84.5077C12.308 84.1905 12.5935 83.933 12.9302 83.7609C13.2669 83.5887 13.6428 83.5079 14.0205 83.5266C14.4135 83.504 14.8048 83.5931 15.1493 83.7835C15.4938 83.9739 15.7773 84.2579 15.9672 84.6027C16.3271 85.3181 16.496 86.1143 16.4577 86.9141V89.621C16.4881 90.3719 16.2989 91.1153 15.9133 91.7603C15.7123 92.076 15.4313 92.3329 15.0988 92.5048C14.7664 92.6766 14.3943 92.7574 14.0205 92.7388C13.646 92.7576 13.2731 92.6782 12.9388 92.5083C12.6045 92.3385 12.3205 92.0841 12.1149 91.7706C11.7127 91.122 11.5132 90.3682 11.5422 89.6056V86.6727ZM12.2099 89.5568C12.1795 90.1432 12.2969 90.7278 12.5515 91.2569C12.7931 91.6405 13.177 91.9126 13.6189 92.0137C14.0608 92.1148 14.5247 92.0366 14.9091 91.7962C15.1276 91.6599 15.3121 91.4754 15.4484 91.2569C15.7072 90.728 15.829 90.1425 15.8028 89.5542V86.6984C15.8329 86.1123 15.7163 85.528 15.4638 84.9982C15.31 84.7525 15.0963 84.5499 14.8427 84.4095C14.5891 84.2691 14.304 84.1954 14.0141 84.1954C13.7242 84.1954 13.4391 84.2691 13.1855 84.4095C12.9319 84.5499 12.7182 84.7525 12.5643 84.9982C12.3056 85.5263 12.1837 86.1109 12.2099 86.6984V89.5568Z" fill="#232323"/>
<path d="M11.5422 103.006C11.5116 102.245 11.7063 101.492 12.1021 100.841C12.308 100.524 12.5935 100.267 12.9302 100.094C13.2669 99.9222 13.6428 99.8414 14.0205 99.8601C14.4135 99.8375 14.8048 99.9265 15.1493 100.117C15.4938 100.307 15.7773 100.591 15.9672 100.936C16.3271 101.652 16.496 102.448 16.4577 103.248V105.954C16.4881 106.705 16.2989 107.449 15.9133 108.094C15.7123 108.41 15.4313 108.666 15.0988 108.838C14.7664 109.01 14.3943 109.091 14.0205 109.072C13.6451 109.09 13.2715 109.009 12.9371 108.837C12.6028 108.666 12.3193 108.409 12.1149 108.094C11.7127 107.445 11.5132 106.691 11.5422 105.929V103.006ZM12.2099 105.89C12.1793 106.477 12.2967 107.063 12.5515 107.593C12.7931 107.977 13.177 108.249 13.6189 108.35C14.0608 108.451 14.5247 108.373 14.9091 108.132C15.1276 107.996 15.3121 107.812 15.4484 107.593C15.7072 107.064 15.829 106.479 15.8028 105.89V103.032C15.8329 102.446 15.7163 101.861 15.4638 101.332C15.31 101.086 15.0963 100.883 14.8427 100.743C14.5891 100.603 14.304 100.529 14.0141 100.529C13.7242 100.529 13.4391 100.603 13.1855 100.743C12.9319 100.883 12.7182 101.086 12.5643 101.332C12.3056 101.86 12.1837 102.444 12.2099 103.032V105.89Z" fill="#232323"/>
<path d="M11.5422 119.34C11.5116 118.579 11.7063 117.826 12.1021 117.175C12.308 116.858 12.5935 116.601 12.9302 116.428C13.2669 116.256 13.6428 116.175 14.0205 116.194C14.4135 116.171 14.8048 116.261 15.1493 116.451C15.4938 116.641 15.7773 116.925 15.9672 117.27C16.3271 117.986 16.496 118.782 16.4577 119.582V122.288C16.4881 123.039 16.2989 123.783 15.9133 124.428C15.7123 124.744 15.4313 125 15.0988 125.172C14.7664 125.344 14.3943 125.425 14.0205 125.406C13.6451 125.424 13.2715 125.343 12.9371 125.171C12.6028 125 12.3193 124.743 12.1149 124.428C11.7127 123.779 11.5132 123.025 11.5422 122.263V119.34ZM12.2099 122.224C12.1793 122.811 12.2967 123.397 12.5515 123.927C12.7931 124.311 13.177 124.583 13.6189 124.684C14.0608 124.785 14.5247 124.707 14.9091 124.466C15.1276 124.33 15.3121 124.146 15.4484 123.927C15.7072 123.398 15.829 122.813 15.8028 122.224V119.366C15.8329 118.78 15.7163 118.195 15.4638 117.666C15.31 117.42 15.0963 117.217 14.8427 117.077C14.5891 116.937 14.304 116.863 14.0141 116.863C13.7242 116.863 13.4391 116.937 13.1855 117.077C12.9319 117.217 12.7182 117.42 12.5643 117.666C12.3056 118.194 12.1837 118.778 12.2099 119.366V122.224Z" fill="#232323"/>
<path d="M13.9386 141.607V133.375L12.3977 134.002V133.306L14.6038 132.451V141.609L13.9386 141.607Z" fill="#232323"/>
<path d="M13.9386 157.94V149.707L12.3977 150.333V149.637L14.6064 148.785V157.943L13.9386 157.94Z" fill="#232323"/>
<path d="M44.048 23.4745V15.2383L42.5071 15.8649V15.1715L44.7132 14.3137V23.4745H44.048Z" fill="#232323"/>
<path d="M41.6519 33.873C41.6207 33.1122 41.8146 32.3591 42.2092 31.708C42.4161 31.3913 42.7022 31.1343 43.0393 30.9626C43.3763 30.7909 43.7525 30.7106 44.1303 30.7295C44.5235 30.7053 44.9154 30.7937 45.2602 30.9843C45.605 31.1748 45.8883 31.4597 46.077 31.8056C46.4349 32.5169 46.6029 33.3087 46.5649 34.1041V36.811C46.5981 37.5613 46.4087 38.3048 46.0205 38.9477C45.8206 39.2641 45.5403 39.5217 45.2081 39.6941C44.876 39.8665 44.504 39.9475 44.1303 39.9288C43.7546 39.9463 43.3808 39.8649 43.0465 39.6927C42.7121 39.5205 42.4287 39.2637 42.2247 38.9477C41.821 38.2998 41.6214 37.5455 41.6519 36.7827V33.873ZM42.3171 36.7596C42.2871 37.3457 42.4036 37.93 42.6561 38.4598C42.8099 38.7055 43.0237 38.908 43.2773 39.0485C43.5309 39.1889 43.816 39.2626 44.1059 39.2626C44.3957 39.2626 44.6809 39.1889 44.9344 39.0485C45.188 38.908 45.4018 38.7055 45.5556 38.4598C45.8151 37.9319 45.9379 37.3473 45.9126 36.7596V33.9012C45.9426 33.3143 45.8261 32.7292 45.5736 32.1985C45.4327 31.9393 45.2203 31.726 44.9617 31.584C44.7031 31.4419 44.4092 31.3771 44.1148 31.3972C43.8231 31.3784 43.5321 31.444 43.2767 31.5861C43.0212 31.7281 42.812 31.9408 42.6741 32.1985C42.4153 32.7275 42.2935 33.3129 42.3197 33.9012L42.3171 36.7596Z" fill="#232323"/>
<path d="M44.048 56.1417V47.9055L42.5071 48.5322V47.8387L44.7132 46.981V56.1417H44.048Z" fill="#232323"/>
<path d="M41.6519 66.5407C41.6207 65.7799 41.8146 65.0268 42.2092 64.3757C42.4161 64.059 42.7022 63.802 43.0393 63.6304C43.3763 63.4587 43.7525 63.3783 44.1303 63.3972C44.5235 63.373 44.9154 63.4614 45.2602 63.652C45.605 63.8426 45.8883 64.1275 46.077 64.4733C46.437 65.1885 46.6052 65.985 46.5649 66.7847V69.4941C46.5981 70.2445 46.4087 70.9879 46.0205 71.6309C45.8206 71.9472 45.5403 72.2048 45.2081 72.3772C44.876 72.5496 44.504 72.6306 44.1303 72.6119C43.7546 72.6294 43.3808 72.548 43.0465 72.3758C42.7121 72.2037 42.4287 71.9468 42.2247 71.6309C41.821 70.983 41.6214 70.2286 41.6519 69.4659V66.5407ZM42.3171 69.4274C42.2871 70.0134 42.4036 70.5978 42.6561 71.1275C42.8099 71.3732 43.0237 71.5758 43.2773 71.7162C43.5309 71.8566 43.816 71.9303 44.1059 71.9303C44.3957 71.9303 44.6809 71.8566 44.9344 71.7162C45.188 71.5758 45.4018 71.3732 45.5556 71.1275C45.8151 70.5996 45.9379 70.015 45.9126 69.4274V66.569C45.9426 65.982 45.8261 65.3969 45.5736 64.8662C45.4327 64.607 45.2203 64.3938 44.9617 64.2517C44.7031 64.1097 44.4092 64.0449 44.1148 64.065C43.8231 64.0462 43.5321 64.1117 43.2767 64.2538C43.0212 64.3959 42.812 64.6085 42.6741 64.8662C42.4153 65.3952 42.2935 65.9807 42.3197 66.569L42.3171 69.4274Z" fill="#232323"/>
<path d="M58.7357 23.4745V15.2383L57.1948 15.8649V15.1715L59.4009 14.3137V23.4745H58.7357Z" fill="#232323"/>
<path d="M56.3393 33.873C56.3087 33.1119 56.5034 32.3588 56.8992 31.708C57.1054 31.3913 57.3911 31.1343 57.7277 30.9626C58.0644 30.7909 58.4402 30.7105 58.8176 30.7295C59.2108 30.7053 59.6028 30.7937 59.9476 30.9843C60.2923 31.1748 60.5756 31.4597 60.7643 31.8056C61.1241 32.5163 61.2931 33.3084 61.2548 34.1041V36.811C61.2865 37.5612 61.0972 38.3042 60.7104 38.9477C60.5092 39.2634 60.2282 39.5203 59.8958 39.6926C59.5635 39.8649 59.1915 39.9463 58.8176 39.9288C58.4419 39.9463 58.0682 39.8649 57.7338 39.6927C57.3994 39.5205 57.1161 39.2637 56.912 38.9477C56.5098 38.2992 56.3104 37.5453 56.3393 36.7827V33.873ZM57.007 36.7596C56.9766 37.346 57.0941 37.9306 57.3486 38.4598C57.5021 38.7055 57.7156 38.9081 57.969 39.0486C58.2224 39.1891 58.5074 39.2628 58.7971 39.2628C59.0868 39.2628 59.3718 39.1891 59.6252 39.0486C59.8786 38.9081 60.092 38.7055 60.2455 38.4598C60.5043 37.9317 60.6262 37.3471 60.6 36.7596V33.9012C60.63 33.3143 60.5135 32.7292 60.2609 32.1985C60.1067 31.9534 59.8928 31.7514 59.6392 31.6114C59.3857 31.4714 59.1008 31.398 58.8112 31.398C58.5216 31.398 58.2367 31.4714 57.9832 31.6114C57.7296 31.7514 57.5157 31.9534 57.3614 32.1985C57.1027 32.7275 56.9808 33.3129 57.007 33.9012V36.7596Z" fill="#232323"/>
<path d="M31.0812 33.5059C31.0812 30.0337 31.8148 27.1873 33.2821 24.9666C34.9943 22.3881 37.5188 21.104 40.8558 21.1143C44.3639 21.1143 46.9235 22.5285 48.5347 25.357C49.8239 27.6119 50.4685 30.6372 50.4685 34.433V45.1064C50.4685 48.5444 49.752 51.3549 48.3189 53.5378C46.6359 56.1163 44.1482 57.4055 40.8558 57.4055C37.5633 57.4055 35.0542 56.1163 33.3284 53.5378C31.8251 51.2829 31.0735 48.4374 31.0735 45.0011L31.0812 33.5059ZM33.711 44.8933C33.711 47.756 34.1587 49.9937 35.0542 51.6065C36.2356 53.7176 38.1514 54.7731 40.8018 54.7731C43.4128 54.7731 45.3099 53.7176 46.493 51.6065C47.4244 49.9235 47.8901 47.6858 47.8901 44.8933V33.6137C47.8901 30.7493 47.4423 28.5116 46.5469 26.9005C45.3655 24.7894 43.4505 23.733 40.8018 23.7313C38.1874 23.7313 36.2895 24.7877 35.1081 26.9005C34.1767 28.5852 33.711 30.823 33.711 33.6137V44.8933Z" fill="white" stroke="#232323" stroke-width="0.51364" stroke-linecap="round" stroke-linejoin="round"/>
<path d="M138.013 178.517C138.013 175.551 138.641 173.12 139.896 171.223C141.361 169.019 143.517 167.918 146.362 167.92C149.359 167.92 151.545 169.128 152.922 171.544C154.024 173.47 154.575 176.055 154.575 179.297V188.425C154.575 191.359 153.963 193.756 152.739 195.616C151.301 197.819 149.175 198.92 146.362 198.918C143.549 198.917 141.409 197.816 139.942 195.616C138.658 193.689 138.015 191.258 138.013 188.322V178.517ZM140.263 188.242C140.263 190.687 140.645 192.598 141.408 193.975C142.417 195.779 144.053 196.681 146.316 196.681C148.542 196.681 150.163 195.779 151.18 193.975C151.975 192.54 152.372 190.629 152.372 188.242V178.609C152.372 176.162 151.99 174.251 151.227 172.874C150.216 171.071 148.58 170.169 146.316 170.167C144.09 170.167 142.47 171.07 141.455 172.874C140.658 174.312 140.261 176.224 140.263 178.609V188.242Z" fill="white" stroke="#232323" stroke-width="0.51364" stroke-linecap="round" stroke-linejoin="round"/>
<path d="M58.7357 56.1417V47.9055L57.1948 48.5322V47.8387L59.4009 46.981V56.1417H58.7357Z" fill="#232323"/>
<path d="M56.3393 66.5407C56.3087 65.7797 56.5034 65.0265 56.8992 64.3757C57.1054 64.059 57.3911 63.802 57.7277 63.6303C58.0644 63.4586 58.4402 63.3782 58.8176 63.3972C59.2108 63.373 59.6028 63.4614 59.9476 63.652C60.2923 63.8426 60.5756 64.1275 60.7643 64.4733C61.1253 65.1883 61.2943 65.9847 61.2548 66.7847V69.4941C61.2865 70.2443 61.0972 70.9873 60.7104 71.6309C60.5092 71.9465 60.2282 72.2035 59.8958 72.3757C59.5635 72.548 59.1915 72.6295 58.8176 72.6119C58.4419 72.6294 58.0682 72.548 57.7338 72.3758C57.3994 72.2037 57.1161 71.9468 56.912 71.6309C56.5098 70.9823 56.3104 70.2285 56.3393 69.4659V66.5407ZM57.007 69.4274C56.9766 70.0137 57.0941 70.5984 57.3486 71.1275C57.5021 71.3732 57.7156 71.5759 57.969 71.7163C58.2224 71.8568 58.5074 71.9305 58.7971 71.9305C59.0868 71.9305 59.3718 71.8568 59.6252 71.7163C59.8786 71.5759 60.092 71.3732 60.2455 71.1275C60.5043 70.5994 60.6262 70.0148 60.5999 69.4274V66.569C60.63 65.982 60.5135 65.3969 60.2609 64.8662C60.1067 64.6211 59.8928 64.4191 59.6392 64.2791C59.3857 64.1391 59.1008 64.0657 58.8112 64.0657C58.5216 64.0657 58.2367 64.1391 57.9832 64.2791C57.7296 64.4191 57.5157 64.6211 57.3614 64.8662C57.1027 65.3952 56.9808 65.9807 57.007 66.569V69.4274Z" fill="#232323"/>
<path d="M123.986 23.4745V15.2383L122.445 15.8649V15.1715L124.648 14.3137V23.4745H123.986Z" fill="#232323"/>
<path d="M121.597 33.873C121.565 33.1121 121.759 32.3587 122.155 31.708C122.361 31.3915 122.647 31.1346 122.983 30.9629C123.32 30.7913 123.696 30.7108 124.073 30.7295C124.466 30.7053 124.858 30.7937 125.203 30.9843C125.548 31.1748 125.831 31.4597 126.02 31.8056C126.379 32.5163 126.548 33.3084 126.51 34.1041V36.811C126.542 37.5612 126.353 38.3042 125.966 38.9477C125.765 39.2641 125.484 39.5217 125.152 39.694C124.819 39.8664 124.447 39.9474 124.073 39.9288C123.697 39.9463 123.324 39.8649 122.989 39.6927C122.655 39.5205 122.371 39.2637 122.167 38.9477C121.766 38.299 121.567 37.5451 121.597 36.7827V33.873ZM122.262 36.7596C122.233 37.3459 122.351 37.9302 122.604 38.4598C122.758 38.7055 122.972 38.908 123.225 39.0485C123.479 39.1889 123.764 39.2626 124.054 39.2626C124.344 39.2626 124.629 39.1889 124.882 39.0485C125.136 38.908 125.35 38.7055 125.503 38.4598C125.762 37.9317 125.884 37.3471 125.858 36.7596V33.9012C125.892 33.3116 125.778 32.7227 125.527 32.1882C125.372 31.9431 125.158 31.7411 124.905 31.6011C124.651 31.4611 124.366 31.3877 124.077 31.3877C123.787 31.3877 123.502 31.4611 123.249 31.6011C122.995 31.7411 122.781 31.9431 122.627 32.1882C122.368 32.7172 122.246 33.3027 122.273 33.891L122.262 36.7596Z" fill="#232323"/>
<path d="M123.986 56.1417V47.9055L122.445 48.5322V47.8387L124.648 46.981V56.1417H123.986Z" fill="#232323"/>
<path d="M121.597 66.5407C121.565 65.7798 121.759 65.0264 122.155 64.3757C122.361 64.0592 122.647 63.8023 122.983 63.6307C123.32 63.459 123.696 63.3785 124.073 63.3972C124.466 63.373 124.858 63.4614 125.203 63.652C125.548 63.8426 125.831 64.1275 126.02 64.4733C126.382 65.1877 126.551 65.9846 126.51 66.7847V69.4941C126.542 70.2443 126.353 70.9873 125.966 71.6309C125.765 71.9473 125.484 72.2048 125.152 72.3772C124.819 72.5495 124.447 72.6305 124.073 72.6119C123.697 72.6294 123.324 72.548 122.989 72.3758C122.655 72.2037 122.371 71.9468 122.167 71.6309C121.766 70.9821 121.567 70.2282 121.597 69.4659V66.5407ZM122.262 69.4274C122.233 70.0136 122.351 70.598 122.604 71.1275C122.758 71.3732 122.972 71.5758 123.225 71.7162C123.479 71.8566 123.764 71.9303 124.054 71.9303C124.344 71.9303 124.629 71.8566 124.882 71.7162C125.136 71.5758 125.35 71.3732 125.503 71.1275C125.762 70.5994 125.884 70.0148 125.858 69.4274V66.569C125.887 65.9818 125.77 65.3967 125.516 64.8662C125.362 64.6211 125.148 64.4191 124.895 64.2791C124.641 64.1391 124.356 64.0657 124.067 64.0657C123.777 64.0657 123.492 64.1391 123.238 64.2791C122.985 64.4191 122.771 64.6211 122.617 64.8662C122.358 65.3952 122.236 65.9807 122.262 66.569V69.4274Z" fill="#232323"/>
<path d="M138.681 23.4745V15.2383L137.14 15.8649V15.1715L139.344 14.3137V23.4745H138.681Z" fill="#232323"/>
<path d="M136.285 33.8732C136.253 33.1123 136.447 32.3589 136.842 31.7082C137.049 31.3915 137.335 31.1345 137.672 30.9628C138.009 30.7911 138.385 30.7108 138.763 30.7297C139.156 30.7057 139.548 30.7942 139.892 30.9847C140.236 31.1753 140.519 31.4601 140.707 31.8058C141.067 32.5165 141.236 33.3086 141.198 34.1043V36.8112C141.231 37.5615 141.042 38.3049 140.653 38.9479C140.454 39.2643 140.173 39.5219 139.841 39.6943C139.509 39.8666 139.137 39.9477 138.763 39.929C138.387 39.9472 138.013 39.8662 137.679 39.6939C137.344 39.5217 137.061 39.2644 136.858 38.9479C136.454 38.3 136.254 37.5457 136.285 36.7829V33.8732ZM136.953 36.7598C136.923 37.3459 137.039 37.9302 137.292 38.46C137.446 38.7057 137.659 38.9082 137.913 39.0487C138.166 39.1891 138.452 39.2628 138.741 39.2628C139.031 39.2628 139.316 39.1891 139.57 39.0487C139.824 38.9082 140.037 38.7057 140.191 38.46C140.45 37.9319 140.572 37.3473 140.546 36.7598V33.9014C140.576 33.3142 140.459 32.7287 140.204 32.1987C140.05 31.9536 139.836 31.7516 139.582 31.6116C139.329 31.4716 139.044 31.3982 138.754 31.3982C138.465 31.3982 138.18 31.4716 137.926 31.6116C137.673 31.7516 137.459 31.9536 137.305 32.1987C137.048 32.7283 136.927 33.3134 136.953 33.9014V36.7598Z" fill="#232323"/>
<path d="M138.681 56.1417V47.9055L137.14 48.5322V47.8387L139.344 46.981V56.1417H138.681Z" fill="#232323"/>
<path d="M136.285 66.5406C136.253 65.7798 136.447 65.0264 136.842 64.3756C137.049 64.059 137.335 63.802 137.672 63.6303C138.009 63.4586 138.385 63.3782 138.763 63.3972C139.156 63.3732 139.548 63.4616 139.892 63.6522C140.236 63.8428 140.519 64.1276 140.707 64.4732C141.07 65.1877 141.239 65.9846 141.198 66.7846V69.4941C141.231 70.2444 141.042 70.9878 140.653 71.6308C140.454 71.9472 140.173 72.2048 139.841 72.3772C139.509 72.5495 139.137 72.6305 138.763 72.6119C138.387 72.6301 138.013 72.5491 137.679 72.3768C137.344 72.2046 137.061 71.9473 136.858 71.6308C136.454 70.9829 136.254 70.2286 136.285 69.4658V66.5406ZM136.953 69.4273C136.923 70.0134 137.039 70.5977 137.292 71.1274C137.446 71.3731 137.659 71.5757 137.913 71.7162C138.166 71.8566 138.452 71.9303 138.741 71.9303C139.031 71.9303 139.316 71.8566 139.57 71.7162C139.824 71.5757 140.037 71.3731 140.191 71.1274C140.45 70.5994 140.572 70.0148 140.546 69.4273V66.5689C140.576 65.9817 140.459 65.3962 140.204 64.8662C140.05 64.6211 139.836 64.4191 139.582 64.2791C139.329 64.1391 139.044 64.0656 138.754 64.0656C138.465 64.0656 138.18 64.1391 137.926 64.2791C137.673 64.4191 137.459 64.6211 137.305 64.8662C137.048 65.3958 136.927 65.9809 136.953 66.5689V69.4273Z" fill="#232323"/>
<path d="M178.057 43.604V35.3704L176.516 35.997V35.301L178.722 34.4458V43.604H178.057Z" fill="#232323"/>
<path d="M175.66 54.0179C175.63 53.2569 175.824 52.5037 176.22 51.8529C176.426 51.5358 176.712 51.2782 177.048 51.1061C177.385 50.9339 177.761 50.8531 178.139 50.8719C178.532 50.8492 178.923 50.9383 179.267 51.1287C179.612 51.3191 179.896 51.6031 180.085 51.9479C180.445 52.6633 180.614 53.4595 180.576 54.2593V56.9662C180.606 57.7171 180.417 58.4605 180.031 59.1055C179.83 59.4212 179.549 59.6781 179.217 59.85C178.885 60.0219 178.512 60.1026 178.139 60.084C177.763 60.1017 177.39 60.0207 177.055 59.849C176.721 59.6773 176.437 59.421 176.233 59.1055C175.831 58.457 175.631 57.7031 175.66 56.9405V54.0179ZM176.328 56.902C176.297 57.4892 176.415 58.0747 176.67 58.6047C176.911 58.9883 177.295 59.2604 177.737 59.3615C178.179 59.4626 178.643 59.3844 179.027 59.144C179.246 59.0077 179.43 58.8232 179.567 58.6047C179.825 58.0757 179.947 57.4903 179.921 56.902V54.0307C179.951 53.4447 179.834 52.8603 179.582 52.3306C179.428 52.0849 179.214 51.8823 178.961 51.7419C178.707 51.6015 178.422 51.5278 178.132 51.5278C177.842 51.5278 177.557 51.6015 177.304 51.7419C177.05 51.8823 176.836 52.0849 176.682 52.3306C176.424 52.8587 176.302 53.4433 176.328 54.0307V56.902Z" fill="#232323"/>
<path d="M178.057 76.2715V68.0378L176.516 68.6645V67.9685L178.722 67.1133V76.2715H178.057Z" fill="#232323"/>
<path d="M175.66 86.6727C175.63 85.9116 175.824 85.1585 176.22 84.5077C176.426 84.1905 176.712 83.933 177.048 83.7609C177.385 83.5887 177.761 83.5079 178.139 83.5266C178.532 83.504 178.923 83.5931 179.267 83.7835C179.612 83.9739 179.896 84.2579 180.085 84.6027C180.445 85.3181 180.614 86.1143 180.576 86.9141V89.621C180.606 90.3719 180.417 91.1153 180.031 91.7603C179.83 92.076 179.549 92.3329 179.217 92.5048C178.885 92.6766 178.512 92.7574 178.139 92.7388C177.763 92.7565 177.39 92.6755 177.055 92.5038C176.721 92.3321 176.437 92.0758 176.233 91.7603C175.831 91.1118 175.631 90.3579 175.66 89.5953V86.6727ZM176.328 89.5568C176.297 90.144 176.415 90.7295 176.67 91.2595C176.911 91.6431 177.295 91.9152 177.737 92.0163C178.179 92.1174 178.643 92.0392 179.027 91.7988C179.246 91.6625 179.43 91.478 179.567 91.2595C179.825 90.7305 179.947 90.1451 179.921 89.5568V86.6984C179.951 86.1123 179.834 85.528 179.582 84.9982C179.428 84.7525 179.214 84.5499 178.961 84.4095C178.707 84.2691 178.422 84.1954 178.132 84.1954C177.842 84.1954 177.557 84.2691 177.304 84.4095C177.05 84.5499 176.836 84.7525 176.682 84.9982C176.424 85.5263 176.302 86.1109 176.328 86.6984V89.5568Z" fill="#232323"/>
<path d="M175.66 103.006C175.63 102.245 175.824 101.492 176.22 100.841C176.426 100.524 176.712 100.267 177.048 100.094C177.385 99.9222 177.761 99.8414 178.139 99.8601C178.532 99.8375 178.923 99.9265 179.267 100.117C179.612 100.307 179.896 100.591 180.085 100.936C180.445 101.652 180.614 102.448 180.576 103.248V105.954C180.606 106.705 180.417 107.449 180.031 108.094C179.83 108.41 179.549 108.666 179.217 108.838C178.885 109.01 178.512 109.091 178.139 109.072C177.763 109.09 177.39 109.009 177.055 108.837C176.721 108.666 176.437 108.409 176.233 108.094C175.831 107.445 175.631 106.691 175.66 105.929V103.006ZM176.328 105.89C176.297 106.477 176.415 107.063 176.67 107.593C176.911 107.977 177.295 108.249 177.737 108.35C178.179 108.451 178.643 108.373 179.027 108.132C179.246 107.996 179.43 107.812 179.567 107.593C179.825 107.066 179.947 106.482 179.921 105.895V103.032C179.951 102.446 179.834 101.861 179.582 101.332C179.428 101.086 179.214 100.883 178.961 100.743C178.707 100.603 178.422 100.529 178.132 100.529C177.842 100.529 177.557 100.603 177.304 100.743C177.05 100.883 176.836 101.086 176.682 101.332C176.424 101.86 176.302 102.444 176.328 103.032V105.89Z" fill="#232323"/>
<path d="M175.66 119.34C175.63 118.579 175.824 117.826 176.22 117.175C176.426 116.858 176.712 116.601 177.048 116.428C177.385 116.256 177.761 116.175 178.139 116.194C178.532 116.171 178.923 116.261 179.267 116.451C179.612 116.641 179.896 116.925 180.085 117.27C180.445 117.986 180.614 118.782 180.576 119.582V122.288C180.606 123.039 180.417 123.783 180.031 124.428C179.83 124.744 179.549 125 179.217 125.172C178.885 125.344 178.512 125.425 178.139 125.406C177.763 125.424 177.39 125.343 177.055 125.171C176.721 125 176.437 124.743 176.233 124.428C175.831 123.779 175.631 123.025 175.66 122.263V119.34ZM176.328 122.224C176.297 122.811 176.415 123.397 176.67 123.927C176.911 124.311 177.295 124.583 177.737 124.684C178.179 124.785 178.643 124.707 179.027 124.466C179.246 124.33 179.43 124.146 179.567 123.927C179.825 123.398 179.947 122.813 179.921 122.224V119.366C179.951 118.78 179.834 118.195 179.582 117.666C179.428 117.42 179.214 117.217 178.961 117.077C178.707 116.937 178.422 116.863 178.132 116.863C177.842 116.863 177.557 116.937 177.304 117.077C177.05 117.217 176.836 117.42 176.682 117.666C176.424 118.194 176.302 118.778 176.328 119.366V122.224Z" fill="#232323"/>
<path d="M178.057 141.607V133.375L176.516 134.002V133.306L178.722 132.451V141.609L178.057 141.607Z" fill="#232323"/>
<path d="M178.057 157.94V149.707L176.516 150.333V149.637L178.722 148.782V157.94H178.057Z" fill="#232323"/>
<path d="M191.288 155.976V151.717L190.492 152.041V151.681L191.632 151.24V155.976H191.288Z" fill="#232323"/>
<path d="M190.05 161.351C190.032 160.958 190.132 160.569 190.338 160.234C190.443 160.069 190.59 159.934 190.764 159.844C190.938 159.754 191.133 159.711 191.329 159.72C191.532 159.708 191.735 159.754 191.913 159.852C192.091 159.951 192.238 160.098 192.336 160.277C192.522 160.645 192.611 161.054 192.592 161.466V162.866C192.608 163.255 192.51 163.639 192.31 163.973C192.207 164.138 192.062 164.272 191.89 164.363C191.718 164.453 191.525 164.496 191.331 164.487C191.137 164.495 190.943 164.452 190.771 164.362C190.598 164.271 190.452 164.137 190.348 163.973C190.14 163.637 190.037 163.248 190.052 162.853L190.05 161.351ZM190.394 162.843C190.379 163.147 190.44 163.449 190.571 163.724C190.694 163.922 190.891 164.064 191.118 164.117C191.346 164.171 191.585 164.132 191.783 164.009C191.899 163.937 191.997 163.839 192.068 163.724C192.203 163.45 192.266 163.147 192.251 162.843V161.369C192.267 161.065 192.207 160.762 192.076 160.488C191.996 160.361 191.886 160.257 191.755 160.184C191.623 160.112 191.476 160.074 191.326 160.074C191.176 160.074 191.029 160.112 190.898 160.184C190.767 160.257 190.656 160.361 190.576 160.488C190.443 160.762 190.381 161.065 190.394 161.369V162.843Z" fill="#232323"/>
<path d="M191.288 172.867V168.608L190.492 168.932V168.572L191.632 168.128V172.867H191.288Z" fill="#232323"/>
<path d="M190.05 178.242C190.032 177.849 190.132 177.46 190.338 177.125C190.443 176.96 190.59 176.825 190.764 176.735C190.938 176.645 191.133 176.602 191.329 176.611C191.532 176.599 191.735 176.645 191.913 176.743C192.091 176.842 192.238 176.99 192.336 177.168C192.522 177.536 192.611 177.946 192.592 178.357V179.757C192.608 180.146 192.51 180.53 192.31 180.864C192.207 181.029 192.062 181.164 191.89 181.254C191.718 181.344 191.525 181.387 191.331 181.378C191.137 181.386 190.943 181.343 190.771 181.253C190.598 181.162 190.452 181.028 190.348 180.864C190.14 180.529 190.037 180.139 190.052 179.744L190.05 178.242ZM190.394 179.734C190.379 180.038 190.44 180.341 190.571 180.615C190.694 180.813 190.891 180.955 191.118 181.008C191.346 181.062 191.585 181.023 191.783 180.9C191.899 180.828 191.997 180.731 192.068 180.615C192.203 180.341 192.266 180.038 192.251 179.734V178.257C192.267 177.954 192.207 177.651 192.076 177.376C191.996 177.25 191.886 177.145 191.755 177.073C191.623 177 191.476 176.962 191.326 176.962C191.176 176.962 191.029 177 190.898 177.073C190.767 177.145 190.656 177.25 190.576 177.376C190.443 177.65 190.381 177.953 190.394 178.257V179.734Z" fill="#232323"/>
<path d="M190.05 186.688C190.032 186.295 190.132 185.905 190.338 185.569C190.443 185.404 190.591 185.269 190.765 185.179C190.939 185.089 191.133 185.046 191.329 185.055C191.532 185.042 191.735 185.088 191.913 185.186C192.091 185.284 192.238 185.431 192.336 185.61C192.523 185.977 192.611 186.387 192.593 186.799V188.201C192.608 188.589 192.51 188.973 192.31 189.305C192.208 189.471 192.063 189.606 191.891 189.696C191.719 189.786 191.526 189.829 191.332 189.819C191.137 189.828 190.943 189.785 190.77 189.695C190.598 189.605 190.452 189.47 190.348 189.305C190.14 188.97 190.037 188.58 190.053 188.186L190.05 186.688ZM190.394 188.181C190.379 188.484 190.44 188.786 190.571 189.059C190.694 189.257 190.891 189.399 191.119 189.452C191.346 189.506 191.585 189.467 191.784 189.344C191.899 189.272 191.997 189.175 192.069 189.059C192.203 188.786 192.265 188.484 192.251 188.181V186.701C192.267 186.399 192.207 186.097 192.076 185.823C192.015 185.724 191.935 185.639 191.841 185.572C191.746 185.504 191.639 185.456 191.526 185.43C191.413 185.403 191.296 185.4 191.182 185.419C191.067 185.438 190.958 185.479 190.859 185.54C190.744 185.612 190.648 185.708 190.577 185.823C190.444 186.096 190.381 186.398 190.394 186.701V188.181Z" fill="#232323"/>
<path d="M190.836 19.6042V11.386L189.295 12.0126V11.3192L191.501 10.4614V19.6042H190.836Z" fill="#232323"/>
<path d="M188.447 30.008C188.415 29.2471 188.609 28.4937 189.005 27.843C189.211 27.5263 189.498 27.2693 189.835 27.0976C190.172 26.926 190.548 26.8456 190.926 26.8645C191.319 26.8403 191.711 26.9287 192.056 27.1193C192.4 27.3099 192.684 27.5948 192.872 27.9406C193.232 28.6558 193.401 29.4522 193.36 30.252V32.9588C193.393 33.7092 193.204 34.4526 192.816 35.0956C192.616 35.412 192.336 35.6695 192.003 35.8419C191.671 36.0143 191.299 36.0953 190.926 36.0766C190.55 36.0941 190.176 36.0127 189.842 35.8406C189.507 35.6684 189.224 35.4115 189.02 35.0956C188.616 34.4477 188.417 33.6934 188.447 32.9306V30.008ZM189.115 32.8946C189.085 33.4807 189.202 34.065 189.454 34.5948C189.608 34.8405 189.822 35.0431 190.075 35.1835C190.329 35.3239 190.614 35.3976 190.904 35.3976C191.194 35.3976 191.479 35.3239 191.732 35.1835C191.986 35.0431 192.2 34.8405 192.354 34.5948C192.612 34.0667 192.734 33.4821 192.708 32.8946V30.0362C192.739 29.449 192.621 28.8635 192.366 28.3335C192.212 28.0902 191.998 27.89 191.745 27.7513C191.492 27.6127 191.208 27.5401 190.92 27.5403C190.631 27.5406 190.348 27.6137 190.095 27.7528C189.842 27.8919 189.629 28.0925 189.475 28.3361C189.216 28.8651 189.094 29.4505 189.12 30.0388L189.115 32.8946Z" fill="#232323"/>
<path d="M190.836 52.2767V44.0405L189.295 44.6672V43.9738L191.501 43.116V52.2767H190.836Z" fill="#232323"/>
<path d="M188.447 62.6755C188.415 61.9146 188.609 61.1612 189.005 60.5105C189.211 60.1938 189.498 59.9368 189.835 59.7651C190.172 59.5934 190.548 59.5131 190.926 59.532C191.319 59.5078 191.711 59.5962 192.056 59.7867C192.4 59.9773 192.684 60.2622 192.872 60.6081C193.23 61.3194 193.398 62.1112 193.36 62.9066V65.6161C193.393 66.3664 193.204 67.1098 192.816 67.7528C192.616 68.0692 192.336 68.3267 192.003 68.4991C191.671 68.6715 191.299 68.7525 190.926 68.7338C190.55 68.7513 190.176 68.6699 189.842 68.4978C189.507 68.3256 189.224 68.0687 189.02 67.7528C188.616 67.1049 188.417 66.3506 188.447 65.5878V62.6755ZM189.115 65.575C189.085 66.161 189.202 66.7454 189.454 67.2751C189.608 67.5208 189.822 67.7234 190.075 67.8638C190.329 68.0042 190.614 68.0779 190.904 68.0779C191.194 68.0779 191.479 68.0042 191.732 67.8638C191.986 67.7234 192.2 67.5208 192.354 67.2751C192.612 66.7471 192.734 66.1624 192.708 65.575V62.7037C192.739 62.1165 192.621 61.531 192.366 61.001C192.125 60.6174 191.741 60.3453 191.299 60.2442C190.857 60.1431 190.393 60.2213 190.009 60.4617C189.79 60.598 189.606 60.7825 189.469 61.001C189.211 61.53 189.089 62.1154 189.115 62.7037V65.575Z" fill="#232323"/>
<path d="M188.447 79.0092C188.415 78.2483 188.609 77.495 189.005 76.8442C189.211 76.5275 189.498 76.2706 189.835 76.0989C190.172 75.9272 190.548 75.8468 190.926 75.8658C191.319 75.8431 191.71 75.9322 192.054 76.1226C192.399 76.313 192.682 76.597 192.872 76.9418C193.23 77.6532 193.398 78.4449 193.36 79.2404V81.9498C193.393 82.7002 193.204 83.4436 192.816 84.0866C192.616 84.4031 192.336 84.6608 192.004 84.8333C191.672 85.0057 191.299 85.0866 190.926 85.0676C190.55 85.0859 190.176 85.0048 189.841 84.8326C189.507 84.6604 189.223 84.403 189.02 84.0866C188.616 83.4387 188.417 82.6843 188.447 81.9216V79.0092ZM189.115 81.8959C189.085 82.482 189.202 83.0663 189.454 83.596C189.608 83.8417 189.822 84.0443 190.075 84.1847C190.329 84.3252 190.614 84.3988 190.904 84.3988C191.194 84.3988 191.479 84.3252 191.732 84.1847C191.986 84.0443 192.2 83.8417 192.354 83.596C192.612 83.068 192.734 82.4833 192.708 81.8959V79.0375C192.739 78.4503 192.621 77.8647 192.366 77.3348C192.125 76.9512 191.741 76.6791 191.299 76.578C190.857 76.4769 190.393 76.5551 190.009 76.7954C189.79 76.9318 189.606 77.1162 189.469 77.3348C189.211 77.8637 189.089 78.4492 189.115 79.0375V81.8959Z" fill="#232323"/>
<path d="M188.447 95.3429C188.415 94.5821 188.609 93.8287 189.005 93.178C189.211 92.8613 189.498 92.6043 189.835 92.4326C190.172 92.2609 190.548 92.1805 190.926 92.1995C191.319 92.1753 191.711 92.2636 192.056 92.4542C192.4 92.6448 192.684 92.9297 192.872 93.2755C193.23 93.9869 193.398 94.7787 193.36 95.5741V98.2835C193.393 99.0339 193.204 99.7773 192.816 100.42C192.616 100.737 192.336 100.994 192.003 101.167C191.671 101.339 191.299 101.42 190.926 101.401C190.55 101.419 190.176 101.337 189.842 101.165C189.507 100.993 189.224 100.736 189.02 100.42C188.616 99.7724 188.417 99.018 188.447 98.2553V95.3429ZM189.115 98.2296C189.085 98.8157 189.202 99.4 189.454 99.9297C189.608 100.175 189.822 100.378 190.075 100.518C190.329 100.659 190.614 100.733 190.904 100.733C191.194 100.733 191.479 100.659 191.732 100.518C191.986 100.378 192.2 100.175 192.354 99.9297C192.612 99.4017 192.734 98.8171 192.708 98.2296V95.3661C192.739 94.7788 192.621 94.1933 192.366 93.6633C192.125 93.2798 191.741 93.0076 191.299 92.9065C190.857 92.8055 190.393 92.8837 190.009 93.124C189.79 93.2603 189.606 93.4448 189.469 93.6633C189.211 94.1923 189.089 94.7778 189.115 95.3661V98.2296Z" fill="#232323"/>
<path d="M190.836 117.612V109.375L189.295 110.002V109.309L191.504 108.464V117.624L190.836 117.612Z" fill="#232323"/>
<path d="M190.836 133.945V125.709L189.295 126.336V125.642L191.501 124.785V133.945H190.836Z" fill="#232323"/>
<path d="M164.009 68.0325H32.8455C30.4144 68.0325 28.4436 70.0033 28.4436 72.4344V152.511C28.4436 154.942 30.4144 156.913 32.8455 156.913H164.009C166.44 156.913 168.41 154.942 168.41 152.511V72.4344C168.41 70.0033 166.44 68.0325 164.009 68.0325Z" stroke="#232323" stroke-width="0.51364" stroke-miterlimit="10"/>
<path d="M158.872 62.9963H27.7093C25.2782 62.9963 23.3074 64.9671 23.3074 67.3982V147.475C23.3074 149.906 25.2782 151.877 27.7093 151.877H158.872C161.303 151.877 163.274 149.906 163.274 147.475V67.3982C163.274 64.9671 161.303 62.9963 158.872 62.9963Z" fill="url(#paint0_linear_108_3631)"/>
<path d="M60.8567 91.6909H35.8809C35.5306 91.6909 35.2466 91.9749 35.2466 92.3253V110.652C35.2466 111.002 35.5306 111.286 35.8809 111.286H60.8567C61.207 111.286 61.491 111.002 61.491 110.652V92.3253C61.491 91.9749 61.207 91.6909 60.8567 91.6909Z" stroke="white" stroke-width="0.51364" stroke-miterlimit="10"/>
<path d="M151.835 91.6909H118.461C118.111 91.6909 117.827 91.9749 117.827 92.3253V110.652C117.827 111.002 118.111 111.286 118.461 111.286H151.835C152.186 111.286 152.47 111.002 152.47 110.652V92.3253C152.47 91.9749 152.186 91.6909 151.835 91.6909Z" fill="white"/>
<path d="M35.5959 95.5381H61.4911" stroke="white" stroke-width="0.51364" stroke-miterlimit="10"/>
<path d="M35.5959 106.735H61.4911" stroke="white" stroke-width="0.51364" stroke-miterlimit="10"/>
<path d="M41.5466 92.04V110.937" stroke="white" stroke-width="0.51364" stroke-miterlimit="10"/>
<path d="M55.1912 92.04V110.937" stroke="white" stroke-width="0.51364" stroke-miterlimit="10"/>
<path d="M132.499 142.354C136.896 142.354 140.461 138.789 140.461 134.392C140.461 129.995 136.896 126.431 132.499 126.431C128.102 126.431 124.538 129.995 124.538 134.392C124.538 138.789 128.102 142.354 132.499 142.354Z" stroke="white" stroke-width="0.51364" stroke-miterlimit="10"/>
<path d="M144.159 142.354C148.556 142.354 152.12 138.789 152.12 134.392C152.12 129.995 148.556 126.431 144.159 126.431C139.762 126.431 136.197 129.995 136.197 134.392C136.197 138.789 139.762 142.354 144.159 142.354Z" stroke="white" stroke-width="0.51364" stroke-miterlimit="10"/>
<path d="M39.3866 117.583H38.1051C37.8796 117.583 37.6968 117.766 37.6968 117.992V121.025C37.6968 121.25 37.8796 121.433 38.1051 121.433H39.3866C39.6122 121.433 39.795 121.25 39.795 121.025V117.992C39.795 117.766 39.6122 117.583 39.3866 117.583Z" stroke="white" stroke-width="0.51364" stroke-miterlimit="10"/>
<path d="M44.9853 117.583H43.7038C43.4782 117.583 43.2954 117.766 43.2954 117.992V121.025C43.2954 121.25 43.4782 121.433 43.7038 121.433H44.9853C45.2108 121.433 45.3936 121.25 45.3936 121.025V117.992C45.3936 117.766 45.2108 117.583 44.9853 117.583Z" stroke="white" stroke-width="0.51364" stroke-miterlimit="10"/>
<path d="M50.5867 117.583H49.3026C49.0771 117.583 48.8943 117.766 48.8943 117.992V121.025C48.8943 121.25 49.0771 121.433 49.3026 121.433H50.5867C50.8123 121.433 50.9951 121.25 50.9951 121.025V117.992C50.9951 117.766 50.8123 117.583 50.5867 117.583Z" stroke="white" stroke-width="0.51364" stroke-miterlimit="10"/>
<path d="M56.1825 117.583H54.901C54.6755 117.583 54.4927 117.766 54.4927 117.992V121.025C54.4927 121.25 54.6755 121.433 54.901 121.433H56.1825C56.4081 121.433 56.5909 121.25 56.5909 121.025V117.992C56.5909 117.766 56.4081 117.583 56.1825 117.583Z" stroke="white" stroke-width="0.51364" stroke-miterlimit="10"/>
<path d="M66.6791 117.583H65.3976C65.1721 117.583 64.9893 117.766 64.9893 117.992V121.025C64.9893 121.25 65.1721 121.433 65.3976 121.433H66.6791C66.9047 121.433 67.0875 121.25 67.0875 121.025V117.992C67.0875 117.766 66.9047 117.583 66.6791 117.583Z" stroke="white" stroke-width="0.51364" stroke-miterlimit="10"/>
<path d="M72.2775 117.583H70.996C70.7705 117.583 70.5876 117.766 70.5876 117.992V121.025C70.5876 121.25 70.7705 121.433 70.996 121.433H72.2775C72.503 121.433 72.6859 121.25 72.6859 121.025V117.992C72.6859 117.766 72.503 117.583 72.2775 117.583Z" stroke="white" stroke-width="0.51364" stroke-miterlimit="10"/>
<path d="M77.8764 117.583H76.5949C76.3693 117.583 76.1865 117.766 76.1865 117.992V121.025C76.1865 121.25 76.3693 121.433 76.5949 121.433H77.8764C78.1019 121.433 78.2847 121.25 78.2847 121.025V117.992C78.2847 117.766 78.1019 117.583 77.8764 117.583Z" stroke="white" stroke-width="0.51364" stroke-miterlimit="10"/>
<path d="M83.4748 117.583H82.1933C81.9677 117.583 81.7849 117.766 81.7849 117.992V121.025C81.7849 121.25 81.9677 121.433 82.1933 121.433H83.4748C83.7003 121.433 83.8831 121.25 83.8831 121.025V117.992C83.8831 117.766 83.7003 117.583 83.4748 117.583Z" stroke="white" stroke-width="0.51364" stroke-miterlimit="10"/>
<path d="M93.2726 117.583H91.9911C91.7656 117.583 91.5828 117.766 91.5828 117.992V121.025C91.5828 121.25 91.7656 121.433 91.9911 121.433H93.2726C93.4982 121.433 93.681 121.25 93.681 121.025V117.992C93.681 117.766 93.4982 117.583 93.2726 117.583Z" stroke="white" stroke-width="0.51364" stroke-miterlimit="10"/>
<path d="M98.8713 117.583H97.5897C97.3642 117.583 97.1814 117.766 97.1814 117.992V121.025C97.1814 121.25 97.3642 121.433 97.5897 121.433H98.8713C99.0968 121.433 99.2796 121.25 99.2796 121.025V117.992C99.2796 117.766 99.0968 117.583 98.8713 117.583Z" stroke="white" stroke-width="0.51364" stroke-miterlimit="10"/>
<path d="M104.47 117.583H103.188C102.963 117.583 102.78 117.766 102.78 117.992V121.025C102.78 121.25 102.963 121.433 103.188 121.433H104.47C104.695 121.433 104.878 121.25 104.878 121.025V117.992C104.878 117.766 104.695 117.583 104.47 117.583Z" stroke="white" stroke-width="0.51364" stroke-miterlimit="10"/>
<path d="M110.071 117.583H108.787C108.561 117.583 108.379 117.766 108.379 117.992V121.025C108.379 121.25 108.561 121.433 108.787 121.433H110.071C110.297 121.433 110.479 121.25 110.479 121.025V117.992C110.479 117.766 110.297 117.583 110.071 117.583Z" stroke="white" stroke-width="0.51364" stroke-miterlimit="10"/>
<path d="M120.917 117.583H119.635C119.41 117.583 119.227 117.766 119.227 117.992V121.025C119.227 121.25 119.41 121.433 119.635 121.433H120.917C121.142 121.433 121.325 121.25 121.325 121.025V117.992C121.325 117.766 121.142 117.583 120.917 117.583Z" stroke="white" stroke-width="0.51364" stroke-miterlimit="10"/>
<path d="M126.516 117.583H125.234C125.008 117.583 124.826 117.766 124.826 117.992V121.025C124.826 121.25 125.008 121.433 125.234 121.433H126.516C126.741 121.433 126.924 121.25 126.924 121.025V117.992C126.924 117.766 126.741 117.583 126.516 117.583Z" stroke="white" stroke-width="0.51364" stroke-miterlimit="10"/>
<path d="M132.117 117.583H130.832C130.607 117.583 130.424 117.766 130.424 117.992V121.025C130.424 121.25 130.607 121.433 130.832 121.433H132.117C132.342 121.433 132.525 121.25 132.525 121.025V117.992C132.525 117.766 132.342 117.583 132.117 117.583Z" stroke="white" stroke-width="0.51364" stroke-miterlimit="10"/>
<path d="M137.713 117.583H136.431C136.206 117.583 136.023 117.766 136.023 117.992V121.025C136.023 121.25 136.206 121.433 136.431 121.433H137.713C137.938 121.433 138.121 121.25 138.121 121.025V117.992C138.121 117.766 137.938 117.583 137.713 117.583Z" stroke="white" stroke-width="0.51364" stroke-miterlimit="10"/>
<path d="M84.5845 129.831V132.63" stroke="white" stroke-width="0.51364" stroke-miterlimit="10"/>
<path d="M88.7834 129.831V132.63" stroke="white" stroke-width="0.51364" stroke-miterlimit="10"/>
<path d="M95.7817 129.831V132.63" stroke="white" stroke-width="0.51364" stroke-miterlimit="10"/>
<path d="M99.9807 129.831V132.63" stroke="white" stroke-width="0.51364" stroke-miterlimit="10"/>
<defs>
<linearGradient id="paint0_linear_108_3631" x1="98.0533" y1="75.3408" x2="98.5995" y2="172.059" gradientUnits="userSpaceOnUse">
<stop stop-color="#FB6008"/>
<stop offset="1" stop-color="#FB6008"/>
</linearGradient>
</defs>
</svg>
