<svg width="216" height="211" viewBox="0 0 216 211" fill="none" xmlns="http://www.w3.org/2000/svg">
<path d="M38.6258 125.416L32.1276 125.151L16.7822 120.498L14.0329 124.316L5.15126 121.018C5.15126 121.018 -0.225439 137.137 1.25925 151.929C2.74394 166.72 1.25925 178.815 2.38868 184.25C3.5181 189.685 4.60246 195.984 5.9811 196.61C7.35974 197.236 19.6323 200.725 19.6323 200.725L32.5306 199.831C33.3922 200.287 33.9543 200.239 34.291 200.136C35.8817 199.64 36.7381 196.512 36.1866 192.283L37.8092 192.018C36.6078 188.652 35.6135 185.216 34.8318 181.729C31.5629 167.128 32.8752 155.232 33.7475 147.883C34.663 140.257 36.2963 132.735 38.6258 125.416Z" fill="white"/>
<path d="M184.974 126.363C188.049 122.386 192.771 120.488 196.947 121.572C199.937 122.351 201.761 124.422 202.514 125.398C202.514 125.154 202.681 122.513 204.855 121.156C205.098 121.008 205.354 120.882 205.619 120.779C208.31 119.719 211.282 121.508 211.817 124.345C213.938 135.631 216.046 145.396 215.264 153.031C213.408 171.407 216.248 174.772 214.108 185.09C213.578 187.715 212.95 190.093 212.334 192.185C211.715 194.338 210.612 196.322 209.109 197.983C207.606 199.645 205.743 200.941 203.662 201.772L203.569 201.806C199.213 203.472 194.485 203.924 189.892 203.113L183.972 200.915C183.612 201.106 183.198 201.166 182.8 201.085C181.188 200.709 180.252 197.445 180.363 192.964L179.279 192.699C180.09 188.634 180.902 184.569 181.715 180.504C185.305 162.601 183.903 144.055 177.662 126.896L184.974 126.363Z" fill="white"/>
<path d="M39.0845 126.901L108.168 132.092" stroke="#232323" stroke-width="0.530247" stroke-linecap="round" stroke-linejoin="round"/>
<path d="M177.412 126.837L117.847 129.947C114.19 130.14 110.608 131.06 107.31 132.653C104.013 134.247 101.066 136.481 98.6416 139.227L91.7219 146.472C88.8188 149.76 91.1758 155.487 95.5636 155.487C97.7853 155.487 100.145 154.742 102.701 153.8C106.725 152.318 114.772 146.52 116.429 145.727L131.668 144.932" stroke="#232323" stroke-width="0.530247" stroke-linecap="round" stroke-linejoin="round"/>
<path d="M129.918 145.566L145.757 189.905C146.995 193.373 145.704 197.302 142.549 199.2C142.44 199.266 142.326 199.333 142.212 199.394C137.914 201.737 133.643 199.017 133.309 198.842C132.983 199.513 131.064 203.88 126.525 205.33C122.604 206.589 119.303 203.607 118.47 203.246C117.752 203.986 114.613 208.71 109.57 209.004C106.555 209.162 103.571 208.318 101.086 206.602" stroke="#232323" stroke-width="0.530247" stroke-linecap="round" stroke-linejoin="round"/>
<path d="M123.417 169.44L133.309 199.396" stroke="#232323" stroke-width="0.530247" stroke-linecap="round" stroke-linejoin="round"/>
<path d="M118.47 203.524L110.559 176.787" stroke="#232323" stroke-width="0.530247" stroke-linecap="round" stroke-linejoin="round"/>
<path d="M101.091 206.756L96.6135 192.97C95.0572 187.985 93.9278 183.908 89.1635 181.771C87.4243 180.832 85.412 180.994 84.1633 182.129C83.1213 183.075 83.519 184.372 83.4872 184.78L87.297 205.942C87.5736 207.266 88.3647 208.426 89.4962 209.167C90.6278 209.907 92.0072 210.169 93.3312 209.893C93.6023 209.834 93.8682 209.754 94.1266 209.654L101.091 206.756Z" stroke="#232323" stroke-width="0.530247" stroke-linecap="round" stroke-linejoin="round"/>
<path d="M88.6545 208.44L81.6049 208.782C80.3092 208.844 79.035 208.434 78.0186 207.628C77.0021 206.822 76.3123 205.675 76.0771 204.399L72.4661 181.699C71.6893 177.831 75.6608 173.701 79.9081 176.352H79.9346C80.5542 176.75 81.0393 177.325 81.3265 178.004L83.588 182.527" stroke="#232323" stroke-width="0.530247" stroke-linecap="round" stroke-linejoin="round"/>
<path d="M73.6646 176.606C72.8692 175.652 71.2785 172.68 70.0032 171.702L69.876 171.603C66.0052 168.703 60.5807 172.078 61.4159 176.85L65.5439 200.351C65.8722 202.223 66.8826 203.907 68.3798 205.079C69.877 206.25 71.755 206.825 73.6513 206.693L76.915 206.465" stroke="#232323" stroke-width="0.530247" stroke-linecap="round" stroke-linejoin="round"/>
<path d="M35.105 181.029L47.7858 181.697C48.4617 181.733 49.1168 181.943 49.6886 182.305C50.2605 182.667 50.7299 183.169 51.0522 183.765C52.8179 187.012 56.9114 193.614 63.0755 198.065" stroke="#232323" stroke-width="0.530247" stroke-linecap="round" stroke-linejoin="round"/>
<path d="M137.549 165.482L146.876 167.178" stroke="#232323" stroke-width="0.530247" stroke-linecap="round" stroke-linejoin="round"/>
<path d="M181.079 180.843L163.449 181.763C162.486 181.819 161.584 182.254 160.941 182.972C157.568 186.728 153.118 189.351 148.199 190.483" stroke="#232323" stroke-width="0.530247" stroke-linecap="round" stroke-linejoin="round"/>
<path d="M31.8148 125.247L39.4344 125.647C35.8129 135.644 33.6416 146.109 32.9866 156.722C32.1913 170.283 34.2778 178.815 34.7656 180.718C35.7066 184.381 36.9526 187.959 38.4906 191.413C36.5441 192.312 34.3573 192.551 32.2628 192.092C31.1762 191.836 30.1444 191.387 29.2166 190.767C24.2371 169.084 25.134 146.466 31.8148 125.247V125.247Z" stroke="#232323" stroke-width="0.530247" stroke-linecap="round" stroke-linejoin="round"/>
<path d="M37.6818 191.223C37.9684 191.299 38.2701 191.299 38.5567 191.223C41.322 190.446 40.9428 181.991 40.9269 181.474L34.9033 181.068C35.2771 182.996 35.7623 185.061 36.3907 187.227C36.799 188.622 37.2338 189.955 37.6818 191.223Z" fill="#232323" stroke="#232323" stroke-width="0.530247" stroke-linecap="round" stroke-linejoin="round"/>
<path d="M36.2422 192.227C36.3966 193.468 36.3211 194.726 36.0195 195.939C35.7431 197.207 35.2803 198.426 34.6462 199.558C34.5601 199.712 34.4444 199.847 34.3059 199.956C34.1674 200.065 34.0088 200.146 33.8391 200.193C33.6694 200.241 33.4919 200.254 33.317 200.233C33.142 200.212 32.9729 200.157 32.8195 200.07C32.712 200.008 32.613 199.932 32.5252 199.844C31.7006 199.025 31.5734 197.869 30.8841 196.233C29.9031 193.911 29.1183 191.798 29.2085 190.769" stroke="#232323" stroke-width="0.530247" stroke-linecap="round" stroke-linejoin="round"/>
<path d="M31.8147 125.247L16.7822 120.493L14.0329 124.311L5.15126 121.013C5.15126 121.013 -0.225439 137.137 1.25925 151.929C2.74394 166.72 1.25925 178.815 2.38868 184.25C3.5181 189.685 4.60246 195.984 5.9811 196.61C7.35974 197.236 19.6323 200.725 19.6323 200.725L32.5306 199.831" stroke="#232323" stroke-width="0.530247" stroke-linecap="round" stroke-linejoin="round"/>
<path d="M14.0328 124.311C14.0328 124.311 9.22084 140.483 12.8742 151.701C16.5276 162.918 15.9205 169.125 15.9205 169.125" stroke="#232323" stroke-width="0.530247" stroke-linecap="round" stroke-linejoin="round"/>
<path d="M184.727 126.326L177.108 126.723C185.169 147.735 185.781 170.875 178.842 192.283C180.207 192.799 181.664 193.026 183.122 192.95C184.58 192.874 186.006 192.496 187.31 191.84C192.302 170.16 191.414 147.54 184.738 126.318L184.727 126.326Z" stroke="#232323" stroke-width="0.530247" stroke-linecap="round" stroke-linejoin="round"/>
<path d="M179.107 191.488C178.942 191.949 178.765 192.185 178.577 192.195C177.827 192.236 176.887 188.751 175.756 181.739L181.644 180.644C180.794 184.266 179.948 187.88 179.107 191.488Z" fill="#232323" stroke="#232323" stroke-width="0.530247" stroke-linecap="round" stroke-linejoin="round"/>
<path d="M180.273 192.781C179.975 195.502 180.531 198.247 181.864 200.637C181.963 200.82 182.105 200.978 182.276 201.096C182.448 201.214 182.645 201.291 182.852 201.319C183.058 201.346 183.269 201.325 183.466 201.256C183.663 201.188 183.84 201.074 183.985 200.923C184.809 200.104 184.937 198.948 185.629 197.312C186.607 194.99 187.394 192.877 187.304 191.848" stroke="#232323" stroke-width="0.530247" stroke-linecap="round" stroke-linejoin="round"/>
<path d="M184.727 126.326C187.909 122.32 192.713 120.442 196.947 121.572C199.908 122.367 201.719 124.395 202.514 125.398C202.514 125.154 202.681 122.513 204.855 121.156C205.098 121.008 205.354 120.882 205.619 120.779C208.31 119.719 211.282 121.508 211.818 124.345C213.939 135.631 216.046 145.396 215.264 153.031C213.408 171.407 216.248 174.772 214.108 185.09C213.578 187.715 212.95 190.093 212.335 192.185C211.716 194.338 210.612 196.322 209.109 197.983C207.606 199.645 205.743 200.941 203.662 201.772L203.57 201.806C199.213 203.472 194.485 203.924 189.892 203.113L183.972 200.915" stroke="#232323" stroke-width="0.530247" stroke-linecap="round" stroke-linejoin="round"/>
<path d="M202.509 125.398C202.509 125.398 207.316 141.57 203.657 152.79" stroke="#232323" stroke-width="0.530247" stroke-linecap="round" stroke-linejoin="round"/>
<path d="M98.9492 144.386C99.5496 143.574 99.9066 142.608 99.9785 141.601C100.05 140.594 99.834 139.588 99.3549 138.699" stroke="#232323" stroke-width="0.530247" stroke-linecap="round" stroke-linejoin="round"/>
<path d="M62.675 183.701C63.4245 183.029 63.9682 182.159 64.2432 181.191C64.5182 180.223 64.5131 179.197 64.2287 178.231" stroke="#232323" stroke-width="0.530247" stroke-linecap="round" stroke-linejoin="round"/>
<path d="M73.3701 186.951C74.1198 186.277 74.6628 185.403 74.9359 184.432C75.209 183.461 75.2011 182.433 74.9131 181.466" stroke="#232323" stroke-width="0.530247" stroke-linecap="round" stroke-linejoin="round"/>
<path d="M85.147 191.779C85.8998 191.107 86.4458 190.234 86.7214 189.263C86.997 188.291 86.9907 187.262 86.7032 186.294" stroke="#232323" stroke-width="0.530247" stroke-linecap="round" stroke-linejoin="round"/>
<path d="M77.0343 17.4368C71.7636 13.6588 64.7696 13.68 59.4088 17.5084C59.1676 15.3715 58.4836 11.9912 56.2804 8.78055C50.6014 0.503391 40.076 0.9541 38.3527 1.02833C36.0037 1.12908 32.1197 1.21657 28.3337 4.04279C22.4029 8.4677 21.0561 15.9733 20.8122 17.5111C16.7399 15.8938 12.1426 17.3334 9.58154 20.9974C8.28698 22.8987 7.62272 25.1587 7.68266 27.458C7.74261 29.7573 8.52372 31.9797 9.91559 33.8109C5.5384 35.7118 2.63265 39.9405 2.56902 44.4874C2.5213 47.7776 3.95562 51.9108 7.28027 53.9099C8.5255 54.6547 9.94183 55.0656 11.3923 55.1029H83.7207C85.1045 55.0877 86.4534 54.6665 87.6 53.8917C88.7467 53.1169 89.6407 52.0225 90.1711 50.7443C90.1923 50.6939 90.2082 50.6621 90.2268 50.6144C90.6298 49.6414 92.4432 45.2642 90.712 41.2847C88.7633 36.8041 83.6995 35.9822 83.3654 35.9451C85.1788 28.9114 82.6018 21.4322 77.0343 17.4368Z" stroke="#232323" stroke-width="0.530247" stroke-linecap="round" stroke-linejoin="round"/>
<path d="M121.983 23.3145C128.081 18.9346 136.205 18.9585 142.419 23.3966C142.684 20.9204 143.48 17.0019 146.049 13.2769C152.632 3.6794 164.835 4.2017 166.834 4.28654C169.557 4.40319 174.062 4.50659 178.452 7.78352C185.327 12.9163 186.891 21.6071 187.177 23.3966C191.899 21.5222 197.228 23.1925 200.2 27.4398C203.273 31.8382 203.116 38.0049 199.813 42.2867C204.887 44.4925 208.257 49.3946 208.331 54.668C208.384 58.4831 206.722 63.2606 202.867 65.5937C201.421 66.456 199.778 66.9317 198.095 66.975H114.215C112.611 66.9599 111.047 66.4746 109.716 65.5792C108.385 64.6838 107.346 63.4177 106.728 61.9376L106.664 61.7865C106.198 60.6597 104.093 55.5826 106.102 50.9695C108.361 45.7757 114.234 44.8345 114.621 44.7788C112.521 36.6236 115.517 27.9462 121.983 23.3145Z" stroke="#232323" stroke-width="0.530247" stroke-linecap="round" stroke-linejoin="round"/>
<path d="M71.3844 93.3019C68.4681 94.4048 46.4628 102.343 31.7193 90.709C29.2086 88.7312 23.5376 83.6806 23.9406 75.9337C24.2932 69.1995 28.8401 62.5847 37.21 59.7373C36.8972 58.9128 33.4479 49.3577 39.498 40.5901C45.3891 32.0584 55.1589 31.6846 56.1292 31.666C60.9545 12.0283 79.1101 -0.74268 97.3983 1.22719C112.648 2.8736 125.785 14.5311 129.971 30.4438C131.392 30.0461 139.701 27.8694 147.735 32.8087C153.732 36.4939 156.099 41.9952 156.812 43.8697C158.496 43.2625 169.955 39.344 181.146 45.8528C182.845 46.8417 192.811 52.6426 194.343 64.2179C195.595 73.7305 190.65 83.4314 181.832 89.0308C173.527 94.7657 163.868 98.2335 153.811 99.0914C143.755 99.9493 133.648 98.1675 124.491 93.9223C107.327 100.29 88.4115 100.073 71.3977 93.3125L71.3844 93.3019Z" fill="url(#paint0_linear_108_3744)"/>
<path d="M48.271 79.7275C52.2161 76.8112 57.4496 76.8377 61.4609 79.7832C61.6971 77.3885 62.5005 75.0846 63.8046 73.0623C68.0466 66.6994 75.9287 67.0387 77.2199 67.0944C78.9776 67.1713 81.886 67.2402 84.7176 69.4169C89.1557 72.8237 90.1632 78.5928 90.3514 79.7832C93.3977 78.5398 96.8364 79.6453 98.7558 82.4689C99.7269 83.9413 100.224 85.6757 100.18 87.4389C100.136 89.2021 99.5527 90.9095 98.5093 92.3315C101.786 93.795 102.672 97.0507 102.719 100.55C102.754 103.085 102.971 106.258 100.482 107.804C99.5534 108.372 98.4918 108.686 97.4037 108.713H43.2575C42.2108 108.696 41.1929 108.367 40.3333 107.769C39.4737 107.172 38.8111 106.332 38.4297 105.357L38.3872 105.259C38.085 104.509 36.7276 101.139 38.024 98.0741C39.4822 94.6275 43.2735 94.0018 43.5227 93.9647C42.1652 88.5641 44.098 82.803 48.271 79.7275Z" stroke="#232323" stroke-width="0.530247" stroke-linecap="round" stroke-linejoin="round"/>
<path d="M118.417 85.266C117.802 84.6877 116.982 84.3763 116.138 84.3997C115.294 84.423 114.493 84.7792 113.91 85.3906L100.389 99.6781V51.7517C100.4 50.9272 100.099 50.1291 99.5453 49.5178C98.992 48.9064 98.2278 48.5272 97.4063 48.4562C96.5609 48.4002 95.7278 48.682 95.09 49.2397C94.4523 49.7975 94.0619 50.5856 94.0048 51.4309C94.0048 51.4998 94.0048 51.5688 94.0048 51.6377V99.3599L80.7831 85.3826C80.2002 84.7674 79.3967 84.4089 78.5495 84.386C77.7022 84.3631 76.8806 84.6778 76.2654 85.2607C75.6501 85.8436 75.2916 86.647 75.2687 87.4943C75.2459 88.3415 75.5605 89.1631 76.1434 89.7784L93.1113 107.698C93.6563 108.298 94.1628 108.932 94.6278 109.596C94.7396 109.747 94.8647 109.887 95.0016 110.015C95.5918 110.572 96.3724 110.882 97.1836 110.882H97.4965C98.3146 110.886 99.1023 110.572 99.6943 110.007C99.8318 109.88 99.9562 109.74 100.066 109.588C100.533 108.926 101.04 108.292 101.585 107.69L118.553 89.7704C119.129 89.1538 119.439 88.3342 119.413 87.4903C119.388 86.6464 119.03 85.8468 118.417 85.266Z" fill="url(#paint1_linear_108_3744)" stroke="white" stroke-width="0.530247" stroke-miterlimit="10"/>
<path d="M109.379 73.2983C109.683 73.5871 110.04 73.813 110.432 73.9632C110.823 74.1134 111.239 74.1849 111.658 74.1736C112.077 74.1622 112.489 74.0683 112.872 73.8972C113.254 73.7261 113.599 73.4811 113.886 73.1764L127.408 58.926C127.411 58.923 127.416 58.9213 127.421 58.9213C127.426 58.9213 127.43 58.923 127.434 58.926V106.799C127.434 108.509 128.725 110.01 130.433 110.113C131.279 110.166 132.112 109.881 132.748 109.32C133.383 108.759 133.771 107.969 133.824 107.123C133.824 107.059 133.824 106.998 133.824 106.935V59.26C133.827 59.2579 133.831 59.2567 133.834 59.2567C133.838 59.2567 133.842 59.2579 133.845 59.26L147.027 73.187C147.615 73.7812 148.412 74.1217 149.248 74.1353C150.084 74.149 150.891 73.8348 151.498 73.2601C152.105 72.6853 152.463 71.8958 152.495 71.0605C152.527 70.2252 152.231 69.4106 151.669 68.7912L134.701 50.8715C134.156 50.2711 133.648 49.6371 133.182 48.9733C133.072 48.822 132.948 48.6818 132.811 48.5544C132.218 47.9911 131.431 47.6777 130.613 47.6795H130.308C129.491 47.6784 128.705 47.9917 128.113 48.5544C127.978 48.6831 127.853 48.8233 127.742 48.9733C127.276 49.6377 126.769 50.2718 126.223 50.8715L109.255 68.7912C108.677 69.4076 108.366 70.2276 108.391 71.0721C108.416 71.9166 108.774 72.717 109.387 73.2983H109.379Z" fill="white" stroke="#232323" stroke-width="0.530247" stroke-linecap="round" stroke-linejoin="round"/>
<path d="M156.672 43.509L152.716 46.3353" stroke="white" stroke-width="0.530247" stroke-linecap="round" stroke-linejoin="round"/>
<path d="M36.3298 59.891C38.3489 59.504 40.4386 59.7665 42.2991 60.6411C44.1596 61.5156 45.6953 62.9571 46.6856 64.7587" stroke="white" stroke-width="0.530247" stroke-linecap="round" stroke-linejoin="round"/>
<path d="M56.0286 31.4592C57.4068 31.4721 58.7522 31.8811 59.9044 32.6375C61.0565 33.3939 61.9669 34.4657 62.5267 35.7251" stroke="white" stroke-width="0.530247" stroke-linecap="round" stroke-linejoin="round"/>
<path d="M130.237 29.9136C130.237 29.9136 127.166 31.3373 124.12 34.9907" stroke="white" stroke-width="0.530247" stroke-linecap="round" stroke-linejoin="round"/>
<defs>
<linearGradient id="paint0_linear_108_3744" x1="115.033" y1="14.6765" x2="115.581" y2="121.617" gradientUnits="userSpaceOnUse">
<stop stop-color="#FB6008"/>
<stop offset="1" stop-color="#FB6008"/>
</linearGradient>
<linearGradient id="paint1_linear_108_3744" x1="98.8434" y1="57.1205" x2="99.6977" y2="125.05" gradientUnits="userSpaceOnUse">
<stop stop-color="#FB6008"/>
<stop offset="1" stop-color="#FB6008"/>
</linearGradient>
</defs>
</svg>
