<svg width="1400" height="788" viewBox="0 0 1400 788" fill="none" xmlns="http://www.w3.org/2000/svg">
<path d="M-989.999 1001.84L-545.592 1083.8M-545.592 1083.8L-505.818 1108.02M-545.592 1083.8L-856.594 878.008M-545.592 1083.8L-376.828 1108.02M-990 716.667L-638.209 799.421M-638.209 799.421L-162.966 892.839M-638.209 799.421L-898.131 630.3M-638.209 799.421L-334.063 977.764M-162.966 892.839L171.288 1053.41M-162.966 892.839L-456.146 736.59M-162.966 892.839L295.738 963.948M171.288 1053.41L295.222 1108.02M171.288 1053.41L-334.063 977.764M171.288 1053.41L642.881 1102.89M-990 506.775L-709.301 586.217M-709.301 586.217L-301.25 686.276M-709.301 586.217L-920.065 443.927M-709.301 586.217L-456.146 736.59M-301.25 686.276L-21.2632 824.257M-301.25 686.276L-545.148 551.82M-301.25 686.276L98.4156 768.602M-21.2632 824.257L397.435 891.094M-21.2632 824.257L-456.146 736.59M-21.2632 824.257L295.738 963.948M397.435 891.094L722.359 1010.91M397.435 891.094L98.4156 768.602M397.435 891.094L785.367 935.497M722.359 1010.91L1016.37 1108.02M722.359 1010.91L295.738 963.948M722.359 1010.91L1109.26 1033.78M-990 100.629L-743.182 204.694M-743.182 204.694L-842.814 116.671M-743.182 204.694L-617.254 299.233M-743.182 204.694L-486.02 303.667M-486.02 303.667L-607.497 217.068M-486.02 303.667L-334.561 395.803M-486.02 303.667L-221.399 395.162M-221.399 395.162L-51.8685 481.761M-221.399 395.162L41.4783 476.188M-221.399 395.162L-366.074 311.18M41.4783 476.188L300.723 545.517M41.4783 476.188L-118.883 397.725M41.4783 476.188L228.189 555.63M300.723 545.517L546.526 601.404M300.723 545.517L125.068 474.016M300.723 545.517L495.179 615.362M546.526 601.404L777.266 643.493M546.526 601.404L364.586 539.036M546.526 601.404L746.661 660.406M777.266 643.493L984.986 671.801M777.266 643.493L590.555 591.362M777.266 643.493L973.823 690.584M984.986 671.801L802.103 630.745M984.986 671.801L1169.6 686.881M984.986 671.801L1175.97 706.448M1175.97 706.448L973.823 690.584M1175.97 706.448L1347.94 709.635M1175.97 706.448L1368.15 733.973M1368.15 733.973L1559.72 753.201M1368.15 733.973L1179.48 731.017M1368.15 733.973L1525.41 724.483M1559.72 753.201L1696.28 731.836M1559.72 753.201L1386.88 763.955M1559.72 753.201L1704.98 762.085M1696.28 731.836L1704.98 729.308M1696.28 731.836L1525.41 724.483M1696.28 731.836L1704.98 731.801M-990 344.242L-749.556 423.363M-749.556 423.363L-400.365 525.381M-749.556 423.363L-918.392 301.975M-749.556 423.363L-545.148 551.82M-400.365 525.381L-49.7319 614.169M-400.365 525.381L-596.939 409.138M-400.365 525.381L-167.203 646.074M-49.7319 614.169L290.165 686.774M-49.7319 614.169L-271.392 505.565M-49.7319 614.169L201.092 723.415M290.165 686.774L614.11 741.931M290.165 686.774L54.1191 589.172M290.165 686.774L553.416 782.293M614.11 741.931L910.423 778.786M614.11 741.931L367.933 657.273M614.11 741.931L877.129 821.604M910.423 778.786L1176.22 797.729M910.423 778.786L1168.42 841.687M910.423 778.786L665.831 708.869M1176.22 797.729L1403.84 800.329M1176.22 797.729L937.111 743.338M1176.22 797.729L1418.68 844.037M1403.84 800.329L1594.08 788.222M1403.84 800.329L1179.71 761.177M1403.84 800.329L1628.32 830.417M1594.08 788.222L1704.98 797.035M1594.08 788.222L1386.88 763.955M1594.08 788.222L1704.98 770.738M-990 212.367L-760.826 298.45M-760.826 298.45L-459.279 400.218M-760.826 298.45L-890.617 195.293M-760.826 298.45L-596.939 409.138M-459.279 400.218L-155.791 491.321M-459.279 400.218L-617.254 299.233M-459.279 400.218L-271.392 505.565M-155.791 491.321L146.309 569.962M-155.791 491.321L-334.561 395.803M-155.791 491.321L54.1191 589.172M146.309 569.962L435.909 633.772M146.309 569.962L-51.8685 481.761M146.309 569.962L367.933 657.273M435.909 633.772L709.736 681.967M435.909 633.772L228.189 555.63M435.909 633.772L665.831 708.869M709.736 681.967L958.031 714.21M709.736 681.967L495.179 615.362M709.736 681.967L937.111 743.338M958.031 714.21L1179.48 731.017M958.031 714.21L746.661 660.406M958.031 714.21L1179.71 761.177M1179.48 731.017L973.823 690.584M1179.48 731.017L1386.88 763.955M1525.41 724.483L1347.94 709.635M1525.41 724.483L1649.68 705.326M-990 -96.5329L-827.662 -4.91324M-827.662 -4.91324L-858.428 -64.3432M-827.662 -4.91324L-775.906 62.3505M-827.662 -4.91324L-646.577 89.7331M-646.577 89.7331L-698.031 27.7038M-646.577 89.7331L-576.945 157.567M-646.577 89.7331L-459.261 180.783M-459.261 180.783L-526.987 118.558M-459.261 180.783L-368.264 248.937M-459.261 180.783L-263.754 267.738M-263.754 267.738L-351.315 205.477M-263.754 267.738L-157.233 333.631M-263.754 267.738L-67.3757 347.91M-67.3757 347.91L-168.805 288.088M-67.3757 347.91L56.754 410.794M-67.3757 347.91L130.926 420.693M130.926 420.693L13.3834 363.951M130.926 420.693L265.4 478.271M130.926 420.693L323.298 484.164M323.298 484.164L196.747 432.604M323.298 484.164L468.776 535.493M323.298 484.164L510.384 537.968M510.384 537.968L373.88 492.39M510.384 537.968L659.172 581.552M510.384 537.968L685.095 581.321M685.095 581.321L794.394 606.567L796.851 607.119L836.91 616.377M685.095 581.321L545.974 543.06M685.095 581.321L848.287 614.276M836.91 616.377L980.678 638.062M836.91 616.377L995.598 647.036M836.91 616.377L659.172 581.552M995.598 647.036L987.176 645.825L821.759 621.789M995.598 647.036L1160.85 671.872M995.598 647.036L1150.24 661.03M1160.85 671.872L1326.59 690.371M1160.85 671.872L992.055 657.415M1160.85 671.872L1304.52 675.736M1326.59 690.371L1491.32 701.391M1326.59 690.371L1169.6 686.881M1326.59 690.371L1457.72 683.338M1491.32 701.391L1604.83 684.317M1491.32 701.391L1347.94 709.635M1491.32 701.391L1649.68 705.326M1604.83 684.317L1691.61 659.677M1604.83 684.317L1457.72 683.338M1604.83 684.317L1704.98 679.76M1691.61 659.677L1704.98 653.285M1691.61 659.677L1561.91 668.276M1691.61 659.677L1704.98 658.074M-990 780.602L-856.594 878.008M-856.594 878.008L-334.063 977.764M-856.594 878.008L-990 847.42M-334.063 977.764L-89.9694 1108.02M-990 48.1072L-842.814 116.671M-842.814 116.671L-607.497 217.068M-842.814 116.671L-915.205 36.6949M-607.497 217.068L-704.654 136.077M-607.497 217.068L-366.074 311.18M-366.074 311.18L-482.709 231.952M-366.074 311.18L-118.883 397.725M-118.883 397.725L-256.651 321.293M-118.883 397.725L125.068 474.016M125.068 474.016L-26.3375 403.067M125.068 474.016L364.586 539.036M364.586 539.036L590.555 591.362M364.586 539.036L199.525 474.817M590.555 591.362L802.103 630.745M590.555 591.362L420.402 535.796M802.103 630.745L627.89 584.828M802.103 630.745L992.055 657.415M992.055 657.415L988.6 656.685L821.759 621.789M992.055 657.415L1169.6 686.881M1169.6 686.881L1347.94 709.635M1649.68 705.326L1704.98 689.338M1649.68 705.326L1704.98 703.955M-990 -144.622L-858.428 -64.3432M-858.428 -64.3432L-874.629 -117.328M-858.428 -64.3432L-698.031 27.7038M-698.031 27.7038L-729.277 -27.0615M-698.031 27.7038L-526.987 118.558M-526.987 118.558L-577.782 61.5671M-526.987 118.558L-351.315 205.477M-351.315 205.477L-416.905 148.629M-351.315 205.477L-168.805 288.088M-168.805 288.088L-252.823 231.471M-168.805 288.088L13.3834 363.951M13.3834 363.951L-83.0074 309.898M13.3834 363.951L196.747 432.604M196.747 432.604L85.5792 381.648M196.747 432.604L373.88 492.39M373.88 492.39L254.878 446.455M373.88 492.39L545.974 543.06M545.974 543.06L706.46 584.045M545.974 543.06L417.945 502.876M706.46 584.045L848.287 614.276M706.46 584.045L576.401 550.733L434.503 507.879M706.46 584.045L856.672 615.362L980.215 635.018L980.553 635.071M848.287 614.276L861.302 616.324L980.66 636.389L981.71 636.567M848.287 614.276L956.607 633.416L980.891 637.902L982.868 638.401L995.704 638.899L1008.31 638.917L1024.96 640.858L1028.02 640.982M981.71 636.567L985.841 635.926L988.903 636.407M981.71 636.567L980.891 635.142L980.784 635.107M981.71 636.567L996.256 640.43M988.903 636.407L994.725 637.332L995.135 637.368M988.903 636.407L985.289 631.599M995.135 637.368L1008.29 638.721M995.135 637.368L993.177 610.822M1008.29 638.721L1024.96 640.43L1027.59 640.697L1028.02 640.982M1008.29 638.721L1007.88 624.407M1028.02 640.982L1028.48 641.267L1044.18 643.101L1065.94 645.131L1089.92 647.089M1028.02 640.982L1044.24 642.407M1089.92 647.089L1089.99 647.107L1093.52 647.463L1094.96 648.335M1089.92 647.089L1090.3 645.487M1094.96 648.335L1099.25 649.528L1114.48 651.558M1094.96 648.335L1089.76 648.424L1065.75 646.359L1032.81 644.65M1094.96 648.335L1114.96 649.671M1114.48 651.558L1139.85 652.804M1114.48 651.558L1082.25 650.294M1114.48 651.558L1138.35 654.086L1282.15 665.356M1139.85 652.804L1168.71 653.089M1139.85 652.804L1125.83 650.775M1139.85 652.804L1195.84 655.226M1168.71 653.089L1182.43 653.837M1168.71 653.089L1141.25 651.718L1125.83 650.775M1182.43 653.837L1195.84 655.226M1182.43 653.837L1196 655.03L1260.04 658.911M1195.84 655.226L1260.04 658.911M1195.84 655.226L1223.47 655.386M1260.04 658.911L1363.25 655.404M1260.04 658.911L1393.27 660.727M1363.25 655.404L1250.43 656.044L1238.75 656.098M1363.25 655.404L1367.2 655.208L1482.77 649.315M1363.25 655.404L1447.18 645.647M1447.18 645.647L1514.02 630.015M1447.18 645.647L1553.08 631.76M1447.18 645.647L1335.3 653.641M1514.02 630.015L1564.67 610.644M1514.02 630.015L1458.75 638.561L1432.63 640.608L1431.4 638.864L1431.03 639.451L1423.32 641.356L1418.68 641.819L1405.52 644.329L1391.22 647.409L1387.75 647.944M1514.02 630.015L1605.28 610.27M1605.28 610.27L1687.16 585.541M1605.28 610.27L1553.08 631.76M1605.28 610.27L1641.62 585.095M1687.16 585.541L1704.98 578.526M1687.16 585.541L1650.31 613.137M1687.16 585.541L1704.98 561.416M-748.309 -117.435L-636.767 -39.6667L-627.758 -33.3997M-748.309 -117.435L-863.823 -201.969M-748.309 -117.435L-746.814 -75.898M-627.758 -33.3997L-630.82 -71.2155M-627.758 -33.3997L-609.206 11.3597M-627.758 -33.3997L-498.18 50.7244M-498.18 50.7244L-517.587 10.0066M-498.18 50.7244L-466.774 96.5165M-498.18 50.7244L-364.953 132.427M-364.953 132.427L-396.216 90.9972M-364.953 132.427L-316.152 179.786M-364.953 132.427L-224.479 211.994M-224.479 211.994L-272.122 169.282M-224.479 211.994L-163.464 258.676M-224.479 211.994L-82.7938 287.073M-82.7938 287.073L-141.494 245.269M-82.7938 287.073L-5.89832 333.097M-82.7938 287.073L63.146 357.738M63.146 357.738L146.451 395.001L152.825 397.868L207.021 422.117M63.146 357.738L-10.278 316.788M63.146 357.738L149.869 401.019M207.021 422.117L124.89 383.927M207.021 422.117L306.136 462.283M996.256 640.43L1024.81 643.172L1032.81 644.65M996.256 640.43L1024.76 644.24L1032.81 644.65M1032.81 644.65L1045.27 646.982L1082.25 650.294M1082.25 650.294L1065.83 645.861L1044.24 642.407M1082.25 650.294L1150.24 661.03M1282.15 665.356L1424.91 669.914M1282.15 665.356L1150.24 661.03M1282.15 665.356L1393.27 660.727M1424.91 669.914L1561.91 668.276M1424.91 669.914L1304.52 675.736M1424.91 669.914L1521.12 656.739M1561.91 668.276L1457.72 683.338M1561.91 668.276L1642.08 646.181M-990 -245.232L-874.398 -162.622M-874.398 -162.622L-863.823 -201.969M-874.398 -162.622L-874.629 -117.328M-874.398 -162.622L-746.814 -75.898M-746.814 -75.898L-609.206 11.3597M-746.814 -75.898L-729.277 -27.0615M-609.206 11.3597L-577.782 61.5671M-609.206 11.3597L-466.774 96.5165M-466.774 96.5165L-416.905 148.629M-466.774 96.5165L-316.152 179.786M-316.152 179.786L-252.823 231.471M-316.152 179.786L-163.464 258.676M-252.823 231.471L-416.905 148.629M-252.823 231.471L-83.0074 309.898M56.754 410.794L199.525 474.817M56.754 410.794L-157.233 333.631M56.754 410.794L265.4 478.271M199.525 474.817L-26.3375 403.067M199.525 474.817L420.402 535.796M746.661 660.406L495.179 615.362M746.661 660.406L973.823 690.584M1179.71 761.177L937.111 743.338M1179.71 761.177L1386.88 763.955M1628.32 830.417L1704.98 818.293M1628.32 830.417L1418.68 844.037M1628.32 830.417L1704.98 837.966M-630.82 -71.2155L-525.919 4.00662L-517.587 10.0066M-630.82 -71.2155L-740.013 -153.399L-840.499 -234.016M-630.82 -71.2155L-624.66 -103.833M-517.587 10.0066L-522.127 -24.1238M-517.587 10.0066L-396.216 90.9972M-396.216 90.9972L-416.371 54.2674M-396.216 90.9972L-284.443 161.519L-272.122 169.282M-272.122 169.282L-303.226 132.16M-272.122 169.282L-141.494 245.269M-141.494 245.269L-187.98 207.151M-141.494 245.269L-13.9457 314.776L-10.278 316.788M-10.278 316.788L54.9026 348.551M-10.278 316.788L-66.7349 279.773M54.9026 348.551L69.6801 355.494M54.9026 348.551L24.3329 329.785L0.529175 315.631M54.9026 348.551L82.4811 362.865L124.89 383.927M-989.999 -194.081L-874.629 -117.328M-874.629 -117.328L-729.277 -27.0615M-729.277 -27.0615L-577.782 61.5671M-577.782 61.5671L-416.905 148.629M-83.0074 309.898L-163.464 258.676M-83.0074 309.898L85.5792 381.648M85.5792 381.648L-5.89832 333.097M85.5792 381.648L222.154 433.939L227.869 436.111L254.878 446.455M254.878 446.455L149.869 401.019M254.878 446.455L417.945 502.876M417.945 502.876L434.503 507.879M417.945 502.876L306.136 462.283M434.503 507.879L313.257 464.829M-990 101.715L-890.617 195.293M-890.617 195.293L-617.254 299.233M-890.617 195.293L-990 153.881M-617.254 299.233L-334.561 395.803M-334.561 395.803L-51.8685 481.761M-51.8685 481.761L228.189 555.63M228.189 555.63L495.179 615.362M1125.83 650.775L1114.96 649.671M1393.27 660.727L1521.12 656.739M1393.27 660.727L1482.77 649.315M1521.12 656.739L1642.08 646.181M1521.12 656.739L1595.83 637.012M1642.08 646.181L1704.98 637.172M1642.08 646.181L1699.62 619.653M1238.75 656.098L1223.47 655.386M1238.75 656.098L1250.53 655.813M1482.77 649.315L1595.83 637.012M1482.77 649.315L1553.08 631.76M1595.83 637.012L1699.62 619.653M1595.83 637.012L1650.31 613.137M1699.62 619.653L1704.98 618.353M1699.62 619.653L1704.98 615.38M-518.174 -53.3581L-422.495 23.8225M-518.174 -53.3581L-606.518 -129.684M-518.174 -53.3581L-522.127 -24.1238M-518.174 -53.3581L-502.827 -76.1117M-422.495 23.8225L-420.84 -1.99341M-422.495 23.8225L-416.371 54.2674M-422.495 23.8225L-324.181 99.4363M-324.181 99.4363L-331.962 72.6946M-324.181 99.4363L-303.226 132.16M-324.181 99.4363L-218.995 174.302M-218.995 174.302L-240.823 145.62M-218.995 174.302L-187.98 207.151M-218.995 174.302L-124.099 238.13L-112.081 246.195M-112.081 246.195L-143.115 217.637M-112.081 246.195L-66.7349 279.773M-112.081 246.195L0.529175 315.631M0.529175 315.631L16.8021 325.014M0.529175 315.631L-43.7858 286.628M16.8021 325.014L-19.6257 301.94M16.8021 325.014L70.1962 355.779M1441.71 -165.203L1562.76 -162.105L1671.65 -156.444L1702.1 -154.004L1704.98 -152.918M1441.71 -165.203L1338.36 -164.758M1441.71 -165.203L1443.1 -167.037M1441.71 -165.203L1452.61 -161.803M-420.84 -1.99341L-502.827 -76.1117M-420.84 -1.99341L-408.626 -21.5956M-420.84 -1.99341L-331.962 72.6946M-331.962 72.6946L-332.87 50.3506M-331.962 72.6946L-246.93 140.724L-240.823 145.62M-240.823 145.62L-250.509 122.617M-240.823 145.62L-143.115 217.637M-143.115 217.637L-85.6432 257.554L-80.2485 261.293L-43.7858 286.628M-143.115 217.637L-165.957 193.014M-43.7858 286.628L-19.6257 301.94M-43.7858 286.628L-74.1414 262.201L-83.5596 253.993L-97.3929 241.976M-19.6257 301.94L-51.2092 279.364M-990 562.573L-898.131 630.3M-898.131 630.3L-456.146 736.59M-898.131 630.3L-990 604.787M295.738 963.948L642.881 1102.89M642.881 1102.89L737.278 1108.02M642.881 1102.89L657 1108.02M1335.3 653.641L1348.74 651.878M1335.3 653.641L1326.57 653.872L1322.25 653.979M1553.08 631.76L1650.31 613.137M1650.31 613.137L1704.98 598.217M1333.41 -167.5L1443.1 -167.037M1333.41 -167.5L1240.46 -166.449L1212.59 -166.966L1161.44 -165.132L1155.02 -163.797L1084.71 -156.782L1026.38 -148.841M1333.41 -167.5L1338.36 -164.758M1443.1 -167.037L1541.67 -163.903M1443.1 -167.037L1455.99 -167.411M1541.67 -163.903L1455.99 -167.411M1541.67 -163.903L1568.64 -161.286M-332.87 50.3506L-408.626 -21.5956M-332.87 50.3506L-324.146 33.9352M-332.87 50.3506L-250.509 122.617M-250.509 122.617L-254.229 103.834M-250.509 122.617L-171.085 188.759L-165.957 193.014M-165.957 193.014L-111.156 234.783L-108.557 236.759L-74.9427 262.379M-165.957 193.014L-177.76 173.857M-596.939 409.138L-918.392 301.975M-596.939 409.138L-271.392 505.565M-167.203 646.074L98.4156 768.602M-167.203 646.074L-545.148 551.82M-167.203 646.074L201.092 723.415M98.4156 768.602L482.057 831.379M785.367 935.497L1136.43 957.627M785.367 935.497L482.057 831.379M785.367 935.497L1109.26 1033.78M1136.43 957.627L1440.06 958.927M1136.43 957.627L836.055 873.219M1136.43 957.627L1444.94 1034.02M1440.06 958.927L1695.65 941.461M1440.06 958.927L1155.55 894.387M1440.06 958.927L1704.98 1009.51M1695.65 941.461L1704.98 942.761M1695.65 941.461L1430.98 896.346M1695.65 941.461L1704.98 939.984M-254.229 103.834L-324.146 33.9352M-254.229 103.834L-249.351 90.7301M-254.229 103.834L-177.76 173.857M-177.76 173.857L-120.983 221.056M-177.76 173.857L-184.526 158.759M-120.983 221.056L-111.298 227.679M-120.983 221.056L-138.2 202.807L-184.526 158.759M-120.983 221.056L-101.435 239.786L-97.3929 241.976M-111.298 227.679L-95.8439 242.011M-111.298 227.679L-126.129 211.139L-141.244 193.869M-111.298 227.679L-98.9244 241.94L-74.9958 262.344L-51.2092 279.364M-111.298 227.679L-122.996 215.519L-126.646 209.59L-134.621 199.922M-111.298 227.679L-104.301 234.498L-97.3929 241.976M-967.887 -407L-893.199 -336.71M-893.199 -336.71L-810.125 -260.775M-893.199 -336.71L-936.445 -314.081M-893.199 -336.71L-845.128 -354.514M-810.125 -260.775L-719.236 -182.348L-624.66 -103.833M-810.125 -260.775L-769.995 -280.805M-810.125 -260.775L-840.499 -234.016M-624.66 -103.833L-522.127 -24.1238M-624.66 -103.833L-606.518 -129.684M-522.127 -24.1238L-416.371 54.2674M-416.371 54.2674L-303.226 132.16M-303.226 132.16L-187.98 207.151M-187.98 207.151L-70.5804 277.459L-66.7349 279.773M-66.7349 279.773L54.8491 347.927L70.1962 355.779M70.1962 355.779L130.926 386.705L214.961 425.304L313.257 464.829M70.1962 355.779L124.89 383.927M313.257 464.829L306.136 462.283M980.553 635.071L980.784 635.107M980.553 635.071L979.182 627.968M980.784 635.107L979.182 627.968M1114.96 649.671L1121.47 624.068M1223.47 655.386L1232.5 634.074M1250.53 655.813L1277.33 655.119M1250.53 655.813L1256.98 642.157M1277.33 655.119L1302.84 654.478M1277.33 655.119L1280.73 648.62M1302.84 654.478L1312.74 654.229M1302.84 654.478L1303.57 653.178M1312.74 654.229L1322.25 653.979M1312.74 654.229L1303.57 653.178M1322.25 653.979L1326.7 653.569M1326.7 653.569L1348.74 651.878M1326.7 653.569L1340.66 620.098M1348.74 651.878L1369.25 650.098L1381.75 648.798L1382.71 648.709L1387.75 647.944M1348.74 651.878L1369.46 649.581L1385.99 648.05L1386.04 648.032L1387.75 647.944M1387.75 647.944L1391.7 647.214L1414.72 645.362L1422.86 643.795L1431.92 641.267L1438.51 638.65L1442.73 637.884L1443.53 637.742L1449.12 636.033L1453.38 633.255L1462.1 629.57L1463.06 628.84L1466.59 627.54L1469.88 627.202M1469.88 627.202L1473.87 627.416L1486.31 625.19L1528.6 613.795M1469.88 627.202L1466.43 628.252L1462.87 629.107M1469.88 627.202L1471.52 626.329L1474.3 625.137L1476.45 624.834L1497.23 619.315M1528.6 613.795L1478.92 631.404M1528.6 613.795L1565.26 592.413M1528.6 613.795L1600.97 587.534M1600.97 587.534L1624.77 562.626M1600.97 587.534L1564.67 610.644M1600.97 587.534L1664.16 558.229M1664.16 558.229L1674.52 529.493M1664.16 558.229L1641.62 585.095M1664.16 558.229L1704.98 532.929M1674.52 529.493L1675.09 500.49M1674.52 529.493L1704.98 503.072M1674.52 529.493L1624.77 562.626M1675.09 500.49L1666.65 470.793M1675.09 500.49L1703.04 463.298M1675.09 500.49L1637.26 535.636M1666.65 470.793L1684.37 432.888M1666.65 470.793L1651.55 441.595M1666.65 470.793L1640.62 508.11M1684.37 432.888L1693.21 394.236M1684.37 432.888L1659.1 402.8M1684.37 432.888L1703.04 463.298M1693.21 394.236L1695.03 356.028M1693.21 394.236L1659.69 364.396M1693.21 394.236L1704.98 406.859M1695.03 356.028L1689.69 318.177M1695.03 356.028L1653.03 326.242M1695.03 356.028L1704.98 364.236M1689.69 318.177L1679.34 281.554M1689.69 318.177L1641.17 289.245M1689.69 318.177L1704.98 328.396M1679.34 281.554L1664.14 246.07M1679.34 281.554L1624.17 253.299M1679.34 281.554L1704.98 296.135M1664.14 246.07L1646.25 212.35M1664.14 246.07L1604.14 219.044M1664.14 246.07L1704.98 266.242M1646.25 212.35L1626 180.195M1646.25 212.35L1581.32 186.32M1646.25 212.35L1704.98 238.023M1626 180.195L1605.44 150.053M1626 180.195L1557.67 155.501M1626 180.195L1695.9 207.596M1605.44 150.053L1584.89 121.691M1605.44 150.053L1533.56 126.463M1605.44 150.053L1678.77 176.136M1584.89 121.691L1566.24 95.3413M1584.89 121.691L1510.76 99.3651M1584.89 121.691L1661.9 146.724M1566.24 95.3413L1549.86 70.8252M1566.24 95.3413L1489.66 74.0478M1566.24 95.3413L1645.57 119.163M1549.86 70.8252L1537.34 48.2496M1549.86 70.8252L1471.78 50.6176M1549.86 70.8252L1631.75 93.6856M1537.34 48.2496L1529.11 27.4723M1537.34 48.2496L1457.63 28.9323M1537.34 48.2496L1620.79 70.0952L1631.75 93.6856M1529.11 27.4723L1448.44 8.97388M1529.11 27.4723L1526.55 8.51102M1529.11 27.4723L1614.38 48.5345L1703.66 72.4454L1704.98 72.8193M1448.44 8.97388L1372.12 -7.33463M1448.44 8.97388L1444.83 -9.32864M1448.44 8.97388L1457.63 28.9323M1372.12 -7.33463L1300.26 -21.7203M1372.12 -7.33463L1367.99 -24.9962M1372.12 -7.33463L1382.16 11.8582M1300.26 -21.7203L1232.89 -34.4146M1300.26 -21.7203L1295.95 -38.7409M1300.26 -21.7203L1310.68 -3.25745M1232.89 -34.4146L1169.83 -45.7202M1232.89 -34.4146L1228.6 -50.8655M1232.89 -34.4146L1243.27 -16.6995M1169.83 -45.7202L1111.47 -55.7438M1169.83 -45.7202L1166.27 -61.5479M1169.83 -45.7202L1180.05 -28.6461M1111.47 -55.7438L1057.36 -64.7883M1111.47 -55.7438L1108.55 -71.0553M1111.47 -55.7438L1120.72 -39.3997M1057.36 -64.7883L1008.29 -72.8891M1057.36 -64.7883L1056.11 -79.5122M1057.36 -64.7883L1065.8 -49.0317M1008.29 -72.8891L963.639 -80.2956M1008.29 -72.8891L1008.4 -87.1324M1008.29 -72.8891L1014.77 -57.7913M963.639 -80.2956L924.63 -87.0256M963.639 -80.2956L966.506 -93.9869M963.639 -80.2956L968.571 -65.7497M924.63 -87.0256L890.518 -93.3104M924.63 -87.0256L929.687 -100.29M924.63 -87.0256L926.518 -73.1028M890.518 -93.3104L862.975 -99.0789M890.518 -93.3104L890.002 -79.8505M890.518 -93.3104L899.491 -106.022M862.975 -99.0789L841.147 -104.563M862.975 -99.0789L858.222 -86.2065M862.975 -99.0789L875.082 -111.381M841.147 -104.563L827.153 -109.655M841.147 -104.563L833.047 -92.1353M841.147 -104.563L858.417 -116.313M827.153 -109.655L818.5 -115.583L797.207 -109.031M827.153 -109.655L813.587 -97.7791M827.153 -109.655L848.59 -120.978M797.207 -109.031L781.165 -102.195M797.207 -109.031L803.065 -112.984M797.207 -109.031L782.803 -96.8177M781.165 -102.195L767.421 -91.5656L764.305 -91.2095L759.587 -85.2451M781.165 -102.195L782.803 -96.8177M759.587 -85.2451L755.083 -75.0434M759.587 -85.2451L755.51 -80.0998M759.587 -85.2451L765.231 -91.7436L770.056 -96.5151M759.587 -85.2451L762.916 -79.0671M755.083 -75.0434L752.821 -68.6518M755.083 -75.0434L765.177 -66.8179M755.083 -75.0434L755.51 -80.0998M752.821 -68.6518L757.735 -56.7409M752.821 -68.6518L759.267 -61.5302M757.735 -56.7409L760.691 -52.8774L767.599 -44.4739M757.735 -56.7409L760.477 -53.3403L760.922 -52.4323L767.599 -44.4739M757.735 -56.7409L759.373 -55.5302L768.186 -49.0673M767.599 -44.4739L768.738 -43.5837M767.599 -44.4739L768.24 -44.1356L783.551 -36.0882M767.599 -44.4739L772.263 -40.3077M768.738 -43.5837L772.263 -40.3077M768.738 -43.5837L771.552 -40.3789L782.875 -32.1M772.263 -40.3077L783.711 -31.7083L789.569 -27.3998L803.688 -18.4977M772.263 -40.3077L782.875 -32.1M803.688 -18.4977L809.937 -14.5987L824.216 -6.46222L833.776 -1.29904L855.658 7.85223L888.079 17.502M803.688 -18.4977L790.887 -26.9547M803.688 -18.4977L827.474 -8.58087M888.079 17.502L925.592 29.6266M888.079 17.502L921.337 33.8996M888.079 17.502L856.975 1.83453M925.592 29.6266L967.627 42.6057M925.592 29.6266L892.548 12.9442M925.592 29.6266L961.485 47.2704M967.627 42.6057L1012.42 56.3683M967.627 42.6057L931.966 24.6771M967.627 42.6057L1004.84 61.4603M1012.42 56.3683L1059.92 71.0566M1012.42 56.3683L1051.27 76.6472M1012.42 56.3683L975.479 37.2289M1059.92 71.0566L1108.9 86.5995M1059.92 71.0566L1021.38 50.5108M1059.92 71.0566L1099.4 92.742M1108.9 86.5995L1159.23 103.104M1108.9 86.5995L1069.8 64.6828M1108.9 86.5995L1148.98 109.834M1159.23 103.104L1210.15 120.498M1159.23 103.104L1119.57 79.656M1159.23 103.104L1199.17 127.869M1210.15 120.498L1261.43 138.89M1210.15 120.498L1170.7 95.5728M1210.15 120.498L1249.59 146.902M1261.43 138.89L1312.81 158.243M1261.43 138.89L1299.89 166.878M1261.43 138.89L1222.56 112.398M1312.81 158.243L1363.82 178.611M1312.81 158.243L1274.96 130.202M1312.81 158.243L1349.52 187.816M1363.82 178.611L1414.67 200.083M1363.82 178.611L1327.8 149.056M1363.82 178.611L1398.61 209.786M1414.67 200.083L1464.59 222.64M1414.67 200.083L1380.65 168.979M1414.67 200.083L1446.34 232.682M1464.59 222.64L1514.03 246.516M1464.59 222.64L1493.17 256.735M1464.59 222.64L1433.72 190.166M1514.03 246.516L1561.93 271.584M1514.03 246.516L1537.98 281.768M1514.03 246.516L1486.33 212.581M1561.93 271.584L1608.75 298.254M1561.93 271.584L1581.33 308.153M1561.93 271.584L1538.92 236.545M1608.75 298.254L1653.03 326.242M1608.75 298.254L1621.77 335.518M1608.75 298.254L1590.4 261.952M1653.03 326.242L1659.69 364.396M1653.03 326.242L1641.17 289.245M1659.69 364.396L1659.1 402.8M1659.69 364.396L1621.77 335.518M1659.1 402.8L1651.55 441.595M1659.1 402.8L1629.46 373.868M1651.55 441.595L1635.3 479.553M1651.55 441.595L1629.87 412.378M1635.3 479.553L1640.62 508.11M1635.3 479.553L1611.07 516.924M1635.3 479.553L1623.46 451.191M1640.62 508.11L1637.26 535.636M1640.62 508.11L1612.76 535.778L1605.1 543.398M1637.26 535.636L1624.77 562.626M1637.26 535.636L1590.47 569.089M1624.77 562.626L1581.94 584.081L1565.26 592.413M1564.67 610.644L1478.92 631.404M1564.67 610.644L1641.62 585.095M-725.432 -296.223L-655.088 -223.725L-582.34 -150.8M-725.432 -296.223L-769.995 -280.805M-725.432 -296.223L-789.472 -365.997M-725.432 -296.223L-673.639 -305.481M-582.34 -150.8L-502.827 -76.1117M-582.34 -150.8L-606.518 -129.684M-582.34 -150.8L-549.296 -165.613M-502.827 -76.1117L-482.139 -94.343M-163.464 258.676L-5.89832 333.097M265.4 478.271L420.402 535.796M265.4 478.271L468.776 535.493M420.402 535.796L627.89 584.828M1358.85 -168.978L1455.99 -167.411M1455.99 -167.411L1387.39 -168.283M1455.99 -167.411L1568.64 -161.286M-614.423 -236.758L-549.296 -165.613M-614.423 -236.758L-673.639 -305.481M-614.423 -236.758L-567.1 -243.808M-549.296 -165.613L-482.139 -94.343M-549.296 -165.613L-513.029 -176.224M-482.139 -94.343L-408.626 -21.5956M-482.139 -94.343L-453.35 -106.503M-408.626 -21.5956L-391.837 -36.9072M-5.89832 333.097L149.869 401.019M149.869 401.019L306.136 462.283M-990 241.246L-918.392 301.975M-918.392 301.975L-990 275.412M-271.392 505.565L54.1191 589.172M54.1191 589.172L367.933 657.273M367.933 657.273L665.831 708.869M665.831 708.869L937.111 743.338M1704.98 -145.263L1613.24 -149.233M1613.24 -149.233L1505.93 -150.728M1613.24 -149.233L1585.25 -155.179M1613.24 -149.233L1652.85 -141.363M1505.93 -150.728L1413.67 -149.251M1505.93 -150.728L1547.33 -142.966M1505.93 -150.728L1473.67 -157.067M1413.67 -149.251L1336.46 -145.102M1413.67 -149.251L1379.01 -155.66M1413.67 -149.251L1458.24 -141.328M1336.46 -145.102L1271.68 -138.924M1336.46 -145.102L1298.2 -151.761M1336.46 -145.102L1382.59 -137.269M1271.68 -138.924L1219.57 -130.877M1271.68 -138.924L1320.5 -130.93M1271.68 -138.924L1231.38 -145.654M1219.57 -130.877L1178.07 -121.37M1219.57 -130.877L1176.2 -137.838M1219.57 -130.877L1269.76 -122.883M1178.07 -121.37L1147.36 -110.473M1178.07 -121.37L1132.96 -128.456M1178.07 -121.37L1230.5 -113.162M1147.36 -110.473L1125.73 -98.4557M1147.36 -110.473L1099.64 -117.862M1147.36 -110.473L1200.93 -102.123M1125.73 -98.4557L1113.3 -85.2629M1125.73 -98.4557L1076.59 -106.076M1125.73 -98.4557L1181.13 -89.7495M1113.3 -85.2629L1108.55 -71.0553M1113.3 -85.2629L1062.01 -93.3103M1113.3 -85.2629L1169.6 -76.2541M1108.55 -71.0553L1056.11 -79.5122M1108.55 -71.0553L1166.27 -61.5479M1120.72 -39.3997L1136.14 -21.8449M1120.72 -39.3997L1065.8 -49.0317M1120.72 -39.3997L1180.05 -28.6461M1136.14 -21.8449L1156.51 -3.13281M1136.14 -21.8449L1195.77 -10.3613M1136.14 -21.8449L1080.01 -32.2781M1156.51 -3.13281L1181.51 16.9324M1156.51 -3.13281L1216.6 9.27661M1156.51 -3.13281L1099.95 -14.3672M1181.51 16.9324L1210.03 38.3506M1181.51 16.9324L1241.51 30.2854M1181.51 16.9324L1124.29 4.70096M1210.03 38.3506L1241.58 61.2644M1210.03 38.3506L1269.87 52.8253M1210.03 38.3506L1152.79 25.0866M1241.58 61.2644L1300.83 76.9142M1241.58 61.2644L1184.36 46.8076M1241.58 61.2644L1275.21 85.7272M1300.83 76.9142L1362.08 93.9705M1300.83 76.9142L1333.52 102.659M1300.83 76.9142L1269.87 52.8253M1362.08 93.9705L1425.46 112.611M1362.08 93.9705L1393.48 121.015M1362.08 93.9705L1332.2 68.6531M1425.46 112.611L1490.53 132.997M1425.46 112.611L1454.73 140.92M1425.46 112.611L1396.9 86.0477M1490.53 132.997L1557.67 155.501M1490.53 132.997L1517.61 162.659M1490.53 132.997L1464.18 105.258M1557.67 155.501L1533.56 126.463M1557.67 155.501L1581.32 186.32M1695.9 207.596L1704.98 227.358M1695.9 207.596L1678.77 176.136M1695.9 207.596L1704.98 211.495M-183.832 149.145L-148.758 187.424L-141.244 193.869M-183.832 149.145L-241.731 81.6323M-183.832 149.145L-184.526 158.759M-141.244 193.869L-134.621 199.922M-141.244 193.869L-149.007 182.528L-153.53 177.026L-181.286 143.43L-229.179 77.9469M-134.621 199.922L-145.019 185.234M-990 389.785L-920.065 443.927M-920.065 443.927L-545.148 551.82M-920.065 443.927L-990 421.245M201.092 723.415L553.416 782.293M201.092 723.415L482.057 831.379M553.416 782.293L877.129 821.604M553.416 782.293L836.055 873.219M877.129 821.604L1168.42 841.687M877.129 821.604L1155.55 894.387M1168.42 841.687L1418.68 844.037M1168.42 841.687L1430.98 896.346M1418.68 844.037L1662.25 880.999M1156.19 -162.995L1234.42 -166.948L1240.6 -167.251L1340.46 -168.871M1340.46 -168.871L1387.39 -168.283M1340.46 -168.871L1252.8 -168.408L1240.39 -166.093L1160.62 -160.04M1340.46 -168.871L1358.87 -168.978L1387.39 -168.283M-990 -1.33459L-915.205 36.6949M-915.205 36.6949L-704.654 136.077M-915.205 36.6949L-966.765 -35.9991M-704.654 136.077L-775.906 62.3505M-704.654 136.077L-482.709 231.952M-482.709 231.952L-576.945 157.567M-482.709 231.952L-256.651 321.293M-256.651 321.293L-26.3375 403.067M-256.651 321.293L-368.264 248.937M-26.3375 403.067L-157.233 333.631M627.89 584.828L821.759 621.789M627.89 584.828L468.776 535.493M821.759 621.789L659.172 581.552M1150.24 661.03L1304.52 675.736M1304.52 675.736L1457.72 683.338M482.057 831.379L836.055 873.219M836.055 873.219L1155.55 894.387M1155.55 894.387L1430.98 896.346M1430.98 896.346L1662.25 880.999M1662.25 880.999L1704.98 886.037M1662.25 880.999L1704.98 874.215M1109.26 1033.78L1382.43 1108.02M1109.26 1033.78L1444.94 1034.02M-895.941 -407L-845.128 -354.514M-845.128 -354.514L-769.995 -280.805M-845.128 -354.514L-789.472 -365.997M-769.995 -280.805L-691.889 -206.313L-606.518 -129.684M-157.233 333.631L-368.264 248.937M-990 -361.279L-936.445 -314.081M-936.445 -314.081L-840.499 -234.016M-936.445 -314.081L-969.81 -284.508M-840.499 -234.016L-863.823 -201.969M-368.264 248.937L-576.945 157.567M1169.6 -76.2541L1231.5 -65.999M1169.6 -76.2541L1166.27 -61.5479M1169.6 -76.2541L1181.13 -89.7495M1231.5 -65.999L1298.37 -54.3907M1231.5 -65.999L1241.9 -79.9217M1231.5 -65.999L1228.6 -50.8655M1298.37 -54.3907L1370.55 -41.1267M1298.37 -54.3907L1308.52 -68.6517M1298.37 -54.3907L1295.95 -38.7409M1370.55 -41.1267L1447.8 -25.9933M1370.55 -41.1267L1380.49 -55.7794M1370.55 -41.1267L1367.99 -24.9962M1447.8 -25.9933L1530.18 -8.66992M1447.8 -25.9933L1458.08 -41.002M1447.8 -25.9933L1444.83 -9.32864M1530.18 -8.66992L1617.8 11.146L1704.98 32.4575M1530.18 -8.66992L1526.55 8.51102M1530.18 -8.66992L1541.1 -24.0882M1704.98 -108.266L1642.51 -107.767M1642.51 -107.767L1570.54 -104.171M1642.51 -107.767L1572.89 -120.782M1642.51 -107.767L1704.98 -95.5537M1570.54 -104.171L1510.81 -98.3133M1570.54 -104.171L1499.9 -116.99M1570.54 -104.171L1648.28 -89.3757M1510.81 -98.3133L1463.19 -90.2659M1510.81 -98.3133L1440.24 -110.83M1510.81 -98.3133L1588.92 -83.6962M1463.19 -90.2659L1425.94 -80.4558M1463.19 -90.2659L1391.79 -102.782M1463.19 -90.2659L1540.92 -75.8802M1425.94 -80.4558L1398.79 -68.8832M1425.94 -80.4558L1503.85 -66.0345M1425.94 -80.4558L1354.51 -92.9187M1398.79 -68.8832L1380.49 -55.7794M1398.79 -68.8832L1326.82 -81.5419M1398.79 -68.8832L1476.43 -54.3907M1380.49 -55.7794L1308.52 -68.6517M1380.49 -55.7794L1458.08 -41.002M1367.99 -24.9962L1295.95 -38.7409M1367.99 -24.9962L1444.83 -9.32864M1382.16 11.8582L1397.17 32.6533M1382.16 11.8582L1310.68 -3.25745M1382.16 11.8582L1457.63 28.9323M1397.17 32.6533L1416.52 55.122M1397.17 32.6533L1326.38 16.6831M1397.17 32.6533L1471.78 50.6176M1416.52 55.122L1489.66 74.0478M1416.52 55.122L1346.52 38.1548M1416.52 55.122L1439.04 79.2822M1489.66 74.0478L1471.78 50.6176M1489.66 74.0478L1510.76 99.3651M1645.57 119.163L1704.98 138.498M1645.57 119.163L1631.75 93.6856M1645.57 119.163L1661.9 146.724M135.181 -327.719L190.747 -353.303M135.181 -327.719L171.109 -356.045M135.181 -327.719L82.1781 -298.769L133.846 -322.876L138.564 -324.995M135.181 -327.719L80.291 -299.624L45.1458 -279.434M190.747 -353.303L224.059 -380.419M190.747 -353.303L246.563 -376.092M190.747 -353.303L138.564 -324.995M224.059 -380.419L238.159 -407M224.059 -380.419L171.109 -356.045M224.059 -380.419L277.756 -402.46M1704.98 -91.7614L1648.28 -89.3757M1648.28 -89.3757L1588.92 -83.6962M1648.28 -89.3757L1704.98 -77.9633M1588.92 -83.6962L1540.92 -75.8802M1588.92 -83.6962L1673.74 -66.8892M1540.92 -75.8802L1503.85 -66.0345M1540.92 -75.8802L1625.51 -59.2156M1503.85 -66.0345L1476.43 -54.3907M1503.85 -66.0345L1587.81 -49.459M1476.43 -54.3907L1458.08 -41.002M1476.43 -54.3907L1560.02 -37.6905M1458.08 -41.002L1541.1 -24.0882M1444.83 -9.32864L1526.55 8.51102M1457.63 28.9323L1471.78 50.6176M1631.75 93.6856L1704.98 115.852M-826.469 -407L-789.472 -365.997M-789.472 -365.997L-731.111 -373.35M-731.111 -373.35L-667.301 -375.006M-731.111 -373.35L-758.191 -407M-731.111 -373.35L-673.639 -305.481M-667.301 -375.006L-602.779 -373.208M-667.301 -375.006L-690.874 -407M-667.301 -375.006L-619.711 -310.805M-602.779 -373.208L-535.177 -366.425M-602.779 -373.208L-624.055 -407M-602.779 -373.208L-561.028 -310.627M-535.177 -366.425L-502.56 -307.19M-535.177 -366.425L-557.646 -407M-535.177 -366.425L-469.161 -356.864M-502.56 -307.19L-465.937 -245.179M-502.56 -307.19L-561.028 -310.627M-502.56 -307.19L-442.169 -299.001M-465.937 -245.179L-428.424 -182.437M-465.937 -245.179L-518.405 -247.137M-465.937 -245.179L-414.698 -240.158M-428.424 -182.437L-386.228 -117.364M-428.424 -182.437L-470.975 -181.102M-428.424 -182.437L-383.273 -178.699M-386.228 -117.364L-342.52 -52.0406M-386.228 -117.364L-422.192 -114.693M-386.228 -117.364L-350.781 -116.634M-342.52 -52.0406L-293.256 14.9738M-342.52 -52.0406L-367.925 -46.3789M-342.52 -52.0406L-313.463 -52.3966M-293.256 14.9738L-241.731 81.6323M-293.256 14.9738L-311.736 21.6504M-293.256 14.9738L-274.241 12.0007M-241.731 81.6323L-249.351 90.7301M-241.731 81.6323L-229.179 77.9469M-184.526 158.759L-249.351 90.7301M659.172 581.552L468.776 535.493M-989.999 -85.9751L-966.765 -35.9991M-966.765 -35.9991L-990 -48.907M-966.765 -35.9991L-775.906 62.3505M-775.906 62.3505L-576.945 157.567M-490.757 -407L-469.161 -356.864M-469.161 -356.864L-442.169 -299.001M-469.161 -356.864L-403 -343.119M-442.169 -299.001L-414.698 -240.158M-442.169 -299.001L-384.573 -288.265M-414.698 -240.158L-362.888 -230.615M-414.698 -240.158L-383.273 -178.699M-362.888 -230.615L-340.473 -172.058M-362.888 -230.615L-384.573 -288.265M-362.888 -230.615L-315.155 -218.669M-340.473 -172.058L-313.98 -111.043M-340.473 -172.058L-383.273 -178.699M-340.473 -172.058L-298.508 -161.09M-313.98 -111.043L-287.417 -52.6993L-285.939 -49.4412M-313.98 -111.043L-350.781 -116.634M-313.98 -111.043L-280.633 -102.604M-285.939 -49.4412L-313.463 -52.3966M-285.939 -49.4412L-258.324 -41.7676M-285.939 -49.4412L-252.752 14.1727M-252.752 14.1727L-218.693 74.8667L-216.966 77.9112M-252.752 14.1727L-274.241 12.0007M-252.752 14.1727L-233.701 19.6385M-216.966 77.9112L-229.179 77.9469M-216.966 77.9112L-203.399 82.9498M-216.966 77.9112L-174.895 143.021L-169.607 146.297L-161.204 159.596M-161.204 159.596L-163.838 154.647L-168.254 147.133L-174.788 130.86M-161.204 159.596L-145.019 185.234M968.553 -143.571L1018.81 -153.203L1023.25 -154.912L1025.05 -155.429M968.553 -143.571L927.141 -133.743M968.553 -143.571L978.969 -139.637M1025.05 -155.429L1038.22 -157.209M1025.05 -155.429L1001.38 -153.007M1025.05 -155.429L1030.35 -155.642L1077.3 -159.399L1084.74 -158.188L1094.89 -153.168M1038.22 -157.209L1075.86 -159.915L1094.43 -161.642L1154.69 -163.921L1160.62 -160.04M1038.22 -157.209L1025.1 -155.464L1016.66 -154.45L965.829 -147.755L921.568 -141.809M1038.22 -157.209L1153.52 -164.705L1161.66 -165.221L1178.34 -166.2L1181.29 -166.271L1240.46 -166.485L1249.57 -161.607M1160.62 -160.04L1175.42 -156.123M1160.62 -160.04L1094.89 -153.168M1175.42 -156.123L1249.57 -161.607M1175.42 -156.123L1198.74 -151.405M1175.42 -156.123L1113.42 -148.895M1249.57 -161.607L1338.36 -164.758M1249.57 -161.607L1269.53 -157.191M1338.36 -164.758L1353.26 -160.877M1568.64 -161.286L1585.25 -155.179M1568.64 -161.286L1699.71 -153.239L1702.06 -153.132L1704.98 -152.26M1568.64 -161.286L1452.61 -161.803M1568.64 -161.286L1590.5 -161.892L1605.94 -160.859L1704.98 -154.984M1585.25 -155.179L1701.97 -150.07L1704.98 -149.945M1585.25 -155.179L1473.67 -157.067M1652.85 -141.363L1701.9 -131.749M1652.85 -141.363L1704.98 -139.138M1652.85 -141.363L1547.33 -142.966M1701.9 -131.749L1704.98 -131.144M1701.9 -131.749L1704.98 -131.607M1701.9 -131.749L1599.05 -133.352M1547.33 -142.966L1458.24 -141.328M1547.33 -142.966L1599.05 -133.352M1473.67 -157.067L1452.61 -161.803M1473.67 -157.067L1379.01 -155.66M1452.61 -161.803L1353.26 -160.877M1353.26 -160.877L1269.53 -157.191M1353.26 -160.877L1379.01 -155.66M1269.53 -157.191L1198.74 -151.405M1269.53 -157.191L1298.2 -151.761M1198.74 -151.405L1141.09 -143.749M1198.74 -151.405L1231.38 -145.654M1141.09 -143.749L1094.41 -134.687M1141.09 -143.749L1113.42 -148.895M1141.09 -143.749L1176.2 -137.838M1094.41 -134.687L1059.03 -124.307M1094.41 -134.687L1063.89 -140.064M1094.41 -134.687L1132.96 -128.456M1059.03 -124.307L1033.02 -112.895M1059.03 -124.307L1024.72 -130.058M1059.03 -124.307L1099.64 -117.862M1033.02 -112.895L1016.73 -100.45M1033.02 -112.895L996.345 -118.93M1033.02 -112.895L1076.59 -106.076M1016.73 -100.45L1008.4 -87.1324M1016.73 -100.45L976.797 -106.913M1016.73 -100.45L1062.01 -93.3103M1008.4 -87.1324L966.506 -93.9869M1008.4 -87.1324L1056.11 -79.5122M1014.77 -57.7913L1065.8 -49.0317M1014.77 -57.7913L968.571 -65.7497M1014.77 -57.7913L1028.02 -41.6964M1065.8 -49.0317L1080.01 -32.2781M1180.05 -28.6461L1243.27 -16.6995M1180.05 -28.6461L1195.77 -10.3613M1243.27 -16.6995L1310.68 -3.25745M1243.27 -16.6995L1259.26 2.42203M1310.68 -3.25745L1326.38 16.6831M1510.76 99.3651L1533.56 126.463M1510.76 99.3651L1439.04 79.2822M1533.56 126.463L1464.18 105.258M1581.32 186.32L1604.14 219.044M1581.32 186.32L1517.61 162.659M1604.14 219.044L1624.17 253.299M1604.14 219.044L1543.78 194.029M1624.17 253.299L1568.66 227.252M1624.17 253.299L1641.17 289.245M-81.7441 -407L-38.0173 -379.76M-38.0173 -379.76L-5.54266 -350.917M-38.0173 -379.76L-63.423 -342.514M-38.0173 -379.76L-17.9515 -407M-5.54266 -350.917L12.0476 -321.505M-5.54266 -350.917L-36.2544 -313.76M-5.54266 -350.917L26.6295 -385.048M12.0476 -321.505L13.3474 -292.217M12.0476 -321.505L-24.2011 -285.024M12.0476 -321.505L49.2228 -355.76M13.3474 -292.217L-1.55457 -261.861M13.3474 -292.217L55.4014 -326.187M13.3474 -292.217L-27.3341 -255.096M-1.55457 -261.861L-28.5453 -234.016M-1.55457 -261.861L-46.2606 -224.437M-1.55457 -261.861L44.4873 -296.722M-46.2606 -224.437L-70.3138 -201.47M-46.2606 -224.437L-27.3341 -255.096M-70.3138 -201.47L-81.299 -190.983M-70.3138 -201.47L-80.5327 -191.624M-81.299 -190.983L-86.8539 -186.194M-81.299 -190.983L-86.1414 -186.497M-81.299 -190.983L-32.7114 -230.562L-32.658 -230.597L-28.5453 -234.016M-86.8539 -186.194L-88.9547 -183.933L-89.1862 -183.613M-86.8539 -186.194L-66.6459 -215.535M-86.8539 -186.194L-89.1862 -183.613M-89.1862 -183.613L-106.99 -164.562L-124.028 -146.438M25.953 -268.395L30.5464 -271.814L37.6858 -278.419M25.953 -268.395L45.1458 -279.434M25.953 -268.395L-27.3166 -234.443M37.6858 -278.419L67.3118 -299.036M37.6858 -278.419L16.7131 -266.152M67.3118 -299.036L91.6503 -328.413M67.3118 -299.036L118.783 -328.787M118.783 -328.787L171.109 -356.045M118.783 -328.787L85.9883 -303.95L81.2346 -299.196L45.1458 -279.434M118.783 -328.787L139.757 -357.683M171.109 -356.045L188.771 -384.015M188.771 -384.015L236.575 -407M188.771 -384.015L139.757 -357.683M-469.944 -407L-421.25 -396.798M-421.25 -396.798L-351.244 -378.229M-421.25 -396.798L-424.347 -407M-421.25 -396.798L-403 -343.119M-351.244 -378.229L-287.167 -358.163M-351.244 -378.229L-341.185 -327.345M-351.244 -378.229L-357.066 -407M-287.167 -358.163L-228.432 -335.392M-287.167 -358.163L-289.321 -405.095M-287.167 -358.163L-282.698 -308.259M-228.432 -335.392L-178.901 -311.766M-228.432 -335.392L-224.942 -381.469M-228.432 -335.392L-231.689 -287.802M-178.901 -311.766L-138.521 -286.164M-178.901 -311.766L-187.767 -264.781M-178.901 -311.766L-167.986 -355.796M-138.521 -286.164L-110.266 -260.028M-138.521 -286.164L-154.313 -240.835M-138.521 -286.164L-122.016 -329.73M-110.266 -260.028L-94.2425 -232.146M-110.266 -260.028L-131.274 -214.734M-110.266 -260.028L-87.2271 -302.241M-94.2425 -232.146L-92.1772 -203.464M-94.2425 -232.146L-120.93 -187.654M-94.2425 -232.146L-66.1475 -274.52M-92.1772 -203.464L-114.503 -170.847L-123.139 -158.26M-92.1772 -203.464L-103.91 -172.627M-92.1772 -203.464L-58.8834 -245.393M-123.139 -158.26L-140.23 -127.405M-123.139 -158.26L-120.93 -187.654M-123.139 -158.26L-138.913 -127.191M-140.23 -127.405L-152.907 -105.613L-158.408 -97.156M-140.23 -127.405L-124.687 -145.654L-124.028 -146.438M-140.23 -127.405L-151.731 -110.723M-158.408 -97.156L-151.731 -110.723M-158.408 -97.156L-176.621 -60.1058M1110.7 129.329L1155.23 149.751M1110.7 129.329L1070.3 109.335M1110.7 129.329L1149.18 151.068M1155.23 149.751L1201.25 171.56M1155.23 149.751L1116.18 127.318M1155.23 149.751L1193.28 173.074M1201.25 171.56L1238.68 196.54M1201.25 171.56L1162.62 147.49M1201.25 171.56L1247.99 194.706M1238.68 196.54L1274.03 222.266M1238.68 196.54L1283.95 221.358M1238.68 196.54L1193.28 173.074M1274.03 222.266L1285.07 228.961L1317.94 248.83M1274.03 222.266L1307.4 248.688M1274.03 222.266L1230.06 197.198M1317.94 248.83L1360.05 276.587M1317.94 248.83L1348.81 276.8M1317.94 248.83L1283.95 221.358M1360.05 276.587L1400.28 305.554M1360.05 276.587L1388.73 306.302M1360.05 276.587L1328.66 247.513M1400.28 305.554L1436.8 335.251L1469.95 365.785M1400.28 305.554L1371.21 274.699M1400.28 305.554L1425.21 336.675M1469.95 365.785L1497.8 396.426M1469.95 365.785L1448.3 331.868M1469.95 365.785L1486.38 399.613M1497.8 396.426L1521.03 427.44M1497.8 396.426L1481.58 361.494M1497.8 396.426L1509.64 431.642M1521.03 427.44L1537.69 457.85M1521.03 427.44L1509.69 391.191M1521.03 427.44L1526.16 463.102M1537.69 457.85L1548.7 488.099M1537.69 457.85L1533.37 421.227M1537.69 457.85L1536.79 494.366M1548.7 488.099L1552.1 516.977M1548.7 488.099L1550.78 450.728M1548.7 488.099L1539.58 524.188M1552.1 516.977L1552.08 517.031L1548.73 545.072M1552.1 516.977L1562.76 480.14M1071.76 108.41L1116.18 127.318M1116.18 127.318L1162.62 147.49M1116.18 127.318L1076.73 105.81M1162.62 147.49L1123.08 124.415M1162.62 147.49L1209.99 168.926M1247.99 194.706L1294.12 219.08M1247.99 194.706L1283.95 221.358M1247.99 194.706L1209.99 168.926M1294.12 219.08L1328.66 247.513M1294.12 219.08L1257.66 191.608M1294.12 219.08L1339.38 244.646M1328.66 247.513L1371.21 274.699M1328.66 247.513L1283.95 221.358M1371.21 274.699L1411.66 302.99M1371.21 274.699L1339.38 244.646M1411.66 302.99L1448.3 331.868M1411.66 302.99L1382.28 271.139M1411.66 302.99L1436.8 335.251L1458.43 368.028L1475.04 400.556M1448.3 331.868L1423.02 298.628M1448.3 331.868L1481.58 361.494M1486.38 399.613L1498.7 433.565M1486.38 399.613L1458.43 368.028L1425.21 336.675M1486.38 399.613L1509.64 431.642M1498.7 433.565L1505.43 466.627M1498.7 433.565L1515.58 466.111M1498.7 433.565L1475.04 400.556M1505.43 466.627L1508.07 499.155M1505.43 466.627L1487.77 433.031M1505.43 466.627L1517.1 500.206M1508.07 499.155L1505.36 529.992M1508.07 499.155L1512.88 532.716M1508.07 499.155L1495.2 464.473M1505.36 529.992L1499.1 559.689M1505.36 529.992L1498.83 495.238M1505.36 529.992L1504.72 564.211M1499.1 559.689L1488.32 586.947M1499.1 559.689L1497.42 524.188M1499.1 559.689L1491.71 593.357M1488.32 586.947L1474.95 612.585M1488.32 586.947L1492.76 551.837M1488.32 586.947L1475.83 620.971M1474.95 612.585L1463.35 628.466M1474.95 612.585L1483.87 577.03L1485.12 540.745M1474.95 612.585L1467.1 626.632M-27.3341 -255.096L-24.2011 -285.024M-27.3341 -255.096L-66.6459 -215.535M55.4014 -326.187L98.4159 -357.79M55.4014 -326.187L49.2228 -355.76M55.4014 -326.187L44.4873 -296.722M98.4159 -357.79L142.552 -386.419M98.4159 -357.79L87.6796 -387.006M98.4159 -357.79L91.6503 -328.413M142.552 -386.419L139.757 -357.683M142.552 -386.419L177.822 -407M1032.9 88.4335L1076.73 105.81M1032.9 88.4335L993.372 70.7718M1032.9 88.4335L1070.3 109.335M1076.73 105.81L1123.08 124.415M1076.73 105.81L1037.51 85.3177M1123.08 124.415L1083.21 102.356M1123.08 124.415L1170.86 144.178M1209.99 168.926L1257.66 191.608M1209.99 168.926L1170.86 144.178M1257.66 191.608L1219.22 165.133M1257.66 191.608L1304.43 215.376M1339.38 244.646L1382.28 271.139M1339.38 244.646L1304.43 215.376M1382.28 271.139L1350.11 240.249M1382.28 271.139L1423.02 298.628M1475.04 400.556L1487.77 433.031M1475.04 400.556L1446.73 368.135M1487.77 433.031L1495.2 464.473M1487.77 433.031L1470.98 409.69L1463.43 399.168M1495.2 464.473L1498.83 495.238M1495.2 464.473L1476.47 429.986M1498.83 495.238L1497.42 524.188M1498.83 495.238L1484.44 459.63M1497.42 524.188L1492.76 551.837M1497.42 524.188L1488.86 488.437M1492.76 551.837L1483.87 577.03L1472.57 600.407M1492.76 551.837L1488.52 515.321M1472.57 600.407L1458.13 620.881M1472.57 600.407L1477.68 563.677M1472.57 600.407L1460.59 629.801M1458.13 620.881L1446.66 634.11M1458.13 620.881L1467.89 584.65M1458.13 620.881L1452.29 632.383M1446.66 634.11L1443.73 635.036M1446.66 634.11L1453.48 633.042L1459.68 632.009M-863.823 -201.969L-969.81 -284.508M1444.94 1034.02L1704.98 1089.66M1444.94 1034.02L1704.98 1015.56M1160.36 357.969L1204.47 344.634M1160.36 357.969L1166.5 362.153M1160.36 357.969L1122.36 372.568M1204.47 344.634L1207.41 343.103L1216.47 342.408M1204.47 344.634L1164.26 352.147M1204.47 344.634L1216.47 342.408M1216.47 342.408L1248.52 337.761L1257.94 336.907L1286.5 333.364M1216.47 342.408L1227.58 340.147L1246.94 337.245L1258.1 336.658L1261.07 340.539M1286.5 333.364L1308.24 330.462L1315.14 330.391L1348.31 327.916L1362.59 326.865L1370.52 326.1M1286.5 333.364L1264.05 334.664L1258.69 335.696L1257.37 337.868L1208.39 348.836M1286.5 333.364L1312.97 330.284L1315.02 330.551L1317.74 332.99M1370.52 326.1L1370.3 325.797M1370.52 326.1L1371.32 327.186M-403 -343.119L-384.573 -288.265M-403 -343.119L-341.185 -327.345M-384.573 -288.265L-328.383 -273.576M-315.155 -218.669L-298.508 -161.09M-315.155 -218.669L-270.36 -202.983M-315.155 -218.669L-328.383 -273.576M-298.508 -161.09L-280.633 -102.604M-298.508 -161.09L-261.814 -147.773M-280.633 -102.604L-258.324 -41.7676M-280.633 -102.604L-249.458 -89.9632M-258.324 -41.7676L-235.107 -31.2276M-258.324 -41.7676L-233.701 19.6385M-233.701 19.6385L-208.669 71.9112L-205.82 77.8934L-203.399 82.9498M-233.701 19.6385L-215.683 29.7868M-203.399 82.9498L-180.236 126.356L-179.737 127.3L-175.073 136.041L-173.185 142.896L-160.509 163.335L-158.586 166.059L-145.019 185.234M-203.399 82.9498L-192.984 91.3711M994.405 69.3297L1037.51 85.3177M1037.51 85.3177L1083.21 102.356M1037.51 85.3177L998.731 65.7866M1083.21 102.356L1130.96 120.552M1083.21 102.356L1043.74 81.4008M1130.96 120.552L1179.73 139.798M1130.96 120.552L1170.86 144.178M1130.96 120.552L1090.83 98.012M1179.73 139.798L1228.81 160.148M1179.73 139.798L1139.61 115.674M1179.73 139.798L1219.22 165.133M1228.81 160.148L1277.7 181.531M1228.81 160.148L1189.13 134.35M1228.81 160.148L1267.54 187.193M1277.7 181.531L1325.58 203.875M1277.7 181.531L1238.85 154.041M1277.7 181.531L1314.84 210.284M1325.58 203.875L1372.42 227.216M1325.58 203.875L1288.37 174.712M1325.58 203.875L1361.03 234.391M1372.42 227.216L1417.2 251.34M1372.42 227.216L1404.93 259.299M1372.42 227.216L1336.97 196.326M1417.2 251.34L1460.3 276.409M1417.2 251.34L1384.76 218.919M1417.2 251.34L1446.88 285.097M1460.3 276.409L1500.52 302.118M1460.3 276.409L1430.78 242.367M1460.3 276.409L1485.57 311.465M1500.52 302.118L1538.46 328.77M1500.52 302.118L1475.51 266.83M1500.52 302.118L1521.58 338.616M1538.46 328.77L1572.65 355.904M1538.46 328.77L1553.43 366.088M1538.46 328.77L1517.77 292.094M1572.65 355.904L1603.71 383.981M1572.65 355.904L1581.83 394.254M1572.65 355.904L1558.15 318.462M1603.71 383.981L1629.87 412.378M1603.71 383.981L1604.98 422.455M1603.71 383.981L1595.2 345.577M1629.87 412.378L1623.46 451.191M1629.87 412.378L1629.46 373.868M1704.98 -121.085L1659.23 -122.01M1659.23 -122.01L1572.89 -120.782M1659.23 -122.01L1599.05 -133.352M1659.23 -122.01L1704.98 -113.144M1572.89 -120.782L1499.9 -116.99M1572.89 -120.782L1510.95 -131.981M1499.9 -116.99L1440.24 -110.83M1499.9 -116.99L1437.57 -127.886M1440.24 -110.83L1376.41 -121.69M1440.24 -110.83L1391.79 -102.782M1376.41 -121.69L1320.5 -130.93M1376.41 -121.69L1437.57 -127.886M1376.41 -121.69L1327.55 -113.536M1320.5 -130.93L1269.76 -122.883M1320.5 -130.93L1382.59 -137.269M1231.38 -145.654L1298.2 -151.761M1231.38 -145.654L1176.2 -137.838M1113.42 -148.895L1063.89 -140.064M1113.42 -148.895L1094.89 -153.168M1063.89 -140.064L1024.72 -130.058M1063.89 -140.064L1040.64 -144.8M1024.72 -130.058L996.345 -118.93M1024.72 -130.058L998.304 -135.096M996.345 -118.93L976.797 -106.913M996.345 -118.93L965.793 -124.396M976.797 -106.913L966.506 -93.9869M976.797 -106.913L943.574 -112.717M966.506 -93.9869L929.687 -100.29M968.571 -65.7497L979.574 -50.3848M968.571 -65.7497L926.518 -73.1028M979.574 -50.3848L996.933 -34.0763M979.574 -50.3848L1028.02 -41.6964M979.574 -50.3848L935.794 -58.3254M996.933 -34.0763L1019.03 -16.8242M996.933 -34.0763L1046.5 -24.658M996.933 -34.0763L950.642 -42.8181M1019.03 -16.8242L1046.02 1.54962M1019.03 -16.8242L1070.27 -6.48001M1019.03 -16.8242L971.473 -26.3493M1046.02 1.54962L1076.43 21.0273M1046.02 1.54962L1097.94 12.8374M1046.02 1.54962L996.577 -8.99036M1076.43 21.0273L1110.22 41.8046M1076.43 21.0273L1026.17 9.49026M1076.43 21.0273L1129.38 33.4545M1110.22 41.8046L1146.17 63.8816M1110.22 41.8046L1058.78 29.0569M1110.22 41.8046L1163.38 55.4069M1146.17 63.8816L1183.93 87.4186M1146.17 63.8816L1094.41 49.9055M1146.17 63.8816L1199.58 78.8192M1183.93 87.4186L1237 103.727M1183.93 87.4186L1222.56 112.398M1183.93 87.4186L1131.8 72.0359M1237 103.727L1290.93 121.086M1237 103.727L1199.58 78.8192M1237 103.727L1274.96 130.202M1290.93 121.086L1345.63 139.567M1290.93 121.086L1254.25 94.7538M1290.93 121.086L1327.8 149.056M1345.63 139.567L1400.76 159.258M1345.63 139.567L1310.12 111.81M1345.63 139.567L1380.65 168.979M1400.76 159.258L1456.6 180.374M1400.76 159.258L1433.72 190.166M1400.76 159.258L1367.2 130.113M1456.6 180.374L1512.43 202.914M1456.6 180.374L1486.33 212.581M1456.6 180.374L1425.16 149.786M1512.43 202.914L1568.66 227.252M1512.43 202.914L1538.92 236.545M1512.43 202.914L1484.25 171.08M1568.66 227.252L1590.4 261.952M1568.66 227.252L1543.78 194.029M1641.17 289.245L1590.4 261.952M957.248 51.2051L998.731 65.7866M957.248 51.2051L993.372 70.7718M957.248 51.2051L921.337 33.8996M998.731 65.7866L1043.74 81.4008M998.731 65.7866L961.485 47.2704M1043.74 81.4008L1090.83 98.012M1043.74 81.4008L1004.84 61.4603M1090.83 98.012L1139.61 115.674M1090.83 98.012L1051.27 76.6472M1139.61 115.674L1189.13 134.35M1139.61 115.674L1099.4 92.742M1189.13 134.35L1238.85 154.041M1189.13 134.35L1148.98 109.834M1238.85 154.041L1288.37 174.712M1238.85 154.041L1199.17 127.869M1288.37 174.712L1336.97 196.326M1288.37 174.712L1249.59 146.902M1336.97 196.326L1384.76 218.919M1336.97 196.326L1299.89 166.878M1384.76 218.919L1430.78 242.367M1384.76 218.919L1349.52 187.816M1430.78 242.367L1475.51 266.83M1430.78 242.367L1398.61 209.786M1475.51 266.83L1517.77 292.094M1475.51 266.83L1446.34 232.682M1517.77 292.094L1558.15 318.462M1517.77 292.094L1493.17 256.735M1558.15 318.462L1595.2 345.577M1558.15 318.462L1537.98 281.768M1595.2 345.577L1629.46 373.868M1595.2 345.577L1581.33 308.153M1629.46 373.868L1621.77 335.518M1703.04 463.298L1704.98 468.443M1703.04 463.298L1704.98 459.541M-673.639 -305.481L-619.711 -310.805M-567.1 -243.808L-513.029 -176.224M-567.1 -243.808L-619.711 -310.805M-567.1 -243.808L-518.405 -247.137M-513.029 -176.224L-453.35 -106.503M-513.029 -176.224L-470.975 -181.102M-453.35 -106.503L-391.837 -36.9072M-453.35 -106.503L-422.192 -114.693M-391.837 -36.9072L-324.146 33.9352M-391.837 -36.9072L-367.925 -46.3789M-324.146 33.9352L-311.736 21.6504M-194.942 27.8106L-195.227 22.5762M-194.942 27.8106L-191.221 -9.5423L-191.167 -9.80936M-194.942 27.8106L-193.517 61.3535M-195.227 22.5762L-194.159 -34.824M-195.227 22.5762L-202.152 1.03336M-194.159 -34.824L-188.283 -89.4469M-194.159 -34.824L-205.072 -56.0287M-194.159 -34.824L-191.185 -9.88055M-188.283 -89.4469L-179.719 -142.45M-188.283 -89.4469L-205.144 -111.773M-188.283 -89.4469L-181.482 -65.0553M-179.719 -142.45L-201.334 -164.74M-179.719 -142.45L-167.434 -117.239M-179.719 -142.45L-167.755 -192.515M-201.334 -164.74L-232.633 -185.429M-201.334 -164.74L-205.144 -111.773M-201.334 -164.74L-195.921 -216.212M-232.633 -185.429L-270.36 -202.983M-232.633 -185.429L-232.544 -237.31M-232.633 -185.429L-229.482 -130.77M-270.36 -202.983L-277.962 -257.019M-270.36 -202.983L-261.814 -147.773M-328.383 -273.576L-341.185 -327.345M-328.383 -273.576L-277.962 -257.019M-341.185 -327.345L-282.698 -308.259M16.7131 -266.152L44.4873 -296.722M16.7131 -266.152L-27.3166 -234.443M44.4873 -296.722L59.4604 -306.799L91.6503 -328.413M91.6503 -328.413L139.757 -357.683M1386.95 345.506L1400.11 361.708L1425.19 395.464M1425.19 395.464L1412.73 372.426M1425.19 395.464L1433.35 416.9M1425.19 395.464L1447.14 430.485M1447.14 430.485L1465.62 466.859M1447.14 430.485L1452.31 452.704M1447.14 430.485L1438.69 406.93M1465.62 466.859L1468.06 473.909L1478.27 503.571M1465.62 466.859L1466.5 489.274M1465.62 466.859L1460.43 442.378M1478.27 503.571L1485.12 540.745M1478.27 503.571L1475.72 526.662M1478.27 503.571L1477.84 478.876M1485.12 540.745L1488.52 515.321M1485.12 540.745L1477.68 563.677M1216.97 195.507L1250.04 218.118M1216.97 195.507L1215.05 194.314L1180.56 172.753L1173.73 168.694L1144.33 151.478M1216.97 195.507L1256.5 220.486M1250.04 218.118L1269.98 230.563M1250.04 218.118L1214.84 194.19L1181.69 173.252M1250.04 218.118L1281.03 240.996M1269.98 230.563L1297.38 247.21M1269.98 230.563L1256.5 220.486M1269.98 230.563L1288.37 244.575M1297.38 247.21L1264.72 221.928M1297.38 247.21L1326.93 272.67M1297.38 247.21L1337.67 275.447M1337.67 275.447L1365.26 302.509M1337.67 275.447L1307.4 248.688M1337.67 275.447L1377 305.233M1377 305.233L1401.21 333.613M1377 305.233L1348.81 276.8M1377 305.233L1413.33 336.106M1413.33 336.106L1434.68 366.088M1413.33 336.106L1388.73 306.302M1413.33 336.106L1446.73 368.135M1446.73 368.135L1425.21 336.675M1446.73 368.135L1463.43 399.168M1515.58 466.111L1526.46 498.532M1515.58 466.111L1509.64 431.642M1515.58 466.111L1517.1 500.206M1526.46 498.532L1529.29 529.511M1526.46 498.532L1526.16 463.102M1526.46 498.532L1520.62 532.467M1529.29 529.511L1525.02 559.564M1529.29 529.511L1536.79 494.366M1529.29 529.511L1516.9 563.837M1525.02 559.564L1514.92 580.698L1510.74 585.54L1504.19 592.626L1504.12 592.733M1525.02 559.564L1515.65 574.413L1509.44 582.585L1504.19 592.573L1504.12 592.733M1525.02 559.564L1539.58 524.188M1504.12 592.733L1496 603.095L1491.39 610.698L1490.78 612.692L1489.84 613.689L1486.58 615.896M1504.12 592.733L1496.46 603.683L1487.9 614.401M-561.028 -310.627L-518.405 -247.137M-561.028 -310.627L-619.711 -310.805M-518.405 -247.137L-470.975 -181.102M-470.975 -181.102L-422.192 -114.693M-422.192 -114.693L-367.925 -46.3789M-367.925 -46.3789L-311.736 21.6504M-311.736 21.6504L-249.351 90.7301M-97.3929 241.976L-73.3218 262.023L-51.2092 279.364M-383.273 -178.699L-350.781 -116.634M-350.781 -116.634L-313.463 -52.3966M-313.463 -52.3966L-274.241 12.0007M-274.241 12.0007L-229.179 77.9469M1387.86 647.659L1401.51 612.62M1401.51 612.62L1409.1 575.926M1401.51 612.62L1382.39 617.57M1401.51 612.62L1418.82 604.822M1409.1 575.926L1411.78 539.713M1409.1 575.926L1391.44 581.41M1409.1 575.926L1425.08 568.003M1411.78 539.713L1410.22 504.194M1411.78 539.713L1395.44 545.517M1411.78 539.713L1425.57 531.274M1410.22 504.194L1405.98 469.921M1410.22 504.194L1422.04 495.47M1410.22 504.194L1395.9 510.55M1405.98 469.921L1400.07 437.126M1405.98 469.921L1415.24 460.734M1405.98 469.921L1393.71 476.758M1400.07 437.126L1393.95 406.129M1400.07 437.126L1406.87 427.618M1400.07 437.126L1390.24 444.497M1393.95 406.129L1388.89 377.091M1393.95 406.129L1397.99 396.23M1393.95 406.129L1386.73 413.981M1388.89 377.091L1386.15 350.42L1386.09 350.296L1384.56 358.966M1388.89 377.091L1390.12 366.871M1388.89 377.091L1384.35 385.387M929.687 -100.29L899.491 -106.022M929.687 -100.29L943.574 -112.717M1056.11 -79.5122L1062.01 -93.3103M1166.27 -61.5479L1228.6 -50.8655M1228.6 -50.8655L1295.95 -38.7409M1526.55 8.51102L1612.88 28.8611L1704.2 52.1131L1704.98 52.3268M890.002 -79.8505L926.518 -73.1028M890.002 -79.8505L895.93 -65.7497M890.002 -79.8505L858.222 -86.2065M926.518 -73.1028L935.794 -58.3254M1028.02 -41.6964L1046.5 -24.658M1028.02 -41.6964L1080.01 -32.2781M1046.5 -24.658L1070.27 -6.48001M1046.5 -24.658L1099.95 -14.3672M1070.27 -6.48001L1097.94 12.8374M1070.27 -6.48001L1124.29 4.70096M1097.94 12.8374L1129.38 33.4545M1097.94 12.8374L1152.79 25.0866M1129.38 33.4545L1163.38 55.4069M1129.38 33.4545L1184.36 46.8076M1163.38 55.4069L1199.58 78.8192M1163.38 55.4069L1218.49 70.024M1199.58 78.8192L1254.25 94.7538M1254.25 94.7538L1310.12 111.81M1254.25 94.7538L1218.49 70.024M1310.12 111.81L1367.2 130.113M1310.12 111.81L1275.21 85.7272M1367.2 130.113L1425.16 149.786M1367.2 130.113L1333.52 102.659M1425.16 149.786L1484.25 171.08M1425.16 149.786L1393.48 121.015M1484.25 171.08L1543.78 194.029M1484.25 171.08L1454.73 140.92M1543.78 194.029L1517.61 162.659M1340.66 620.098L1350.75 584.757M1340.66 620.098L1318.06 617.926M1340.66 620.098L1362.24 620.116M1350.75 584.757L1356.81 549.986M1350.75 584.757L1328.09 583.012M1350.75 584.757L1371.82 584.241M1356.81 549.986L1360.03 516.211M1356.81 549.986L1334.73 548.864M1356.81 549.986L1377.16 548.935M1360.03 516.211L1361.51 483.755M1360.03 516.211L1379.06 514.52M1360.03 516.211L1339.02 515.82M1361.51 483.755L1362.22 452.793M1361.51 483.755L1378.81 481.333M1361.51 483.755L1341.89 484.093M1362.22 452.793L1363.61 423.666M1362.22 452.793L1377.6 449.713M1362.22 452.793L1344.66 454.004M1363.61 423.666L1366.44 396.355M1363.61 423.666L1348.08 425.589M1363.61 423.666L1376.46 419.785M1366.44 396.355L1372.4 371.215M1366.44 396.355L1376.89 391.85M1366.44 396.355L1353.74 399.185M1372.4 371.215L1380.93 350.919L1381.61 349.334L1382.09 348.177L1385.01 345.115L1385.93 346.485L1385.11 347.839L1385.97 349.975L1386.56 350.028L1388.18 350.438L1389.74 354.925L1390.79 361.103L1395.82 370.557L1399.11 377.714L1400.62 384.746L1397.99 396.23M1372.4 371.215L1379.76 365.91M1372.4 371.215L1362.18 374.723M1397.99 396.23L1406.87 427.618M1397.99 396.23L1390.12 366.871M1386.73 413.981L1390.24 444.497M1386.73 413.981L1384.35 385.387M1386.73 413.981L1376.46 419.785M1390.24 444.497L1393.71 476.758M1390.24 444.497L1377.6 449.713M1393.71 476.758L1395.9 510.55M1393.71 476.758L1378.81 481.333M1395.9 510.55L1395.44 545.517M1395.9 510.55L1379.06 514.52M1395.44 545.517L1391.44 581.41M1395.44 545.517L1377.16 548.935M1391.44 581.41L1382.39 617.57M1391.44 581.41L1371.82 584.241M1382.39 617.57L1369.47 649.599M1382.39 617.57L1362.24 620.116M-1.66107 -407L26.6295 -385.048M26.6295 -385.048L49.2228 -355.76M26.6295 -385.048L49.2051 -407M49.2228 -355.76L87.6796 -387.006M-28.5453 -234.016L-27.3166 -234.443M-28.5453 -234.016L-32.5153 -230.758M1050.81 395.945L1081.31 379.085M1050.81 395.945L1051.93 391.227L1059.46 387.542L1059.6 387.47L1076.82 379.102L1080.9 378.194L1116.38 366.711M1050.81 395.945L1026.91 414.871M1081.31 379.085L1084.8 375.221L1114.08 365.269L1118.04 364.04L1131.26 360.462L1142.07 357.435M1081.31 379.085L1083.51 383.803M1142.07 357.435L1125.16 361.512L1118.04 364.165L1116.38 366.711M1142.07 357.435L1158.08 353.678M-120.93 -187.654L-131.274 -214.734M-120.93 -187.654L-144.984 -139.975M-66.1475 -274.52L-36.2544 -313.76M-66.1475 -274.52L-87.2271 -302.241M-66.1475 -274.52L-58.8834 -245.393M-36.2544 -313.76L-63.423 -342.514M-36.2544 -313.76L-24.2011 -285.024M887.687 24.7839L920.286 39.0272L955.966 55.7986M887.687 24.7839L896.589 29.1459L920.215 40.2378L926.197 43.0687L939.372 49.1398L955.966 55.7986M887.687 24.7839L863.42 13.3715M955.966 55.7986L992.767 73.3178L1030.65 91.6916L1070.3 109.335M955.966 55.7986L993.372 70.7718M955.966 55.7986L919.609 37.5138L886.975 23.1104L863.42 13.3715M955.966 55.7986L966.844 61.9766L993.194 74.4395L1030.87 92.5818L1039.61 96.926L1068.77 111.472L1106.5 131.11L1144.33 151.478M1070.3 109.335L1107.23 130.54L1119.09 137.128L1144.33 151.478M1070.3 109.335L1108.97 129.935L1149.18 151.068M1070.3 109.335L1031.67 89.6263L993.372 70.7718M1149.18 151.068L1186.55 173.59M1149.18 151.068L1193.28 173.074M1186.55 173.59L1222.62 196.789M1186.55 173.59L1159.25 159.098L1152.54 155.555L1145.04 151.567M1186.55 173.59L1199.1 181.833M1222.62 196.789L1256.5 220.486M1222.62 196.789L1199.1 181.833M1222.62 196.789L1264.72 221.928M1256.5 220.486L1288.37 244.575M1288.37 244.575L1317.14 268.717M1288.37 244.575L1299.67 254.029M1317.14 268.717L1330.99 279.863L1353.85 298.308M1317.14 268.717L1299.67 254.029M1317.14 268.717L1343.28 292.842M1353.85 298.308L1376.94 323.572M1353.85 298.308L1363.57 306.889L1384.24 324.711M1376.94 323.572L1385.15 334.058M1376.94 323.572L1396.95 348.479L1425.8 381.862M1385.15 334.058L1388.37 339.72L1395.03 348.871M1385.15 334.058L1377.01 328.112M1385.15 334.058L1387.36 333.934L1409.56 356.046M1395.03 348.871L1412.73 372.426M1395.03 348.871L1392.33 348.373L1385.65 342.177L1382.87 340.503M1412.73 372.426L1420.19 382.361L1438.69 406.93M1433.35 416.9L1438.21 436.877M1433.35 416.9L1437.67 425.09L1452.31 452.704M1433.35 416.9L1411.95 382.699M1438.21 436.877L1439.01 454.752M1438.21 436.877L1428.01 417.755L1419.62 402.087M1438.21 436.877L1453.27 472.823M1439.01 454.752L1436.69 470.687M1439.01 454.752L1426.4 425.553L1423.96 419.874M1439.01 454.752L1451.22 491.09M1436.69 470.687L1430.76 484.2M1436.69 470.687L1424.35 435.595M1436.69 470.687L1445.47 506.864M1430.76 484.2L1422.04 495.47M1430.76 484.2L1421.56 449.322M1430.76 484.2L1437.08 520.413M1422.04 495.47L1425.57 531.274M1422.04 495.47L1415.24 460.734M1379.06 514.52L1377.16 548.935M1379.06 514.52L1378.81 481.333M1339.02 515.82L1316.12 513.452M1339.02 515.82L1334.73 548.864M1339.02 515.82L1341.89 484.093M1316.12 513.452L1291.84 509.482M1316.12 513.452L1320.49 482.633M1316.12 513.452L1311.09 545.784M1291.84 509.482L1266.06 503.909M1291.84 509.482L1285.95 540.906M1291.84 509.482L1297.18 479.41M1266.06 503.909L1239.58 497.286M1266.06 503.909L1259.77 534.621M1266.06 503.909L1272.84 474.906M1239.58 497.286L1212.2 489.559M1239.58 497.286L1232.46 526.983M1239.58 497.286L1247.15 469.048M1212.2 489.559L1184.98 481.298M1212.2 489.559L1221.28 462.443M1212.2 489.559L1204.81 518.508M1184.98 481.298L1157.65 472.414M1184.98 481.298L1176.59 509.179M1184.98 481.298L1194.83 454.948M1157.65 472.414L1131.57 463.494M1157.65 472.414L1148.93 499.547M1157.65 472.414L1169.2 447.203M1131.57 463.494L1106.39 454.36M1131.57 463.494L1121.54 489.523M1131.57 463.494L1144.01 439.031M1106.39 454.36L1083.76 445.583M1106.39 454.36L1095.83 479.66M1106.39 454.36L1120.87 431.019M1083.76 445.583L1063.34 436.948M1083.76 445.583L1071.55 469.796M1083.76 445.583L1099.36 422.972M1063.34 436.948L1046.89 428.972M1063.34 436.948L1050.26 460.449M1063.34 436.948L1081.27 415.44M1046.89 428.972L1034.16 421.476M1046.89 428.972L1066.28 408.212M1046.89 428.972L1031.76 451.422M1034.16 421.476L1026.91 414.871M1034.16 421.476L1017.75 443.161M1034.16 421.476L1056.2 401.749M1026.91 414.871L1026.02 408.176L1030.35 404.527M1026.91 414.871L1008.1 435.541M1030.35 404.527L1043.15 397.049M1030.35 404.527L1025.06 409.084L1004.11 428.153M1348.9 651.505L1362.24 620.116M1362.24 620.116L1371.82 584.241M1371.82 584.241L1377.16 548.935M1378.81 481.333L1377.6 449.713M1377.6 449.713L1376.46 419.785M1376.46 419.785L1376.89 391.85M1376.89 391.85L1379.76 365.91M1376.89 391.85L1384.35 385.387M1379.76 365.91L1385.42 348.996L1386.24 349.085M1379.76 365.91L1384.56 358.966M1386.24 349.085L1386.27 349.708L1386.82 350.794M1386.24 349.085L1385.99 348.693L1385.86 347.144M1386.24 349.085L1386.65 349.744L1386.82 350.794M1386.82 350.794L1387.43 352.895M1386.82 350.794L1387.54 351.168L1389.65 355.601L1390.12 366.871M1387.43 352.895L1388.69 354.925L1391.92 356.936M1387.43 352.895L1387.39 350.242L1385.86 347.144M1387.43 352.895L1391.15 358.147L1399.71 369.097M1391.92 356.936L1398.25 361.316M1391.92 356.936L1390.55 354.657L1387.34 351.506M1391.92 356.936L1394.46 364.129L1406.78 386.473L1408.53 386.545M1398.25 361.316L1411.95 382.699M1398.25 361.316L1386.77 342.301L1385.06 339.827L1384.94 339.631L1379.93 336.23M1411.95 382.699L1419.62 402.087M1452.31 452.704L1454.8 459.149L1466.5 489.274M1452.31 452.704L1453.27 472.823M1466.5 489.274L1475.72 526.662M1466.5 489.274L1464.38 509.944M1475.72 526.662L1477.68 563.677M1475.72 526.662L1469.27 547.208M1477.68 563.677L1467.89 584.65M1460.59 629.801L1460.5 629.837L1452.2 632.579L1447.2 635L1432.3 638.686M1460.59 629.801L1462.88 629.071L1466.82 627.558L1473.94 624.781L1475.52 624.442L1477.23 623.036L1478.35 622.537L1478.6 621.291L1479.26 620.615M-990 -257.161L-969.81 -284.508M-969.81 -284.508L-990 -300.888M-277.962 -257.019L-232.544 -237.31M-277.962 -257.019L-282.698 -308.259M-232.544 -237.31L-195.921 -216.212M-232.544 -237.31L-231.689 -287.802M-195.921 -216.212L-167.755 -192.515M-195.921 -216.212L-187.767 -264.781M-167.755 -192.515L-150.841 -167.535M-167.755 -192.515L-154.313 -240.835M-150.841 -167.535L-144.984 -139.975M-150.841 -167.535L-167.434 -117.239M-150.841 -167.535L-131.274 -214.734M-144.984 -139.975L-151.731 -110.723M-144.984 -139.975L-166.598 -90.1769M-176.621 -60.1058L-184.277 -37.1742M-176.621 -60.1058L-166.598 -90.1769M-184.277 -37.1742L-191.167 -9.80936M-184.277 -37.1742L-181.482 -65.0553M-191.167 -9.80936L-188.729 -23.8567L-181.482 -65.0553M-193.517 61.3535L-192.983 64.9855L-186.396 96.6945L-185.523 100.95L-184.437 104.546M-193.517 61.3535L-196.402 42.4812L-202.152 1.03336M-184.437 104.546L-174.788 130.86M-184.437 104.546L-185.221 102.392L-190.722 83.4483L-202.758 42.9797M-174.788 130.86L-179.933 119.697L-183.013 113.039L-192.984 91.3711M1044.24 642.407L1046.48 617.962M1641.62 585.095L1704.98 557.926M1308.95 263.786L1334.19 286.432M1308.95 263.786L1281.03 240.996M1308.95 263.786L1343.28 292.842M1334.19 286.432L1347.73 299.376L1348.78 300.355M1334.19 286.432L1354.62 307.299M-261.814 -147.773L-229.482 -130.77M-261.814 -147.773L-249.458 -89.9632M-229.482 -130.77L-205.144 -111.773M-229.482 -130.77L-224.55 -74.901M-205.144 -111.773L-205.072 -56.0287M-181.482 -65.0553L-167.434 -117.239M-103.91 -172.627L-124.028 -146.438M-103.91 -172.627L-66.6459 -215.535M-58.8834 -245.393L-24.2011 -285.024M-58.8834 -245.393L-66.6459 -215.535M87.6796 -387.006L114.813 -407M87.6796 -387.006L68.9856 -407M1043.15 397.049L1025.03 408.96L1022.94 410.509L1007.05 423.328M1043.15 397.049L1049.67 394.699L1056.2 401.749M1007.05 423.328L1004.54 428.936L1008.1 435.541M1007.05 423.328L1004.11 428.153M1008.1 435.541L1017.75 443.161M1008.1 435.541L994.689 458.099M1017.75 443.161L1031.76 451.422M1017.75 443.161L1005.46 466.485M1031.76 451.422L1050.26 460.449M1031.76 451.422L1021.25 475.778M1050.26 460.449L1071.55 469.796M1050.26 460.449L1040.41 485.553M1071.55 469.796L1095.83 479.66M1071.55 469.796L1063.02 495.968M1095.83 479.66L1121.54 489.523M1095.83 479.66L1087.56 506.562M1121.54 489.523L1148.93 499.547M1121.54 489.523L1114.14 517.476M1148.93 499.547L1176.59 509.179M1148.93 499.547L1141.43 528.211M1176.59 509.179L1204.81 518.508M1176.59 509.179L1169.6 538.876M1204.81 518.508L1232.46 526.983M1204.81 518.508L1197.57 548.882M1232.46 526.983L1259.77 534.621M1232.46 526.983L1225.47 558.3M1259.77 534.621L1285.95 540.906M1259.77 534.621L1252.56 566.615M1285.95 540.906L1311.09 545.784M1285.95 540.906L1278.91 573.736M1311.09 545.784L1334.73 548.864M1311.09 545.784L1304.11 579.256M1334.73 548.864L1328.09 583.012M1425.57 531.274L1437.08 520.413M1425.57 531.274L1425.08 568.003M1437.08 520.413L1445.47 506.864M1437.08 520.413L1438.6 557.232M1445.47 506.864L1451.22 491.09M1445.47 506.864L1450.1 544.057M1451.22 491.09L1453.27 472.823M1451.22 491.09L1458.48 528.087M1453.27 472.823L1464.38 509.944M1438.69 406.93L1425.8 381.862M1438.69 406.93L1460.43 442.378M1425.8 381.862L1409.56 356.046M1425.8 381.862L1451.9 416.722M1409.56 356.046L1388.98 329.358M1409.56 356.046L1438.78 389.66M1388.98 329.358L1384.24 324.711M1388.98 329.358L1422.24 361.993M1384.24 324.711L1365.26 302.509M1365.26 302.509L1326.93 272.67M1365.26 302.509L1401.21 333.613M1307.4 248.688L1264.72 221.928M1307.4 248.688L1348.81 276.8M1230.06 197.198L1199.1 181.833M1230.06 197.198L1193.28 173.074M1230.06 197.198L1264.72 221.928M1199.1 181.833L1197.17 182.172L1181.69 173.252M1181.69 173.252L1179.46 172.255L1144.33 151.478M1181.69 173.252L1168.72 165.578L1144.33 151.478M1144.33 151.478L1131.98 144.623L1129.98 143.573L1106.86 130.825L1068.83 110.867L1030.46 90.8192L993.372 70.7718M993.372 70.7718L956.322 52.8431L919.521 38.7245L895.165 28.6296L892.993 27.6147L884.803 22.2379L854.999 6.03625L828.578 -4.68179M921.337 33.8996L886.281 21.4368L856.334 9.68613M921.337 33.8996L961.485 47.2704M856.975 1.83453L829.859 -13.0497M856.975 1.83453L827.474 -8.58087M856.975 1.83453L892.548 12.9442M829.859 -13.0497L805.913 -27.3463M829.859 -13.0497L802.958 -22.6639L782.875 -32.1M829.859 -13.0497L861.836 -2.99042M805.913 -27.3463L787.272 -41.002M805.913 -27.3463L783.551 -36.0882M805.913 -27.3463L835.308 -18.106M787.272 -41.002L772.886 -54.177M787.272 -41.002L768.186 -49.0673M787.272 -41.002L812.162 -32.5985M772.886 -54.177L765.177 -66.8179M772.886 -54.177L759.267 -61.5302M772.886 -54.177L794.59 -46.4323M765.177 -66.8179L762.916 -79.0671M765.177 -66.8179L781.504 -59.7853M762.916 -79.0671L768.685 -90.8356M762.916 -79.0671L775.344 -72.5687M768.685 -90.8356L770.056 -96.5151M768.685 -90.8356L774.917 -84.9603M770.056 -96.5151L773.937 -98.6338L781.13 -102.355L789.676 -107.233M856.334 9.68613L863.42 13.3715M856.334 9.68613L837.782 0.0718689L828.578 -4.68179M961.485 47.2704L1004.84 61.4603M1004.84 61.4603L1051.27 76.6472M1051.27 76.6472L1099.4 92.742M1099.4 92.742L1148.98 109.834M1148.98 109.834L1199.17 127.869M1199.17 127.869L1249.59 146.902M1249.59 146.902L1299.89 166.878M1299.89 166.878L1349.52 187.816M1349.52 187.816L1398.61 209.786M1398.61 209.786L1446.34 232.682M1446.34 232.682L1493.17 256.735M1493.17 256.735L1537.98 281.768M1537.98 281.768L1581.33 308.153M1581.33 308.153L1621.77 335.518M1196.34 654.104L1207.27 624.638M1207.27 624.638L1217.26 590.846M1207.27 624.638L1181.35 614.027M1207.27 624.638L1232.5 634.074M1217.26 590.846L1225.47 558.3M1217.26 590.846L1190.18 580.858M1217.26 590.846L1243.84 599.891M1225.47 558.3L1197.57 548.882M1225.47 558.3L1252.56 566.615M1247.15 469.048L1256.77 442.698M1247.15 469.048L1272.84 474.906M1247.15 469.048L1221.28 462.443M1256.77 442.698L1268.5 418.004M1256.77 442.698L1280.43 447.417M1256.77 442.698L1232.09 436.877M1268.5 418.004L1284.22 395.429M1268.5 418.004L1246.4 413.375M1268.5 418.004L1290.54 421.903M1284.22 395.429L1303.79 374.687M1284.22 395.429L1303.29 398.135M1284.22 395.429L1264.08 391.601M1303.79 374.687L1329.3 356.367M1303.79 374.687L1320.58 376.61M1303.79 374.687L1287.12 372.105M1329.3 356.367L1360.53 340.201M1329.3 356.367L1342.35 357.061M1329.3 356.367L1315.22 354.604M1360.53 340.201L1376.84 334.646M1360.53 340.201L1370.76 340.076M1360.53 340.201L1350.57 339.72M1704.98 -69.5954L1673.74 -66.8892M1673.74 -66.8892L1625.51 -59.2156M1673.74 -66.8892L1704.98 -60.266M1625.51 -59.2156L1587.81 -49.459M1625.51 -59.2156L1704.98 -42.4798M1587.81 -49.459L1560.02 -37.6905M1587.81 -49.459L1678.08 -30.3552M1354.51 -92.9187L1326.82 -81.5419M1354.51 -92.9187L1289.1 -103.797M1354.51 -92.9187L1391.79 -102.782M1326.82 -81.5419L1308.52 -68.6517M1326.82 -81.5419L1261.06 -92.5092M1308.52 -68.6517L1241.9 -79.9217M1326.38 16.6831L1346.52 38.1548M1326.38 16.6831L1259.26 2.42203M1346.52 38.1548L1370.39 61.2644M1346.52 38.1548L1279.89 22.9501M1439.04 79.2822L1464.18 105.258M1439.04 79.2822L1370.39 61.2644M1661.9 146.724L1704.98 161.964M1661.9 146.724L1678.77 176.136M979.182 627.968L977.277 617.552L972.88 585.612M979.182 627.968L974.66 606.318M972.88 585.612L969.657 554.775M972.88 585.612L980.999 597.736M972.88 585.612L968.998 574.377M969.657 554.775L969.372 526.004M969.657 554.775L966.149 544.609M969.657 554.775L978.524 566.063M969.372 526.004L966.007 516.692M969.372 526.004L977.776 536.241M969.372 526.004L971.901 498.995M966.007 516.692L969.782 490.716M966.007 516.692L966.149 544.609M974.66 606.318L970.298 581.766L968.998 574.377M974.66 606.318L977.758 618.407L985.289 631.599M974.66 606.318L977.331 617.677L980.874 635.125M1384.35 385.387L1384.56 358.966M1384.56 358.966L1387.3 350.028L1386.43 346.966L1385.47 344.616L1384.22 343.014L1382.12 341.162M811.201 -14.3316L828.578 -4.68179M828.578 -4.68179L808.655 -14.8657L802.192 -21.0437M1299.67 254.029L1281.03 240.996M1299.67 254.029L1326.93 272.67M1343.28 292.842L1350.13 300.355L1365.65 316.486L1373.24 325.672L1374.18 327.435L1376.78 331.993M1343.28 292.842L1364.82 316.859M1376.78 331.993L1376.92 334.628L1378.46 336.853M1376.78 331.993L1373.77 330.408L1372.3 328.521M1376.78 331.993L1381.54 335.571L1383.28 340.61M1378.46 336.853L1379.47 338.278L1379.54 338.741L1370.76 340.076M1378.46 336.853L1370.76 340.076M1370.76 340.076L1369.8 340.646L1342.35 357.061M1350.57 339.72L1340.16 338.367M1350.57 339.72L1315.22 354.604M1350.57 339.72L1375.66 332.331M1340.16 338.367L1331.28 336.818M1340.16 338.367L1301.92 352.378M1340.16 338.367L1373.72 330.426M1331.28 336.818L1288.65 349.494M1331.28 336.818L1323.09 334.806M1331.28 336.818L1372.3 328.521M1288.65 349.494L1253.97 364.877M1288.65 349.494L1277.45 346.574M1288.65 349.494L1301.92 352.378M1253.97 364.877L1224.97 382.325M1253.97 364.877L1269.9 368.616M1253.97 364.877L1238.64 360.657M1224.97 382.325L1202.12 402.087M1224.97 382.325L1244.55 387.31M1224.97 382.325L1207.22 377.286M1202.12 402.087L1181.04 395.838M1202.12 402.087L1183.43 423.613M1202.12 402.087L1223.72 407.856M1181.04 395.838L1162.31 389.749M1181.04 395.838L1160.62 416.598M1181.04 395.838L1207.22 377.286M1162.31 389.749L1145.4 383.589M1162.31 389.749L1138.88 409.334M1162.31 389.749L1190.66 371.981M1145.4 383.589L1132.23 377.927M1145.4 383.589L1120.05 402.408M1145.4 383.589L1177.27 367.013M1132.23 377.927L1122.36 372.568M1132.23 377.927L1103.65 395.625M1132.23 377.927L1166.5 362.153M1122.36 372.568L1116.38 366.711M1122.36 372.568L1091.6 389.464M1116.38 366.711L1158.08 353.678M1158.08 353.678L1164.26 352.147M1164.26 352.147L1204.35 344.794L1208.39 348.836M1261.07 340.539L1267.55 343.37M1261.07 340.539L1215.16 352.45M1261.07 340.539L1314.5 331.156L1315.52 329.928L1320.17 329.144L1335.6 328.468L1364.36 326.367L1370.3 325.797M1267.55 343.37L1277.45 346.574M1267.55 343.37L1225.93 356.598M1267.55 343.37L1317.74 332.99M1277.45 346.574L1238.64 360.657M1277.45 346.574L1323.09 334.806M1301.92 352.378L1315.22 354.604M1301.92 352.378L1269.9 368.616M1315.22 354.604L1287.12 372.105M1375.66 332.331L1377.42 334.45L1377.51 335.269L1379.93 336.23M1375.66 332.331L1375.61 328.984L1375.46 326.527L1375.66 324.48L1354.44 303.026L1352.66 299.322L1326.93 272.67M1375.66 332.331L1377.33 334.485L1379.54 336.408L1380.61 338.527L1382.12 341.162M1379.93 336.23L1376.75 332.011M1379.93 336.23L1379.79 338.563L1379.72 338.723L1381.5 341.696L1382.92 344.1L1384.28 345.239L1385.65 346.076L1385.86 347.144M1419.62 402.087L1423.96 419.874M1419.62 402.087L1408.53 386.545M1423.96 419.874L1424.35 435.595M1423.96 419.874L1414.51 401.482L1406.82 386.562M1424.35 435.595L1421.56 449.322M1424.35 435.595L1410.43 402.194M1421.56 449.322L1415.24 460.734M1421.56 449.322L1410.29 415.903M1415.24 460.734L1406.87 427.618M1341.89 484.093L1320.49 482.633M1341.89 484.093L1344.66 454.004M1320.49 482.633L1297.18 479.41M1320.49 482.633L1324.81 453.31M1297.18 479.41L1272.84 474.906M1297.18 479.41L1303.5 451.138M1272.84 474.906L1280.43 447.417M1221.28 462.443L1194.83 454.948M1221.28 462.443L1232.09 436.877M1194.83 454.948L1169.2 447.203M1194.83 454.948L1207.79 430.574M1169.2 447.203L1144.01 439.031M1169.2 447.203L1183.43 423.613M1144.01 439.031L1120.87 431.019M1144.01 439.031L1160.62 416.598M1120.87 431.019L1099.36 422.972M1120.87 431.019L1138.88 409.334M1099.36 422.972L1081.27 415.44M1099.36 422.972L1120.05 402.408M1081.27 415.44L1066.28 408.212M1081.27 415.44L1103.65 395.625M1066.28 408.212L1056.2 401.749M1066.28 408.212L1091.6 389.464M1056.2 401.749L1083.51 383.803M1004.11 428.153L993.479 439.618L989.793 444.052L988.138 449.464M1004.11 428.153L988.903 450.479L978.47 473.909M988.138 449.464L977.313 466.449M988.138 449.464L994.689 458.099M977.313 466.449L978.47 473.909M977.313 466.449L969.782 490.716M978.47 473.909L985.253 482.312M978.47 473.909L971.901 498.995M985.253 482.312L997.592 491.731M985.253 482.312L994.689 458.099M985.253 482.312L980.073 508.431M997.592 491.731L1013.85 501.772M997.592 491.731L992.731 518.633M997.592 491.731L1005.46 466.485M1013.85 501.772L1034.04 512.579M1013.85 501.772L1021.25 475.778M1013.85 501.772L1009.77 529.707M1034.04 512.579L1056.61 523.725M1034.04 512.579L1029.69 541.262M1034.04 512.579L1040.41 485.553M1056.61 523.725L1081.64 535.351M1056.61 523.725L1052.45 553.404M1056.61 523.725L1063.02 495.968M1081.64 535.351L1107.78 546.959M1081.64 535.351L1076.68 565.724M1081.64 535.351L1087.56 506.562M1107.78 546.959L1135.11 558.674M1107.78 546.959L1102.42 578.259M1107.78 546.959L1114.14 517.476M1135.11 558.674L1162.55 569.962M1135.11 558.674L1128.56 590.561M1135.11 558.674L1141.43 528.211M1162.55 569.962L1190.18 580.858M1162.55 569.962L1155.12 602.65M1162.55 569.962L1169.6 538.876M1190.18 580.858L1197.57 548.882M1190.18 580.858L1181.35 614.027M1243.84 599.891L1269.53 607.546M1243.84 599.891L1232.5 634.074M1243.84 599.891L1252.56 566.615M1269.53 607.546L1294.3 613.653M1269.53 607.546L1256.98 642.157M1269.53 607.546L1278.91 573.736M1294.3 613.653L1318.06 617.926M1294.3 613.653L1304.11 579.256M1294.3 613.653L1280.73 648.62M1318.06 617.926L1303.57 653.178M1318.06 617.926L1328.09 583.012M1418.82 604.822L1434.86 594.549M1418.82 604.822L1406.43 641.588M1418.82 604.822L1425.08 568.003M1434.86 594.549L1448.53 581.303M1434.86 594.549L1438.6 557.232M1434.86 594.549L1423.96 631.261M1448.53 581.303L1460.44 565.689M1448.53 581.303L1450.1 544.057M1448.53 581.303L1440.59 618.531M1460.44 565.689L1469.27 547.208M1460.44 565.689L1458.48 528.087M1460.44 565.689L1455.01 602.721M1469.27 547.208L1464.38 509.944M1469.27 547.208L1467.89 584.65M1477.84 478.876L1472.89 452.206M1477.84 478.876L1460.43 442.378M1477.84 478.876L1488.52 515.321M1472.89 452.206L1464.54 424.503M1472.89 452.206L1451.9 416.722M1472.89 452.206L1488.86 488.437M1464.54 424.503L1451.36 395.5M1464.54 424.503L1438.78 389.66M1464.54 424.503L1484.44 459.63M1451.36 395.5L1434.68 366.088M1451.36 395.5L1422.24 361.993M1451.36 395.5L1476.47 429.986M1434.68 366.088L1401.21 333.613M1434.68 366.088L1463.43 399.168M1388.73 306.302L1397.06 313.227L1425.21 336.675M1388.73 306.302L1348.81 276.8M863.42 13.3715L853.77 7.12231L827.474 -8.58087M802.192 -21.0437L783.551 -36.0882M802.192 -21.0437L788.233 -27.8271L782.875 -32.1M802.192 -21.0437L827.474 -8.58087M783.551 -36.0882L768.186 -49.0673M768.186 -49.0673L759.267 -61.5302M759.267 -61.5302L755.528 -73.6191L755.51 -80.0998M789.676 -107.233L796.424 -109.939L803.065 -112.984M789.676 -107.233L796.976 -109.138L802.157 -103.12M789.676 -107.233L782.234 -103.156L781.077 -102.533M803.065 -112.984L806.323 -114.106L815.901 -117.381L822.524 -119.358L833.064 -123.221L846.293 -126.533L855.48 -129.203L881.669 -134.705L884.785 -135.31M884.785 -135.31L885.996 -135.542L899.687 -138.479M884.785 -135.31L878.447 -133.565L847.913 -125.251M884.785 -135.31L899.687 -138.479M899.687 -138.479L921.568 -141.809M899.687 -138.479L911.331 -140.242L921.55 -141.737L932.927 -144.283M921.568 -141.809L920.215 -137.714L884.02 -127.441M921.568 -141.809L932.927 -144.283M1298.2 -151.761L1379.01 -155.66M1382.59 -137.269L1437.57 -127.886M1382.59 -137.269L1458.24 -141.328M1437.57 -127.886L1510.95 -131.981M-249.458 -89.9632L-224.55 -74.901M-249.458 -89.9632L-235.107 -31.2276M-224.55 -74.901L-205.072 -56.0287M-224.55 -74.901L-215.185 -16.4325M-205.072 -56.0287L-202.152 1.03336M-166.598 -90.1769L-167.434 -117.239M-131.274 -214.734L-154.313 -240.835M-87.2271 -302.241L-63.423 -342.514M-87.2271 -302.241L-122.016 -329.73M-63.423 -342.514L-103.714 -370.306M993.177 610.822L980.999 597.736M993.177 610.822L991.164 578.098M993.177 610.822L1007.88 624.407M980.999 597.736L978.524 566.063M980.999 597.736L985.289 631.599M978.524 566.063L977.776 536.241M978.524 566.063L991.164 578.098M977.776 536.241L980.073 508.431M977.776 536.241L991.022 547.493M971.901 498.995L969.782 490.716M971.901 498.995L980.073 508.431M1121.47 624.068L1128.56 590.561M1121.47 624.068L1096.69 611.036M1121.47 624.068L1146.08 636.549M1128.56 590.561L1102.42 578.259M1128.56 590.561L1155.12 602.65M1141.43 528.211L1114.14 517.476M1141.43 528.211L1169.6 538.876M1183.43 423.613L1207.79 430.574M1183.43 423.613L1160.62 416.598M-221.666 -407L-224.942 -381.469M-224.942 -381.469L-224.977 -381.487L-289.321 -405.095M-224.942 -381.469L-167.986 -355.796M-231.689 -287.802L-282.698 -308.259M-231.689 -287.802L-187.767 -264.781M-215.185 -16.4325L-202.758 42.9797M-215.185 -16.4325L-235.107 -31.2276M-215.185 -16.4325L-202.152 1.03336M-202.758 42.9797L-215.683 29.7868M-202.758 42.9797L-193.891 60.5879M966.149 544.609L968.998 574.377M991.164 578.098L1007.44 590.971M991.164 578.098L991.022 547.493M1007.88 624.407L1025.01 638.561M1007.88 624.407L1007.44 590.971M1046.48 617.962L1049.1 584.721M1046.48 617.962L1025.9 604.217M1046.48 617.962L1067.97 631.706M1049.1 584.721L1052.45 553.404M1049.1 584.721L1027.43 571.885M1049.1 584.721L1072.56 597.932M1052.45 553.404L1029.69 541.262M1052.45 553.404L1076.68 565.724M1063.02 495.968L1040.41 485.553M1063.02 495.968L1087.56 506.562M1120.05 402.408L1138.88 409.334M1120.05 402.408L1103.65 395.625M1177.27 367.013L1215.16 352.45M1177.27 367.013L1190.66 371.981M1177.27 367.013L1166.5 362.153M1215.16 352.45L1225.93 356.598M1215.16 352.45L1208.39 348.836M1370.3 325.797L1368.08 322.788L1354.62 307.299M892.548 12.9442L931.966 24.6771M892.548 12.9442L861.836 -2.99042M931.966 24.6771L899.349 7.74542M931.966 24.6771L975.479 37.2289M1170.86 144.178L1219.22 165.133M1219.22 165.133L1267.54 187.193M1304.43 215.376L1350.11 240.249M1304.43 215.376L1267.54 187.193M1350.11 240.249L1314.84 210.284M1350.11 240.249L1393.43 265.958M1423.02 298.628L1393.43 265.958M1423.02 298.628L1459.98 326.634M1481.58 361.494L1459.98 326.634M1481.58 361.494L1509.69 391.191M1509.64 431.642L1526.16 463.102M1517.1 500.206L1512.88 532.716M1517.1 500.206L1520.62 532.467M1512.88 532.716L1504.72 564.211M1512.88 532.716L1510.4 565.511M1504.72 564.211L1491.71 593.357M1504.72 564.211L1496.82 596.116M1491.71 593.357L1475.83 620.971M1491.71 593.357L1477 621.095L1474.24 623.16M1475.83 620.971L1474.01 623.267M1232.5 634.074L1256.98 642.157M1252.56 566.615L1278.91 573.736M1280.43 447.417L1290.54 421.903M1280.43 447.417L1303.5 451.138M1290.54 421.903L1303.29 398.135M1290.54 421.903L1311.12 424.503M1303.29 398.135L1320.58 376.61M1303.29 398.135L1321.84 399.933M1320.58 376.61L1342.35 357.061M1320.58 376.61L1335.82 377.233M1342.35 357.061L1355.04 356.901M-235.107 -31.2276L-215.683 29.7868M-177.779 -407L-156.788 -398.134M-156.788 -398.134L-103.714 -370.306M-156.788 -398.134L-167.986 -355.796M-156.788 -398.134L-153.85 -407M-103.714 -370.306L-122.016 -329.73M-103.714 -370.306L-85.9814 -407M1223.72 407.856L1246.4 413.375M1223.72 407.856L1207.79 430.574M1223.72 407.856L1244.55 387.31M1246.4 413.375L1264.08 391.601M1246.4 413.375L1232.09 436.877M1311.12 424.503L1330.67 425.891M1311.12 424.503L1303.5 451.138M1311.12 424.503L1321.84 399.933M1330.67 425.891L1348.08 425.589M1330.67 425.891L1338.52 400.236M1330.67 425.891L1324.81 453.31M1348.08 425.589L1344.66 454.004M1348.08 425.589L1353.74 399.185M1408.53 386.545L1404.63 377.233L1399.71 369.097M1408.53 386.545L1410.43 402.194M1464.38 509.944L1458.48 528.087M1467.89 584.65L1455.01 602.721M1541.1 -24.0882L1560.02 -37.6905M1541.1 -24.0882L1629.56 -4.68176L1649.42 -18.5333M1560.02 -37.6905L1649.42 -18.5333M1649.42 -18.5333L1704.98 -5.67877M1649.42 -18.5333L1678.08 -30.3552M-215.683 29.7868L-194.942 86.0833L-192.984 91.3711M1141.32 651.504L1146.08 636.549M1146.08 636.549L1155.12 602.65M1146.08 636.549L1170.54 648.424M1155.12 602.65L1181.35 614.027M1169.6 538.876L1197.57 548.882M1207.79 430.574L1232.09 436.877M1244.55 387.31L1269.9 368.616M1244.55 387.31L1264.08 391.601M1269.9 368.616L1287.12 372.105M1256.98 642.157L1280.73 648.62M1278.91 573.736L1304.11 579.256M1303.5 451.138L1324.81 453.31M1321.84 399.933L1335.82 377.233M1321.84 399.933L1338.52 400.236M1335.82 377.233L1354.3 357.702L1355.04 356.901M1335.82 377.233L1350.15 376.77M1355.04 356.901L1376.09 341.304L1376.53 340.984L1379.58 339.275L1382.18 341.109L1365.81 355.352M1355.04 356.901L1365.81 355.352M1365.81 355.352L1364.76 356.794L1350.15 376.77M1365.81 355.352L1375.25 352.592M1350.15 376.77L1338.52 400.236M1350.15 376.77L1362.18 374.723M1338.52 400.236L1353.74 399.185M1324.81 453.31L1344.66 454.004M1304.11 579.256L1328.09 583.012M1280.73 648.62L1303.57 653.178M1195.77 -10.3613L1259.26 2.42203M1195.77 -10.3613L1216.6 9.27661M1259.26 2.42203L1279.89 22.9501M1279.89 22.9501L1304.48 45.0093M1279.89 22.9501L1216.6 9.27661M1304.48 45.0093L1332.2 68.6531M1304.48 45.0093L1370.39 61.2644M1304.48 45.0093L1241.51 30.2854M1332.2 68.6531L1396.9 86.0477M1332.2 68.6531L1269.87 52.8253M1396.9 86.0477L1464.18 105.258M1396.9 86.0477L1370.39 61.2644M1678.77 176.136L1704.98 186.267M935.794 -58.3254L950.642 -42.8181M935.794 -58.3254L895.93 -65.7497M950.642 -42.8181L971.473 -26.3493M950.642 -42.8181L908.892 -50.8833M971.473 -26.3493L996.577 -8.99036M971.473 -26.3493L926.963 -35.2691M996.577 -8.99036L1026.17 9.49026M996.577 -8.99036L950.642 -18.7469M1026.17 9.49026L1058.78 29.0569M1026.17 9.49026L978.168 -1.33463M1058.78 29.0569L1094.41 49.9055M1058.78 29.0569L1009.86 17.1638M1094.41 49.9055L1131.8 72.0359M1094.41 49.9055L1044.15 36.7482M1131.8 72.0359L1170.7 95.5728M1131.8 72.0359L1081.15 57.579M1170.7 95.5728L1222.56 112.398M1170.7 95.5728L1119.57 79.656M1222.56 112.398L1274.96 130.202M1274.96 130.202L1327.8 149.056M1327.8 149.056L1380.65 168.979M1380.65 168.979L1433.72 190.166M1433.72 190.166L1486.33 212.581M1486.33 212.581L1538.92 236.545M1538.92 236.545L1590.4 261.952M-192.984 91.3711L-184.918 103.816M899.491 -106.022L916.281 -118.076M899.491 -106.022L875.082 -111.381M916.281 -118.076L942.987 -129.275M916.281 -118.076L896.714 -122.936M916.281 -118.076L943.574 -112.717M942.987 -129.275L978.969 -139.637M942.987 -129.275L927.141 -133.743M942.987 -129.275L965.793 -124.396M978.969 -139.637L998.304 -135.096M978.969 -139.637L1026.38 -148.841M998.304 -135.096L1040.64 -144.8M998.304 -135.096L965.793 -124.396M1040.64 -144.8L1094.89 -153.168M1040.64 -144.8L1026.38 -148.841M1066.01 644.65L1067.97 631.706M1067.97 631.706L1072.56 597.932M1067.97 631.706L1090.3 645.487M1072.56 597.932L1076.68 565.724M1072.56 597.932L1096.69 611.036M1076.68 565.724L1102.42 578.259M1087.56 506.562L1114.14 517.476M1138.88 409.334L1160.62 416.598M1190.66 371.981L1225.93 356.598M1190.66 371.981L1207.22 377.286M1225.93 356.598L1238.64 360.657M1317.74 332.99L1360.87 327.364M1317.74 332.99L1323.09 334.806M-187.767 -264.781L-154.313 -240.835M794.59 -46.4323L821.616 -38.4026M794.59 -46.4323L781.504 -59.7853M794.59 -46.4323L812.162 -32.5985M821.616 -38.4026L854.821 -29.8745M821.616 -38.4026L843.64 -23.7143M821.616 -38.4026L805.415 -52.3788M854.821 -29.8745L891.924 -20.9547M854.821 -29.8745L834.328 -44.6875M854.821 -29.8745L879.266 -14.4207M891.924 -20.9547L919.681 -4.50369M891.924 -20.9547L869.118 -36.5154M891.924 -20.9547L933.622 -11.4117M919.681 -4.50369L950.553 12.8018M919.681 -4.50369L879.266 -14.4207M919.681 -4.50369L963.034 5.965M950.553 12.8018L996.31 24.4279M950.553 12.8018L908.375 1.90573M950.553 12.8018L984.986 31.1578M996.31 24.4279L1031.85 43.9411M996.31 24.4279L1044.15 36.7482M996.31 24.4279L963.034 5.965M1031.85 43.9411L1081.15 57.579M1031.85 43.9411L984.986 31.1578M1031.85 43.9411L1069.8 64.6828M1081.15 57.579L1119.57 79.656M1081.15 57.579L1044.15 36.7482M1119.57 79.656L1069.8 64.6828M1361.03 234.391L1404.93 259.299M1361.03 234.391L1314.84 210.284M1361.03 234.391L1393.43 265.958M1404.93 259.299L1434.61 292.593M1404.93 259.299L1446.88 285.097M1434.61 292.593L1472.23 319.744M1434.61 292.593L1393.43 265.958M1434.61 292.593L1459.98 326.634M1472.23 319.744L1493.72 355.352M1472.23 319.744L1506.88 347.607M1472.23 319.744L1446.88 285.097M1493.72 355.352L1522.56 384.141M1493.72 355.352L1459.98 326.634M1493.72 355.352L1509.69 391.191M1522.56 384.141L1533.37 421.227M1522.56 384.141L1547.26 413.34M1522.56 384.141L1506.88 347.607M1533.37 421.227L1550.78 450.728M1533.37 421.227L1509.69 391.191M1550.78 450.728L1562.76 480.14M1550.78 450.728L1547.26 413.34M1539.58 524.188L1535.42 553.119M1539.58 524.188L1536.79 494.366M1535.42 553.119L1522.56 579.665M1535.42 553.119L1514.62 583.101L1511.84 587.125L1501.59 600.62L1493.68 609.398L1491.48 611.855L1488.4 615.131M1535.42 553.119L1552.08 517.013M1488.4 615.131L1487.13 617.232M1488.4 615.131L1507.11 606.46M1488.4 615.131L1486.67 615.273L1485.48 615.594M1487.13 617.232L1485.3 618.424M1487.13 617.232L1482.84 618.46L1481.6 619.279L1479.9 620.418M1487.13 617.232L1508.64 607.493L1561.16 577.048M774.917 -84.9603L789.818 -78.7645M774.917 -84.9603L782.803 -96.8177M774.917 -84.9603L775.344 -72.5687M789.818 -78.7645L810.667 -72.355M789.818 -78.7645L794.02 -65.8566M789.818 -78.7645L791.705 -91.2095M810.667 -72.355L838.459 -65.5717M810.667 -72.355L819.925 -58.7884M810.667 -72.355L808.886 -85.3163M838.459 -65.5717L850.602 -51.4174M838.459 -65.5717L870.898 -58.4678M838.459 -65.5717L831.871 -79.1739M850.602 -51.4174L869.118 -36.5154M850.602 -51.4174L886.922 -43.5658M850.602 -51.4174L819.925 -58.7884M869.118 -36.5154L907.646 -27.9339M869.118 -36.5154L834.328 -44.6875M933.622 -11.4117L978.168 -1.33463M933.622 -11.4117L963.034 5.965M933.622 -11.4117L907.646 -27.9339M978.168 -1.33463L1009.86 17.1638M978.168 -1.33463L950.642 -18.7469M1009.86 17.1638L963.034 5.965M1009.86 17.1638L1044.15 36.7482M1218.49 70.024L1184.36 46.8076M1218.49 70.024L1275.21 85.7272M1485.57 311.465L1521.58 338.616M1485.57 311.465L1446.88 285.097M1485.57 311.465L1506.88 347.607M1521.58 338.616L1536.95 375.648M1521.58 338.616L1553.43 366.088M1536.95 375.648L1563.21 404.206M1536.95 375.648L1506.88 347.607M1536.95 375.648L1547.26 413.34M1563.21 404.206L1565.99 442.129M1563.21 404.206L1553.43 366.088M1563.21 404.206L1583.88 432.532M1565.99 442.129L1579.57 470.989M1565.99 442.129L1547.26 413.34M1565.99 442.129L1562.76 480.14M1579.57 470.989L1567.43 508.36M1579.57 470.989L1583.88 432.532M1579.57 470.989L1586.1 498.888M1567.43 508.36L1565.49 535.974M1567.43 508.36L1562.76 480.14M1567.43 508.36L1548.73 545.072M1565.49 535.974L1555.16 561.63M1565.49 535.974L1586.1 498.888M1565.49 535.974L1536.86 570.977M1555.16 561.63L1536.73 586.003M1555.16 561.63L1517.01 595.368M1555.16 561.63L1586.16 526.395M1536.73 586.003L1507.11 606.46M1536.73 586.003L1512.09 601.386L1507.11 606.46M1536.73 586.003L1577.81 552.247M1507.11 606.46L1485.39 619.244L1483.5 619.119L1481.06 619.439L1479.26 620.615M1485.48 615.594L1484.3 617.214M1485.48 615.594L1491.89 606.941L1496.57 603.416L1501.96 599.766L1508.34 594.478L1522.56 579.665M1485.48 615.594L1484.6 617.837L1483 619.208L1481.4 619.582L1479.9 620.418M1484.3 617.214L1483.34 618.709L1478.69 621.522M1484.3 617.214L1483.05 617.837M1484.3 617.214L1486.63 615.576L1492.17 611.143L1497.69 609.362L1517.01 595.368M775.344 -72.5687L794.02 -65.8566M775.344 -72.5687L781.504 -59.7853M794.02 -65.8566L819.925 -58.7884M794.02 -65.8566L805.415 -52.3788M819.925 -58.7884L834.328 -44.6875M834.328 -44.6875L805.415 -52.3788M879.266 -14.4207L843.64 -23.7143M879.266 -14.4207L908.375 1.90573M1548.73 545.072L1536.86 570.977M1548.73 545.072L1524.11 577.635L1522.56 579.665M1522.56 579.665L1505.45 600.496M1479.9 620.418L1479.26 620.615M1020.36 -152.313L1026.38 -148.841M1132.96 -128.456L1176.2 -137.838M1132.96 -128.456L1099.64 -117.862M1230.5 -113.162L1269.76 -122.883M1230.5 -113.162L1200.93 -102.123M1230.5 -113.162L1289.1 -103.797M1269.76 -122.883L1327.55 -113.536M1458.24 -141.328L1510.95 -131.981M1599.05 -133.352L1510.95 -131.981M-295.321 -407L-289.321 -405.095M-289.321 -405.095L-289.41 -407M-167.986 -355.796L-122.016 -329.73M985.289 631.599L985.859 635.908M782.803 -96.8177L791.705 -91.2095M791.705 -91.2095L808.886 -85.3163M791.705 -91.2095L802.157 -103.12M808.886 -85.3163L831.871 -79.1739M808.886 -85.3163L813.587 -97.7791M831.871 -79.1739L861.569 -72.6398M831.871 -79.1739L833.047 -92.1353M861.569 -72.6398L895.93 -65.7497M861.569 -72.6398L870.898 -58.4678M861.569 -72.6398L858.222 -86.2065M895.93 -65.7497L908.892 -50.8833M908.892 -50.8833L926.963 -35.2691M908.892 -50.8833L870.898 -58.4678M926.963 -35.2691L950.642 -18.7469M926.963 -35.2691L886.922 -43.5658M950.642 -18.7469L907.646 -27.9339M1184.36 46.8076L1152.79 25.0866M1275.21 85.7272L1333.52 102.659M1553.43 366.088L1581.83 394.254M1583.88 432.532L1599.64 461.161M1583.88 432.532L1581.83 394.254M1586.1 498.888L1586.16 526.395M1586.1 498.888L1599.64 461.161M1536.86 570.977L1517.01 595.368M1536.86 570.977L1509.03 597.558L1505.45 600.496M1505.45 600.496L1501.13 602.704L1495.89 608.543L1491.8 612.959L1488.57 617.623L1478.84 623.178M1505.45 600.496L1500.66 605.837M880.298 -131.536L884.02 -127.441M880.298 -131.536L848.59 -120.978M880.298 -131.536L916.156 -140.046L920.803 -139.494L927.141 -133.743M884.02 -127.441L896.714 -122.936M884.02 -127.441L858.417 -116.313M896.714 -122.936L875.082 -111.381M896.714 -122.936L927.141 -133.743M943.574 -112.717L965.793 -124.396M1099.64 -117.862L1076.59 -106.076M1200.93 -102.123L1181.13 -89.7495M1200.93 -102.123L1261.06 -92.5092M1289.1 -103.797L1327.55 -113.536M1289.1 -103.797L1261.06 -92.5092M1391.79 -102.782L1327.55 -113.536M847.913 -125.251L848.59 -120.978M847.913 -125.251L820.067 -114.515L802.157 -103.12M848.59 -120.978L858.417 -116.313M858.417 -116.313L875.082 -111.381M1062.01 -93.3103L1076.59 -106.076M1181.13 -89.7495L1241.9 -79.9217M1261.06 -92.5092L1241.9 -79.9217M1678.08 -30.3552L1704.98 -24.2306M1678.08 -30.3552L1704.98 -37.1385M861.836 -2.99042L899.349 7.74542M861.836 -2.99042L835.308 -18.106M899.349 7.74542L869.278 -8.42062M899.349 7.74542L940.28 19.051M975.479 37.2289L1021.38 50.5108M975.479 37.2289L940.28 19.051M1021.38 50.5108L984.986 31.1578M1021.38 50.5108L1069.8 64.6828M1267.54 187.193L1314.84 210.284M1526.16 463.102L1536.79 494.366M1027.77 640.715L1025.01 638.561M1025.01 638.561L1025.9 604.217M1025.01 638.561L1024.92 640.43M1025.9 604.217L1027.43 571.885M1025.9 604.217L1007.44 590.971M1027.43 571.885L1029.69 541.262M1027.43 571.885L1007.62 559.333M1029.69 541.262L1009.77 529.707M1040.41 485.553L1021.25 475.778M1103.65 395.625L1091.6 389.464M1166.5 362.153L1208.39 348.836M1323.09 334.806L1371.32 327.186M1372.3 328.521L1371.32 327.186M1404.93 644.205L1406.43 641.588M1406.43 641.588L1423.96 631.261M1406.43 641.588L1393.57 646.501M1425.08 568.003L1438.6 557.232M1406.87 427.618L1410.29 415.903M1390.12 366.871L1387.36 353.376M1007.44 590.971L1007.62 559.333M991.022 547.493L992.731 518.633M991.022 547.493L1007.62 559.333M992.731 518.633L980.073 508.431M992.731 518.633L1009.77 529.707M1005.46 466.485L994.689 458.099M1005.46 466.485L1021.25 475.778M1083.51 383.803L1117.73 368.028M1083.51 383.803L1091.6 389.464M1090.3 645.487L1096.69 611.036M1090.3 645.487L1093.64 647.481M1096.69 611.036L1102.42 578.259M1207.22 377.286L1238.64 360.657M1353.74 399.185L1362.18 374.723M1362.18 374.723L1374.34 354.106L1375.25 352.592M1375.25 352.592L1383.26 343.726L1382.85 342.355L1382.12 341.162M1375.25 352.592L1383.35 348.818L1385.1 347.892L1384.94 347.465L1384.4 345.275L1383.58 343.726L1383.28 340.61M1382.12 341.162L1379.97 338.456M1379.97 338.456L1379.24 337.904M1379.97 338.456L1379.04 336.604L1377.48 334.432L1376.75 332.011M1379.97 338.456L1379.77 338.705L1383.28 340.61M1080.01 -32.2781L1099.95 -14.3672M1099.95 -14.3672L1124.29 4.70096M1124.29 4.70096L1152.79 25.0866M1333.52 102.659L1393.48 121.015M1393.48 121.015L1454.73 140.92M1454.73 140.92L1517.61 162.659M1479.26 620.615L1478.51 621.077L1478.03 621.576L1477.46 622.68L1477.14 623.427L1475.31 623.499L1474.24 623.16M1561.16 577.048L1577.81 552.247M1561.16 577.048L1534.47 599.232M1561.16 577.048L1572.65 568.271L1605.1 543.398M1577.81 552.247L1586.16 526.395M1577.81 552.247L1611.07 516.924M1611.07 516.924L1608.59 489.096M1611.07 516.924L1605.1 543.398M1608.59 489.096L1623.46 451.191M1608.59 489.096L1590.75 518.74L1586.16 526.395M1608.59 489.096L1599.64 461.161M1623.46 451.191L1604.98 422.455M1604.98 422.455L1599.64 461.161M1604.98 422.455L1581.83 394.254M1216.6 9.27661L1241.51 30.2854M870.898 -58.4678L886.922 -43.5658M833.047 -92.1353L858.222 -86.2065M833.047 -92.1353L813.587 -97.7791M932.927 -144.283L965.26 -148.645M965.26 -148.645L971.491 -149.447L974.251 -149.892M965.26 -148.645L974.251 -149.892M974.251 -149.892L997.396 -152.544L1001.38 -153.007M974.251 -149.892L991.734 -152.153L1001.38 -153.007M1424.64 643.208L1442.19 639.38L1448.8 636.638L1457.17 632.508L1459.68 632.009M1459.68 632.009L1460.68 632.098L1472.27 627.611L1475.56 625.333L1497.23 619.315M1459.68 632.009L1466.73 628.235L1473.48 623.962L1475.08 622.982L1477.91 622.199L1483.38 618.976L1485.92 614.704L1491.83 609.914L1500.66 605.837M1497.23 619.315L1534.47 599.232M1497.23 619.315L1565.26 592.413M1565.26 592.413L1590.47 569.089M1590.47 569.089L1605.1 543.398M1590.47 569.089L1534.47 599.232M1241.51 30.2854L1269.87 52.8253M886.922 -43.5658L907.646 -27.9339M813.587 -97.7791L802.157 -103.12M138.564 -324.995L156.51 -332.49L175.311 -340.52M175.311 -340.52L197.353 -349.831M175.311 -340.52L139.578 -325.546M197.353 -349.831L246.563 -376.092M197.353 -349.831L255.002 -371.392L302.877 -396.602M246.563 -376.092L277.756 -402.46M246.563 -376.092L302.877 -396.602M277.756 -402.46L279.768 -407M277.756 -402.46L290.415 -407M1489.43 618.62L1534.47 599.232M302.877 -396.602L335.494 -407M302.877 -396.602L314.877 -407M1497.73 608.383L1500.66 605.837M1500.66 605.837L1517.01 595.368M1520.62 532.467L1516.9 563.837M1520.62 532.467L1510.4 565.511M1510.4 565.511L1494.89 596.276L1481.24 619.137M1510.4 565.511L1498.74 595.938L1492.12 605.339L1486.28 613.368M1401.21 333.613L1422.24 361.993M1463.43 399.168L1476.47 429.986M1516.9 563.837L1509.21 581.232M1516.9 563.837L1509.55 576.852L1504.31 586.092L1496.82 596.116M1438.78 389.66L1451.9 416.722M1438.78 389.66L1422.24 361.993M1484.44 459.63L1476.47 429.986M1484.44 459.63L1488.86 488.437M1496.82 596.116L1492.17 605.107M1496.82 596.116L1479.35 620.49M1460.57 629.819L1461.76 629.445L1463.1 628.786L1466.85 628.021L1473.8 625.19L1474.24 623.16M1443.73 635.036L1431.41 638.846L1440.59 618.531M1443.73 635.036L1455.01 602.721M1460.43 442.378L1451.9 416.722M1488.52 515.321L1488.86 488.437M1388.64 350.064L1391.58 354.64L1399.71 369.097M1399.71 369.097L1405 386.544L1410.43 402.194M1410.43 402.194L1410.29 415.903M1450.1 544.057L1438.6 557.232M1450.1 544.057L1458.48 528.087M1440.59 618.531L1455.01 602.721M1440.59 618.531L1423.96 631.261M1354.62 307.299L1355.76 308.456M1355.76 308.456L1367.97 322.628L1370.68 325.761L1370.75 326.064L1371.41 327.168L1373.29 328.325L1376.75 332.011M1355.76 308.456L1364.82 316.859M1376.75 332.011L1374.02 330.123L1372.67 328.45L1371.81 327.097L1371.37 325.851L1364.82 316.859M1383.28 340.61L1385.24 342.64L1384.31 344.936L1384.15 345.399L1385.86 347.144M1410.29 415.903L1398.7 384.372L1390.87 360.622L1389.46 355.067M805.415 -52.3788L781.504 -59.7853M940.28 19.051L908.375 1.90573M940.28 19.051L984.986 31.1578M908.375 1.90573L869.278 -8.42062M869.278 -8.42062L843.64 -23.7143M869.278 -8.42062L835.308 -18.106M843.64 -23.7143L812.162 -32.5985M812.162 -32.5985L835.308 -18.106M1287.12 372.105L1264.08 391.601M1007.62 559.333L1009.77 529.707M1170.54 648.424L1181.49 653.41M1170.54 648.424L1181.35 614.027M1170.54 648.424L1168.81 652.804M1423.96 631.261L1418.89 641.392M1364.82 316.859L1373.17 325.53L1374.18 326.723M1449.55 637.795L1478.92 631.404M1478.92 631.404L1450.17 636.549" stroke="#FD8B0C" stroke-width="1.78041" stroke-linecap="round" stroke-linejoin="round"/>
</svg>
