<svg width="1400" height="173" viewBox="0 0 1400 173" fill="none" xmlns="http://www.w3.org/2000/svg">
<g opacity="0.02">
<g style="mix-blend-mode:overlay">
<path d="M-42.6696 -680.906L-32.4108 -678.161L53.9163 -655.089L120.577 -637.274L169.061 -624.291L209.99 -613.352L242.576 -604.646L274.587 -596.09L304.448 -588.109L333.415 -580.362L337.693 -579.212L355.635 -576.467L376.812 -573.338L401.31 -569.549L466.545 -542.987L510.432 -525.109L545.657 -510.785L581.988 -495.993L616.255 -482.031L707.158 -445.018L713.181 -442.57L736.594 -433.057L737.19 -432.801L990.02 -294.584L1013.5 -281.75L1014.96 -280.963L1016.28 -280.239L1031.2 -275.003L1049.1 -268.448L1189.11 -160.369L1222.18 -134.849L1223.52 -133.807L1224.46 -133.062L1224.63 -130.444L1226.44 -126.677L1339.5 -11.9783L1353.12 -1.6343L1364.72 10.1995L1364.23 11.6042L1367.93 16.8188L1369.3 18.1596L1369.98 18.0745L1379.49 24.8002L1392.84 37.762L1394.54 39.7627L1395.09 40.4225L1421.76 90.7373L1435.17 109.254" stroke="white" stroke-width="2.12838" stroke-linecap="round" stroke-linejoin="round"/>
</g>
<g style="mix-blend-mode:overlay">
<path d="M-500.228 -741.161L-492.97 -739.245L-484.414 -738.585L-477.966 -739.501L-462.237 -738.181L-445.806 -736.797L-369.695 -724.432L-358.159 -722.814L-291.264 -713.513L-231.286 -705.148L-187.889 -699.104L-153.367 -695.911L-125.612 -691.463L-116.482 -689.526L-89.3447 -688.249L-56.5892 -684.631L-18.9381 -678.799L-17.4909 -678.395L9.88026 -670.924L82.7559 -651.024L136.157 -638.509L175.809 -629.506L214.8 -616.778L249.982 -605.328L282.313 -596.516L318.303 -586.683L354.252 -576.85L355.635 -576.467L556.895 -497.866L590.8 -484.627L616.638 -473.177L640.476 -462.641L681.788 -446.742L685.151 -445.444L691.557 -442.975L704.029 -440.399L718.928 -437.037L737.19 -432.801L758.793 -427.501L784.503 -421.01L799.828 -412.177L1009.58 -291.221L1046.46 -269.959L1047.78 -269.214L1049.1 -268.448L1070.49 -260.36L1095.12 -250.633L1112.98 -235.735L1212.2 -153.068L1244.53 -126.144L1275.97 -102.69L1286.89 -95.9853L1286.97 -95.9002L1290.29 -93.0056L1295.04 -88.8553L1369.34 3.87819L1388.22 27.4607L1406.05 49.7235L1406.12 49.8086L1435.19 109.297L1436.57 111.212L1441.51 118.577L1442.94 121.173L1447.56 128.899L1456.67 140.584L1459.5 142.329L1460.03 143.266L1479.21 192.282L1479.31 193.283L1487.55 216.078L1490.64 225.442L1494.98 234.233L1497.77 239.49" stroke="white" stroke-width="2.12838" stroke-linecap="round" stroke-linejoin="round"/>
</g>
<g style="mix-blend-mode:overlay">
<path d="M-580 -739.99L-332.172 -708.15L-199.233 -691.08L-197.956 -690.761L133.709 -609.968L211.437 -591.025L215.375 -590.067L521.67 -481.137L601.335 -452.808L601.739 -452.68L601.91 -452.595L855.719 -330.852L924.274 -297.947L925.253 -297.479L926.019 -296.99L926.19 -296.883L927.594 -295.989L1039.21 -224.774L1117.83 -174.608L1171.1 -140.596L1175.19 -137.063L1247.3 -74.4463L1303.27 -25.8341L1340.33 6.32564L1340.67 6.75134L1355.02 25.0341L1385.47 63.7493L1420.53 108.36L1443.26 137.285L1443.9 138.711L1482.76 226.059L1493.3 249.706L1498.91 301.234L1503.55 343.844L1502.19 349.59L1488.32 407.44L1486.53 421.892L1489.34 424.211L1489.44 424.956L1470.91 452.881L1449.45 485.7L1449.17 486.296" stroke="white" stroke-width="2.12838" stroke-linecap="round" stroke-linejoin="round"/>
</g>
<g style="mix-blend-mode:overlay">
<path d="M-454.915 -737.99L-444.954 -736.564L-442.485 -736.223L-384.295 -727.923L-302.906 -716.344L-240.736 -707.49L-195.87 -701.105L-159.602 -695.933L-131.997 -692.017L-105.329 -686.675L-100.008 -685.312L-46.2662 -672.904L57.4071 -646.235L131.645 -627.123L189.069 -612.352L230.572 -599.496L266.286 -588.322L269.351 -587.535L282.76 -586.449L625.897 -459.534L655.247 -448.679L655.652 -448.53L655.886 -448.445L664.335 -447.573L672.445 -446.423L961.712 -299.586L974.419 -292.265L1005.17 -270.364L1196.2 -141.916L1205.54 -135.616L1332.41 -16.6185L1350.08 0.961953" stroke="white" stroke-width="2.12838" stroke-linecap="round" stroke-linejoin="round"/>
</g>
<g style="mix-blend-mode:overlay">
<path d="M-580 -733.967L-320.934 -701.828L-226.327 -690.08L87.8429 -614.82L185.493 -591.408L189.409 -590.472L475.889 -490.267L576.455 -455.085L577.923 -454.575L578.328 -454.383L815.514 -342.303L903.118 -300.906L904.544 -300.225L906.63 -298.926L906.779 -298.841L908.993 -297.436L979.314 -253.379L1083.5 -188.08L1153.73 -144.065L1161.21 -137.723L1200.32 -104.478L1276.29 -39.8814L1326.39 2.70752L1326.5 2.85652L1350.21 32.143L1351.46 33.6754L1400.71 94.5258L1432.3 133.56L1433 135.029L1468.69 211.395L1484.87 245.981L1484.97 246.237L1493.42 310.79L1497.32 340.588L1480.5 418.018L1443.15 480.124" stroke="white" stroke-width="2.12838" stroke-linecap="round" stroke-linejoin="round"/>
</g>
<g style="mix-blend-mode:overlay">
<path d="M-580 -618.396L-245.121 -568.698L125.706 -475.858L453.243 -361.416L465.715 -357.052L472.1 -354.818L762.113 -221.73L766.221 -219.857L987.402 -88.4723L996.469 -83.0875L1159.91 44.9131L1161.59 46.2327L1268.09 161.974L1269.16 163.145L1328.62 265.051L1350.82 351.847L1344.71 423.999L1318.26 482.912L1277.31 529.758L1226.7 566.025L1169.95 592.843L1109.95 611.402L1085.9 615.808" stroke="white" stroke-width="2.12838" stroke-linecap="round" stroke-linejoin="round"/>
</g>
<g style="mix-blend-mode:overlay">
<path d="M-580 -726.369L-306.652 -693.762L-257.615 -687.909L157.781 -590.791L421.232 -500.356L546.082 -457.491L548.125 -456.788L598.909 -433.27L764.901 -356.393L876.704 -304.609L877.79 -304.098L881.493 -301.821L903.692 -288.199L1040.55 -204.235L1130.92 -148.791L1131.07 -148.684L1143.28 -138.574L1241.93 -56.8872L1307.36 -2.69869L1307.72 -2.40076L1308.28 -1.7409L1344.18 41.0608L1374.7 77.4347L1417.46 128.409L1417.57 128.558L1417.89 129.197L1450.81 195.645L1473.48 241.405L1482.21 296.083L1488.61 336.267L1473.88 414.102L1438.23 476.825L1388.13 526.033L1377.68 532.61L1374.53 534.589L1328.45 563.514" stroke="white" stroke-width="2.12838" stroke-linecap="round" stroke-linejoin="round"/>
</g>
<g style="mix-blend-mode:overlay">
<path d="M536.951 -769L797.827 -648.555L814.364 -640.914L1046.31 -498.206L1065.51 -486.394L1078.22 -478.604L1257.34 -331.703L1280.14 -312.995L1405.22 -171.564L1414.29 -161.327L1420.33 -154.473L1424.08 -148.088L1496.74 -24.557L1505.56 -9.57331L1510.68 6.64492L1544.44 113.426L1546.1 118.683L1552.53 229.444L1534.56 323.412L1512.03 374.897L1507.96 384.177L1501.53 398.884L1500.21 401.864L1492.83 412.591" stroke="white" stroke-width="2.12838" stroke-linecap="round" stroke-linejoin="round"/>
</g>
<g style="mix-blend-mode:overlay">
<path d="M-580 -716.77L-293.861 -684.652L120.002 -590.642L157.781 -590.791L189.409 -590.472L215.375 -590.067L236.723 -589.322L254.409 -588.577L269.351 -587.534L607.699 -463.535L646.138 -449.466L646.499 -449.317L655.885 -448.445L944.494 -304.354L967.523 -292.86L972.482 -292.35L977.1 -291.775L981.804 -290.838L1058.98 -237.948L1203.39 -137.212L1350.31 -0.761749" stroke="white" stroke-width="2.12838" stroke-linecap="round" stroke-linejoin="round"/>
</g>
<g style="mix-blend-mode:overlay">
<path d="M-580 -480.541L-310.675 -443.89H-310.526L-3.35836 -372.93L286.782 -280.048L296.807 -276.834L558.023 -168.393L565.11 -165.435L772.989 -55.9934L782.503 -50.9917L787.611 -48.2887L955.199 64.3665L958.243 66.4309L1030.54 86.7995L1098.16 106.934L1191.49 211.373L1192.71 212.714L1242.74 231.253L1288.23 248.854L1328.62 265.051L1364.36 279.95L1395.2 293.188L1421.72 304.937L1443.88 314.983L1462.26 323.582L1476.99 330.563L1488.61 336.267L1497.32 340.587L1503.55 343.844L1507.62 346.057" stroke="white" stroke-width="2.12838" stroke-linecap="round" stroke-linejoin="round"/>
</g>
<g style="mix-blend-mode:overlay">
<path d="M454.158 -769L684.661 -674.159L700.368 -667.689L950.708 -529.281L969.289 -519.022L981.825 -512.083L1181.74 -365.587L1195.58 -355.456L1204.73 -348.73L1211.24 -342.281L1349.76 -204.703L1359.04 -195.487L1365.32 -189.23L1378.02 -171.032L1439.51 -82.8747L1458.94 -55.0354L1464.65 -46.8412L1468.5 -41.3287L1479.8 -14.1706L1518.56 79.0311L1521.43 85.9696L1523.43 90.7585L1528.41 123.663L1540.84 205.627L1530.73 303.469L1510.81 359.722L1509.28 364.042L1501.7 385.432L1498.62 390.498L1492.19 413.506L1489.34 424.211" stroke="white" stroke-width="2.12838" stroke-linecap="round" stroke-linejoin="round"/>
</g>
<g style="mix-blend-mode:overlay">
<path d="M-332.193 -769L-85.088 -739.628L-43.5208 -729.582L118.321 -690.442L249.748 -658.644L252.473 -657.984L255.708 -657.196L315.303 -651.194L380.665 -643.596L452.051 -633.976L588.714 -574.53L739.829 -508.806L749.236 -504.719L757.431 -501.144L763.092 -498.696L829.987 -481.179L900.692 -460.917L974.568 -437.611L1035.95 -392.916L1176.89 -290.264L1185.62 -283.921L1191.43 -279.686L1249.83 -252.017L1308.17 -221.815L1365.32 -189.23L1420.34 -154.473L1472.03 -117.929L1519.65 -79.8736L1562.13 -40.8392L1599.03 -1.20873L1629.7 38.4429L1654.03 77.8179L1671.76 116.278L1683.21 153.673L1688.43 189.451L1687.96 223.612L1651.18 293.784L1637.88 319.176L1605.04 363.276L1594.03 375.131L1557.74 414.847L1547.4 424.509L1510.43 460.33L1501.17 467.886L1463.56 500.429L1455.77 505.835L1417.21 535.547L1411.35 538.761L1398.97 550.403L1384.92 564.195L1376.64 570.878L1368.53 576.603L1350.27 588.48L1328.03 602.059L1306 614.787L1303.72 616.276L1297.29 619.597L1282.16 627.131L1263.84 635.496L1252.64 640.114L1243.06 644.414L1237.42 647.925L1228.14 651.735L1221.78 655.183L1211.29 656.588L1205.48 655.864L1176.91 661.739L1175.55 662.015L1165.04 666.889L1154.16 671.486L1127.19 669.592L1118.81 672.785L1110.21 675.765L1101.4 678.489L1085.35 666.911L1070.34 647.925L1048.93 622.598L1063.77 579.285L1070.32 529.119L1070.26 528.864L1061.11 483.7L1057.91 468.035L1057.68 467.545L1025.35 401.672L1023.14 397.117L1022.54 396.372L1021.29 394.755L960.414 316.856L956.838 313.536L952.965 309.96L864.977 228.592L862.998 227.188L858.954 224.314L852.612 219.781L733.635 134.922L730.592 133.198L724.441 129.687L715.097 124.366L566.707 39.8902L562.301 37.847L553.766 33.9307L523.586 20.0324L369.108 -51.1405L363.297 -53.2902L151.715 -131.891L99.3359 -131.487L55.4914 -128.975L-144.427 -180.354L-319.061 -211.152L-454.787 -221.581L-543.243 -214.323L-580 -195.125" stroke="white" stroke-width="2.12838" stroke-linecap="round" stroke-linejoin="round"/>
</g>
<g style="mix-blend-mode:overlay">
<path d="M-225.944 -769L-24.1951 -740.352L155.674 -693.123L305.384 -653.791L311.195 -652.28L315.303 -651.194L503.132 -579.617L633.836 -529.813L639.05 -527.812L643.03 -526.301L686.3 -504.081L821.111 -434.845L920.698 -383.7L925.636 -381.167L928.701 -379.592L1067.39 -285.028L1071.05 -282.517L1075.33 -279.601L1082.48 -274.727L1149.05 -229.35L1152.14 -227.243L1154.44 -225.668L1254.41 -133.317L1258.17 -129.827L1266.64 -122.016L1286.5 -103.648L1294.21 -96.5388L1304.47 -87.0676L1304.57 -86.9611L1308.3 -83.5132L1316.13 -76.2979L1372.55 -0.868252L1397.97 33.1007L1418.08 59.9821L1418.68 60.7696L1448.45 128.005L1453.09 134.837L1458.41 142.031L1477.87 190.175L1478.46 191.133L1479.25 192.601L1486.74 211.544L1487.4 213.183" stroke="white" stroke-width="2.12838" stroke-linecap="round" stroke-linejoin="round"/>
</g>
<g style="mix-blend-mode:overlay">
<path d="M291.209 -769L468.759 -711.129L482.21 -706.745L497.939 -699.636L763.156 -579.745L779.715 -572.274L790.974 -567.187L823.325 -547.734L1014.37 -432.95L1050.61 -411.156L1091.1 -378.826L1234.57 -264.212L1249.83 -252.017L1288.99 -208.981L1378.24 -110.884L1384.2 -104.35L1388.18 -99.9655L1415.01 -55.7378L1418.61 -49.821L1462.86 23.0548L1472.33 38.6984L1489.91 92.3335L1509.83 153.184L1512.35 160.889L1518.77 265.945L1508.34 318.133" stroke="white" stroke-width="2.12838" stroke-linecap="round" stroke-linejoin="round"/>
</g>
<g style="mix-blend-mode:overlay">
<path d="M-580 -691.697L-381.486 -673.138L23.5443 -588.705L188.621 -536.943L404.779 -469.154L414.251 -466.196L466.949 -462.726L630.749 -390.681L798.998 -316.72L803.191 -314.868L813.066 -309.143L923.337 -245.249L1064.02 -163.689L1066.34 -162.348L1146.24 -100.54L1250.06 -20.1939L1252.13 -18.5976L1253.6 -17.4696L1253.83 -17.278L1253.98 -17.129L1300.76 33.7818L1373.3 112.723L1374.21 113.724L1374.26 113.809L1397.56 154.461L1439.26 227.23L1439.36 227.4L1446.77 258.56L1462.26 323.582L1453.75 402.97L1422.97 467.332L1376.64 518.222L1319.92 557.363L1256.36 586.117L1189.9 606.677L1120.4 619.831L1117.55 619.001L1116.08 615.638L1114.27 614.382L1112.21 612.977L1109.95 611.402L1107.48 609.636L1104.78 607.742L1101.91 605.698L1098.82 603.506L1048.93 622.598L1045.63 652.757L1041.91 674.998L1036.29 690.429L1034.12 700.858L1020.07 702.007L1008.15 701.071L995.702 701.539L983.315 701.731L972.141 703.646L958.434 703.54L942.94 705.37L928.02 704.902L913.249 704.242L898.691 703.327L884.324 702.242L869.426 701.05L863.402 700.518L854.442 699.709L844.822 698.687L837.16 698.389L830.285 697.836L821.601 696.708L815.024 695.175L803.467 692.259L780.268 691.238L766.284 689.642L751.109 687.194L736.679 683.767L722.802 680.979L709.265 678.021L696.069 674.934L681.384 673.189L671.295 671.678L666.272 670.742L652.842 666.527L624.322 659.908L606.443 655.928L591.183 651.501L577.944 648.628L570.069 646.819L548.445 640.795L528.736 635.049L510.475 629.983L494.937 624.811L486.211 621.832L478.081 618.894L466.055 613.744L462.331 612.573L428.936 602.442L412.058 596.823L395.329 590.374L379.409 583.584L364.383 576.476L360.424 575.071L354.699 573.688L348.228 570.091L337.033 561.109L324.795 552.787L313.493 543.997L303.149 534.717L293.742 524.884L285.207 514.455L281.504 513.348L205.563 490.66L194.602 478.804L184.514 466.268L175.255 452.987L166.699 438.919L158.76 424.062L151.332 408.398L144.266 391.881L137.455 374.556L137.115 374.471L48.0419 348.633L40.0605 330.286L39.4858 330.137L-32.4533 309.428L-40.3284 290.677L-89.1747 275.885L-95.3895 257.283L-100.434 238.298L-104.563 219.015L-107.904 199.497L-110.714 179.831L-113.225 160.101L-115.779 140.414L-118.546 120.854L-119.206 118.704L-119.44 115.809L-119.525 115.235L-121.952 101.528" stroke="white" stroke-width="2.12838" stroke-linecap="round" stroke-linejoin="round"/>
</g>
<g style="mix-blend-mode:overlay">
<path d="M-580 -449.147L-384.955 -428.033L-94.4101 -368.332L-3.35814 -372.93L92.8233 -374.249L190.644 -372.674L487.659 -261.275L495.619 -258.295L736.083 -142.192L747.364 -136.744L752.663 -134.19L942.898 -16.6605L949.943 -12.2973L953.667 -9.99866L1029.18 9.32699L1098.89 28.2909L1161.59 46.2331L1217.67 63.0685L1266.5 78.2439L1308.81 91.9081L1344.42 103.657L1374.21 113.724L1398.31 121.918L1417.57 128.559L1432.3 133.56L1443.26 137.285L1450.88 139.733L1455.77 141.308" stroke="white" stroke-width="2.12838" stroke-linecap="round" stroke-linejoin="round"/>
</g>
<g style="mix-blend-mode:overlay">
<path d="M-580 -563.335L-397.002 -544.073L-51.3536 -471.751L279.184 -371.27L288.293 -368.482L571.027 -254.486L584.861 -248.91L591.204 -246.356L835.691 -119.547L840.437 -117.099L1026.37 7.4323L1029.18 9.32652L1159.16 125.089L1160.95 126.685L1241.91 230.188L1242.74 231.253L1283.91 321.113L1284.29 321.921L1319.41 337.437L1350.82 351.846L1378.3 364.83L1402.24 376.514L1422.55 386.688L1439.7 395.563L1453.75 402.97L1465.09 409.185L1473.88 414.102L1480.5 418.018L1485.08 420.87L1488.91 423.168L1489.57 424.445L1489.66 426.659L1472.27 451.114" stroke="white" stroke-width="2.12838" stroke-linecap="round" stroke-linejoin="round"/>
</g>
<g style="mix-blend-mode:overlay">
<path d="M210.203 -769L368.704 -723.219L380.899 -719.685L482.21 -706.745L589.097 -689.548L700.369 -667.689L814.365 -640.914L929.404 -609.137L1141.24 -463.173L1160.18 -450.126L1172.93 -441.336L1330.58 -295.159L1343.91 -282.793L1352.78 -274.556L1457.94 -136.425L1472.03 -117.929L1536.46 16.9037L1539.59 23.4804L1540.93 29.8017L1564.81 141.712L1566.02 147.437L1561.98 253.941L1536.54 343.865L1525.54 364.872L1525.01 365.873L1501.36 410.93L1498.98 415.485L1497.26 418.784L1489.61 426.276L1470.91 452.881L1448.24 483.891L1395.92 532.61L1389.81 541.145L1369.59 555.171L1340.9 575.092L1337.46 575.305L1322.41 581.775L1295.61 596.866L1294.7 597.398L1293.99 597.802L1270.73 607.231L1244.34 617.915L1244.02 618.064L1243.68 618.192L1219.76 624.215L1195.37 628.749L1170.97 628.813L1155.25 628.919L1105.19 627.685L1048.93 622.598L977.228 643.328L904.289 656.779L901.82 655.332L827.497 661.696L824.049 659.483L749.109 659.568L744.661 656.545L740.744 653.438L737.36 650.203L734.487 646.819L732.167 643.285L730.379 639.582L728.421 635.602L645.946 627.45L566.047 616.532L562.088 610.743L558.853 604.634L556.342 598.185L554.383 597.738L469.291 578.668L465.524 570.729L462.48 562.279L460.607 561.79L372.109 538.718L367.32 528.608L363.191 517.839L359.615 506.388L356.466 494.171L353.635 481.146L350.996 467.311L348.42 452.625L345.781 437.067L342.929 420.657L339.779 403.396L336.267 385.326L332.266 366.532L327.796 347.058L322.773 327.03L317.261 306.555L311.216 285.739L304.746 264.753L297.871 243.768L290.763 222.888L165.465 180.533L156.568 159.292L147.459 138.519L138.349 118.321L129.304 98.8676L120.556 80.2443L112.277 62.5575L104.763 45.8497L98.2293 30.2274L93.0787 15.6905L89.6307 2.30308L88.3751 -9.9351L89.7371 -20.9601L94.2919 -30.7932L102.593 -39.3706L115.235 -46.6496L296.083 17.0314L474.484 93.4403L499.237 93.6956L530.865 110.552L651.118 174.68L657.631 178.15L660.951 179.916L698.07 204.201L781.418 258.709L788.463 263.306L793.273 266.456L795.699 268.031L833.201 298.893L895.03 349.718L898.202 352.336L899.777 353.635L933.703 390.349L968.055 427.532L970.801 430.512L972.631 432.491L973.504 433.449L1000.68 475.654L1018.67 503.557L1019.48 504.856L1019.88 505.473L1028.18 527.778L1042.19 565.451L1041.31 567.111L1048.19 621.619L1048.93 622.598L1103.72 628.749L1153.71 630.068L1156.8 627.77L1159.74 625.62L1162.55 623.619L1165.25 621.789L1167.85 620.15L1171.21 618.064L1172.76 617.383L1175.02 615.957L1177.34 615.34L1180.79 614.68L1184.47 613.999L1185.81 614.403L1192.47 613.148L1195.69 611.53L1232.19 602.314L1245.85 599.037L1264.26 592.141L1329.84 564.621L1366.51 544.231L1368.38 543.103L1391.86 528.821L1444.85 481.38L1486.53 421.892L1489.29 417.72L1494.55 397.181L1501.94 368.278L1508.96 345.887L1509.94 340.417L1525.37 284.249L1527.31 182.704L1526.44 179.086L1509.07 107.19L1498.66 64.026L1496.47 59.748L1448.88 -32.9642L1429.17 -71.4027L1429.06 -71.5517L1425.06 -76.5321L1419.16 -83.8537L1332.77 -191.23L1308.17 -221.815L1281.69 -245.249L1149.71 -362.075L1127.75 -381.529L1118.7 -387.488L1105.31 -396.342L895.584 -535.027L885.602 -541.625L873.704 -547.564L855.719 -556.524L589.097 -689.548L574.22 -694.996L372.386 -769" stroke="white" stroke-width="2.12838" stroke-linecap="round" stroke-linejoin="round"/>
</g>
<g style="mix-blend-mode:overlay">
<path d="M-129.635 -769L37.549 -741.097L43.104 -740.182L198.476 -695.72L360.083 -649.47L367.916 -647.235L375.152 -645.171L380.665 -643.596L543.103 -577.638L688.918 -518.426L696.005 -515.531L700.709 -513.616L763.092 -498.696L984.486 -370.504L992.552 -365.843L999.15 -362.011L1007.09 -357.414L1025.05 -347.006L1078.2 -327.149L1133.94 -304.716L1191.43 -279.686L1247.21 -224.561L1336.92 -135.914L1342.69 -130.21L1346.59 -126.357L1388.18 -99.9655L1429.06 -71.5517L1429.21 -71.4452L1468.5 -41.3287L1505.56 -9.57331L1539.59 23.4804L1569.81 57.4068L1595.76 91.9504L1616.87 126.579L1633.02 161.101L1643.92 194.964L1649.71 228.06L1650.41 259.858L1646.39 290.379L1614.02 340.758L1606.06 353.124L1598.67 364.617L1594.03 375.131L1578.26 399.203L1546.12 432.661L1535.93 443.303L1526.01 453.626L1514.52 465.587L1508.22 472.036L1507.15 473.271L1495.1 484.679L1471.82 502.536L1469.29 503.43L1439.11 526.97L1419.36 543.018L1408.1 551.276L1404.33 554.043L1389.52 564.897L1360.17 583.393L1356.5 585.692L1352.38 588.224L1351.35 588.842L1331.75 599.143L1315.83 606.699L1289.48 618.937L1284.74 621.406L1280.93 623.364L1269.82 627.77L1237.4 638.731L1205.48 645.882L1204.58 646.138L1195.34 651.586L1185.66 656.907L1175.55 662.015L1143.22 662.569L1135.35 666.166L1127.19 669.592L1102.36 660.908L1096.84 663.079L1075.9 645.882L1048.93 622.598L1046.66 622.47L981.57 615.51L911.504 599.718L834.775 579.285L750.79 553.681L658.822 523.777L559.023 490.681L453.051 455.86L452.944 455.839L452.774 455.775L342.929 420.657L233.764 387.007L130.793 356.444L124.153 337.544L117.47 317.963L110.659 297.722L18.0956 271.458L-53.8649 251.685L-59.8032 231.593L-65.3369 211.203L-70.6365 190.622L-75.8724 169.955L-81.1933 149.31L-86.8761 128.793L-92.9845 108.509L-99.8166 88.5875L-107.479 69.0916L-116.226 50.1277L-126.059 31.7598L-137.212 14.0517L-149.599 -2.99663L-163.391 -19.3638L-178.354 -35.1139L-194.551 -50.2892L-211.663 -64.9962L-238.842 -61.974L-241.29 -61.527L-241.46 -61.6121L-241.822 -61.8037L-248.441 -62.7189L-251.336 -63.2936L-312.527 -72.7436L-380.592 -84.9179L-451.595 -99.6675L-517.49 -127.017L-529.792 -132.125L-575.977 -164.796L-580 -182.142" stroke="white" stroke-width="2.12838" stroke-linecap="round" stroke-linejoin="round"/>
</g>
<g style="mix-blend-mode:overlay">
<path d="M-53.0137 -93.9844L115.235 -46.6492L132.815 -52.5022L318.963 14.5204L339.97 23.7363L495.065 91.8656L499.237 93.6961L528.183 95.8245L554.809 110.51L668.72 173.319L678.212 178.555L684.64 182.088L687.854 183.875L719.503 205.393L816.28 271.224L818.557 272.757L850.845 300.638L908.673 350.549L913.206 354.465L916.165 357.019L917.591 358.253L936.704 364.064L956.966 370.939L1006.94 438.94L1009.69 442.665L1013.35 447.645L1027.82 479.571L1043.82 514.923L1044.04 515.37L1051 555.277L1052.3 572.39L1048.93 622.598L1035.89 653.289L1025.33 672.104L1022.75 676.084L1016.39 676.169L1010.09 676.148L1003.83 675.999L997.66 675.765L991.531 675.424L985.529 674.999L979.612 674.467L973.823 673.871L968.14 673.211L962.606 672.487L957.2 671.679L951.964 670.827L946.877 669.912L895.626 683.044L888.326 681.639L837.394 688.45L827.922 686.535L818.77 684.534L809.959 682.448L801.53 680.256L793.464 677.979L785.802 675.595L724.802 674.53L715.31 671.551L706.328 668.443L697.857 665.208L689.939 661.867L682.575 658.419L675.786 654.822L674.785 654.694L672.912 654.481L613.722 648.649L605.379 646.053L597.014 641.647L589.374 637.05L582.435 632.261L576.22 627.259L570.75 622.023L566.047 616.532L563.258 615.958L485.338 599.91L479.187 593.227L473.845 586.139L470.844 585.394L391.115 565.6L387.092 564.472L313.493 543.997L307.938 542.273L244.363 522.351L230.423 512.391L227.762 511.454L169.721 491.043L153.035 479.997L137.476 468.312L134.518 467.163L85.3098 448.156L82.5428 446.645L78.5627 444.495L52.9584 430.576L31.7597 418.061L12.0722 404.865L-6.0828 390.988L-23.0247 376.792L-37.5191 361.191L-50.864 345.313L-62.6338 328.797L-72.914 311.706L-95.8367 300.681L-104.244 283.76" stroke="white" stroke-width="2.12838" stroke-linecap="round" stroke-linejoin="round"/>
</g>
<g style="mix-blend-mode:overlay">
<path d="M-580 -312.655L-408.219 -301.055L-368.695 -319.21L-317.018 -335.513L-253.188 -349.412L-178.63 -360.479L-94.4105 -368.333L187.855 -285.433L198.263 -282.368L460.734 -181.653L468.929 -178.524L694.132 -68.8914L699.666 -66.2097L872.107 39.9539L879.067 44.2319L882.834 46.5305L1015.03 151.8L1017.16 153.482L1106.12 249.748L1107.31 251.046L1159.1 336.309L1159.59 337.118L1181.66 411.313L1180.28 473.76L1161.67 525.224L1130.88 566.557L1093.86 599.951L1048.93 622.597L1047.42 622.044L1002.19 584.414L941.322 542.549L867.042 493.533L776.82 440.004L670.741 383.751L552.446 327.753L551.573 327.349L551.084 327.115L550.978 327.051L550.233 326.753L422.019 272.522L291.975 223.356L291.103 223.016L290.762 222.888L283.462 202.328L276.183 182.215L269.031 162.719L262.263 143.989L256.069 126.153L252.515 124.94L120.662 80.2866L120.556 80.244L120.194 80.1376L5.51671 46.7008L4.79314 46.4879L-81.5978 25.1616L-82.7897 24.8637L-137.212 14.0515L-157.006 11.6464" stroke="white" stroke-width="2.12838" stroke-linecap="round" stroke-linejoin="round"/>
</g>
<g style="mix-blend-mode:overlay">
<path d="M-39.8391 -769L100.166 -741.842L109.743 -739.99L117.001 -738.564L245.726 -698.38L435.726 -639.062L445.346 -636.061L452.051 -633.976L529.162 -621.929L611.828 -607.03L699.347 -588.897L790.973 -567.187L885.601 -541.625L981.825 -512.083L1078.22 -478.604L1172.93 -441.336L1264.45 -400.578L1350.89 -356.903L1431 -310.781L1503.26 -263.063L1567.02 -214.302L1621.36 -165.456L1666.33 -116.929L1701.69 -69.6362L1728.03 -23.7909L1745.62 19.8409L1755.34 61.323L1757.77 100.081L1753.89 136.37L1749.94 151.226L1744.32 169.785L1729.97 200.689L1712.73 226.102L1708.79 233.424L1708.28 234.53L1702.54 246.896L1677.04 283.59L1668.21 295.338L1663.48 302.383L1661.22 306.257L1660.37 307.555L1656.67 313.706L1638.13 339.545L1619.13 359.743L1611.48 368.576L1609.76 370.683L1609.08 371.619L1589.63 395.138L1570.3 413.208L1565.45 418.231L1560.66 422.786L1557.74 425.935L1541.61 443.175L1521.37 460.394L1513.09 467.29L1493.08 485.19L1473.46 502.153L1463.82 509.304L1459.31 512.986L1457.05 514.902L1456.18 515.647L1450.66 520.393L1428.49 536.994L1419.36 543.018L1411.69 548.573L1407.73 551.637L1406.39 551.212L1387.45 564.791L1370.55 576.646L1362.87 581.201L1352.61 588.075L1350.29 589.608L1349.14 590.331L1332.97 600.505L1305.79 615.319L1294.93 621.023L1287.82 624.811L1284.63 626.535L1282.16 627.131L1265.77 633.282L1253.98 640.434L1244.19 645.733L1230.46 651.501L1221.57 655.268L1220.61 655.673L1205.13 662.1L1194.34 665.314L1177.98 670.976L1171.08 673.21L1157.48 677.51L1142.88 681.958L1136.35 683.831L1127.58 686.13L1107.7 686.726L1095.52 689.705L1083.28 683.171L1073.32 670.082L1064.47 649.649L1048.93 622.598L976.717 622.959L975.589 624.769L974.567 626.471L973.673 628.068L972.907 629.536L972.269 630.92L971.8 632.197L971.46 633.41L971.247 634.538L971.205 635.602L971.29 636.602L971.524 637.56L971.928 638.497L972.46 639.369L973.12 640.221L973.95 641.029L974.908 641.817L975.993 642.583L1029.16 627.28L1048.93 622.598L1076.01 621.278L1102.18 621.235L1117.38 622.598L1123.06 621.938L1178.91 614.829L1185.49 614.787L1189.7 613.041L1195.07 612.552L1196.88 612.339L1198.92 611.615L1228.97 604.89L1232.19 603.953L1239.1 602.335L1248.17 601.335L1260.62 597.951L1266.79 597.078L1268.13 597.589L1272.05 594.099L1272.26 593.907L1273.71 592.928L1276.12 591.417L1282.76 588.437L1298.49 583.031L1314.94 577.412" stroke="white" stroke-width="2.12838" stroke-linecap="round" stroke-linejoin="round"/>
</g>
<g style="mix-blend-mode:overlay">
<path d="M45.7221 -769L189.005 -737.01L197.986 -735.01L285.973 -728.923L380.899 -719.685L424.573 -701.743L656.843 -606.371L673.913 -599.347L689.173 -593.09L699.347 -588.897L756.388 -557.546L954.582 -448.594L974.568 -437.611L1050.61 -411.156L1127.75 -381.529L1204.73 -348.73L1280.14 -312.995L1352.78 -274.556L1421.14 -233.862L1484.25 -191.316L1540.87 -147.577L1590.44 -103.073L1632.19 -58.6111L1666.16 -14.5111L1692.04 28.4821L1710.31 70.1558L1721.1 109.914L1725.16 147.735L1722.95 183.151L1715.22 216.311L1706.92 236.318L1702.54 246.896L1685.64 275.204L1667.23 298.126L1661.97 305.256L1661.23 306.257L1659.95 307.959L1658.59 310.13L1656.67 313.706L1627.58 346.334L1594.03 383.304L1583.67 395.542L1573.58 407.461L1565.87 416.549L1561.38 421.849L1532.39 446.964L1497.3 475.654L1487.4 485.339L1479.55 493.852L1471.67 502.366L1462.95 510.241L1462.14 510.858L1456.82 514.944L1453.03 515.689L1442.98 521.649L1425.93 535.994L1405.01 548.19L1398.97 550.403L1361.02 574.496L1357.63 575.603L1346.88 586.415L1335.75 594.46L1331.75 599.143L1314.45 609.827L1299.76 617.021L1277.33 626.94L1271.37 629.877L1267.16 631.941L1256.34 635.985L1226.59 647.074L1225.4 649.756L1203.52 660.93L1188.24 668.4L1180.85 669.188L1154.16 671.486L1142.94 675.807L1131.45 679.766L1119.68 683.448L1107.7 686.726L1092.39 680.958L1079.39 668.571L1067.45 648.819L1048.93 622.598L1047.04 622.257L992.106 599.249L928.893 566.706L854.25 529.971L767.625 488.51L668.613 443.601L558.874 397.181L556.81 379.601L555.064 362.084L553.064 344.504L550.978 327.051L548.871 309.875L546.955 293.125L545.38 276.97L544.38 261.582L544.103 247.109L544.848 233.679L546.827 221.462L550.318 210.522L555.533 201.008L562.769 193.006L572.262 186.578L584.266 181.789L726.186 264.69L740.297 263.157L854.719 347.228L868.319 348.079L908.992 387.752L947.622 425.425L949.623 427.362L950.645 428.362L984.443 473.547L1004 499.684L1004.98 501.003L1005.49 501.663L1012.5 503.259L1033.63 552.638L1038.12 566.557L1048.21 621.619L1048.93 622.598L1079.05 619.597L1105.06 619.639L1119.55 620.384L1122.02 619.81L1185.19 611.019L1195.26 610.806L1195.9 611.445L1196.17 611.934L1196.77 612.36L1200.37 611.594L1227.06 606.124L1234.23 602.676L1243.11 597.462L1262.56 590.672L1264.6 592.332L1265.99 593.609L1266.82 594.567L1267.11 595.248L1266.92 595.716L1265.37 596.078L1264.9 596.248L1251.85 599.1L1243.96 601.229L1233.66 605.698L1223.38 608.806L1216.88 611.232L1203.62 613.978L1197.58 614.361L1189.68 618.511L1175.1 622.023L1163.18 622.768L1154.27 621.363L1152.01 620.384L1150.82 621.023L1144.94 621.533L1141.96 621.299L1138.24 622.108L1132.32 622.619L1128.64 621.938L1127 621.15L1125.96 621.533L1122.36 621.725L1117.98 621.448L1115.21 622.193L1114.1 622.576L1112.98 623.045L1111.78 623.577L1110.57 624.215L1109.29 624.939L1108 625.748L1106.63 626.663L1105.23 627.642L1103.76 628.706L1102.23 629.834L1100.63 631.047L1098.95 632.303L1097.2 633.601L1095.35 634.921L1093.44 636.283L1091.42 637.645L1089.31 639.007L1087.07 640.348L1084.78 641.668L1082.35 642.945L1048.93 622.598L1047.98 621.746L1010.96 574.198L958.69 516.37L885.729 453.37L791.485 385.773L676.51 315.983L544.103 247.109L400.885 182.683L398.671 167.316L397.777 153.141L398.437 140.265L400.991 128.771L405.78 118.768L413.123 110.34L423.339 103.529L584.266 181.789L598.951 178.703L616.574 177.341L658.525 203.094L754.025 261.667L756.558 263.221L775.011 264.839L795.699 268.031L818.558 272.756L843.502 278.971L870.405 286.591L889.092 304.81L949.857 364L953.561 367.618L955.881 369.895L956.966 370.938L978.271 378.834L1000.36 387.582L1023.14 397.117L1046.25 407.27L1073.13 475.378L1073.3 475.782L1079.31 534.27L1067.64 581.775L1048.93 622.598L1061.45 650.373L1067.17 671.401L1074.03 685.129L1083.22 692.281L1097.01 693.26L1112.32 689.918" stroke="white" stroke-width="2.12838" stroke-linecap="round" stroke-linejoin="round"/>
</g>
<g style="mix-blend-mode:overlay">
<path d="M-580 -676.245L-432.312 -664.305L-35.3693 -586.364L88.5448 -549.138L349.527 -470.75L353.634 -469.516L414.251 -466.195L545.125 -410.56L748.172 -324.254L754.089 -321.742L847.716 -269.384L1013.56 -176.672L1022.78 -171.521L1082.28 -127.379L1214.95 -29.0265L1217.42 -27.1962L1217.48 -27.1323L1251.04 7.45383L1344.08 103.295L1344.42 103.657L1359.95 128.516L1415.61 217.567L1415.89 218.036L1421.02 235.744L1443.79 314.749L1443.88 314.983L1439.7 395.564L1412.25 460.969L1368.62 513.071L1313.96 553.255L1252.15 583.159L1187.38 604.89L1119.06 617.681L1117.68 616.745L1110.19 616.809L1081.16 618.426L1048.93 622.598L1047.85 621.81L1020.71 567.622L976.164 503.515L907.651 432.895L814.13 356.976L695.644 278.482L555.532 201.009L400.991 128.771L242.639 65.8991L93.0783 15.6906L85.4801 13.5836L-35.2841 -20.0022L-35.4545 -20.0661L-132.317 -41.286L-133.189 -41.4776L-146.258 -56.3124L-211.663 -64.9961L-229.563 -79.3627L-247.718 -93.5164L-284.56 -91.1539" stroke="white" stroke-width="2.12838" stroke-linecap="round" stroke-linejoin="round"/>
</g>
<g style="mix-blend-mode:overlay">
<path d="M-580 -419.308L-449.105 -409.091L-178.631 -360.479L104.082 -284.858L364.978 -192.38L373.492 -189.379L604.634 -85.365L610.976 -82.513L800.87 25.0339L804.936 27.3326L882.834 46.5306L958.243 66.4309L1077.5 171.849L1079.37 173.488L1155.48 268.435L1156.35 269.542L1196.81 352.655L1197.2 353.443L1232.23 369.193L1264.73 384.326L1294.27 398.543" stroke="white" stroke-width="2.12838" stroke-linecap="round" stroke-linejoin="round"/>
</g>
<g style="mix-blend-mode:overlay">
<path d="M-580.001 -261.722L-451.702 -261.616L-276.792 -240.247L-69.8495 -196.424L-17.8747 -201.723L43.827 -204.767L115.149 -205.171L194.708 -202.809L281.588 -197.488L373.492 -189.379L468.928 -178.524L565.11 -165.434L660.589 -150.408L752.662 -134.19L840.437 -117.099L921.762 -99.9867L996.468 -83.0874L1063.21 -67.1671L1122.47 -52.2685L1173.59 -39.0087L1217.41 -27.1962L1253.83 -17.2779L1283.86 -8.93466L1307.72 -2.40059L1326.39 2.70758L1340.33 6.32578L1350.37 8.85855L1350.52 9.07141L1360.61 18.6066L1403.46 71.8373" stroke="white" stroke-width="2.12838" stroke-linecap="round" stroke-linejoin="round"/>
</g>
<g style="mix-blend-mode:overlay">
<path d="M-580 -535.708L-469.878 -526.918L-141.064 -465.664L180.768 -375.442L190.643 -372.675L288.293 -368.482L382.474 -362.416L472.1 -354.818L554.596 -346.56L839.48 -208.172L843.076 -206.427L1061.19 -68.4444L1063.21 -67.1673L1213.41 59.4712L1216.22 61.8337L1217.67 63.0682L1311.85 176.404L1313.58 178.469L1314.24 179.278L1364 279.248L1364.36 279.95L1378.3 364.83L1365.68 435.066L1333.75 491.851L1288.55 536.781L1234.4 571.091L1174.76 596.142L1113.23 613.68L1080.88 618.596" stroke="white" stroke-width="2.12838" stroke-linecap="round" stroke-linejoin="round"/>
</g>
<g style="mix-blend-mode:overlay">
<path d="M-580 -659.154L-487.309 -653.088L-100.306 -582.448L-20.3007 -559.631L279.971 -473.943L284.568 -472.623L353.634 -469.516L447.9 -431.013L676.807 -337.471L696.09 -329.596L758.707 -296.01L965.649 -185.037L971.417 -181.929L1007.77 -156.24L1172.66 -39.6685L1173.59 -39.0087L1190.3 -22.8118L1306.59 89.7795L1308.81 91.9079L1314.6 100.379L1387.05 206.351L1387.37 206.798L1388.09 208.884L1421.55 304.49L1421.72 304.937L1422.55 386.688L1399.26 453.562L1358.85 506.942L1306.81 548.53L1247.08 579.647L1184.38 602.783L1119.45 618.235L1103.67 620.427L1076.03 621.278L1048.93 622.598L1047.89 621.789L1018.16 568.835L971.375 505.856L901.308 436.726L807.064 362.552L688.896 285.973L550.318 210.522L398.437 140.265L243.682 79.1163L235.935 76.4984L98.2287 30.2275L92.3331 28.5673L-25.9622 -4.72055L-26.0899 -4.76309L-26.7283 -4.9121L-118.887 -25.685L-120.1 -25.9617L-178.354 -35.1138L-199.787 -34.9861" stroke="white" stroke-width="2.12838" stroke-linecap="round" stroke-linejoin="round"/>
</g>
<g style="mix-blend-mode:overlay">
<path d="M-580 -752.463L-549.926 -755.23L-490.566 -760.678L-444.486 -768.191L-140.235 -738.373L-44.3086 -716.94L83.9688 -688.313L198.178 -662.815L200.455 -662.305L201.945 -661.964L459.649 -574.275L468.694 -571.21L540.357 -546.819L542.89 -545.967L764.56 -442.677L842.565 -406.346L846.226 -404.643L848.12 -403.749L886.24 -392.639L1050.3 -286.369L1053.51 -284.283L1057.23 -281.857L1059.02 -280.686L1118.38 -242.248L1121.51 -240.205L1123.23 -239.098L1154.44 -225.668L1188.75 -210.152L1267.35 -132.7L1271.8 -128.316L1281.65 -118.61L1304.06 -96.539L1312.45 -88.2597L1323.45 -77.4262L1323.56 -77.3198L1327.58 -73.361L1339.22 -61.889L1364.19 -45.5218L1382.75 -15.9373L1422.55 47.4671L1446.83 86.1823L1447.79 87.7147L1463.75 103.699L1480.1 121.258L1496.47 140.371L1505.09 203.435L1511.26 248.684L1518.77 265.945L1525.37 284.249L1530.73 303.468L1534.57 323.411L1536.54 343.865L1536.48 364.681L1534.1 385.602L1496.91 438.152L1492.85 443.92L1492.04 445.048L1486.21 453.264L1450.66 487.488L1445.88 488.786L1445.07 489.765L1444.43 490.553L1442.49 494.32L1433.81 508.474L1422.29 520.861L1404.46 537.377L1376.72 558.618L1372.66 561.747L1369.49 564.173L1339.01 581.2L1327.62 586.947L1317.24 596.227L1303.98 604.442L1293.29 612.956L1261.96 625.109L1259.43 626.237L1257.9 626.918L1246.34 632.431L1214.22 640.284L1213.35 640.561L1204.58 646.137L1194.9 649.458L1158.08 654.864L1122.64 651.096L1117.87 653.714L1112.89 656.226L1083.56 642.306L1048.93 622.597L1048.38 621.512L1046.87 570.069L1048.29 569.345L1038.76 524.075L1035.69 511.581L1035.42 511.049L1034.84 509.942L1018.26 478.208L999.406 442.111L997.32 439.514L995.064 436.705L991.914 432.789L936.704 364.063L935.427 362.914L932.766 360.466L928.594 356.657L869.404 302.617L843.502 278.971L841.416 277.502L837.138 274.437L742.383 207.01L717.885 189.558L714.841 187.834L708.69 184.3L699.389 178.98L687.066 171.913L580.392 110.786L561.321 99.8677L528.183 95.8238L524.032 93.9508L515.902 90.2687L363.595 21.3731L346.845 13.7961L318.963 14.5197L296.083 17.0312L277.928 21.2667L102.592 -39.3708L-57.5259 -83.7474L-189.166 -110.778L-283.049 -121.718L-298.863 -136.02L-360.756 -134.339L-380.209 -122.335L-415.136 -137.851L-450.169 -154.644" stroke="white" stroke-width="2.12838" stroke-linecap="round" stroke-linejoin="round"/>
</g>
<g style="mix-blend-mode:overlay">
<path d="M-580 -391.021L-501.91 -387.51L-253.188 -349.412L15.9032 -284.262L272.351 -200.51L281.589 -197.488L503.366 -105.053L522.776 -96.9435L721.737 7.0065L726.42 9.45412L883.175 112.829L886.027 114.702L997.213 209.713L1000.45 212.459L1002.17 213.949L1077.79 302.957L1078.62 303.936L1121.43 382.644L1121.79 383.304L1138.05 451.497L1133.81 508.857L1114.55 555.958L1084.97 593.609L1048.93 622.597L1047.55 621.98L1008.69 576.475L954.944 520.903L881.451 460.394L787.76 395.372L674.338 328.115L544.38 261.582L543.337 261.114L404.055 199.114L400.608 197.773L262.327 144.01L262.263 143.989L259.879 143.18L130.24 99.1866L129.601 98.9737L129.303 98.8673L15.9671 65.4517L15.3285 65.2602L-70.3174 43.6146L-71.5305 43.2953L-126.06 31.7596L-146.811 28.4818" stroke="white" stroke-width="2.12838" stroke-linecap="round" stroke-linejoin="round"/>
</g>
<g style="mix-blend-mode:overlay">
<path d="M687.683 -769L759.41 -737.947L1001.09 -597.07L1026.29 -582.384L1043.17 -572.529L1233.48 -424.65L1252.09 -410.177L1264.45 -400.578L1412.72 -242.844L1421.14 -233.862L1514.49 -87.8975L1519.65 -79.8736L1567.19 50.2981L1569.81 57.4069L1582.84 176.873L1568.81 278.822L1564.09 291.38L1538.14 360.254L1536.48 364.681L1501.21 421.977L1492.61 435.96L1486.21 453.264L1477.93 470.504L1467.76 487.573L1455.77 505.835L1441.68 520.457L1425.93 535.994L1408.48 550.893L1370.25 575.88L1352.01 588.373" stroke="white" stroke-width="2.12838" stroke-linecap="round" stroke-linejoin="round"/>
</g>
<g style="mix-blend-mode:overlay">
<path d="M-580 -748.589L-577.595 -748.865L-532.772 -754.165L-235.011 -735.606L-134.403 -716.216L-54.0355 -700.7L26.9281 -685.099L110.382 -669.009L150.672 -656.515L228.571 -632.379L305.49 -608.541L385.219 -583.852L461.33 -560.248L462.82 -559.78L500.513 -553.48L542.89 -545.967L590.501 -536.985L791.335 -438.952L880.025 -395.682L883.515 -393.98L886.24 -392.639L928.701 -379.592L975.014 -364.459L1108.63 -267.98L1182.13 -214.94L1186.17 -212.003L1188.75 -210.152L1225.57 -192.55L1242.93 -174.118L1343.99 -66.9329L1348.18 -62.4846L1364.19 -45.5214L1390.45 -27.26L1417.63 -7.08292L1445.13 14.9245L1471.31 78.8823L1493.74 133.688L1495.34 137.626L1496.47 140.371L1512.34 160.889L1527.31 182.705L1540.84 205.627L1552.53 229.444L1561.98 253.941L1568.81 278.822L1572.81 303.958L1573.73 328.945L1571.51 353.698L1570.13 355.763L1530.88 414.059L1525.99 421.338L1522.14 427.064L1482.44 468.12L1477.93 470.504L1453.2 491.213L1446.24 495.363L1436.4 505.728L1433.81 508.474L1422.29 520.861L1418.93 520.734L1417.48 521.926L1401.37 533.057L1395.92 532.61L1362.21 550.063L1360.76 551.978L1358.29 554.49L1357.74 554.809L1332.69 567.175L1325.94 567.813L1324.3 568.473L1323.51 568.792L1323.28 568.878L1263.58 591.502L1259.83 588.629L1256.36 586.117L1252.15 583.159L1247.08 579.647L1241.19 575.667L1234.4 571.091L1226.69 566.025L1218.05 560.385L1208.54 554.277L1198.07 547.615L1186.77 540.549L1174.57 533.036L1161.67 525.224L1148.03 517.137L1133.81 508.857L1119.08 500.471L1115.72 440.217L1115.55 439.77L1090.1 369.214L1089.63 368.512L1036.14 287.548L1035.08 286.442L1033.01 284.313L947.452 195.986L941.663 191.495L819.11 96.6542L809.597 90.8863L648.266 -6.89137L643.349 -9.27515L633.771 -13.915L437.407 -109.032L430.213 -111.799L417.102 -116.886L194.708 -202.809L185.492 -205.597L-63.6769 -280.516L-317.018 -335.513L-541.966 -363.842L-569.465 -338.748L-580 -320.487" stroke="white" stroke-width="2.12838" stroke-linecap="round" stroke-linejoin="round"/>
</g>
<g style="mix-blend-mode:overlay">
<path d="M-580 -489.097L-536.751 -506.422L-469.878 -526.918L-397.002 -544.073L-321.508 -557.95L-245.121 -568.698L-171.011 -576.786L-100.306 -582.447L-35.3692 -586.364L23.5443 -588.705L75.1575 -590.11L120.002 -590.642L354.869 -511.998L506.814 -461.109L511.241 -459.64L512.263 -459.172L703.71 -372.525L842.459 -309.738L844.396 -308.866L850.653 -305.12L987.636 -223.241L1100.63 -155.708L1102.08 -154.856L1121.04 -139.617L1198.69 -77.298L1283.16 -9.50921L1283.86 -8.93451L1284.57 -8.14702L1336.95 51.7455L1342.03 57.556L1397.69 121.195L1398.31 121.918L1400.52 126.069L1427.21 176.319L1458.37 234.999L1458.5 235.254L1467.01 279.163L1476.99 330.563L1465.1 409.185L1431.55 472.547L1383.13 522.543L1324.71 560.726L1259.83 588.629L1248.15 591.843L1191.02 607.486L1188.77 605.869L1186 603.911L1182.77 601.676L1179 599.058L1174.76 596.142L1169.95 592.843L1164.67 589.246L1158.84 585.287L1152.54 581.031L1145.75 576.455L1138.54 571.645L1130.88 566.558L1122.87 561.343L1114.55 555.958L1105.97 550.51L1097.18 545.04L1088.29 539.591L1088.71 483.849L1088.61 483.508L1069.58 417.954L1069.24 417.38L1025.12 341.865L1024.35 341.013L1022.73 339.162L949.602 256.283L948.112 255.027L945.153 252.558L837.99 162.826L835.499 161.208L830.519 157.952L687.662 64.6861L683.746 62.6216L676.339 58.7692L499.599 -33.5386L494.107 -35.8585L483.487 -40.3281L280.759 -125.634L273.246 -128.124L259.475 -132.742L43.8277 -204.767L-192.529 -264.638L-408.219 -301.054L-435.526 -281.665L-580 -286.794" stroke="white" stroke-width="2.12838" stroke-linecap="round" stroke-linejoin="round"/>
</g>
<g style="mix-blend-mode:overlay">
<path d="M-309.461 -105.116L-265.808 -107.585L-180.929 -97.7732L-58.1853 -72.6583L94.2919 -30.7931L264.051 27.1414L436.769 98.3995L598.952 178.703L740.297 263.157L756.558 263.221L800.36 296.466L866.595 346.76L868.319 348.08L883.346 350.208L921.124 388.902L955.923 424.531L958.754 427.447L960.712 429.447L961.67 430.426L992.446 474.527L1009.75 499.322L1011.13 501.302L1012.05 502.6L1012.5 503.26L1019.88 505.473L1027.63 508.261L1035.69 511.582L1044.04 515.37L1052.64 519.606L1061.41 524.203L1070.32 529.119L1079.31 534.27L1088.29 539.591" stroke="white" stroke-width="2.12838" stroke-linecap="round" stroke-linejoin="round"/>
</g>
<g style="mix-blend-mode:overlay">
<path d="M-580 -508.614L-536.751 -506.422L-228.626 -456.469L92.823 -374.25L387.837 -271.704L396.457 -268.703L641.71 -158.858L654.034 -153.345L660.589 -150.408L868.383 -31.8362L872.533 -29.4737L1022.67 81.0103L1027.8 84.7776L1030.54 86.7996L1136.54 191.878L1137.94 193.282L1201.84 286.697L1202.56 287.761L1232.23 369.193L1235.19 437.961L1218.08 494.703L1186.77 540.549L1145.75 576.454L1100.35 604.591L1048.93 622.598L1042.38 653.076L1035.52 675.509L1035.44 675.637L1026.8 691.153L1017.31 691.685L1008.15 701.071L1004.02 704.561L988.572 705.221L972.12 703.646L958.434 703.54L946.813 701.05L934.937 700.432L923.21 699.645L911.674 698.708L900.33 697.623L889.198 696.388L878.301 695.026L867.659 693.558L857.294 691.961L847.184 690.259L803.467 692.259L791.059 690.088L765.965 686.768L736.679 683.767L721.929 681.788L713.607 680.149L707.222 678.808L703.221 677.957L692.11 675.594L683.235 671.678L670.784 668.272L658.674 664.718L646.946 660.972L635.559 657.077L624.492 652.97L614.403 650.288L612.892 650.011L610.189 649.521L559.853 641.519L532.12 633.835L489.233 621.64L480.124 619.405L475.548 618.064L453.413 610.721L452.796 609.167L440.323 601.612L428.702 595.12L417.954 588.309L408.121 581.137L399.16 573.581L391.115 565.6L383.943 557.15L380.388 556.171L303.149 534.717L301.319 534.163L230.423 512.39L217.503 501.833L205.563 490.659L203.584 490L137.476 468.311L123.003 455.946L109.637 442.877L97.2712 429.085L85.8632 414.527L75.3065 399.203L65.5584 383.112L56.5127 366.256L48.0418 348.633L-23.7696 327.583L-32.4533 309.428L-81.7253 294.04L-104.243 283.76L-110.799 266.392L-115.545 248.641" stroke="white" stroke-width="2.12838" stroke-linecap="round" stroke-linejoin="round"/>
</g>
<g style="mix-blend-mode:overlay">
<path d="M-571.763 -748.589L-532.771 -754.165L-490.565 -760.678L-189.975 -736.968L-154.069 -729.54L-49.6081 -707.894L54.5973 -686.291L152.311 -666.051L153.524 -665.795L392.69 -588.386L396.436 -587.173L407.844 -583.469L412.74 -581.894L429.83 -576.361L437.982 -573.721L499.237 -553.906L500.514 -553.481L742.723 -445.104L810.214 -414.902L812.172 -414.029L814.109 -413.157L848.121 -403.749L978.59 -322.871L1039.72 -284.986L1091.48 -252.89L1093.42 -251.677L1095.12 -250.634L1123.23 -239.098L1243.62 -133.828L1246.74 -131.083L1253.81 -124.91L1270.86 -109.99L1275.97 -102.69L1275.8 -100.093L1276.39 -99.5826L1295.04 -88.8556L1316.13 -76.2981L1339.22 -61.889L1376.92 -7.31743L1409.23 39.4644L1432.02 72.4329L1432.7 73.4333L1457.73 141.839L1472.63 181.981L1478.4 195.921L1487.55 216.077L1494.76 232.019L1493.34 233.892L1500.51 251.153L1503.02 253.92L1505.49 293.444L1508.02 319.687L1509.68 341.353L1509.83 347.505" stroke="white" stroke-width="2.12838" stroke-linecap="round" stroke-linejoin="round"/>
</g>
<g style="mix-blend-mode:overlay">
<path d="M-580 -364.139L-541.966 -363.842L-501.91 -387.509L-449.105 -409.091L-384.955 -428.033L-310.675 -443.89H-310.526L-228.626 -456.469L-141.065 -465.663L-51.3535 -471.75L38.7195 -474.943L359.402 -369.971L375.344 -364.757L382.474 -362.415L665.527 -240.438L682.192 -233.244L918.229 -101.945L921.762 -99.9864L1091.73 23.119L1096.44 26.5244L1098.89 28.2909L1216.61 144.202L1217.86 145.437L1287.52 247.833L1288.23 248.855L1319.41 337.438L1321.02 411.867L1300.59 472.909L1264.69 522.053L1218.05 560.386L1164.67 589.246L1107.48 609.636L1090.12 613.489L1048.93 622.598L1048.12 621.661L1013.28 572.155L962.67 512.327L890.411 447.028L795.869 377.026L679.532 304.831L544.848 233.679L398.671 167.317L392.882 165.061L250.727 109.318L238.936 105.338L112.447 62.6004L112.276 62.5578L109.382 61.7277L-5.18893 28.674L-5.72102 28.5251L-93.3889 7.49669L-94.7298 7.17738L-149.599 -2.99627L-169.223 -4.5074" stroke="white" stroke-width="2.12838" stroke-linecap="round" stroke-linejoin="round"/>
</g>
<g style="mix-blend-mode:overlay">
<path d="M-580 -640.659L-544.435 -638.977L-171.011 -576.786L-137.148 -567.677L201.732 -476.646L208.522 -474.815L284.569 -472.623L338.012 -451.765L618.086 -342.452L629.771 -337.897L658.525 -323.169L902.905 -198.062L909.078 -194.912L911.291 -193.784L919.954 -187.974L1117.25 -55.759L1120.7 -53.4604L1122.47 -52.2685L1263.22 75.2852L1265.62 77.4775L1266.5 78.2437L1352.06 191.75L1353.72 193.964L1395.2 293.189L1402.24 376.515L1383.75 444.857L1347.29 499.918L1298.32 542.996L1241.19 575.667L1180.89 600.378L1116.08 615.638L1111.83 614.552L1084.46 616.617L1048.93 622.598L1047.74 621.874L1015.67 570.346L966.884 508.815L895.584 441.473L801.02 369.257L683.597 294.785L546.828 221.462L397.777 153.141L246.492 93.6105L240.235 91.5035L104.763 45.8497L103.657 45.5518L100.528 44.6578L-15.6601 11.5828L-16.1286 11.4338H-16.1922L-105.989 -9.48811L-107.18 -9.76481L-163.391 -19.3637L-183.398 -20.0661" stroke="white" stroke-width="2.12838" stroke-linecap="round" stroke-linejoin="round"/>
</g>
<g style="mix-blend-mode:overlay">
<path d="M-415.137 -137.851L-385.68 -149.961L-312.208 -150.6L-215.197 -138.298L-196.126 -135.893L-66.1887 -108.096L-43.8407 -103.307L132.815 -52.5027L155.993 -56.8659L185.194 -59.5902L375.131 13.0727L380.09 14.9669L389.667 19.4365L537.356 88.6301L549.274 94.2064L557.298 97.9737L561.321 99.8679L598.717 105.827L640.092 113.681L685.235 123.408L810.639 207.16L817.876 211.991L822.516 215.077L824.729 216.567L864.977 228.592L906.736 241.873L991.594 328.009L992.573 328.988L1044.82 405.205L1046.25 407.27L1069.58 417.954L1092.8 428.958L1115.72 440.217L1138.05 451.497L1159.65 462.756L1180.27 473.76L1199.81 484.466L1218.07 494.703L1235.04 504.473L1250.55 513.561L1264.69 522.053L1277.31 529.758L1288.55 536.781L1298.31 542.996L1306.81 548.53L1313.96 553.255L1319.92 557.363L1324.71 560.726L1328.45 563.514L1332.69 567.175L1330.71 569.984" stroke="white" stroke-width="2.12838" stroke-linecap="round" stroke-linejoin="round"/>
</g>
<g style="mix-blend-mode:overlay">
<path d="M-539.199 -171.82L-515.531 -192.806L-444.635 -202.341L-326.893 -195.913L-168.116 -170.373L19.7345 -124.698L55.4912 -128.976L257.645 -61.506L263.498 -59.5479L434.662 11.5399L448.73 17.393L462.927 23.2673L618.107 102.464L629.196 108.126L636.496 111.85L640.093 113.681L778.863 201.136L784.056 204.414L786.589 206.01L792.719 210.863L881.089 281.227L888.666 287.25L894.03 291.528L897.414 294.231L899.01 295.508L909.993 307.044L972.226 372.47L975.398 375.812L977.356 377.877L978.271 378.834L990.743 397.713L1026.44 451.774L1027.39 453.221L1027.82 453.86L1038.04 480.933L1052.49 519.222L1052.64 519.605L1056.08 556V574.645L1048.66 622.065L1048.29 621.576L1048.21 621.618L1048.15 621.64L1048.1 621.682L1047.63 621.938L988.359 605.06L922.891 578.476L847.801 547.615L762.496 511.879L666.357 472.355L571.602 435.045L560.428 430.66L560.045 430.511L447.049 388.54L446.304 388.242L445.857 388.093L328.179 347.207L327.796 347.058L211.757 309.534L211.48 309.449L103.656 276.949L96.3773 255.708L88.8003 234.147L80.8828 212.352L72.646 190.515L63.9834 168.721L54.9804 147.118L-32.4534 123.429L-33.0707 123.259L-92.9845 108.509L-121.952 101.528" stroke="white" stroke-width="2.12838" stroke-linecap="round" stroke-linejoin="round"/>
</g>
<g style="mix-blend-mode:overlay">
<path d="M-284.56 -91.1543L-260.722 -77.3624L-229.562 -79.3631L-158.858 -70.6155L-53.056 -48.5229L-50.6935 -48.0333L88.3748 -9.93537L247.407 43.5933L413.123 110.339L572.262 186.578L714.118 267.775L831.796 349.526L842.566 347.717L931.042 427.17L940.428 427.276L950.645 428.362L961.67 430.426L973.503 433.448L986.125 437.365L999.406 442.111L1013.35 447.645L1027.82 453.86L1042.72 460.692L1057.91 468.035L1073.3 475.782L1088.71 483.848L1104.04 492.128L1119.08 500.471" stroke="white" stroke-width="2.12838" stroke-linecap="round" stroke-linejoin="round"/>
</g>
<g style="mix-blend-mode:overlay">
<path d="M-580 -260.02L-565.719 -237.352L-543.243 -214.323L-515.532 -192.805L-483.968 -172.948L-450.169 -154.644L-408.687 -166.477L-322.168 -165.477L-218.708 -151.408L-192.933 -147.918L-29.2184 -111.65L155.993 -56.8659L346.845 13.7963L380.09 14.9669L418.741 18.0956L462.927 23.2676L512.326 30.5253L566.706 39.8902L625.343 51.277L687.662 64.6858L752.514 79.8399L819.111 96.6541L886.027 114.703L952.539 133.816L1017.16 153.482L1079.37 173.489L1137.94 193.282L1192.7 212.715L1245.17 305.235L1264.73 384.326L1259.05 450.369L1235.04 504.473L1198.07 547.615L1152.54 581.03L1100.35 604.592L1095.57 601.165L1092.16 598.739L1088.63 596.206L1084.97 593.609L1081.2 590.949L1077.39 588.288L1073.49 585.649L1069.6 583.031L1065.7 580.498L1061.81 578.072L1061.41 524.203L1061.32 523.883L1049.08 482.316L1042.72 460.692L1042.4 460.117L1041.68 458.883L1007.37 399.65L1000.36 387.582L999.64 386.752L998.022 384.9L932.426 309.407L929.148 305.64L927.764 304.469L924.891 302L920.251 298.041L824.73 216.567L786.589 206.01L750.832 196.965L717.885 189.558L687.854 183.875L660.951 179.916L637.198 177.745L633.835 176.021L508.665 111.148L474.484 93.4403L453.732 95.0152L277.928 21.2669L264.051 27.1412L254.026 34.6118L247.407 43.5936L243.767 54.0439L242.639 65.899L243.682 79.1162L246.492 93.6105L250.727 109.318L256.069 126.153L399.629 182.194L400.884 182.683L404.056 199.114L408.014 216.46L412.441 234.594L417.188 253.324L422.019 272.522L426.808 291.997L431.384 311.599L435.662 331.159L439.536 350.506L442.941 369.533L445.857 388.093L448.815 406.269L560.321 446.538L560.704 446.687L664.824 486.083L759.708 523.032L844.523 556.065L919.953 584.138L986.571 607.848L1047.34 622.108L1048.93 622.598L1075.39 621.619L1102.97 620.81L1116.93 621.448L1117.89 621.321L1121.15 621.15L1121.87 621.278L1122.85 621.172L1123.02 621.001L1123.11 620.788L1176.12 615.255L1179.81 613.914L1183.85 611.807L1188.47 610.721L1194.28 611.296L1194.77 612.616L1195.79 612.467L1196 611.934L1230.53 603.527L1234.21 603.166L1238.74 600.548L1265.3 592.971L1278.54 590.629L1290.27 587.99L1314.79 577.561L1314.94 577.412L1316.17 576.263L1317.13 575.22L1318.7 574.603L1331.9 568.707L1334.18 568.665L1334.5 569.537L1334.2 570.091L1324.96 573.602L1315.75 577.114L1315.21 577.306L1315.13 577.348L1314.79 577.561L1308.38 584.031L1301.47 590.778L1293.99 597.802L1285.93 604.975L1277.24 612.275L1267.9 619.597L1257.9 626.918L1246.34 632.431L1236 641.2L1224.1 648.011L1211.65 654.587L1198.64 660.823L1186.7 667.57L1177.78 671.38L1161.86 676.382L1155.1 678.361L1142.3 681.937L1127.41 686.172L1112.32 689.918L1096.29 691.493L1081.6 696.133L1066.11 698.623L1058.32 696.474L1055.25 688.279L1054.64 673.53L1052.06 652.033L1048.93 622.598L1088.63 596.206L1122.87 561.343L1148.03 517.137L1159.65 462.756L1152.35 397.373L1121.79 383.304L1090.1 369.214L1057.79 355.358L1025.12 341.865L992.573 328.988L960.414 316.856L929.148 305.64L899.01 295.508L870.405 286.591L868.553 285.207L864.679 282.313L858.635 277.758L766.646 208.798L750.832 196.965L748.065 195.283L742.34 191.856L733.507 186.578L721.546 179.405L706.519 170.402L608.124 111.468L598.717 105.827L594.865 103.933L587.139 100.166L575.454 94.4831L559.917 86.9061L418.741 18.0956L413.867 16.1588L404.226 12.3277L220.972 -60.5267L185.194 -59.5902L-8.25389 -118.823L-29.2184 -111.65L-43.8404 -103.307L-53.0138 -93.9848L-63.4853 -96.1557L-194.487 -123.505L-199.255 -124.059L-298.863 -136.02L-312.208 -150.6L-322.168 -165.477L-327.447 -180.631L-326.893 -195.913L-319.061 -211.152L-302.8 -226.072L-111.842 -189.166L99.3356 -131.487L295.742 -62.5061L307.044 -58.526L312.982 -56.4402L485.147 18.6703L507.771 28.5247L512.326 30.5253L650.713 104.848L664.846 112.468L675.19 118.002L681.894 121.599L685.236 123.408L733.635 134.922L784.822 148.14L837.989 162.825L892.54 178.895L947.452 195.986L1002.17 213.949L1055.59 232.338L1107.31 251.047L1156.35 269.542L1202.56 287.761L1245.17 305.235L1284.29 321.922L1294.27 398.543L1321.02 411.867L1344.71 423.999L1365.68 435.066L1383.75 444.857L1399.26 453.562L1412.25 460.969L1422.97 467.332L1431.55 472.547L1438.23 476.825L1443.15 480.124L1446.56 482.635L1448.56 484.423L1449.39 485.615L1449.17 486.296L1445.07 489.766L1396.05 532.972L1390.18 535.76L1360.76 551.978L1333.82 568.473L1326.64 572.538L1316.98 576.22L1315.96 576.625L1315.6 576.752L1292.59 585.521L1276.12 591.417L1275.16 591.97L1273.9 593.056L1272.77 593.481L1270.43 594.46L1267.73 596.525L1267.22 598.206L1261.88 602.804L1249.79 608.103L1226.97 615.021L1209.26 619.32L1204.73 622.853L1199.96 626.578L1194.92 630.451L1168.14 633.005L1148.78 633.75L1102.18 629.877L1048.93 622.598L1024.75 653.033L1021.65 652.863L1018.56 652.65L1015.54 652.395L1012.58 652.097L1009.66 651.756L1006.83 651.373L1004.07 650.969L1001.41 650.522L998.81 650.054L996.298 649.564L993.893 649.032L991.594 648.5L989.402 647.925L987.295 647.329L985.316 646.712L983.443 646.074L981.697 645.435L980.08 644.754L978.59 644.052L977.228 643.328L975.993 642.583L901.819 655.332L899.627 653.821L824.048 659.483L821.005 657.205L818.344 654.843L816.11 652.374L814.279 649.82L812.853 647.159L811.64 644.35L759.431 641.285L730.378 639.582L728.953 637.539L728.42 631.601L728.229 627.238L728.527 622.598L729.293 617.66L730.528 612.36L732.145 606.699L734.146 600.611L736.444 594.077L739.02 587.054L741.787 579.498L744.724 571.453L747.746 562.833L750.79 553.681L753.833 543.975L756.834 533.759L759.708 523.032L762.496 511.879L765.135 500.344L767.625 488.51L770.009 476.442L772.308 464.268L774.564 452.072L776.82 440.004L779.182 428.17L781.715 416.698L784.546 405.737L787.76 395.372L791.484 385.773L795.869 377.025L801.019 369.257L807.064 362.552L814.13 356.976L822.346 352.613L831.796 349.527L922.486 428.085L931.042 427.17L992.616 500.407L998.852 500.705L1027.78 551.829L1034.86 565.834L1048.4 621.512L1048.93 622.598L1076.24 621.15L1101.38 621.682L1101.61 621.555L1102.1 621.278L1118.79 620.703L1122.83 621.895L1128.24 621.768L1129 620.874L1130.13 621.235L1132.92 621.15L1133.73 621.427L1138.05 621.299L1139.88 620.725L1141.01 620.618L1143.54 621.831L1152.95 623.385L1162.59 622.087L1164.1 621.172L1165.25 621.789L1175.89 617.851L1177.23 614.787L1180.74 613.935L1183.4 613.829L1185.64 611.785L1192.85 608.848L1194.28 611.296L1195.79 612.467L1196.11 612.318L1197.28 612.126L1199.83 613.063L1209.77 614.595L1213.54 616L1217.63 612.914L1231.12 609.189L1246.6 603.038L1248.7 599.484L1254.02 597.972L1261.11 596.653L1267.65 596.482L1276.75 592.587L1289.21 587.224L1295.08 583.627L1313.68 575.007L1321.56 571.921L1333.86 568.622L1336.2 569.516L1341.78 566.77L1346.71 563.833L1353.72 559.662L1355.23 557.831L1355.44 557.703L1358.08 555.979L1380.73 542.783L1394.65 534.717L1395.94 534.121L1396.28 533.482L1395.79 532.461L1394.35 530.907L1391.86 528.821L1388.13 526.033L1383.13 522.543L1376.64 518.222L1368.62 513.071L1358.85 506.942L1347.29 499.918L1333.75 491.851L1318.26 482.912L1300.59 472.909L1280.93 462.097L1259.05 450.369L1235.19 437.961L1209.28 424.85L1197.2 353.443L1159.59 337.118L1120.02 320.581L1078.62 303.937L1036.14 287.548L992.871 271.564L949.602 256.282L906.736 241.873L905.033 240.554L901.5 237.851L896.115 233.7L784.822 148.14L782.013 146.416L625.343 51.277L621.235 49.2764L431.618 -43.4997L425.85 -45.777L414.995 -50.055L212.246 -130.018L204.903 -132.317L-17.8742 -201.723L-240.311 -253.273L-435.526 -281.665L-451.701 -261.616L-457.555 -241.439L-454.788 -221.581L-444.635 -202.34L-428.843 -183.93L-408.687 -166.477L-385.679 -149.961L-360.756 -134.339L-335.151 -119.44L-309.462 -105.116L-284.56 -91.154L-282.751 -81.0868L-267.469 -74.1057L-265.554 -73.2331L-265.021 -72.9777L-263.425 -72.254L-255.401 -68.5932L-254.614 -68.2101L-253.571 -67.6993L-241.545 -63.5064H-238.566L-227.988 -55.4611L-225.987 -53.6307L-220.538 -50.502L-218.687 -49.4378L-216.516 -48.1608L-212.089 -44.6703L-210.812 -43.6912L-203.171 -37.6679L-200.17 -35.3054L-199.787 -34.9862L-196.445 -31.9425L-189.315 -25.4297L-188.911 -25.0891L-188.74 -24.9189L-187.825 -24.0888L-183.398 -20.0662L-179.567 -15.852L-178.205 -14.3622L-173.799 -9.55201L-170.777 -6.23174L-169.521 -4.84831L-169.223 -4.50776L-166.733 -1.23004L-163.647 2.83517L-163.413 3.15441L-162.2 4.772L-160.284 7.28347L-158.432 9.7524L-157.006 11.6466L-146.811 28.4821L-138.34 45.9348L-131.593 63.9834L-126.166 82.5429L-121.952 101.528L-119.483 118.704L-119.845 137.327L-120.568 156.078L-121.122 174.872L-121.271 193.58L-120.547 212.161L-118.738 230.529L-115.546 248.642L-95.3897 257.283L-47.3948 271.415L-40.3286 290.677L32.4833 311.28L40.0603 330.286L130.793 356.444L137.455 374.556L238.659 404.482L243.448 421.104L248.301 436.875L253.281 451.795L258.602 465.885L264.306 479.145L270.585 491.638L277.524 503.387L285.207 514.455L371.108 538.42L372.109 538.718L377.642 548.211L383.942 557.15L468.311 578.413L469.29 578.668L473.845 586.139L556.596 604.145L558.853 604.634L643.285 619.937L645.839 625.194L648.181 630.047L651.182 634.644L656.162 637.177L659.12 643.222L664.058 647.244L669.613 651.118L675.786 654.821L696.112 656.141L748.385 659.525L749.108 659.568L754.046 662.462L827.496 661.696L831.327 663.824L904.288 656.779L907.013 658.184L978.59 644.052L1048.93 622.598L1098.91 632.324L1141.6 638.965L1183.91 638.518L1184.17 638.454L1211.56 632.899L1229.44 629.281L1230.89 628.77L1231.78 628.451L1259.94 618.426L1277.24 612.275L1278.35 611.722L1280.07 610.849L1281.82 609.955L1310.08 595.759L1327.62 586.947L1337.82 578.774L1380.22 552.659L1389.81 541.145L1394.41 534.781L1396.05 532.972L1446.75 486.062L1449.3 484.955L1492.61 435.96L1497.25 418.784L1500.21 401.864L1501.7 385.432L1501.79 379.984L1510.49 348.25L1509.83 347.505L1508.51 344.185L1508.02 319.687L1506.19 288.017L1511.26 248.684L1503.24 232.594L1502.41 228.571L1495.06 193.176L1480.1 121.258L1478.97 118.917L1453.73 67.0696L1417.63 -7.08308L1404.82 -23.429L1362.02 -78.0645L1305.15 -150.642L1289.76 -164.477L1283.48 -170.138L1208.11 -237.97L1133.94 -304.716L1128.51 -308.355L1120.45 -313.761L984.528 -404.771L900.691 -460.917L893.412 -464.599L882.494 -470.112L870.107 -476.391L695.069 -564.931L611.828 -607.03L602.612 -610.478L589.246 -615.48L574.347 -621.056L358.381 -701.85L285.973 -728.923L275.48 -731.604L128.665 -769" stroke="white" stroke-width="2.12838" stroke-linecap="round" stroke-linejoin="round"/>
</g>
<g style="mix-blend-mode:overlay">
<path d="M-131.594 63.9834L-107.479 69.0916L-50.9921 82.1811L-50.0769 82.4365L35.7606 105.04L36.3991 105.231L147.458 138.519L275.48 181.981L276.182 182.215L276.352 182.279L276.97 182.534L412.101 234.467L412.441 234.594L412.739 234.722L541.676 290.826L546.955 293.125L671.848 354.826L781.715 416.698L873.831 476.165L947.898 531.141L1005.39 580.243" stroke="white" stroke-width="2.12838" stroke-linecap="round" stroke-linejoin="round"/>
</g>
<g style="mix-blend-mode:overlay">
<path d="M-494.184 -152.09L-483.968 -172.948L-428.843 -183.93L-327.447 -180.631L-216.495 -164.264L-183.994 -159.454L-8.25416 -118.823L19.7341 -124.697L220.972 -60.5268L263.497 -59.5477L312.982 -56.4403L369.107 -51.1407L431.618 -43.4998L499.598 -33.539L572.325 -21.2795L648.265 -6.89168L726.419 9.45425L804.935 27.3326L945.068 128.431L949.921 131.942L952.538 133.815L1054.21 231.04L1055.59 232.338L1119.32 319.623L1120.02 320.581L1152.12 396.798L1152.35 397.373L1181.66 411.313L1209.28 424.85" stroke="white" stroke-width="2.12838" stroke-linecap="round" stroke-linejoin="round"/>
</g>
<g style="mix-blend-mode:overlay">
<path d="M-138.34 45.9346L-116.226 50.1275L-60.8881 62.4082L-59.9305 62.6636L25.6515 84.82L26.3964 85.0329L138.349 118.321L138.668 118.427L267.521 162.208L269.032 162.719L269.138 162.761L401.651 214.013L408.015 216.46L542.528 275.714L545.38 276.97L672.849 341.119L784.546 405.737L877.514 468.013L951.347 525.841L1006.47 578.966L1047.57 621.959L1048.93 622.597L1109.89 624.662L1115.04 623.896L1117.42 621.916L1118.57 621.555L1119.94 621.363L1120.7 621.193L1121.09 621.235L1121.7 621.171L1122.49 621.086L1122.81 621.044L1123.04 620.98L1123.15 620.937L1123.09 620.703L1122.87 620.448L1122.49 620.128L1120.51 621.171L1117.47 621.852L1102.4 621.129L1075.6 621.512L1048.93 622.597L1048 621.746L1002.19 584.414L944.558 536.739L870.362 484.679L779.183 428.17L671.21 369.086L549.871 310.364L549.148 310.002L548.871 309.875L548.573 309.747L417.316 253.388L417.188 253.324L416.315 253.004L284.462 202.711L283.781 202.455L283.462 202.328L283.313 202.285L156.973 159.441L156.568 159.292L46.1692 126.047L45.5519 125.855L-41.0305 102.677L-41.7117 102.486L-99.8163 88.5872L-126.166 82.5426" stroke="white" stroke-width="2.12838" stroke-linecap="round" stroke-linejoin="round"/>
</g>
<g style="mix-blend-mode:overlay">
<path d="M-522.3 -742.289L-500.228 -741.161L-484.415 -738.586L-460.023 -735.436L-456.746 -736.564L-445.806 -736.798L-422.032 -737.798L-393.086 -736.777L-355.626 -735.457L-312.633 -733.967L-304.737 -732.626L-264.787 -725.815L-226.37 -719.26L-192.891 -713.556L-154.58 -707.022L-115.375 -700.36L-68.7849 -692.421L-18.7893 -683.886L37.8468 -674.245L38.3578 -674.096L71.7945 -664.476L116.576 -651.578L161.506 -638.616L202.477 -626.825L248.365 -613.607L294.934 -600.177L347.185 -585.13L400.267 -569.848L401.31 -569.55L430.001 -565.102L462.82 -559.781L723.015 -447.53L780.438 -422.777L783.482 -421.457L784.503 -421.01L814.109 -413.157L1022.63 -288.881L1066.83 -262.531L1069.45 -260.956L1070.49 -260.36L1162.35 -186.868L1227.7 -134.573L1229.36 -133.254L1230.48 -132.338L1233.06 -130.274L1234.06 -129.486L1259.11 -109.458L1259.32 -109.267L1260.11 -108.65L1276.39 -99.5827L1332.31 -33.6456L1367.32 9.75207L1379.17 25.0763L1378.83 25.7361L1385.88 32.5895L1395.09 40.422L1406.12 49.8082L1418.67 60.7693L1432.7 73.4331L1447.79 87.7146L1466.8 144.329L1477.55 176.383L1486.68 203.605L1486.93 204.35L1487.4 213.182L1494.98 234.104L1499.06 244.257L1502.02 250.003L1502.04 251.536L1502.3 253.6L1503.79 254.409L1506.19 288.016" stroke="white" stroke-width="2.12838" stroke-linecap="round" stroke-linejoin="round"/>
</g>
<g style="mix-blend-mode:overlay">
<path d="M-580 -742.246L-568.464 -742.864H-566.974L-566.634 -742.842L-544.712 -743.055L-522.3 -742.289L-492.971 -739.245L-476.05 -738.543L-454.915 -737.99L-430.694 -736.351L-428.183 -735.989L-427.204 -735.861L-403.473 -733.712L-378.272 -734.478L-346.091 -733.924L-312.633 -733.967L-275.685 -734.627L-235.011 -735.606L-189.975 -736.968L-140.235 -738.373L-85.0882 -739.628L-24.1953 -740.352L43.104 -740.182L117.001 -738.564L197.986 -735.01L299.105 -700.488L509.73 -628.57L521.244 -624.653L529.162 -621.929L639.007 -570.55L813.811 -488.757L823.453 -484.244L829.987 -481.179L937.448 -414.497L1066.05 -334.704L1073.3 -330.192L1078.2 -327.149L1171.7 -249.676L1244.51 -189.336L1250.62 -184.271L1256.19 -179.673L1264.6 -172.692L1336.56 -89.5366L1378.96 -40.5413L1382 -37.0295L1390.45 -27.2602L1437.32 56.4489L1458.41 94.1425L1458.58 94.4617L1459.92 96.8455L1463.75 103.699L1473.71 140.052L1485.85 184.343L1494.64 216.418L1495 217.78L1503.24 232.593L1502.21 251.94L1498.94 252.153L1493.3 249.706L1484.97 246.236L1473.48 241.405L1458.5 235.254L1439.36 227.4L1415.89 218.035L1387.37 206.798L1353.72 193.963L1314.24 179.278L1269.16 163.145L1217.86 145.436L1160.95 126.685L1098.16 106.934L953.667 -9.99906L872.533 -29.4737L787.611 -48.2886L699.666 -66.2095L610.977 -82.5129L522.777 -96.9433L437.407 -109.033L356.103 -118.653L280.759 -125.634L212.246 -130.018L151.715 -131.891L-69.8491 -196.424L-111.842 -189.166L-144.427 -180.354L-168.116 -170.372L-183.994 -159.454L-192.933 -147.918L-196.126 -135.893L-194.487 -123.506L-189.166 -110.778L-180.929 -97.7734L-170.628 -84.3859L-58.8667 -61.4207L-55.6741 -60.7609L-50.6937 -48.0332L-43.7551 -34.4754L-35.4545 -20.0663L-26.0896 -4.76327L-16.1288 11.4337L-5.72101 28.5246L4.79318 46.4881L15.3287 65.2604L25.6513 84.8202L35.7611 105.04L45.5515 125.855L54.9804 147.118L55.4699 147.267L165.464 180.533L174.148 202.094L182.449 223.825L190.388 245.577L197.88 267.18L204.925 288.506L211.48 309.449L217.631 329.839L223.335 349.633L228.699 368.703L233.764 387.007L238.659 404.481L345.781 437.067L453.583 470.759L558.044 503.919L656.524 535.036L747.746 562.833L831.604 586.224L908.864 604.379L981.57 615.51L1047.91 622.47L1048.85 621.257L1044.85 568.473L1045.93 567.004L1045.4 565.344L1027.63 508.261L1027.29 507.686L1026.56 506.473L1009.26 476.889L986.125 437.365L985.337 436.471L983.698 434.555L981.144 431.618L977.696 427.638L973.397 422.679L917.591 358.253L899.776 353.634L883.345 350.208L881.664 348.888L816.45 297.509L775.011 264.838L772.52 263.263L767.668 260.199L677.723 203.371L637.198 177.745L616.574 177.341L453.732 95.0151L436.769 98.3992L423.339 103.529L254.026 34.6117L89.7367 -20.9602L-55.6741 -60.7609" stroke="white" stroke-width="2.12838" stroke-linecap="round" stroke-linejoin="round"/>
</g>
<g style="mix-blend-mode:overlay">
<path d="M-580 -338.386L-569.465 -338.748L-368.695 -319.21L-133.637 -273.875L115.149 -205.171L123.471 -202.191L335.032 -126.208L348.867 -121.249L356.103 -118.652L566.94 -23.6842L572.325 -21.2792L742.021 73.9445L748.98 77.8608L752.514 79.8401L885.963 174.234L890.262 177.277L892.54 178.895L989.083 268.053L991.637 270.415L992.871 271.564L1057.17 354.55L1057.79 355.359L1092.56 428.468L1092.8 428.958L1104.04 492.128L1097.18 545.04L1079.28 589.629L1048.93 622.598L1047.25 652.608L1045.63 652.757L1040.8 653.055L1040.7 653.246L1029.14 675.871L1029.03 675.999L1017.31 691.685L1007.88 692.004L998.469 692.132L989.147 692.089L979.91 691.898L970.779 691.536L961.776 691.046L952.879 690.408L944.153 689.663L935.575 688.812L927.19 687.833L918.974 686.768L910.971 685.619L903.181 684.363L895.626 683.044L847.184 690.259L837.393 688.45L791.059 690.089L778.884 689.152L766.816 687.513L756.068 682.852L745.192 680.192L734.763 677.425L724.802 674.53L723.653 674.424L684.618 672.551L681.383 673.189L678.638 672.083L663.037 669.593L650.947 667.698L635.027 664.101L619.596 660.355L604.719 656.397L593.8 653.353L589.842 652.182L576.688 647.989L563.62 643.52L551.212 638.859L539.484 633.985L528.502 628.919L518.264 623.641L508.814 618.107L500.173 612.339L492.341 606.273L485.338 599.909L481.635 599.015L408.121 581.137L403.119 579.732L337.033 561.109L329.903 558.747L275.289 540.719L270.244 538.676L257.261 533.355L247.854 528.417L206.372 511.369L187.578 501.536L187.28 501.387L180.299 498.066L154.014 485.53L148.033 480.252L104.508 460.075L87.3528 449.603L84.8839 448.007L67.3673 435.556L50.7022 422.275L35.3352 408.27L21.2027 393.542L8.28367 378.111L-3.48633 361.957L-14.1282 345.1L-23.7698 327.583L-72.914 311.706L-81.7255 294.04L-89.1749 275.885L-110.799 266.393" stroke="white" stroke-width="2.12838" stroke-linecap="round" stroke-linejoin="round"/>
</g>
<g style="mix-blend-mode:overlay">
<path d="M-120.568 156.079L-113.225 160.101L-75.8721 169.956L-9.87116 187.132L80.8829 212.353L81.2021 212.459L190.388 245.577L190.771 245.705L311.216 285.739L311.684 285.91L312.557 286.25L435.662 331.159L436.088 331.329L437.025 331.691L556.81 379.601L557.171 379.75L557.916 380.09L669.358 428.745L770.009 476.442L857.443 520.883L931.936 560.641L994.064 596.27L1048.15 621.661L1047.81 622.534L978.654 619.959L903.969 612.914L825.624 598.866L741.787 579.498L651.82 555.597L555.745 528.098L454.711 498.215L350.995 467.311L350.932 467.29L248.301 436.876L247.982 436.79L151.332 408.398L150.672 408.206L65.5586 383.113L64.4306 382.772L-3.48602 361.957L-50.8637 345.313L-72.9776 333.011" stroke="white" stroke-width="2.12838" stroke-linecap="round" stroke-linejoin="round"/>
</g>
<g style="mix-blend-mode:overlay">
<path d="M-580 -747.61L-571.763 -748.589L-567.4 -748.397L-544.861 -745.205L-513.765 -738.926L-504.656 -737.692L-474.624 -735.648L-468.92 -736.84L-457.682 -734.414L-344.985 -717.302L-251.506 -703.808L-195.722 -696.358L-160.497 -691.633L-155.091 -690.91L-136.276 -690.058L-117.482 -686.802L-111.225 -686.717L-105.329 -686.674L-90.1114 -686.483L-63.7621 -683.099L-43.7979 -681.034L-42.6698 -680.906L-18.9384 -678.799L7.60252 -676.522L37.8467 -674.245L71.8583 -671.733L110.382 -669.009L153.524 -665.795L201.945 -661.964L255.708 -657.196L493.086 -571.955L503.004 -568.4L587.607 -538.028L590.501 -536.985L643.03 -526.301L700.709 -513.616L946.026 -380.209L953.347 -376.229L959.179 -373.058L965.841 -369.44L975.014 -364.459L1025.05 -347.006L1197.98 -213.791L1202.2 -210.535L1212.88 -202.319L1218.16 -198.233L1222.52 -194.87L1225.57 -192.55L1264.6 -172.692L1305.15 -150.642L1346.59 -126.357L1404.2 -43.7338L1439.45 6.79392L1445.13 14.9243L1472.33 38.6984L1498.66 64.026L1523.43 90.7585L1546.1 118.683L1566.02 147.437L1582.84 176.873L1596.01 206.521L1605.4 236.254L1610.7 265.605L1611.97 294.444L1609.16 322.347L1575.37 374.046L1568.79 384.113L1557.53 401.331L1521.05 443.048L1512.96 449.497L1473.16 484.168L1467.76 487.573L1456.43 497.555L1421.8 528.055L1416.44 532.78L1412.06 536.632L1370.45 564.961L1359.21 575.795L1354.63 580.094L1344.63 586.82L1330.73 596.035L1301.38 610.423L1296.89 612.871L1293.89 614.531L1281.35 621.491L1251.83 632.197L1249.19 633.303L1247.26 634.112L1237.4 638.731L1236 641.2L1227.1 643.456L1196.47 651.309L1194.9 649.458L1165.01 650.841L1158.08 654.864L1150.8 658.78L1143.22 662.568L1112.89 656.226L1107.72 658.631L1102.36 660.908L1078.54 644.733L1048.93 622.598L1046.89 622.342L983.975 611.828L914.228 594.758L837.989 571.921L753.833 543.975L661.015 511.837L559.768 476.676L452.285 440.174L451.923 440.068L451.667 439.983L339.97 403.46L339.779 403.396L228.698 368.703L124.153 337.544L124.089 337.523L32.4833 311.28L25.1829 291.635L18.0954 271.458L11.1569 250.812L4.23964 229.805L-2.76268 208.543L-9.87152 187.131L-17.2358 165.699L-24.9405 144.351L-33.0709 123.259L-41.7121 102.486L-50.9918 82.1811L-60.8887 62.4085L-71.5306 43.2956L-82.7898 24.8639L-94.73 7.17701L-107.181 -9.76487L-120.1 -25.9618L-133.19 -41.4777L-194.551 -50.2892L-218.112 -49.4591L-219.389 -50.3104L-223.837 -53.3753L-227.051 -54.6524L-275.195 -59.5689L-362.735 -80.6186L-380.593 -84.9179L-450.871 -109.267L-464.514 -113.97L-520.022 -144.087L-539.199 -171.82L-580 -192.38" stroke="white" stroke-width="2.12838" stroke-linecap="round" stroke-linejoin="round"/>
</g>
<g style="mix-blend-mode:overlay">
<path d="M1514.6 466.673L1519.48 462.735L1521.37 460.394L1522.77 458.457L1532.39 446.964L1545.95 423.828L1552.49 415.208L1559.85 405.503L1567.81 395.01L1602.48 349.293L1607.36 340.183L1613.49 328.754L1650.41 259.858L1683.21 153.673L1692.04 28.4821L1666.33 -116.929L1660.44 -130.295L1593.18 -282.921L1524.99 -335.449L1445.83 -387.552L1432.25 -400.94L1352.53 -479.647L1258.22 -572.721L1238.85 -586.683L998.299 -760.04L967.65 -769" stroke="white" stroke-width="2.12838" stroke-linecap="round" stroke-linejoin="round"/>
</g>
<g style="mix-blend-mode:overlay">
<path d="M-119.844 137.328L-115.779 140.414L-81.1931 149.31L-17.2353 165.699L-16.9373 165.784L72.6462 190.516L182.449 223.825L182.917 223.995L304.746 264.754L305.172 264.924L431.384 311.599L431.81 311.769L432.64 312.11L555.064 362.084L555.341 362.212L556.086 362.531L669.912 413.74L772.308 464.268L860.614 511.709L935.023 554.575L996.043 593.269L1048.23 621.598L1047.74 622.577L978.654 619.959L906.353 608.785L828.54 592.758L744.724 571.453L654.162 545.657L556.916 516.392L454.179 484.892L348.42 452.626L243.449 421.104L243.3 421.062L144.266 391.882L143.755 391.733L56.513 366.256L55.5978 365.979L-14.1279 345.1L-62.6336 328.796L-85.4072 317.112" stroke="white" stroke-width="2.12838" stroke-linecap="round" stroke-linejoin="round"/>
</g>
<g style="mix-blend-mode:overlay">
<path d="M-119.483 118.704L-118.738 119.79L-86.8757 128.793L-24.9399 144.351L-24.5356 144.457L63.9837 168.721L64.4732 168.849L174.149 202.094L174.574 202.243L297.871 243.768L298.318 243.917L299.17 244.236L426.808 291.997L427.128 292.146L427.958 292.486L551.936 344.035L553.064 344.504L553.319 344.61L553.894 344.887L670.359 398.692L774.564 452.072L863.807 502.578L938.151 548.509L998.044 590.268L1047.93 621.768L1048.93 622.598L1108.59 625.428L1115.98 624.024L1118.74 620.065L1119.06 617.681L1108.04 618L1076.84 620.831L1048.93 622.598L1027.48 627.131L1022.88 627.833L1012.56 628.685L1008.83 629.813L1001.64 631.154L990.914 631.516L984.06 630.664L972.972 629.494L897.095 625.258L818.047 614.872L734.146 600.611L645.733 581.648L552.979 558.895L456.904 533.397L359.615 506.388L358.381 506.026L264.307 479.145L263.498 478.889L175.255 452.987L174 452.604L97.2716 429.086L95.4411 428.468L35.3357 408.27L32.5262 407.099L-6.08251 390.988L-22.5774 376.429L-42.0095 363.042L-58.5045 348.335L-72.9776 333.011L-85.4072 317.111L-95.8363 300.68" stroke="white" stroke-width="2.12838" stroke-linecap="round" stroke-linejoin="round"/>
</g>
<g style="mix-blend-mode:overlay">
<path d="M-580 -742.714L-568.102 -742.821L-564.803 -742.395L-340.813 -713.045L-175.778 -691.42L-163.285 -688.313L173.255 -605.03L233.956 -590.025L236.723 -589.322L557.086 -474.092L620.15 -451.403L620.406 -451.318L620.597 -451.212L888.241 -321.104L940.514 -295.691L940.982 -295.457L941.897 -294.861L999.768 -257.423L1086.07 -201.595L1144.09 -164.072L1183.85 -138.34L1185.87 -136.552L1221.95 -104.648L1283.54 -50.2252L1323.96 -14.4684L1350.38 8.85856L1357.14 10.3271L1361.57 10.0931L1364.23 11.2636L1363.61 12.3278L1394.41 54.7038L1402.5 64.6221L1408.54 72.6674L1421.97 91.1417L1435.19 109.318" stroke="white" stroke-width="2.12838" stroke-linecap="round" stroke-linejoin="round"/>
</g>
<g style="mix-blend-mode:overlay">
<path d="M-207.023 -703.893L-169.649 -696.508L-139.958 -690.548L-136.85 -688.271L203.286 -601.369L250.77 -589.493L254.409 -588.578L586.585 -467.749L634.623 -450.297L634.942 -450.169L912.27 -314.038L952.645 -294.202L952.965 -293.989L965.586 -285.731L1059.32 -224.327L1121.79 -183.419L1164.5 -155.452L1192.88 -136.85L1193.62 -136.191L1201.2 -129.401L1267.6 -69.8917L1310.89 -31.1126L1339.05 -5.87004L1357.14 10.3269L1357.44 10.7526L1361.27 15.7968L1360.61 18.6063L1372.64 37.8468L1410.8 87.5445L1435.36 119.534L1450.88 139.732L1450.98 139.988L1461.5 164.592L1462.52 166.976L1479.95 207.713L1488.12 226.868L1491.7 235.211" stroke="white" stroke-width="2.12838" stroke-linecap="round" stroke-linejoin="round"/>
</g>
<g style="mix-blend-mode:overlay">
<path d="M-545.03 -747.333L-528.472 -746.546L-508.401 -745.609L-487.607 -744.63L-458.427 -743.247L-275.684 -734.627L-270.15 -733.626L-223.347 -725.155L-176.268 -716.642L-61.8034 -695.911L3.87841 -684.035L71.8588 -671.733L79.7337 -669.392L129.027 -654.706L184.45 -638.211L239.703 -621.759L301.255 -603.433L363.808 -584.81L427.851 -565.74L430.001 -565.101L523.735 -525.875L718.971 -444.167L719.397 -443.996L723.951 -442.081L725.909 -441.272L757.282 -428.14L758.793 -427.502L997.959 -293.627L1027.82 -276.919L1030.54 -275.386L1031.2 -275.003L1204.71 -144.917L1215.86 -135.467L1224.63 -130.444L1244.94 -117.269L1246.38 -116.162L1246.49 -116.077L1328.07 -25.2593L1330.01 -20.8535L1338.2 -12.9998L1343.63 -7.80652L1352.16 1.49448L1361.29 11.1147L1363.23 12.3492L1364.25 11.3063L1364.4 11.285L1367.93 16.2867L1368.55 17.7127L1383.62 38.8262L1394.79 53.7675L1405.73 71.7735L1421.97 96.4201L1429.57 106.53L1441.66 120.364L1447.81 126.558L1456.67 140.584L1458.41 142.031L1459.31 142.265L1478.46 191.133L1479.29 193.112L1486.93 204.35L1495 217.78L1494.98 232.317L1497.81 239.468L1499.06 244.257L1500.47 252.473L1503.9 305.831L1508.96 345.887L1510.15 347.867L1501.81 377.515L1498.62 390.498L1492.83 412.591L1488.91 423.169L1458.41 469.057L1449.26 484.764L1449.56 485.892L1449.05 486.68L1448.52 487.297L1443.47 492.426L1397.37 532.844L1396.41 533.717L1395.94 534.121L1395.39 534.441L1394.41 534.781L1380.73 542.784L1358.29 556.044L1354.46 558.747L1341.48 565.855L1336.2 569.516L1333.16 571.9L1326.98 575.582L1302.47 590.183L1301.95 590.481L1301.47 590.779L1299.27 589.949L1278.44 597.611L1256.19 607.699L1249.79 608.104L1229.16 611.935L1213.54 616L1209.37 618.022L1190.41 619.171L1176.61 619.533L1168.97 619.427L1155.18 620.64L1150.82 621.023L1148.16 620.725L1146.86 620.853L1144.94 621.534L1139.24 620.768L1126.47 621.087L1124.7 621.236L1123.23 620.874L1123.13 620.895L1122.98 620.98L1122.79 621.342L1121.13 622.215L1117.47 622.023L1103.8 620.342L1077.92 620.235L1048.93 622.598L1048.25 621.598L1031.91 565.77L1027.78 551.829L1005.49 501.663L998.853 500.706L998.342 500.046L976.611 472.739L940.429 427.277L939.386 426.298L897.137 386.859L854.719 347.228L842.566 347.718L726.186 264.69L714.118 267.776L703.987 272.394L562.769 193.006L405.78 118.768L243.768 54.0442L89.6307 2.30328L80.1594 -0.293413L-43.7547 -34.4752L-45.5426 -34.8583L-145.598 -56.1847L-146.257 -56.3124L-158.857 -70.615L-170.627 -84.3857L-247.717 -93.5164L-265.808 -107.585L-283.048 -121.717L-335.151 -119.44L-346.006 -107.883" stroke="white" stroke-width="2.12838" stroke-linecap="round" stroke-linejoin="round"/>
</g>
<g style="mix-blend-mode:overlay">
<path d="M1753.89 136.37V136.263L1758.68 114.703L1763.15 94.6108L1783.05 4.83585L1774.75 -37.2635L1772.24 -56.1635L1759.43 -153.047L1753.47 -198.169L1745.51 -217.92L1696.92 -338.706L1679.23 -382.635L1646.16 -429.928L1564.79 -546.286L1535.33 -588.428L1513.32 -609.606L1350.95 -765.871L1347.69 -769" stroke="white" stroke-width="2.12838" stroke-linecap="round" stroke-linejoin="round"/>
</g>
<g style="mix-blend-mode:overlay">
<path d="M1668.89 293.401L1678.02 278.205L1687.4 262.582L1715.22 216.311L1715.65 215.12L1722.03 197.709L1735.19 161.74L1757.77 100.081L1774.75 -37.2635L1758.09 -82.3213L1732.44 -129.678L1696.68 -179.375L1650.52 -230.542L1641.5 -245.717L1542.65 -411.752L1527.95 -428.034L1365.25 -608.244L1343.76 -625.207L1161.61 -769" stroke="white" stroke-width="2.12838" stroke-linecap="round" stroke-linejoin="round"/>
</g>
<g style="mix-blend-mode:overlay">
<path d="M1560.06 423.616L1565.45 418.231L1567.34 416.613L1570.3 413.208L1579.88 400.033L1592.07 374.897L1602.48 349.293L1609.16 322.347L1612.83 313.813L1649.71 228.06L1671.76 116.278L1666.16 -14.5111L1662.69 -26.1321L1621.36 -165.456L1614.04 -178.354L1524.99 -335.449L1512.81 -349.497L1364.29 -520.937L1346.33 -535.772L1130.96 -713.492L1039.59 -769" stroke="white" stroke-width="2.12838" stroke-linecap="round" stroke-linejoin="round"/>
</g>
<g style="mix-blend-mode:overlay">
<path d="M1408.48 550.893L1411.69 548.573L1416.63 545.167L1428.49 536.994L1450.66 520.393L1453.03 515.689L1485.89 485.573L1500.34 466.758L1512.45 447.262L1522.14 427.064L1529.35 406.503L1534.1 385.603L1536.42 380.729L1539.5 374.237L1569.34 311.28L1572.81 303.958L1596.01 206.521L1595.76 91.9504L1593.84 84.4159L1562.13 -40.8392L1557.68 -49.4591L1484.25 -191.316L1476.55 -200.893L1350.89 -356.903L1321.58 -382.848L1153.8 -531.388L1137.32 -542.243L890.496 -704.638L759.537 -769" stroke="white" stroke-width="2.12838" stroke-linecap="round" stroke-linejoin="round"/>
</g>
<g style="mix-blend-mode:overlay">
<path d="M1464.75 508.282L1481.95 493.533L1493.08 485.189L1504.32 475.612L1508.22 472.036L1514.6 466.673L1520.99 461.117L1541.61 443.175L1557.74 425.935L1560.66 422.785L1579.88 400.033L1609.23 371.364L1609.85 370.47L1610.51 369.64L1613.8 365.128L1621.59 354.443L1631.45 340.885L1641.56 326.987L1671.53 285.824L1679.53 269.84L1687.53 253.899L1722.95 183.151L1727.25 166.997L1746.74 93.6742L1755.34 61.3229L1758.09 -82.3213L1753.89 -99.8379L1724.03 -225.029L1718.33 -248.91L1671.78 -301.97L1613.53 -356.371L1542.65 -411.752L1459.6 -466.834L1364.29 -520.938L1258.22 -572.721L1142.35 -621.291L1019.14 -665.497L890.497 -704.638L759.41 -737.947L628.174 -765.19L618.171 -769" stroke="white" stroke-width="2.12838" stroke-linecap="round" stroke-linejoin="round"/>
</g>
<g style="mix-blend-mode:overlay">
<path d="M-430.694 -736.351L-410.496 -735.457L-405.196 -735.265L-378.272 -734.478L-375.676 -734.073L-368.418 -732.945L-302.055 -722.665L-249.697 -714.556L-208.428 -709.874L-175.672 -704.68L-145.853 -699.955L-113.14 -696.124L-78.4902 -690.484L-37.1996 -683.78L7.60278 -676.522L29.3973 -670.435L87.5021 -654.174L136.157 -638.509L179.916 -624.483L214.8 -616.778L250.025 -608.754L289.804 -597.644L330.669 -586.215L374.535 -573.977L376.813 -573.338L520.052 -516.255L558.044 -501.144L588.799 -488.884L620.299 -476.327L695.133 -445.188L703.114 -442.06L717.396 -437.654L718.928 -437.037L980.101 -296.159L989.828 -289.114L1105.31 -207.768L1206.65 -137.425L1209.58 -135.084L1211.46 -134.105L1214.9 -132.53L1219.37 -132.125L1234.53 -122.569L1235.21 -122.058L1246.49 -116.077L1260.11 -108.649L1352.27 -1.84719L1360.76 8.83731L1363.51 11.3488L1364.1 11.6042L1364.15 11.0295L1354.61 2.13287L1351.99 -0.314755L1235.21 -122.058L1226.44 -126.677L1219.65 -130.125L1218.69 -130.806L1217.56 -131.614L1211.73 -135.275L1208.05 -137.361L1095.1 -216.792L994.894 -287.284L993.531 -287.986L989.828 -289.114L983.039 -291.009L972.12 -297.479L721.823 -427.289L692.409 -443.805L689.195 -446.21L646.584 -462.854L616.638 -473.177L583.563 -484.563L337.97 -579.106L337.693 -579.212L321.964 -581.447L319.815 -582.022L318.538 -582.341L294.487 -586.96L282.759 -586.449L278.311 -587.577L249.387 -596.814L213.353 -608.073L169.615 -619.417L110.084 -634.891L33.1007 -654.876L-73.0628 -683.992L-100.817 -688.313L-118.589 -688.611L-136.85 -688.271L-155.09 -690.91L-175.778 -691.421L-199.233 -691.08L-226.327 -690.08L-257.615 -687.909L-293.861 -684.652L-335.024 -679.736L-381.486 -673.138L-432.312 -664.305L-487.309 -653.088L-544.435 -638.977L-580 -628.506" stroke="white" stroke-width="2.12838" stroke-linecap="round" stroke-linejoin="round"/>
</g>
<g style="mix-blend-mode:overlay">
<path d="M1284.65 626.578L1287.82 624.811L1299.19 618.405L1307.59 614.042L1314.45 609.827L1322.28 604.166L1349.16 587.075L1384.45 563.705L1391.05 558.725L1412.18 542.741L1441.68 520.457L1455.64 504.239L1461.05 498.811L1467.37 492.447L1473.16 484.168L1482.44 468.12L1492.91 451.859L1529.35 406.503L1532.33 401.31L1536.35 394.265L1540.69 386.667L1573.73 328.945L1605.4 236.254L1616.87 126.579L1599.03 -1.20873L1595.44 -10.2543L1540.86 -147.577L1533.99 -157.772L1431 -310.781L1420.08 -321.934L1313 -431.162L1258.88 -486.373L1153.8 -531.388L1043.16 -572.529L929.403 -609.137L912.61 -617.843L628.174 -765.19L604.932 -769" stroke="white" stroke-width="2.12838" stroke-linecap="round" stroke-linejoin="round"/>
</g>
<g style="mix-blend-mode:overlay">
<path d="M1422.19 91.546L1408.54 72.6673L1385.88 32.5899L1382.17 28.4396L1379.36 25.2896" stroke="white" stroke-width="2.12838" stroke-linecap="round" stroke-linejoin="round"/>
</g>
<g style="mix-blend-mode:overlay">
<path d="M1611.49 368.576L1619.13 359.743L1627.58 346.334L1637.88 319.176L1646.39 290.379L1656.42 266.307L1688.43 189.451L1710.31 70.1557L1701.69 -69.6362L1697.26 -83.5558L1650.52 -230.542L1593.18 -282.921L1582.56 -297.543L1459.6 -466.834L1419.25 -505.209L1253.73 -662.56L1230.68 -678.523L1099.93 -769" stroke="white" stroke-width="2.12838" stroke-linecap="round" stroke-linejoin="round"/>
</g>
<g style="mix-blend-mode:overlay">
<path d="M1609.95 370.257L1625.3 346.377L1633.87 332.713L1642.67 318.665L1651.41 304.682L1682.1 255.686L1687.7 241.682L1693.81 226.357L1725.16 147.735L1745.61 19.8409L1732.44 -129.678L1726.63 -146.151L1672.23 -300.757L1671.78 -301.97L1660.54 -319.635L1549 -494.993L1463.69 -552.097L1365.25 -608.244L1253.73 -662.56L1130.96 -713.492L998.299 -760.04L981.506 -769" stroke="white" stroke-width="2.12838" stroke-linecap="round" stroke-linejoin="round"/>
</g>
<g style="mix-blend-mode:overlay">
<path d="M1659.52 308.364L1671.53 285.824L1682.1 255.686L1687.96 223.612L1691.58 211.118L1720.07 113.404L1721.1 109.914L1728.03 -23.7909L1725.1 -38.3065L1696.68 -179.375L1689.28 -195.147L1613.53 -356.371L1600.52 -373.356L1463.69 -552.097L1416.06 -595.218L1235.83 -758.358L1209.97 -769" stroke="white" stroke-width="2.12838" stroke-linecap="round" stroke-linejoin="round"/>
</g>
<g style="mix-blend-mode:overlay">
<path d="M1709.54 232.296L1712.73 226.102L1713.67 222.931L1721.5 206.074L1729.57 188.706L1753.85 138.094L1757.22 129.197L1765.3 103.763L1784.22 45.4666L1800.12 -52.4388L1801.74 -60.8246L1802.12 -63.4851L1800.74 -70.1895L1795.36 -123.654L1793.97 -137.425L1784.78 -229.03L1760.28 -277.557L1725.35 -329.022L1679.23 -382.635L1620.53 -438.335L1549 -494.993L1531.12 -513.637L1506.26 -539.561L1349.5 -703.127L1260.88 -769" stroke="white" stroke-width="2.12838" stroke-linecap="round" stroke-linejoin="round"/>
</g>
<g style="mix-blend-mode:overlay">
<path d="M1708.28 234.53L1709.54 232.296L1712.9 226.23L1721.16 211.395L1744.32 169.785L1749.94 151.226L1750.85 149.225L1753.45 141.903L1759.53 128.111L1772.43 96.4412L1778.84 80.67L1782.99 53.6821L1784.25 46.5308L1789.72 26.8645L1801.83 -22.1946L1801.61 -58.5899L1801.7 -59.1645L1801.72 -60.1223L1801.83 -61.5057L1802.32 -63.5064L1807.7 -140.532L1800.29 -183.185L1800.06 -183.973L1799.65 -190.336L1789.46 -275.727L1773.05 -321.551L1772.39 -322.913L1770.56 -326.531L1768.86 -329.618L1767.62 -331.98L1747.68 -370.355L1712.5 -421.649L1665.97 -475.539L1607.4 -531.218L1535.33 -588.428L1449.64 -645.958L1349.5 -703.127L1235.83 -758.358L1219.57 -769" stroke="white" stroke-width="2.12838" stroke-linecap="round" stroke-linejoin="round"/>
</g>
<g style="mix-blend-mode:overlay">
<path d="M-475.135 -733.754L-344.985 -717.302L-268.299 -707.915L-211.216 -700.189L-169.649 -696.507L-142.959 -693.272L-125.613 -691.463L-100.817 -688.313L-83.109 -685.057L-63.7622 -683.098L-61.9741 -682.63L-61.2293 -682.439L3.77151 -665.305L85.0968 -643.872L147.927 -627.314L193.878 -615.203L232.53 -605.008L263.434 -596.878L292.55 -587.449L295.295 -585.002L308.215 -583.427L321.964 -581.447L603.91 -474.411L633.133 -463.301L657.141 -454.191L678.318 -446.146L681.404 -444.976L968.225 -297.819L978.76 -291.69L1068.39 -229.797L1201.43 -139.447L1207.16 -135.552L1207.33 -135.424L1209.22 -134.998L1318.9 -31.3677L1321.43 -28.8988L1323 -27.409L1328.07 -25.2593L1364 10.838L1364.36 11.2424L1364.49 11.3275L1365 11.8383L1366 12.9238L1369.23 17.0529L1372.62 21.1819L1376.51 25.9708L1380.07 33.1221L1393.37 52.9586L1402.48 66.6441L1413.61 81.6279L1425.27 97.3566L1437.21 113.447L1441.36 119.045" stroke="white" stroke-width="2.12838" stroke-linecap="round" stroke-linejoin="round"/>
</g>
<g style="mix-blend-mode:overlay">
<path d="M1508.51 471.972L1513.09 467.29L1531.54 445.346L1547.4 424.509L1557.53 401.331L1566.07 377.834L1571.51 353.698L1578.3 338.417L1610.7 265.605L1633.02 161.101L1629.7 38.4429L1627.04 28.8865L1590.44 -103.073L1584.6 -113.779L1503.26 -263.063L1493.38 -274.876L1356.87 -438.08L1334.35 -457.342L1320 -469.58L1142.35 -621.291L1121.89 -634.252L909.056 -769" stroke="white" stroke-width="2.12838" stroke-linecap="round" stroke-linejoin="round"/>
</g>
<g style="mix-blend-mode:overlay">
<path d="M1456.56 515.008L1469.29 503.43L1487.4 485.339L1497.3 475.654L1501.17 467.886L1506.45 459.755L1512.96 449.497L1517.2 441.111L1523.28 433.215L1529.65 424.999L1564.28 380.175L1566.06 377.834L1569.98 370.747L1574.92 361.765L1611.97 294.444L1643.92 194.964L1654.03 77.8179L1632.19 -58.6111L1627.51 -69.8064L1567.02 -214.302L1558.36 -226.668L1445.83 -387.552L1356.87 -438.08L1329.6 -451.531L1258.88 -486.373L1243.06 -498.206L1019.14 -665.497L997.958 -677.309L833.434 -769" stroke="white" stroke-width="2.12838" stroke-linecap="round" stroke-linejoin="round"/>
</g>
<g style="mix-blend-mode:overlay">
<path d="M1380.07 33.1222L1373.81 23.6722L1369.32 18.2662L1368.55 17.7128L1367.76 16.6273L1364.29 11.3276" stroke="white" stroke-width="2.12838" stroke-linecap="round" stroke-linejoin="round"/>
</g>
<g style="mix-blend-mode:overlay">
<path d="M1783.29 52.8308L1783.46 52.1923L1783.73 51.1068L1784.25 46.5308L1783.05 4.83585L1778.48 -149.748L1772.11 -171.224L1744.87 -263.106L1725.35 -329.022L1712.43 -351.135L1661.1 -439.165L1607.4 -531.218L1586.86 -553.821L1467.97 -684.737L1408.08 -750.717L1375.66 -769" stroke="white" stroke-width="2.12838" stroke-linecap="round" stroke-linejoin="round"/>
</g>
<g style="mix-blend-mode:overlay">
<path d="M1750.57 150.098L1751.3 148.352L1752.04 146.522L1753.02 144.479L1768.09 114.383L1778.84 80.67L1782.99 53.6821L1783.35 52.5115L1784.22 45.4666L1794.08 -104.329L1778.48 -149.748L1753.47 -198.169L1718.33 -248.909L1708.75 -267.469L1630.79 -418.456L1620.53 -438.335L1604.48 -457.831L1582.84 -484.138L1464.16 -628.314L1449.64 -645.958L1425.87 -666.029L1303.89 -769" stroke="white" stroke-width="2.12838" stroke-linecap="round" stroke-linejoin="round"/>
</g>
</g>
</svg>
