<svg width="1400" height="788" viewBox="0 0 1400 788" fill="none" xmlns="http://www.w3.org/2000/svg">
<g clip-path="url(#clip0_2040_1808)">
<rect width="1400" height="788" fill="#FB6008"/>
<g opacity="0.5">
<g style="mix-blend-mode:overlay">
<g style="mix-blend-mode:overlay">
<path d="M-989.999 716.667L-638.209 799.421L-162.965 892.839L171.288 1053.41L295.222 1108.02" stroke="white" stroke-width="1.78041" stroke-linecap="round" stroke-linejoin="round"/>
</g>
<g style="mix-blend-mode:overlay">
<path d="M-989.999 506.775L-709.301 586.217L-301.25 686.276L-21.2631 824.257L397.435 891.094L722.359 1010.91L1016.38 1108.02" stroke="white" stroke-width="1.78041" stroke-linecap="round" stroke-linejoin="round"/>
</g>
<g style="mix-blend-mode:overlay">
<path d="M-990 100.629L-775.478 191.074L-743.182 204.694L-518.673 291.097L-486.02 303.667L-264.253 380.349L-221.399 395.162L-1.19788 463.031L41.4784 476.188L300.723 545.517L546.526 601.404L777.267 643.493L984.986 671.801L1053.98 684.317L1175.97 706.448L1241.17 715.795L1368.15 733.973L1559.72 753.201L1696.28 731.836L1704.98 729.308" stroke="white" stroke-width="1.78041" stroke-linecap="round" stroke-linejoin="round"/>
</g>
<g style="mix-blend-mode:overlay">
<path d="M-990 344.242L-749.556 423.363L-400.365 525.381L-49.7318 614.169L290.165 686.774L614.11 741.931L910.423 778.786L1176.22 797.729L1403.84 800.329L1594.08 788.222L1704.98 797.035" stroke="white" stroke-width="1.78041" stroke-linecap="round" stroke-linejoin="round"/>
</g>
<g style="mix-blend-mode:overlay">
<path d="M-990 212.367L-760.826 298.45L-459.278 400.218L-155.791 491.321L146.309 569.962L435.909 633.772L709.736 681.967L958.031 714.21L1179.48 731.017L1368.15 733.973L1525.41 724.483L1696.28 731.836L1704.98 731.801" stroke="white" stroke-width="1.78041" stroke-linecap="round" stroke-linejoin="round"/>
</g>
<g style="mix-blend-mode:overlay">
<path d="M-990 -96.5329L-842.867 -13.4948L-827.662 -4.91325L-669.491 77.7688L-646.577 89.7331L-480.875 170.279L-459.261 180.783L-296.069 253.352L-263.754 267.738L-99.4764 334.806L-67.3756 347.91L83.6204 403.334L130.926 420.693L273.216 467.642L323.299 484.164L438.099 517.173L510.384 537.968L602.947 560.935L643.469 570.994L685.095 581.321L794.394 606.567L796.851 607.119L836.91 616.377L889.432 626.525L987.105 645.398L995.598 647.036L1008.29 648.941L1071.64 658.466L1160.85 671.872L1326.59 690.371L1491.32 701.391L1604.83 684.317L1691.61 659.677L1704.98 653.285" stroke="white" stroke-width="1.78041" stroke-linecap="round" stroke-linejoin="round"/>
</g>
<g style="mix-blend-mode:overlay">
<path d="M-990 48.1072L-842.814 116.671L-607.497 217.068L-398.228 298.646L-366.074 311.18L-292.668 336.889L-162.04 382.628L-118.883 397.725L82.0361 460.556L125.068 474.016L309.234 524.01L364.586 539.036L590.555 591.362L802.103 630.745L988.636 656.935L992.055 657.415L1063.36 669.237L1169.6 686.881L1235.35 695.267L1347.94 709.635L1525.41 724.483L1649.68 705.326L1704.98 689.338" stroke="white" stroke-width="1.78041" stroke-linecap="round" stroke-linejoin="round"/>
</g>
<g style="mix-blend-mode:overlay">
<path d="M-990 -144.622L-874.861 -74.3847L-858.427 -64.3432L-712.666 19.3181L-698.031 27.7038L-549.652 106.522L-526.987 118.558L-372.519 194.991L-351.315 205.477L-201.672 273.204L-168.805 288.088L-19.8389 350.117L13.3835 363.951L145.223 413.304L196.747 432.604L315.429 472.663L373.88 492.39L454.141 516.016L473.298 521.66L545.974 543.06L578.306 551.321L706.46 584.045L848.287 614.276L861.302 616.324L980.66 636.389L981.711 636.567L985.841 635.926L988.903 636.407L994.725 637.332L995.135 637.368L1008.29 638.721L1024.96 640.43L1027.59 640.697L1028.02 640.982L1028.48 641.267L1044.18 643.101L1065.94 645.131L1089.92 647.089L1089.99 647.107L1093.52 647.463L1094.96 648.335L1099.25 649.528L1114.48 651.558L1139.85 652.804L1168.71 653.089L1182.43 653.837L1195.84 655.226L1260.04 658.911L1363.25 655.404L1385.86 652.769L1447.18 645.647L1514.02 630.015L1544.59 623.41L1605.28 610.27L1687.16 585.541L1704.98 578.526" stroke="white" stroke-width="1.78041" stroke-linecap="round" stroke-linejoin="round"/>
</g>
<g style="mix-blend-mode:overlay">
<path d="M-748.309 -117.435L-636.767 -39.6667L-627.758 -33.3997L-529.515 30.3922L-498.18 50.7244L-405.742 107.413L-364.953 132.427L-247.036 199.21L-224.479 211.994L-104.693 275.483L-82.7938 287.073L21.3064 337.477L48.4932 350.634L63.1459 357.738L146.451 395.001L152.825 397.868L207.021 422.117" stroke="white" stroke-width="1.78041" stroke-linecap="round" stroke-linejoin="round"/>
</g>
<g style="mix-blend-mode:overlay">
<path d="M996.256 640.43L1024.81 643.172L1032.81 644.65L1045.27 646.982L1082.25 650.294L1114.48 651.558L1138.35 654.086L1182.33 657.54L1187.13 657.914L1218.01 660.335L1282.15 665.356L1424.91 669.914L1561.91 668.276L1691.61 659.677L1704.98 658.074" stroke="white" stroke-width="1.78041" stroke-linecap="round" stroke-linejoin="round"/>
</g>
<g style="mix-blend-mode:overlay">
<path d="M-990 -245.232L-874.398 -162.622L-756.393 -82.4143L-746.814 -75.898L-609.206 11.3597L-480.198 88.5047L-466.774 96.5165L-338.567 167.394L-316.152 179.786L-252.823 231.471L-168.805 288.088L-67.3756 347.91L56.7542 410.794L199.525 474.817L364.586 539.036L546.526 601.404L746.661 660.407L958.031 714.21L1025.92 728.596L1179.71 761.177L1403.84 800.329L1628.32 830.417L1704.98 818.293" stroke="white" stroke-width="1.78041" stroke-linecap="round" stroke-linejoin="round"/>
</g>
<g style="mix-blend-mode:overlay">
<path d="M-630.82 -71.2155L-525.919 4.00662L-517.587 10.0066L-425.504 71.4484L-396.216 90.9972L-310.97 144.765L-284.443 161.519L-272.122 169.282L-183.672 220.735L-147.227 241.94L-141.494 245.269L-71.9155 283.192L-13.9455 314.776L-10.2779 316.788L54.9027 348.551L69.6802 355.494" stroke="white" stroke-width="1.78041" stroke-linecap="round" stroke-linejoin="round"/>
</g>
<g style="mix-blend-mode:overlay">
<path d="M-989.999 -194.081L-874.629 -117.328L-764.172 -48.729L-729.276 -27.0615L-591.793 53.3772L-577.782 61.5671L-439.409 136.451L-416.904 148.629L-273.813 220.878L-252.822 231.471L-117.048 294.159L-83.007 309.898L49.8112 366.426L85.5796 381.648L194.914 423.506L222.154 433.939L227.87 436.111L254.878 446.455L338.184 475.28L346.089 478.022L417.946 502.876L434.503 507.879" stroke="white" stroke-width="1.78041" stroke-linecap="round" stroke-linejoin="round"/>
</g>
<g style="mix-blend-mode:overlay">
<path d="M-990 101.715L-890.617 195.293L-617.254 299.233L-377.273 381.203L-334.561 395.803L-51.8684 481.761L228.19 555.63L495.179 615.362L746.661 660.406L973.823 690.584L1175.97 706.448L1347.94 709.635L1491.32 701.391L1649.68 705.326L1704.98 703.955" stroke="white" stroke-width="1.78041" stroke-linecap="round" stroke-linejoin="round"/>
</g>
<g style="mix-blend-mode:overlay">
<path d="M1125.83 650.775L1141.25 651.718L1168.71 653.089L1182.43 653.837L1196 655.03L1221.14 656.543L1260.04 658.911L1393.27 660.727L1521.12 656.739L1642.08 646.181L1704.98 637.172" stroke="white" stroke-width="1.78041" stroke-linecap="round" stroke-linejoin="round"/>
</g>
<g style="mix-blend-mode:overlay">
<path d="M1238.75 656.098L1250.43 656.044L1363.25 655.404L1367.2 655.208L1482.77 649.315L1595.83 637.012L1699.62 619.653L1704.98 618.353" stroke="white" stroke-width="1.78041" stroke-linecap="round" stroke-linejoin="round"/>
</g>
<g style="mix-blend-mode:overlay">
<path d="M-518.174 -53.3581L-422.495 23.8225L-361.392 70.8074L-331.107 94.1129L-324.181 99.4363L-267.546 139.745L-232.917 164.403L-218.995 174.302L-148.135 221.964L-124.099 238.13L-112.081 246.195L-46.4378 286.682L-43.6069 288.426L-6.66348 311.198L0.529315 315.631L16.8022 325.014" stroke="white" stroke-width="1.78041" stroke-linecap="round" stroke-linejoin="round"/>
</g>
<g style="mix-blend-mode:overlay">
<path d="M-990 562.573L-898.131 630.3L-456.145 736.59L-21.2634 824.257L295.738 963.948L642.881 1102.89L737.278 1108.02" stroke="white" stroke-width="1.78041" stroke-linecap="round" stroke-linejoin="round"/>
</g>
<g style="mix-blend-mode:overlay">
<path d="M1335.3 653.641L1348.39 652.715L1386.97 649.955L1447.18 645.647L1553.08 631.76L1650.31 613.137L1704.98 598.217" stroke="white" stroke-width="1.78041" stroke-linecap="round" stroke-linejoin="round"/>
</g>
<g style="mix-blend-mode:overlay">
<path d="M-990 153.881L-890.617 195.293L-760.826 298.45L-596.939 409.138L-400.365 525.381L-167.203 646.074L98.4157 768.602L397.435 891.094L785.367 935.497L1136.43 957.627L1440.06 958.927L1695.65 941.461L1704.98 942.761" stroke="white" stroke-width="1.78041" stroke-linecap="round" stroke-linejoin="round"/>
</g>
<g style="mix-blend-mode:overlay">
<path d="M-967.886 -407L-893.198 -336.71L-810.124 -260.775L-719.235 -182.348L-624.66 -103.833L-522.126 -24.1238L-443.414 34.2201L-416.37 54.2674L-330.305 113.519L-303.225 132.16L-225.066 183.026L-187.98 207.151L-108.876 254.527L-93.2978 263.857L-70.5798 277.459L-66.7342 279.774L-16.1885 308.1L7.82916 321.577L38.47 338.741L54.8497 347.927L70.1968 355.779L130.926 386.705L214.962 425.304L313.258 464.829L434.503 507.879L576.402 550.733L706.46 584.045L856.673 615.362L980.215 635.018L980.554 635.071L980.785 635.107L980.892 635.142L981.711 636.567L996.257 640.43L1024.76 644.24L1032.81 644.65L1065.75 646.359L1089.76 648.424L1094.96 648.335L1114.96 649.671L1125.83 650.774L1139.85 652.804L1195.84 655.225L1223.47 655.386L1238.75 656.098L1250.53 655.813L1277.33 655.119L1302.84 654.478L1312.74 654.228L1322.25 653.979L1326.7 653.57L1348.74 651.878L1369.25 650.098L1381.75 648.798L1382.71 648.709L1387.75 647.944L1391.7 647.214L1414.72 645.362L1422.86 643.795L1431.92 641.267L1438.51 638.65L1442.73 637.884L1443.53 637.742L1449.12 636.033L1453.38 633.255L1460.37 630.3L1462.1 629.57L1463.06 628.84L1466.59 627.54L1469.88 627.202L1473.87 627.415L1486.31 625.19L1528.6 613.795L1550.89 605.712L1600.97 587.534L1616.6 580.288L1664.16 558.229L1674.52 529.493L1675.09 500.49L1666.65 470.793L1684.37 432.888L1693.21 394.236L1695.03 356.028L1689.69 318.177L1679.34 281.554L1664.14 246.07L1646.25 212.35L1626 180.195L1605.44 150.053L1584.89 121.691L1566.24 95.3413L1549.86 70.8252L1537.34 48.2496L1529.11 27.4723L1448.44 8.97389L1372.12 -7.33463L1300.26 -21.7203L1232.89 -34.4146L1169.83 -45.7202L1111.47 -55.7438L1057.36 -64.7883L1008.29 -72.8891L963.64 -80.2956L924.631 -87.0256L890.519 -93.3104L862.976 -99.0789L841.148 -104.563L827.154 -109.654L818.501 -115.583L797.207 -109.031L781.166 -102.195L767.421 -91.5656L764.306 -91.2095L759.587 -85.2452L755.083 -75.0434L752.822 -68.6518L757.736 -56.7409L760.691 -52.8774L767.599 -44.4739L768.739 -43.5837L772.264 -40.3077L783.712 -31.7084L789.57 -27.3998L803.688 -18.4978L809.937 -14.5987L824.216 -6.46222L833.777 -1.29906L855.658 7.85223L888.079 17.502L925.592 29.6266L967.628 42.6057L1012.42 56.3683L1059.92 71.0566L1108.9 86.5995L1159.24 103.104L1210.15 120.498L1261.43 138.89L1312.81 158.243L1363.82 178.611L1414.67 200.083L1464.59 222.64L1514.03 246.516L1561.93 271.584L1608.75 298.254L1653.03 326.242L1659.69 364.396L1659.1 402.8L1651.55 441.595L1635.3 479.553L1640.62 508.11L1637.26 535.636L1624.78 562.626L1600.97 587.534L1564.67 610.644L1514.02 630.015L1458.75 638.561L1432.63 640.608L1431.41 638.864L1431.03 639.451L1423.32 641.356L1418.68 641.819L1405.52 644.329L1391.22 647.409L1387.75 647.944L1386.04 648.032L1385.99 648.05L1369.47 649.581L1348.74 651.878L1335.3 653.641L1326.58 653.872L1322.25 653.979" stroke="white" stroke-width="1.78041" stroke-linecap="round" stroke-linejoin="round"/>
</g>
<g style="mix-blend-mode:overlay">
<path d="M-725.431 -296.223L-655.088 -223.725L-582.34 -150.8L-502.827 -76.1117L-420.84 -1.99344L-422.495 23.8224L-416.371 54.2674L-396.217 90.9971L-364.953 132.427L-316.152 179.786L-184.562 247.762L-163.464 258.676L-83.0078 309.898L13.3834 363.951L130.926 420.693L265.4 478.271L420.402 535.796L590.555 591.362L777.266 643.493L973.823 690.584L1041.87 703.955L1179.48 731.017L1244.96 741.415L1386.88 763.955L1594.08 788.222L1704.98 770.738" stroke="white" stroke-width="1.78041" stroke-linecap="round" stroke-linejoin="round"/>
</g>
<g style="mix-blend-mode:overlay">
<path d="M-614.423 -236.758L-549.296 -165.613L-482.139 -94.343L-408.626 -21.5957L-332.87 50.3505L-331.962 72.6946L-324.181 99.4363L-303.226 132.16L-272.122 169.282L-224.479 211.994L-163.464 258.676L-42.3609 315.862L-5.89817 333.097L108.066 382.788L128.505 391.708L145.08 398.936L149.869 401.019L224.985 430.467L233.246 433.707L306.136 462.283L313.257 464.829" stroke="white" stroke-width="1.78041" stroke-linecap="round" stroke-linejoin="round"/>
</g>
<g style="mix-blend-mode:overlay">
<path d="M-990 604.787L-898.131 630.3L-638.209 799.421L-334.063 977.764L171.288 1053.41L642.881 1102.89L657 1108.02" stroke="white" stroke-width="1.78041" stroke-linecap="round" stroke-linejoin="round"/>
</g>
<g style="mix-blend-mode:overlay">
<path d="M-990 241.246L-918.392 301.975L-596.939 409.138L-271.392 505.565L54.1192 589.172L367.934 657.273L665.831 708.869L801.017 726.05L937.111 743.338L1179.71 761.177L1386.88 763.955L1559.72 753.201L1704.98 762.085" stroke="white" stroke-width="1.78041" stroke-linecap="round" stroke-linejoin="round"/>
</g>
<g style="mix-blend-mode:overlay">
<path d="M1704.98 -145.263L1613.24 -149.233L1505.93 -150.728L1413.67 -149.251L1336.46 -145.102L1271.69 -138.924L1219.57 -130.877L1178.07 -121.37L1147.36 -110.473L1125.73 -98.4557L1113.3 -85.2629L1108.55 -71.0553L1111.47 -55.7438L1120.72 -39.3997L1136.14 -21.8449L1156.51 -3.13282L1181.51 16.9324L1210.03 38.3506L1241.58 61.2644L1300.83 76.9142L1362.08 93.9705L1425.46 112.611L1490.53 132.997L1557.67 155.501L1626 180.196L1695.9 207.596L1704.98 227.358" stroke="white" stroke-width="1.78041" stroke-linecap="round" stroke-linejoin="round"/>
</g>
<g style="mix-blend-mode:overlay">
<path d="M-990 389.785L-920.065 443.927L-545.147 551.82L-167.203 646.074L201.092 723.415L553.416 782.293L877.129 821.604L1168.42 841.687L1418.68 844.037L1628.32 830.417L1704.98 837.966" stroke="white" stroke-width="1.78041" stroke-linecap="round" stroke-linejoin="round"/>
</g>
<g style="mix-blend-mode:overlay">
<path d="M-990 -1.33459L-915.205 36.6949L-704.654 136.077L-514.809 218.083L-482.709 231.952L-288.466 308.723L-277.374 313.103L-256.65 321.293L-70.1532 387.506L-26.3374 403.067L155.513 460.841L199.525 474.817L362.201 519.737L420.402 535.796L627.891 584.828L821.759 621.789L987.176 645.825L995.598 647.036L1023.16 649.528L1112.93 657.665L1150.24 661.03L1221.92 667.866L1304.52 675.736L1457.72 683.338L1604.83 684.317L1704.98 679.759" stroke="white" stroke-width="1.78041" stroke-linecap="round" stroke-linejoin="round"/>
</g>
<g style="mix-blend-mode:overlay">
<path d="M-990 275.412L-918.392 301.975L-749.556 423.363L-545.147 551.82L-301.25 686.276L98.4157 768.602L482.057 831.379L836.056 873.218L1155.55 894.387L1430.98 896.346L1662.25 880.999L1704.98 886.037" stroke="white" stroke-width="1.78041" stroke-linecap="round" stroke-linejoin="round"/>
</g>
<g style="mix-blend-mode:overlay">
<path d="M-990 421.245L-920.066 443.927L-709.301 586.217L-456.146 736.59L-162.966 892.838L295.737 963.948L722.358 1010.91L1109.26 1033.78L1382.43 1108.02" stroke="white" stroke-width="1.78041" stroke-linecap="round" stroke-linejoin="round"/>
</g>
<g style="mix-blend-mode:overlay">
<path d="M-895.941 -407L-845.128 -354.514L-769.995 -280.805L-691.889 -206.313L-606.518 -129.684L-518.174 -53.358L-522.127 -24.1238L-517.587 10.0066L-498.18 50.7244L-466.774 96.5165L-416.905 148.629L-351.315 205.477L-263.754 267.738L-157.233 333.631L-26.3375 403.067L125.068 474.016L300.723 545.517L495.179 615.362L709.736 681.967L860.5 722.667L937.111 743.338L1176.22 797.729L1418.68 844.038L1662.25 880.999L1704.98 874.215" stroke="white" stroke-width="1.78041" stroke-linecap="round" stroke-linejoin="round"/>
</g>
<g style="mix-blend-mode:overlay">
<path d="M-990 -361.279L-936.445 -314.081L-840.499 -234.016L-740.013 -153.399L-630.821 -71.2155L-627.758 -33.3997L-609.206 11.3597L-577.782 61.5671L-526.987 118.558L-459.261 180.783L-368.264 248.937L-275.007 309.4L-256.65 321.293L-118.883 397.725L41.4784 476.188L228.19 555.63L435.909 633.772L665.831 708.869L738.382 729.611L910.423 778.786L1168.42 841.687L1430.98 896.346L1695.65 941.461L1704.98 939.984" stroke="white" stroke-width="1.78041" stroke-linecap="round" stroke-linejoin="round"/>
</g>
<g style="mix-blend-mode:overlay">
<path d="M1169.6 -76.2541L1231.5 -65.999L1298.37 -54.3907L1370.55 -41.1267L1447.8 -25.9932L1530.18 -8.66991L1617.8 11.146L1704.98 32.4575" stroke="white" stroke-width="1.78041" stroke-linecap="round" stroke-linejoin="round"/>
</g>
<g style="mix-blend-mode:overlay">
<path d="M1704.98 -108.266L1642.51 -107.767L1570.54 -104.171L1510.81 -98.3133L1463.19 -90.2659L1425.94 -80.4558L1398.79 -68.8832L1380.49 -55.7794L1370.55 -41.1267L1367.99 -24.9962L1372.12 -7.33458L1382.16 11.8582L1397.17 32.6533L1416.52 55.122L1489.66 74.0478L1566.24 95.3414L1645.57 119.163L1704.98 138.498" stroke="white" stroke-width="1.78041" stroke-linecap="round" stroke-linejoin="round"/>
</g>
<g style="mix-blend-mode:overlay">
<path d="M-826.469 -407L-789.472 -365.997L-731.11 -373.35L-667.301 -375.006L-602.779 -373.208L-535.177 -366.425L-502.56 -307.19L-465.937 -245.179L-428.424 -182.437L-386.228 -117.364L-342.519 -52.0406L-293.255 14.9738L-241.731 81.6323L-183.832 149.145L-184.526 158.759L-177.761 173.857L-165.956 193.014L-143.114 217.637L-112.081 246.195L-66.7345 279.774L-10.2779 316.788L63.146 357.737L149.87 401.019L254.878 446.455L373.88 492.39L510.384 537.968L659.172 581.552L821.759 621.789L988.601 656.685L992.055 657.415L1160.85 671.872L1304.52 675.736L1424.91 669.914L1521.12 656.739L1595.83 637.012L1650.31 613.137L1687.16 585.54L1704.98 561.416" stroke="white" stroke-width="1.78041" stroke-linecap="round" stroke-linejoin="round"/>
</g>
<g style="mix-blend-mode:overlay">
<path d="M-990 -85.9751L-966.765 -35.9991L-799.015 50.4396L-775.906 62.3505L-599.112 146.955L-576.946 157.567L-400.383 234.89L-368.264 248.937L-263.22 291.097L-188.977 320.901L-157.233 333.631L11.7099 394.556L56.7543 410.794L219.359 463.387L265.4 478.271L405.642 517.743L468.776 535.493L593.066 565.564L659.172 581.552L819.07 612.887L836.91 616.377L980.678 638.062" stroke="white" stroke-width="1.78041" stroke-linecap="round" stroke-linejoin="round"/>
</g>
<g style="mix-blend-mode:overlay">
<path d="M1704.98 -139.138L1652.85 -141.364L1547.33 -142.966L1505.93 -150.728L1473.67 -157.067L1452.61 -161.803L1353.26 -160.877L1269.53 -157.191L1198.74 -151.405L1141.09 -143.749L1094.41 -134.687L1059.03 -124.307L1033.02 -112.895L1016.73 -100.45L1008.4 -87.1324L1008.29 -72.8891L1014.77 -57.7913L1065.8 -49.0317L1120.72 -39.3997L1180.05 -28.6461L1243.27 -16.6995L1310.68 -3.25746L1382.16 11.8582L1457.63 28.9323L1471.78 50.6176L1489.66 74.0477L1510.76 99.3651L1533.56 126.463L1557.67 155.501L1581.32 186.32L1604.14 219.044L1624.17 253.299L1679.34 281.554L1704.98 296.135" stroke="white" stroke-width="1.78041" stroke-linecap="round" stroke-linejoin="round"/>
</g>
<g style="mix-blend-mode:overlay">
<path d="M1110.7 129.329L1155.23 149.751L1201.25 171.561L1238.68 196.54L1274.03 222.266L1285.07 228.961L1317.94 248.83L1360.05 276.587L1400.28 305.554L1436.8 335.251L1469.95 365.785L1497.8 396.426L1521.03 427.44L1537.7 457.85L1548.7 488.099L1552.1 516.977" stroke="white" stroke-width="1.78041" stroke-linecap="round" stroke-linejoin="round"/>
</g>
<g style="mix-blend-mode:overlay">
<path d="M1071.76 108.41L1116.18 127.318L1162.62 147.489L1201.25 171.561L1247.99 194.706L1294.12 219.08L1328.66 247.513L1371.21 274.699L1411.66 302.99L1448.3 331.868L1469.95 365.785L1486.38 399.613L1498.7 433.565L1505.43 466.627L1508.07 499.155L1505.36 529.992L1499.1 559.689L1488.32 586.947L1474.95 612.585L1463.35 628.466" stroke="white" stroke-width="1.78041" stroke-linecap="round" stroke-linejoin="round"/>
</g>
<g style="mix-blend-mode:overlay">
<path d="M1032.9 88.4335L1076.73 105.81L1123.08 124.415L1162.62 147.49L1209.99 168.926L1257.66 191.608L1294.12 219.08L1339.38 244.646L1382.28 271.139L1411.66 302.99L1436.8 335.251L1458.43 368.028L1475.04 400.556L1487.77 433.031L1495.2 464.473L1498.83 495.238L1497.42 524.188L1492.76 551.837L1483.87 577.03L1472.57 600.407L1458.13 620.882L1446.66 634.11" stroke="white" stroke-width="1.78041" stroke-linecap="round" stroke-linejoin="round"/>
</g>
<g style="mix-blend-mode:overlay">
<path d="M-725.432 -296.223L-769.995 -280.805L-810.125 -260.775L-840.499 -234.016L-863.823 -201.969L-874.398 -162.622L-874.63 -117.328L-858.428 -64.3432L-827.663 -4.91324L-775.906 62.3505L-704.654 136.077L-607.498 217.068L-486.021 303.667L-334.561 395.803L-155.791 491.321L54.119 589.172L290.165 686.774L553.416 782.293L836.055 873.218L1136.43 957.627L1444.94 1034.02L1704.98 1089.66" stroke="white" stroke-width="1.78041" stroke-linecap="round" stroke-linejoin="round"/>
</g>
<g style="mix-blend-mode:overlay">
<path d="M1160.36 357.969L1204.48 344.634L1207.41 343.103L1216.47 342.408L1248.52 337.761L1257.94 336.907L1286.5 333.364L1308.24 330.462L1315.15 330.391L1348.31 327.916L1362.59 326.865L1370.52 326.1" stroke="white" stroke-width="1.78041" stroke-linecap="round" stroke-linejoin="round"/>
</g>
<g style="mix-blend-mode:overlay">
<path d="M994.406 69.3297L1037.51 85.3177L1083.21 102.356L1130.96 120.552L1179.73 139.798L1228.81 160.148L1277.7 181.531L1325.58 203.875L1372.42 227.216L1417.2 251.34L1460.3 276.409L1500.52 302.118L1538.46 328.77L1572.65 355.904L1603.71 383.981L1629.87 412.378L1651.55 441.595L1666.65 470.793" stroke="white" stroke-width="1.78041" stroke-linecap="round" stroke-linejoin="round"/>
</g>
<g style="mix-blend-mode:overlay">
<path d="M1704.98 -121.085L1659.23 -122.011L1572.89 -120.782L1499.9 -116.99L1440.24 -110.83L1376.41 -121.69L1320.5 -130.93L1271.69 -138.924L1231.38 -145.654L1198.74 -151.405L1175.42 -156.123L1113.42 -148.895L1063.89 -140.064L1024.73 -130.058L996.345 -118.93L976.797 -106.913L966.506 -93.9869L963.639 -80.2956L968.571 -65.7497L979.574 -50.3848L996.933 -34.0763L1019.03 -16.8242L1046.02 1.54964L1076.43 21.0273L1110.22 41.8046L1146.17 63.8816L1183.93 87.4186L1237 103.727L1290.93 121.086L1345.63 139.567L1400.76 159.258L1456.6 180.374L1512.43 202.913L1568.66 227.252L1624.17 253.299L1641.17 289.245L1653.03 326.242L1695.03 356.028L1704.98 364.236" stroke="white" stroke-width="1.78041" stroke-linecap="round" stroke-linejoin="round"/>
</g>
<g style="mix-blend-mode:overlay">
<path d="M957.248 51.2051L998.731 65.7866L1043.74 81.4008L1090.83 98.012L1139.61 115.674L1189.13 134.35L1238.85 154.041L1288.37 174.712L1336.97 196.326L1384.76 218.919L1430.78 242.367L1475.51 266.83L1517.77 292.094L1558.15 318.462L1595.2 345.577L1629.46 373.868L1659.1 402.8L1684.37 432.888L1703.04 463.298L1704.98 468.443" stroke="white" stroke-width="1.78041" stroke-linecap="round" stroke-linejoin="round"/>
</g>
<g style="mix-blend-mode:overlay">
<path d="M-758.191 -407L-731.111 -373.35L-673.639 -305.481L-614.423 -236.758L-567.1 -243.808L-513.029 -176.224L-453.35 -106.503L-391.837 -36.9072L-324.146 33.9352L-254.229 103.834L-250.508 122.617L-240.823 145.62L-218.995 174.302L-187.98 207.151L-141.494 245.269L-82.7939 287.073L-5.89806 333.097L85.5792 381.648L196.748 432.603L323.299 484.164L468.776 535.493L627.891 584.828L802.103 630.745L984.986 671.801L1169.6 686.881L1326.59 690.371L1457.72 683.338L1561.91 668.276L1642.08 646.181L1699.62 619.653L1704.98 615.38" stroke="white" stroke-width="1.78041" stroke-linecap="round" stroke-linejoin="round"/>
</g>
<g style="mix-blend-mode:overlay">
<path d="M1386.95 345.506L1400.11 361.708L1401.44 363.506L1407.64 371.838L1425.19 395.464L1430 403.138L1447.14 430.485L1465.62 466.859L1468.06 473.909L1478.27 503.571L1485.12 540.745L1483.87 577.03L1474.95 612.585L1467.1 626.632" stroke="white" stroke-width="1.78041" stroke-linecap="round" stroke-linejoin="round"/>
</g>
<g style="mix-blend-mode:overlay">
<path d="M1216.97 195.507L1250.04 218.118L1269.98 230.563L1297.38 247.21L1308.02 254.67L1337.67 275.447L1348.85 283.904L1377 305.233L1385.58 312.533L1413.33 336.106L1422.84 345.221L1446.73 368.135L1453.68 376.076L1475.04 400.556L1482.59 411.078L1498.7 433.565L1515.58 466.111L1526.46 498.532L1529.29 529.511L1525.02 559.564L1514.92 580.698L1510.74 585.54L1504.19 592.626L1504.12 592.733L1496 603.095L1491.39 610.698L1490.78 612.692L1489.84 613.689L1486.58 615.896" stroke="white" stroke-width="1.78041" stroke-linecap="round" stroke-linejoin="round"/>
</g>
<g style="mix-blend-mode:overlay">
<path d="M-690.873 -407L-667.301 -375.006L-619.71 -310.805L-567.099 -243.808L-518.405 -247.137L-465.937 -245.179L-414.697 -240.158L-383.273 -178.699L-350.78 -116.634L-313.463 -52.3966L-274.241 12.0007L-229.179 77.9469L-181.286 143.43L-153.529 177.026L-149.007 182.528L-141.244 193.869L-126.129 211.139L-111.298 227.679L-98.9241 241.94L-74.9954 262.344L-51.2092 279.364L-19.6249 301.94L16.8023 325.014L70.1966 355.779L124.891 383.927" stroke="white" stroke-width="1.78041" stroke-linecap="round" stroke-linejoin="round"/>
</g>
<g style="mix-blend-mode:overlay">
<path d="M1387.86 647.659L1401.51 612.62L1409.1 575.926L1411.79 539.713L1410.22 504.194L1405.98 469.921L1400.07 437.126L1393.95 406.129L1388.89 377.091L1386.15 350.42L1386.09 350.296" stroke="white" stroke-width="1.78041" stroke-linecap="round" stroke-linejoin="round"/>
</g>
<g style="mix-blend-mode:overlay">
<path d="M929.687 -100.29L966.506 -93.9869L1008.4 -87.1324L1056.11 -79.5122L1108.55 -71.0553L1166.27 -61.5479L1228.6 -50.8655L1295.95 -38.741L1367.99 -24.9962L1444.83 -9.32865L1526.55 8.51102L1612.88 28.861L1704.2 52.1131L1704.98 52.3268" stroke="white" stroke-width="1.78041" stroke-linecap="round" stroke-linejoin="round"/>
</g>
<g style="mix-blend-mode:overlay">
<path d="M890.002 -79.8505L926.518 -73.1028L968.571 -65.7497L1014.77 -57.7913L1028.02 -41.6964L1046.5 -24.658L1070.27 -6.48001L1097.94 12.8374L1129.38 33.4545L1163.38 55.4069L1199.58 78.8192L1254.25 94.7538L1310.12 111.81L1367.2 130.113L1425.16 149.786L1484.25 171.08L1543.78 194.029L1604.14 219.044L1664.14 246.07L1704.98 266.242" stroke="white" stroke-width="1.78041" stroke-linecap="round" stroke-linejoin="round"/>
</g>
<g style="mix-blend-mode:overlay">
<path d="M1326.7 653.57L1340.66 620.098L1350.75 584.757L1356.81 549.986L1360.03 516.211L1361.51 483.755L1362.22 452.793L1363.61 423.666L1366.44 396.355L1372.4 371.215L1380.93 350.919L1381.61 349.334L1382.09 348.177L1385.01 345.115L1385.93 346.485L1385.11 347.839L1385.97 349.975L1386.56 350.028L1388.18 350.438L1389.74 354.925L1390.79 361.103L1395.81 370.557L1399.11 377.714L1400.62 384.746L1397.99 396.23L1393.95 406.129L1386.73 413.981L1390.24 444.497L1393.71 476.758L1395.9 510.55L1395.44 545.517L1391.44 581.41L1382.39 617.57L1369.46 649.599" stroke="white" stroke-width="1.78041" stroke-linecap="round" stroke-linejoin="round"/>
</g>
<g style="mix-blend-mode:overlay">
<path d="M1050.81 395.945L1081.31 379.085L1084.8 375.221L1114.08 365.269L1118.04 364.04L1131.26 360.462L1142.07 357.435" stroke="white" stroke-width="1.78041" stroke-linecap="round" stroke-linejoin="round"/>
</g>
<g style="mix-blend-mode:overlay">
<path d="M887.687 24.7839L920.287 39.0272L955.966 55.7986L992.767 73.3178L1030.65 91.6916L1070.3 109.335L1110.7 129.329L1149.18 151.068L1186.55 173.59L1222.62 196.789L1256.5 220.486L1288.37 244.575L1317.14 268.717L1330.99 279.863L1353.85 298.308L1376.94 323.572L1385.15 334.058L1388.37 339.72L1395.03 348.871L1412.73 372.426L1425.19 395.464L1433.35 416.9L1438.21 436.877L1439.01 454.752L1436.69 470.686L1430.76 484.2L1422.04 495.47L1410.22 504.194L1395.9 510.55L1379.06 514.52L1360.03 516.212L1339.02 515.82L1316.12 513.452L1291.84 509.482L1266.06 503.909L1239.58 497.286L1212.2 489.559L1184.98 481.298L1157.65 472.413L1131.57 463.494L1106.39 454.36L1083.76 445.583L1063.34 436.948L1046.89 428.972L1034.16 421.476L1026.92 414.871L1026.02 408.176L1030.35 404.527" stroke="white" stroke-width="1.78041" stroke-linecap="round" stroke-linejoin="round"/>
</g>
<g style="mix-blend-mode:overlay">
<path d="M1348.9 651.504L1362.24 620.116L1371.82 584.241L1377.16 548.935L1379.06 514.52L1378.81 481.333L1377.6 449.713L1376.46 419.785L1376.89 391.85L1379.76 365.91L1385.42 348.996L1386.24 349.085L1386.27 349.708L1386.82 350.794L1387.43 352.895L1388.69 354.925L1391.92 356.936L1398.25 361.316L1411.95 382.699L1416.81 390.461L1433.35 416.9L1437.67 425.09L1452.31 452.704L1454.8 459.149L1466.5 489.274L1475.72 526.662L1477.68 563.677L1472.57 600.407L1460.59 629.801" stroke="white" stroke-width="1.78041" stroke-linecap="round" stroke-linejoin="round"/>
</g>
<g style="mix-blend-mode:overlay">
<path d="M-990 -257.161L-969.81 -284.508L-936.445 -314.081L-893.199 -336.71L-845.128 -354.514L-789.472 -365.997L-725.431 -296.223L-673.639 -305.481L-619.711 -310.805L-561.029 -310.627L-502.56 -307.19L-442.169 -299.001L-384.573 -288.265L-328.383 -273.576L-277.962 -257.019L-232.544 -237.31L-195.921 -216.212L-167.755 -192.515L-150.841 -167.535L-144.983 -139.975L-151.731 -110.723L-158.408 -97.1561L-166.313 -81.0612L-176.621 -60.1058L-184.277 -37.1742L-191.167 -9.80936L-191.221 -9.54228L-194.942 27.8106L-193.517 61.3535L-192.983 64.9855L-186.396 96.6945L-185.523 100.95L-184.437 104.546L-174.787 130.86L-168.253 147.133L-163.838 154.647L-161.203 159.596L-145.019 185.234L-134.622 199.922L-126.645 209.59L-122.995 215.519L-111.298 227.679L-104.301 234.498L-97.3932 241.976L-83.5595 253.993L-74.1413 262.201L-43.7853 286.628L-11.204 307.957L0.529061 315.631L24.3331 329.785L54.9025 348.551L82.4812 362.865L124.89 383.927L131.3 386.901L207.02 422.117L215.192 425.429L306.136 462.283L314.699 465.399L417.945 502.876L439.221 509.553L545.974 543.06L601.968 558.46L685.095 581.321L736.032 591.612L848.287 614.276L869.171 617.962L947.634 631.831L956.607 633.416L980.892 637.902L982.868 638.401L995.704 638.899L1008.31 638.917L1024.96 640.858L1028.02 640.982L1044.24 642.407L1065.83 645.861L1082.25 650.294L1150.24 661.03L1282.15 665.356L1393.27 660.727L1482.77 649.315L1553.08 631.76L1605.28 610.27L1641.62 585.095L1664.16 558.229L1704.98 532.929" stroke="white" stroke-width="1.78041" stroke-linecap="round" stroke-linejoin="round"/>
</g>
<g style="mix-blend-mode:overlay">
<path d="M1308.95 263.786L1334.19 286.432L1347.73 299.376L1348.78 300.355" stroke="white" stroke-width="1.78041" stroke-linecap="round" stroke-linejoin="round"/>
</g>
<g style="mix-blend-mode:overlay">
<path d="M1043.15 397.049L1025.03 408.96L1022.94 410.509L1007.05 423.328L1004.54 428.936L1008.1 435.541L1017.75 443.161L1031.76 451.423L1050.26 460.449L1071.55 469.796L1095.83 479.66L1121.54 489.523L1148.93 499.547L1176.59 509.179L1204.81 518.508L1232.46 526.983L1259.77 534.621L1285.95 540.906L1311.09 545.784L1334.73 548.864L1356.81 549.986L1377.16 548.935L1395.44 545.517L1411.79 539.713L1425.57 531.274L1437.08 520.413L1445.47 506.864L1451.22 491.09L1453.27 472.823L1452.31 452.704L1447.14 430.485L1438.69 406.93L1425.8 381.862L1409.56 356.046L1388.98 329.358L1384.24 324.711L1365.26 302.509L1337.67 275.447L1307.4 248.688L1274.04 222.267L1240.37 203.074L1230.06 197.198L1199.1 181.834L1197.18 182.172L1181.69 173.252L1179.46 172.255L1144.33 151.478L1131.98 144.623L1129.98 143.573L1106.86 130.825L1068.83 110.867L1030.46 90.8192L993.372 70.7718L957.248 51.2052L921.337 33.8996L888.079 17.5021L856.975 1.83453L829.86 -13.0497L805.913 -27.3463L787.272 -41.002L772.887 -54.177L765.178 -66.8179L762.916 -79.0671L768.685 -90.8356L770.056 -96.5151" stroke="white" stroke-width="1.78041" stroke-linecap="round" stroke-linejoin="round"/>
</g>
<g style="mix-blend-mode:overlay">
<path d="M856.334 9.68613L886.281 21.4368L921.337 33.8996L961.485 47.2705L1004.84 61.4603L1051.27 76.6471L1099.4 92.742L1148.98 109.834L1199.17 127.869L1249.59 146.902L1299.89 166.878L1349.52 187.816L1398.61 209.786L1446.34 232.682L1493.17 256.735L1537.98 281.768L1581.33 308.153L1621.77 335.518L1659.69 364.396L1693.21 394.236L1704.98 406.859" stroke="white" stroke-width="1.78041" stroke-linecap="round" stroke-linejoin="round"/>
</g>
<g style="mix-blend-mode:overlay">
<path d="M1196.34 654.104L1207.27 624.638L1217.26 590.846L1225.47 558.3L1232.46 526.983L1239.58 497.286L1247.15 469.048L1256.77 442.698L1268.5 418.004L1284.22 395.429L1303.79 374.687L1329.3 356.367L1360.53 340.2L1376.84 334.646" stroke="white" stroke-width="1.78041" stroke-linecap="round" stroke-linejoin="round"/>
</g>
<g style="mix-blend-mode:overlay">
<path d="M1704.98 -69.5954L1673.74 -66.8892L1625.51 -59.2156L1587.81 -49.459L1503.85 -66.0346L1425.94 -80.4558L1354.51 -92.9187L1326.82 -81.5419L1308.52 -68.6517L1298.37 -54.3907L1295.95 -38.7409L1300.26 -21.7203L1310.68 -3.25745L1326.38 16.6831L1346.52 38.1548L1416.52 55.122L1439.04 79.2822L1510.76 99.3651L1584.89 121.691L1661.9 146.724L1704.98 161.964" stroke="white" stroke-width="1.78041" stroke-linecap="round" stroke-linejoin="round"/>
</g>
<g style="mix-blend-mode:overlay">
<path d="M980.785 635.107L979.183 627.968L977.278 617.552L972.88 585.612L969.658 554.775L969.373 526.004L966.008 516.692" stroke="white" stroke-width="1.78041" stroke-linecap="round" stroke-linejoin="round"/>
</g>
<g style="mix-blend-mode:overlay">
<path d="M980.554 635.071L979.183 627.968L976.85 616.822L974.661 606.318" stroke="white" stroke-width="1.78041" stroke-linecap="round" stroke-linejoin="round"/>
</g>
<g style="mix-blend-mode:overlay">
<path d="M1386.74 413.981L1384.35 385.387L1384.56 358.966L1386.09 350.296" stroke="white" stroke-width="1.78041" stroke-linecap="round" stroke-linejoin="round"/>
</g>
<g style="mix-blend-mode:overlay">
<path d="M811.201 -14.3316L828.578 -4.68181L854.999 6.03624L884.803 22.2379L892.993 27.6147L895.165 28.6296L919.521 38.7245L956.322 52.8431L993.372 70.7718L1032.9 88.4334L1070.3 109.335L1107.23 130.54L1109.12 131.59L1119.09 137.127L1144.33 151.478L1173.73 168.694L1180.56 172.753L1215.05 194.314L1216.97 195.507L1233.83 206.172L1256.5 220.486L1269.98 230.563L1288.37 244.575L1299.67 254.029L1317.14 268.717L1343.28 292.842L1350.13 300.355L1365.65 316.486L1373.24 325.672L1374.18 327.435L1376.78 331.993L1376.92 334.628L1378.46 336.853L1379.47 338.278L1379.54 338.741L1370.76 340.076L1360.53 340.201L1350.57 339.72L1340.16 338.367L1331.28 336.818L1288.65 349.494L1253.97 364.877L1224.97 382.325L1202.12 402.087L1181.04 395.838L1162.31 389.749L1145.4 383.589L1132.23 377.927L1122.36 372.568L1116.38 366.711L1118.04 364.165L1125.16 361.512L1142.07 357.435L1158.08 353.678L1164.26 352.147L1204.47 344.634L1216.47 342.408L1227.58 340.147L1246.94 337.245L1258.1 336.658L1261.07 340.539L1267.55 343.37L1277.45 346.574L1288.65 349.494L1301.92 352.378L1315.22 354.604L1350.57 339.72L1375.66 332.331L1377.42 334.45L1377.51 335.269L1379.93 336.23L1384.94 339.631L1385.06 339.827L1386.77 342.301L1398.25 361.316L1411.95 382.699L1419.62 402.087L1423.96 419.874L1424.35 435.595L1421.56 449.322L1415.24 460.734L1405.98 469.921L1393.71 476.758L1378.81 481.333L1361.51 483.755L1341.89 484.093L1320.49 482.633L1297.18 479.41L1272.84 474.906L1247.15 469.048L1221.28 462.443L1194.83 454.948L1169.21 447.203L1144.01 439.031L1120.87 431.019L1099.36 422.972L1081.27 415.44L1066.28 408.212L1056.2 401.749L1049.67 394.699L1043.15 397.049L1030.35 404.527L1025.06 409.084L1004.11 428.153L993.479 439.618L989.794 444.052L988.138 449.464L977.313 466.449L978.47 473.909L985.254 482.312L997.592 491.731L1013.85 501.772L1034.04 512.579L1056.61 523.725L1081.64 535.351L1107.78 546.959L1135.11 558.674L1162.55 569.962L1190.18 580.858L1217.26 590.846L1243.84 599.89L1269.53 607.546L1294.3 613.653L1318.06 617.926L1340.66 620.098L1362.24 620.116L1382.39 617.57L1401.51 612.62L1418.82 604.822L1434.86 594.549L1448.53 581.303L1460.44 565.689L1469.27 547.208L1475.72 526.662L1478.27 503.571L1477.84 478.876L1472.89 452.206L1464.54 424.503L1451.36 395.5L1434.68 366.088L1413.33 336.106L1388.73 306.302L1360.05 276.587L1328.66 247.513L1283.95 221.358L1238.68 196.54L1193.28 173.074L1149.18 151.068L1108.97 129.935L1070.3 109.335L1031.67 89.6263L993.372 70.7718L955.966 55.7986L939.373 49.1398L926.198 43.0687L920.215 40.2378L896.589 29.1459L887.687 24.7839L863.42 13.3715L856.334 9.68608L837.783 0.0718708L828.578 -4.68181L808.655 -14.8657L802.192 -21.0437L783.551 -36.0882L768.187 -49.0673L759.267 -61.5301L755.528 -73.6191L755.51 -80.0998L759.587 -85.2452L765.231 -91.7436L770.056 -96.5151L773.937 -98.6338L781.13 -102.355L789.676 -107.233L796.424 -109.939L803.065 -112.984L806.323 -114.106L815.901 -117.381L822.524 -119.358L833.064 -123.221L846.293 -126.533L855.48 -129.203L878.109 -133.957L881.67 -134.705L884.785 -135.31L885.996 -135.542L899.687 -138.479L921.568 -141.809L965.829 -147.755L1016.66 -154.45L1025.1 -155.464L1038.22 -157.209L1084.8 -160.236L1153.52 -164.705L1161.66 -165.221L1178.34 -166.2L1181.29 -166.271L1240.46 -166.485L1249.57 -161.607L1269.53 -157.191L1298.2 -151.761L1336.46 -145.102L1382.59 -137.269L1437.57 -127.886L1499.9 -116.99L1570.54 -104.171L1648.28 -89.3757L1704.98 -77.9633" stroke="white" stroke-width="1.78041" stroke-linecap="round" stroke-linejoin="round"/>
</g>
<g style="mix-blend-mode:overlay">
<path d="M995.135 637.368L993.176 610.822L980.998 597.736L978.524 566.063L977.776 536.241L969.372 526.004L971.9 498.995L969.782 490.716" stroke="white" stroke-width="1.78041" stroke-linecap="round" stroke-linejoin="round"/>
</g>
<g style="mix-blend-mode:overlay">
<path d="M-990 -48.907L-966.765 -35.9991L-915.205 36.6949L-842.814 116.671L-743.182 204.694L-617.254 299.233L-459.278 400.218L-271.392 505.565L-49.7318 614.169L201.092 723.415L482.057 831.379L785.367 935.497L1109.26 1033.78L1444.94 1034.02L1704.98 1015.56" stroke="white" stroke-width="1.78041" stroke-linecap="round" stroke-linejoin="round"/>
</g>
<g style="mix-blend-mode:overlay">
<path d="M1114.96 649.671L1121.47 624.068L1128.56 590.561L1135.11 558.674L1141.43 528.211L1148.93 499.547L1157.65 472.413L1169.21 447.203L1183.43 423.613L1202.12 402.087" stroke="white" stroke-width="1.78041" stroke-linecap="round" stroke-linejoin="round"/>
</g>
<g style="mix-blend-mode:overlay">
<path d="M-990 -300.888L-969.81 -284.508L-863.822 -201.969L-748.309 -117.435L-746.814 -75.898L-729.277 -27.0615L-698.031 27.7038L-646.577 89.7331L-576.945 157.567L-482.709 231.952L-366.074 311.18L-300.591 349.192L-221.399 395.162L-51.8684 481.761L146.309 569.962L367.934 657.273L614.11 741.931L877.129 821.604L1155.55 894.387L1440.06 958.927L1704.98 1009.51" stroke="white" stroke-width="1.78041" stroke-linecap="round" stroke-linejoin="round"/>
</g>
<g style="mix-blend-mode:overlay">
<path d="M977.313 466.449L969.782 490.716L966.007 516.692L966.15 544.609L969.657 554.775L978.524 566.063L991.164 578.098L993.176 610.822L1007.88 624.407L1008.29 638.721" stroke="white" stroke-width="1.78041" stroke-linecap="round" stroke-linejoin="round"/>
</g>
<g style="mix-blend-mode:overlay">
<path d="M1044.24 642.407L1046.48 617.962L1049.1 584.721L1052.45 553.404L1056.61 523.725L1063.02 495.968L1071.55 469.796L1083.76 445.583L1099.36 422.972L1120.05 402.408L1145.4 383.589L1177.27 367.013L1215.16 352.45L1261.07 340.539L1314.5 331.156L1315.52 329.928L1320.17 329.144L1335.6 328.468L1364.36 326.367L1370.3 325.797" stroke="white" stroke-width="1.78041" stroke-linecap="round" stroke-linejoin="round"/>
</g>
<g style="mix-blend-mode:overlay">
<path d="M790.887 -26.9547L803.688 -18.4977L827.474 -8.58088L856.976 1.83451L892.548 12.9442L931.966 24.6771L967.628 42.6058L1004.84 61.4603L1043.74 81.4008L1083.21 102.356L1123.08 124.415L1170.86 144.178L1219.22 165.133L1257.66 191.608L1304.43 215.376L1350.11 240.249L1382.28 271.139L1423.02 298.628L1448.3 331.868L1481.58 361.494L1497.8 396.426L1509.64 431.642L1515.58 466.111L1517.1 500.206L1512.88 532.716L1504.72 564.211L1491.71 593.357L1475.83 620.971L1474.01 623.267" stroke="white" stroke-width="1.78041" stroke-linecap="round" stroke-linejoin="round"/>
</g>
<g style="mix-blend-mode:overlay">
<path d="M1223.47 655.386L1232.5 634.074L1243.84 599.891L1252.56 566.615L1259.77 534.621L1266.06 503.909L1272.84 474.906L1280.43 447.417L1290.54 421.903L1303.29 398.135L1320.58 376.61L1342.35 357.061L1369.8 340.646L1370.76 340.076L1378.46 336.853" stroke="white" stroke-width="1.78041" stroke-linecap="round" stroke-linejoin="round"/>
</g>
<g style="mix-blend-mode:overlay">
<path d="M1202.13 402.087L1223.72 407.856L1246.4 413.375L1268.5 418.004L1290.54 421.903L1311.12 424.503L1330.67 425.891L1348.08 425.589L1363.61 423.666L1376.46 419.785L1386.74 413.981" stroke="white" stroke-width="1.78041" stroke-linecap="round" stroke-linejoin="round"/>
</g>
<g style="mix-blend-mode:overlay">
<path d="M1387.34 351.506L1390.55 354.657L1391.92 356.936L1394.46 364.129L1399.39 373.085L1406.78 386.473L1408.53 386.545L1419.62 402.087L1428.01 417.755L1438.21 436.877L1440.72 442.877L1453.27 472.823L1464.38 509.944L1469.28 547.208L1467.89 584.65L1458.13 620.881L1452.29 632.383" stroke="white" stroke-width="1.78041" stroke-linecap="round" stroke-linejoin="round"/>
</g>
<g style="mix-blend-mode:overlay">
<path d="M1141.32 651.504L1146.08 636.549L1155.12 602.65L1162.55 569.962L1169.6 538.876L1176.59 509.179L1184.98 481.298L1194.83 454.948L1207.79 430.574L1223.72 407.856L1244.55 387.31L1269.91 368.616L1301.92 352.378L1340.16 338.367L1373.72 330.426" stroke="white" stroke-width="1.78041" stroke-linecap="round" stroke-linejoin="round"/>
</g>
<g style="mix-blend-mode:overlay">
<path d="M1250.53 655.813L1256.98 642.157L1269.53 607.546L1278.91 573.736L1285.95 540.906L1291.84 509.481L1297.18 479.41L1303.5 451.138L1311.12 424.503L1321.84 399.933L1335.82 377.233L1354.3 357.702L1355.04 356.901L1376.09 341.304L1376.53 340.984L1379.58 339.275L1382.18 341.109L1365.81 355.352L1364.76 356.794L1350.15 376.77L1338.52 400.236L1330.67 425.891L1324.81 453.31L1320.49 482.633L1316.12 513.452L1311.09 545.784L1304.11 579.256L1294.3 613.653L1280.73 648.62L1277.33 655.119" stroke="white" stroke-width="1.78041" stroke-linecap="round" stroke-linejoin="round"/>
</g>
<g style="mix-blend-mode:overlay">
<path d="M1169.6 -76.2541L1166.27 -61.5479L1169.83 -45.7201L1180.05 -28.6461L1195.77 -10.3613L1259.26 2.42203L1279.89 22.9501L1304.48 45.0093L1332.2 68.6531L1396.9 86.0477L1464.18 105.258L1533.56 126.463L1605.44 150.053L1678.77 176.136L1704.98 186.267" stroke="white" stroke-width="1.78041" stroke-linecap="round" stroke-linejoin="round"/>
</g>
<g style="mix-blend-mode:overlay">
<path d="M929.687 -100.29L924.631 -87.0255L926.518 -73.1028L935.794 -58.3254L950.642 -42.8181L971.473 -26.3493L996.577 -8.99036L1026.17 9.49026L1058.78 29.0569L1094.41 49.9055L1131.8 72.0359L1170.7 95.5729L1222.56 112.398L1274.96 130.202L1327.8 149.056L1380.65 168.979L1433.72 190.166L1486.33 212.581L1538.92 236.545L1590.4 261.952L1641.17 289.245L1689.69 318.177L1704.98 328.396" stroke="white" stroke-width="1.78041" stroke-linecap="round" stroke-linejoin="round"/>
</g>
<g style="mix-blend-mode:overlay">
<path d="M1066.01 644.65L1067.97 631.706L1072.57 597.932L1076.68 565.724L1081.65 535.351L1087.56 506.562L1095.84 479.66L1106.39 454.36L1120.87 431.019L1138.89 409.334L1162.32 389.749L1190.66 371.981L1225.93 356.598L1267.56 343.37L1317.74 332.99L1360.87 327.364" stroke="white" stroke-width="1.78041" stroke-linecap="round" stroke-linejoin="round"/>
</g>
<g style="mix-blend-mode:overlay">
<path d="M752.821 -68.6517L759.266 -61.5301L772.886 -54.177L794.59 -46.4323L821.616 -38.4026L854.821 -29.8745L891.924 -20.9547L919.681 -4.5037L950.553 12.8018L996.309 24.4279L1031.85 43.9411L1081.15 57.579L1119.57 79.656L1170.7 95.5729L1210.15 120.499L1249.59 146.902L1288.37 174.712L1325.58 203.875L1361.03 234.391L1404.93 259.299L1434.61 292.593L1472.23 319.744L1493.72 355.352L1522.56 384.141L1533.37 421.227L1550.78 450.728L1548.7 488.099L1539.58 524.188L1535.42 553.119L1523.47 570.354L1516.31 580.662L1514.62 583.101L1511.84 587.125L1501.59 600.62L1493.68 609.398L1491.48 611.855L1488.4 615.131L1487.13 617.232L1485.3 618.424" stroke="white" stroke-width="1.78041" stroke-linecap="round" stroke-linejoin="round"/>
</g>
<g style="mix-blend-mode:overlay">
<path d="M768.686 -90.8356L774.917 -84.9603L789.819 -78.7645L810.668 -72.355L838.46 -65.5716L850.602 -51.4174L869.118 -36.5154L891.925 -20.9547L933.622 -11.4117L978.168 -1.33461L1009.86 17.1638L1058.78 29.0569L1110.22 41.8046L1163.38 55.4069L1218.49 70.024L1254.26 94.7539L1290.93 121.086L1327.8 149.056L1363.82 178.611L1398.61 209.786L1430.78 242.367L1460.3 276.409L1485.57 311.465L1521.58 338.616L1536.95 375.648L1563.21 404.206L1565.99 442.129L1579.57 470.989L1567.43 508.36L1565.49 535.974L1555.16 561.63L1536.73 586.003L1507.11 606.46L1488.4 615.131L1486.67 615.273L1485.48 615.594L1484.3 617.214L1483.34 618.709L1478.69 621.522" stroke="white" stroke-width="1.78041" stroke-linecap="round" stroke-linejoin="round"/>
</g>
<g style="mix-blend-mode:overlay">
<path d="M759.588 -85.2452L762.917 -79.0672L775.344 -72.5687L794.021 -65.8566L819.926 -58.7884L834.329 -44.6875L854.821 -29.8746L879.266 -14.4207L919.682 -4.50378L963.034 5.96498L1009.86 17.1637L1044.15 36.7482L1094.41 49.9054L1146.17 63.8816L1199.58 78.8192L1237 103.727L1274.96 130.202L1312.81 158.243L1349.52 187.816L1384.76 218.919L1417.2 251.34L1446.88 285.097L1485.57 311.465L1506.88 347.607L1536.95 375.648L1547.26 413.34L1565.99 442.129L1562.76 480.14L1567.43 508.36L1554.15 534.443L1548.73 545.072L1533.73 564.923L1524.11 577.635L1522.56 579.665L1508.34 594.478L1501.96 599.766L1496.57 603.416L1491.89 606.941L1485.48 615.594L1484.6 617.837L1483 619.208L1481.4 619.582L1479.9 620.418" stroke="white" stroke-width="1.78041" stroke-linecap="round" stroke-linejoin="round"/>
</g>
<g style="mix-blend-mode:overlay">
<path d="M988.903 636.407L985.289 631.6L980.998 597.736L972.88 585.612L968.998 574.377L966.15 544.609" stroke="white" stroke-width="1.78041" stroke-linecap="round" stroke-linejoin="round"/>
</g>
<g style="mix-blend-mode:overlay">
<path d="M781.165 -102.195L782.803 -96.8177L791.705 -91.2095L808.886 -85.3163L831.871 -79.1739L861.568 -72.6398L895.93 -65.7497L908.892 -50.8833L926.963 -35.2691L950.642 -18.7469L978.167 -1.33458L1026.17 9.49029L1076.43 21.0273L1129.38 33.4545L1184.36 46.8076L1241.58 61.2645L1275.21 85.7272L1310.12 111.81L1345.63 139.567L1380.65 168.979L1414.67 200.083L1446.34 232.682L1475.51 266.83L1500.52 302.118L1521.58 338.616L1553.43 366.088L1563.21 404.206L1583.88 432.532L1579.57 470.989L1586.1 498.888L1570.51 526.947L1565.49 535.974L1547.13 558.407L1536.86 570.977L1518.09 588.905L1509.03 597.558L1505.45 600.496L1501.13 602.704L1495.89 608.543L1491.8 612.959L1488.57 617.623L1478.84 623.178" stroke="white" stroke-width="1.78041" stroke-linecap="round" stroke-linejoin="round"/>
</g>
<g style="mix-blend-mode:overlay">
<path d="M768.739 -43.5837L771.552 -40.3789L782.875 -32.1L802.958 -22.6639L829.86 -13.0497L861.836 -2.99043L899.349 7.74542L931.966 24.6771L975.479 37.2289L1021.38 50.5108L1059.92 71.0566L1099.4 92.742L1139.61 115.674L1179.73 139.798L1219.22 165.133L1267.54 187.192L1314.84 210.284L1350.11 240.249L1393.43 265.958L1423.02 298.628L1459.98 326.634L1481.58 361.494L1509.69 391.191L1521.03 427.44L1526.16 463.102L1536.79 494.366L1539.58 524.188L1530.77 545.588L1525.02 559.564L1515.65 574.413L1509.44 582.585L1504.19 592.573L1504.12 592.733L1496.46 603.683L1487.9 614.401" stroke="white" stroke-width="1.78041" stroke-linecap="round" stroke-linejoin="round"/>
</g>
<g style="mix-blend-mode:overlay">
<path d="M1027.77 640.715L1025.01 638.561L1025.9 604.217L1027.43 571.885L1029.69 541.262L1034.04 512.579L1040.41 485.553L1050.26 460.449L1063.34 436.948L1081.27 415.441L1103.65 395.625L1132.23 377.927L1166.5 362.153L1208.39 348.836L1257.37 337.868L1258.69 335.696L1264.05 334.664L1286.5 333.364L1312.97 330.284L1315.02 330.551L1317.74 332.99L1323.09 334.806L1331.28 336.818L1372.3 328.521" stroke="white" stroke-width="1.78041" stroke-linecap="round" stroke-linejoin="round"/>
</g>
<g style="mix-blend-mode:overlay">
<path d="M1704.98 -131.607L1701.9 -131.749L1599.05 -133.352L1510.95 -131.981L1437.57 -127.886L1376.41 -121.69L1327.55 -113.536L1289.1 -103.797L1261.06 -92.5092L1241.9 -79.9217L1231.5 -65.9989L1228.6 -50.8655L1232.89 -34.4145L1243.27 -16.6995L1259.26 2.42207L1326.38 16.6831L1397.17 32.6534L1471.78 50.6176L1549.86 70.8253L1631.75 93.6857L1645.57 119.163L1661.9 146.724L1678.77 176.136L1695.9 207.596L1704.98 211.495" stroke="white" stroke-width="1.78041" stroke-linecap="round" stroke-linejoin="round"/>
</g>
<g style="mix-blend-mode:overlay">
<path d="M1404.93 644.205L1406.43 641.588L1418.82 604.822L1425.08 568.003L1425.57 531.274L1422.04 495.47L1415.24 460.734L1406.87 427.618L1397.99 396.23L1390.12 366.871L1387.36 353.376" stroke="white" stroke-width="1.78041" stroke-linecap="round" stroke-linejoin="round"/>
</g>
<g style="mix-blend-mode:overlay">
<path d="M1024.92 640.43L1025.01 638.561L1007.88 624.407L1007.44 590.971L991.164 578.098L991.022 547.493L992.731 518.633L997.592 491.731L1005.46 466.485L1017.75 443.162L1034.16 421.476L1056.2 401.749L1083.51 383.803L1117.73 368.028" stroke="white" stroke-width="1.78041" stroke-linecap="round" stroke-linejoin="round"/>
</g>
<g style="mix-blend-mode:overlay">
<path d="M1089.92 647.089L1090.3 645.487L1096.69 611.036L1102.42 578.259L1107.78 546.959L1114.14 517.476L1121.54 489.523L1131.57 463.494L1144.01 439.031L1160.62 416.598L1181.05 395.838L1207.22 377.286L1238.64 360.657L1277.45 346.574L1323.09 334.806L1371.32 327.186" stroke="white" stroke-width="1.78041" stroke-linecap="round" stroke-linejoin="round"/>
</g>
<g style="mix-blend-mode:overlay">
<path d="M1302.84 654.478L1303.57 653.178L1318.06 617.926L1328.09 583.012L1334.73 548.864L1339.02 515.82L1341.89 484.093L1344.66 454.004L1348.08 425.589L1353.74 399.185L1362.18 374.723L1374.34 354.106L1375.25 352.592L1383.26 343.726L1382.85 342.355L1382.12 341.162L1379.97 338.456L1379.24 337.904" stroke="white" stroke-width="1.78041" stroke-linecap="round" stroke-linejoin="round"/>
</g>
<g style="mix-blend-mode:overlay">
<path d="M1704.98 -149.945L1701.97 -150.07L1585.25 -155.179L1473.67 -157.067L1379.01 -155.66L1298.2 -151.761L1231.38 -145.654L1176.2 -137.838L1132.96 -128.456L1099.64 -117.862L1076.59 -106.076L1062.01 -93.3104L1056.11 -79.5122L1057.36 -64.7883L1065.8 -49.0317L1080.01 -32.2781L1099.95 -14.3672L1124.29 4.70097L1152.79 25.0866L1184.36 46.8075L1218.49 70.024L1275.21 85.7272L1333.52 102.659L1393.48 121.015L1454.73 140.92L1517.61 162.659L1581.32 186.32L1646.25 212.35L1704.98 238.023" stroke="white" stroke-width="1.78041" stroke-linecap="round" stroke-linejoin="round"/>
</g>
<g style="mix-blend-mode:overlay">
<path d="M1432.3 638.686L1447.2 635L1452.2 632.579L1460.5 629.837L1460.59 629.801L1462.88 629.071L1466.82 627.558L1473.94 624.781L1475.52 624.442L1477.23 623.036L1478.35 622.537L1478.6 621.291L1479.26 620.615L1479.9 620.419L1481.6 619.279L1482.84 618.46L1487.13 617.232L1508.64 607.493L1529.72 595.279L1561.16 577.048L1577.81 552.247L1586.18 543.363L1611.07 516.924L1608.59 489.096L1623.46 451.191L1604.98 422.455L1603.71 383.981L1595.2 345.577L1581.33 308.153L1561.93 271.584L1538.92 236.545L1512.43 202.914L1484.25 171.08L1454.73 140.92L1425.46 112.611L1396.9 86.0477L1370.39 61.2644L1346.52 38.1548L1279.89 22.9501L1216.6 9.27661L1156.51 -3.13282L1099.95 -14.3672L1046.5 -24.6579L996.933 -34.0762L950.643 -42.818L908.892 -50.8833L870.898 -58.4678L838.459 -65.5716L831.872 -79.1739L833.047 -92.1353L841.148 -104.563L858.418 -116.313L884.02 -127.441L920.216 -137.714L921.569 -141.809L932.928 -144.283L965.26 -148.645L971.491 -149.447L974.251 -149.892L997.396 -152.544L1001.38 -153.007" stroke="white" stroke-width="1.78041" stroke-linecap="round" stroke-linejoin="round"/>
</g>
<g style="mix-blend-mode:overlay">
<path d="M1424.64 643.208L1442.19 639.38L1448.8 636.638L1457.17 632.508L1459.68 632.009L1460.68 632.098L1472.27 627.611L1475.56 625.333L1497.23 619.315L1522.22 609.434L1565.26 592.413L1590.47 569.09L1605.1 543.398L1611.07 516.924L1635.3 479.553L1623.46 451.191L1629.87 412.378L1629.46 373.868L1621.77 335.518L1608.75 298.254L1590.4 261.952L1568.66 227.252L1543.78 194.029L1517.61 162.659L1490.53 132.997L1464.18 105.258L1439.04 79.2822L1370.39 61.2644L1304.48 45.0094L1241.51 30.2854L1181.51 16.9324L1124.29 4.70098L1070.27 -6.47996L1019.03 -16.8241L971.473 -26.3493L926.963 -35.2691L886.922 -43.5658L850.601 -51.4174L819.925 -58.7883L810.667 -72.355L808.887 -85.3163L813.587 -97.7792L827.154 -109.654L848.59 -120.978L880.299 -131.536L916.156 -140.046L920.803 -139.494L927.141 -133.743L942.987 -129.275L965.794 -124.396L996.345 -118.93L1033.02 -112.895L1076.59 -106.076L1125.73 -98.4557L1181.13 -89.7495L1241.9 -79.9217L1308.52 -68.6517L1380.49 -55.7794L1458.08 -41.002L1541.1 -24.0882L1629.56 -4.68176L1649.42 -18.5333L1678.08 -30.3552L1704.98 -37.1385" stroke="white" stroke-width="1.78041" stroke-linecap="round" stroke-linejoin="round"/>
</g>
<g style="mix-blend-mode:overlay">
<path d="M1145.04 151.567L1152.54 155.555L1159.25 159.098L1186.55 173.59L1199.1 181.834L1222.62 196.789L1234.83 204.089L1264.72 221.928L1276.88 229.548L1307.4 248.688L1317.09 255.257L1348.81 276.8L1359.42 284.652L1388.73 306.302L1397.06 313.227L1425.21 336.675L1458.43 368.028L1486.38 399.613L1509.64 431.642L1526.16 463.102L1526.46 498.532L1520.62 532.467L1515.3 549.683L1510.4 565.511L1494.89 596.276L1481.24 619.137" stroke="white" stroke-width="1.78041" stroke-linecap="round" stroke-linejoin="round"/>
</g>
<g style="mix-blend-mode:overlay">
<path d="M1281.03 240.996L1299.67 254.029L1326.93 272.67L1339.04 282.088L1365.26 302.509L1390.31 324.177L1401.21 333.613L1410.89 343.014L1434.68 366.088L1441.66 374.117L1463.43 399.168L1470.98 409.69L1487.77 433.031L1492.56 442.147L1505.43 466.627L1509.83 479.268L1517.1 500.206L1520.62 532.467L1516.9 563.837L1509.21 581.232" stroke="white" stroke-width="1.78041" stroke-linecap="round" stroke-linejoin="round"/>
</g>
<g style="mix-blend-mode:overlay">
<path d="M1377.01 328.112L1385.15 334.058L1387.36 333.934L1409.56 356.046L1416.79 364.361L1438.78 389.66L1446.29 399.826L1464.54 424.503L1469.33 432.942L1484.44 459.63L1489.07 471.096L1498.83 495.238L1505.36 529.992L1504.72 564.211L1496.82 596.116L1492.17 605.107" stroke="white" stroke-width="1.78041" stroke-linecap="round" stroke-linejoin="round"/>
</g>
<g style="mix-blend-mode:overlay">
<path d="M1460.57 629.819L1461.76 629.445L1463.1 628.786L1466.85 628.021L1473.8 625.19L1474.24 623.16L1475.31 623.499L1477.14 623.427L1477.46 622.68L1478.03 621.576L1478.51 621.077L1479.26 620.614L1481.06 619.439L1483.5 619.119L1485.39 619.244L1507.11 606.46L1512.09 601.386L1536.73 586.003L1549.59 575.428L1577.81 552.247L1586.16 526.395L1586.1 498.888L1599.64 461.161L1583.88 432.532L1581.83 394.254L1553.43 366.088L1538.46 328.77L1517.77 292.094L1493.17 256.735L1464.59 222.64L1433.72 190.166L1400.76 159.258L1367.2 130.113L1333.52 102.659L1300.83 76.9142L1269.87 52.8253L1241.51 30.2854L1216.6 9.27661L1195.77 -10.3613L1136.14 -21.8449L1080.01 -32.278L1028.02 -41.6964L979.574 -50.3848L935.794 -58.3254L895.93 -65.7497L890.002 -79.8505L858.221 -86.2065L833.047 -92.1353L813.587 -97.7792L802.156 -103.12L796.975 -109.138L789.676 -107.233L782.234 -103.156L781.076 -102.533" stroke="white" stroke-width="1.78041" stroke-linecap="round" stroke-linejoin="round"/>
</g>
<g style="mix-blend-mode:overlay">
<path d="M1431.41 638.846L1443.73 635.036L1446.66 634.11L1453.48 633.042L1459.68 632.009L1466.73 628.235L1473.48 623.962L1475.08 622.982L1477.91 622.199L1483.38 618.976L1485.92 614.704L1491.83 609.914L1500.66 605.837L1517.01 595.368L1531.59 582.478L1555.16 561.63L1564.44 551.072L1586.16 526.395L1590.75 518.74L1608.59 489.096L1599.64 461.161L1604.98 422.455L1581.83 394.254L1572.64 355.904L1558.15 318.462L1537.98 281.768L1514.03 246.516L1486.33 212.581L1456.6 180.374L1425.16 149.786L1393.48 121.015L1362.08 93.9705L1332.2 68.6531L1269.87 52.8253L1210.03 38.3506L1152.79 25.0866L1097.94 12.8374L1046.02 1.54962L996.577 -8.99038L950.642 -18.747L907.646 -27.9339L886.922 -43.5658L870.898 -58.4679L861.569 -72.6399L858.222 -86.2066L862.975 -99.0789L875.082 -111.382L896.714 -122.936L927.141 -133.743L968.553 -143.571L978.969 -139.637L1026.38 -148.841L1084.71 -156.782L1155.02 -163.797L1161.44 -165.132L1204.14 -166.663L1212.59 -166.966L1240.46 -166.449L1333.41 -167.5L1338.36 -164.758L1353.26 -160.877L1379.01 -155.66L1413.67 -149.251L1458.24 -141.328L1510.95 -131.981L1572.89 -120.782L1642.51 -107.767L1704.98 -95.5537" stroke="white" stroke-width="1.78041" stroke-linecap="round" stroke-linejoin="round"/>
</g>
<g style="mix-blend-mode:overlay">
<path d="M1382.87 340.503L1385.65 342.177L1392.33 348.373L1395.03 348.871L1412.73 372.426L1420.19 382.361L1438.69 406.93L1443.48 414.746L1460.43 442.378L1465.05 452.099L1477.84 478.876L1480.13 486.728L1488.52 515.321L1492.76 551.837L1488.32 586.947L1475.83 620.97" stroke="white" stroke-width="1.78041" stroke-linecap="round" stroke-linejoin="round"/>
</g>
<g style="mix-blend-mode:overlay">
<path d="M1388.64 350.064L1391.58 354.64L1399.71 369.097L1405 386.545L1410.43 402.194L1424.35 435.595L1436.69 470.686L1445.47 506.864L1450.1 544.057L1448.53 581.303L1440.59 618.531L1431.41 638.846" stroke="white" stroke-width="1.78041" stroke-linecap="round" stroke-linejoin="round"/>
</g>
<g style="mix-blend-mode:overlay">
<path d="M968.999 574.377L970.299 581.766L974.661 606.318L977.759 618.407L985.29 631.6L985.859 635.908" stroke="white" stroke-width="1.78041" stroke-linecap="round" stroke-linejoin="round"/>
</g>
<g style="mix-blend-mode:overlay">
<path d="M1376.94 323.571L1385.31 333.987L1396.95 348.479L1404.5 357.221L1425.8 381.862L1433.28 391.85L1451.9 416.722L1456.69 424.823L1472.89 452.206L1477.55 462.799L1488.86 488.437L1497.42 524.188L1499.1 559.689L1491.71 593.356L1477 621.095L1474.24 623.16" stroke="white" stroke-width="1.78041" stroke-linecap="round" stroke-linejoin="round"/>
</g>
<g style="mix-blend-mode:overlay">
<path d="M1334.2 286.432L1354.62 307.299L1355.76 308.456L1367.97 322.628L1370.68 325.761L1370.75 326.064L1371.41 327.168L1373.29 328.325L1376.75 332.011L1377.48 334.432L1379.04 336.604L1379.97 338.456L1379.77 338.705L1383.28 340.61L1385.24 342.64L1384.31 344.936L1384.15 345.399L1385.86 347.144L1387.39 350.242L1387.43 352.895L1391.15 358.147L1399.71 369.097L1404.63 377.233L1408.53 386.544L1410.43 402.194L1410.29 415.903L1406.87 427.618L1400.07 437.126L1390.24 444.497L1377.6 449.713L1362.22 452.793L1344.66 454.004L1324.81 453.31L1303.5 451.138L1280.43 447.417L1256.77 442.698L1232.09 436.877L1207.79 430.574L1183.43 423.613L1160.62 416.598L1138.89 409.334L1120.05 402.408L1103.65 395.625L1091.6 389.464L1083.51 383.803L1081.31 379.085" stroke="white" stroke-width="1.78041" stroke-linecap="round" stroke-linejoin="round"/>
</g>
<g style="mix-blend-mode:overlay">
<path d="M1483.05 617.837L1484.3 617.214L1486.63 615.576L1492.17 611.143L1497.69 609.362L1517.01 595.368L1536.86 570.977L1548.73 545.072L1552.08 517.031L1552.1 516.977L1562.76 480.14L1550.78 450.728L1547.26 413.34L1522.56 384.141L1506.88 347.607L1472.23 319.744L1446.88 285.097L1404.93 259.299L1372.42 227.216L1336.97 196.326L1299.89 166.878L1261.43 138.89L1222.56 112.398L1183.93 87.4186L1131.8 72.0359L1081.15 57.579L1044.15 36.7483L996.31 24.4279L963.034 5.96506L933.622 -11.4117L907.646 -27.9338L869.118 -36.5154L834.329 -44.6875L805.415 -52.3788L781.504 -59.7853L765.178 -66.8179L755.083 -75.0434L755.51 -80.0997" stroke="white" stroke-width="1.78041" stroke-linecap="round" stroke-linejoin="round"/>
</g>
<g style="mix-blend-mode:overlay">
<path d="M989.794 444.052L988.138 449.464L994.69 458.099L1005.46 466.485L1021.25 475.778L1040.41 485.553L1063.02 495.968L1087.56 506.562L1114.14 517.476L1141.43 528.211L1169.6 538.876L1197.57 548.882L1225.47 558.3L1252.56 566.615L1278.91 573.736L1304.11 579.256L1328.09 583.012L1350.75 584.757L1371.82 584.241L1391.44 581.41L1409.1 575.926L1425.08 568.003L1438.6 557.232L1450.1 544.057L1458.49 528.087L1464.38 509.944L1466.5 489.274L1465.62 466.859L1460.43 442.378L1451.9 416.722L1438.78 389.66L1422.24 361.993L1401.21 333.613L1377 305.233L1348.81 276.8L1317.94 248.83L1283.95 221.358L1247.99 194.706L1209.99 168.926L1170.86 144.178L1130.96 120.552L1090.83 98.012L1051.27 76.6471L1012.42 56.3683L975.479 37.229L940.28 19.051L908.376 1.90572L869.278 -8.42063L843.64 -23.7143L821.616 -38.4027L805.415 -52.3788L794.02 -65.8565L789.818 -78.7644L791.706 -91.2095L802.157 -103.12L820.067 -114.515L847.913 -125.251L878.447 -133.565L884.785 -135.31L899.687 -138.479L911.331 -140.242L921.551 -141.737L932.927 -144.283L965.259 -148.645L974.251 -149.892L991.734 -152.153L1001.38 -153.007L1025.05 -155.429L1030.35 -155.642L1077.3 -159.399L1084.74 -158.188L1094.89 -153.168L1113.42 -148.895L1141.09 -143.749L1176.2 -137.838L1219.57 -130.877L1269.76 -122.883L1327.55 -113.536L1391.79 -102.782L1463.19 -90.2659L1540.92 -75.8802L1625.51 -59.2156L1704.98 -42.4798" stroke="white" stroke-width="1.78041" stroke-linecap="round" stroke-linejoin="round"/>
</g>
<g style="mix-blend-mode:overlay">
<path d="M803.065 -112.984L797.207 -109.031L782.804 -96.8177L774.916 -84.9602L775.344 -72.5686L781.504 -59.7853L794.59 -46.4323L812.163 -32.5985L835.308 -18.106L861.836 -2.99038L892.548 12.9442L925.592 29.6267L961.485 47.2705L998.731 65.7867L1037.51 85.3177L1076.73 105.81L1116.18 127.317L1155.23 149.751L1193.28 173.074L1230.06 197.198L1264.72 221.928L1297.38 247.21L1326.93 272.67L1352.66 299.322L1354.44 303.026L1375.66 324.48L1375.46 326.527L1375.61 328.984L1375.66 332.331L1377.33 334.485L1379.54 336.408L1380.61 338.527L1382.12 341.162L1384.22 343.014L1385.47 344.616L1386.43 346.966L1387.3 350.028L1384.56 358.966L1379.76 365.91L1372.4 371.215L1362.18 374.723L1350.15 376.77L1335.82 377.233L1320.58 376.61L1303.79 374.687L1287.12 372.105L1269.9 368.616L1253.97 364.877L1238.64 360.657L1225.93 356.598L1215.16 352.45L1208.39 348.836L1204.35 344.794L1164.26 352.147L1158.08 353.678L1116.38 366.711L1080.9 378.194L1076.82 379.102L1059.6 387.47L1059.46 387.542L1051.93 391.227L1050.81 395.945L1026.92 414.871L1008.1 435.541L994.69 458.099L985.254 482.312L980.073 508.431L977.776 536.241L991.022 547.493L1007.62 559.333L1027.43 571.885L1049.1 584.721L1072.56 597.932L1096.69 611.036L1121.47 624.068L1146.08 636.549L1170.54 648.424L1181.49 653.41" stroke="white" stroke-width="1.78041" stroke-linecap="round" stroke-linejoin="round"/>
</g>
<g style="mix-blend-mode:overlay">
<path d="M767.599 -44.4738L768.24 -44.1356L783.551 -36.0881L805.913 -27.3463L835.307 -18.106L869.278 -8.42064L899.349 7.74544L940.28 19.051L984.986 31.1578L1021.38 50.5108L1069.8 64.6828L1119.57 79.656L1159.23 103.104L1199.17 127.869L1238.85 154.041L1277.7 181.531L1314.84 210.284L1361.03 234.391L1393.43 265.958L1434.61 292.592L1459.98 326.634L1493.72 355.352L1509.69 391.191L1533.37 421.227L1537.7 457.85L1536.79 494.366L1529.29 529.511L1522.38 548.65L1516.9 563.837L1509.55 576.852L1504.31 586.092L1496.82 596.116L1479.35 620.49" stroke="white" stroke-width="1.78041" stroke-linecap="round" stroke-linejoin="round"/>
</g>
<g style="mix-blend-mode:overlay">
<path d="M1389.46 355.067L1390.86 360.622L1398.7 384.372L1399.54 386.651L1410.29 415.903L1421.56 449.322L1430.76 484.2L1437.08 520.413L1438.6 557.232L1434.86 594.549L1423.96 631.261L1418.89 641.392" stroke="white" stroke-width="1.78041" stroke-linecap="round" stroke-linejoin="round"/>
</g>
<g style="mix-blend-mode:overlay">
<path d="M757.735 -56.7408L760.477 -53.3403L760.922 -52.4323L767.598 -44.4739L772.263 -40.3077L782.874 -32.1L788.233 -27.827L802.192 -21.0437L827.473 -8.58087L853.77 7.12232L863.42 13.3715L886.975 23.1104L919.609 37.5138L955.965 55.7986L966.844 61.9766L993.194 74.4395L1002.47 78.9083L1030.87 92.5818L1039.61 96.926L1068.77 111.472L1106.5 131.11L1144.33 151.478L1168.72 165.578L1181.69 173.252L1214.84 194.19L1250.03 218.118L1281.03 240.996L1308.95 263.786L1326.93 279.008L1343.27 292.842L1364.82 316.859L1371.37 325.851L1371.81 327.097L1372.67 328.45L1374.02 330.123L1376.75 332.011L1379.93 336.23L1379.79 338.563L1379.72 338.723L1381.5 341.696L1382.92 344.1L1384.28 345.239L1385.65 346.076L1385.86 347.144L1385.99 348.693L1386.24 349.085L1386.65 349.744L1386.82 350.794L1387.54 351.168L1389.65 355.601L1390.12 366.871L1388.89 377.091L1384.35 385.387L1376.89 391.85L1366.44 396.355L1353.74 399.185L1338.52 400.236L1321.84 399.933L1303.29 398.135L1284.22 395.429L1264.08 391.601L1244.55 387.31L1224.97 382.325L1207.22 377.286L1190.66 371.981L1177.27 367.013L1166.5 362.153L1160.36 357.969L1122.36 372.568L1091.6 389.464L1066.28 408.212L1046.89 428.972L1031.76 451.423L1021.25 475.778L1013.85 501.772L1009.77 529.707L1007.61 559.333L1007.44 590.971L1025.9 604.217L1046.48 617.962L1067.97 631.706L1090.3 645.487L1093.64 647.481" stroke="white" stroke-width="1.78041" stroke-linecap="round" stroke-linejoin="round"/>
</g>
<g style="mix-blend-mode:overlay">
<path d="M974.66 606.318L977.331 617.677L980.874 635.125" stroke="white" stroke-width="1.78041" stroke-linecap="round" stroke-linejoin="round"/>
</g>
<g style="mix-blend-mode:overlay">
<path d="M757.736 -56.7408L759.374 -55.5302L768.187 -49.0673L787.273 -41.002L812.163 -32.5985L843.64 -23.7143L879.266 -14.4206L908.376 1.90571L950.554 12.8018L984.987 31.1578L1031.85 43.9411L1069.81 64.6828L1108.9 86.5996L1148.98 109.834L1189.13 134.35L1228.81 160.148L1267.54 187.192L1304.43 215.376L1339.38 244.646L1371.21 274.699L1400.28 305.554L1425.21 336.675L1446.73 368.135L1463.44 399.168L1476.47 429.986L1484.44 459.63L1488.86 488.437L1488.52 515.321L1485.12 540.745L1477.68 563.677L1467.89 584.65L1455.01 602.721L1440.59 618.531L1423.96 631.261L1406.43 641.588L1393.57 646.501" stroke="white" stroke-width="1.78041" stroke-linecap="round" stroke-linejoin="round"/>
</g>
<g style="mix-blend-mode:overlay">
<path d="M1007.05 423.328L1004.11 428.153L988.903 450.479L978.47 473.909L971.9 498.995L980.072 508.431L992.731 518.633L1009.77 529.707L1029.69 541.262L1052.45 553.404L1076.68 565.725L1102.42 578.259L1128.56 590.561L1155.12 602.65L1181.35 614.027L1207.27 624.638L1232.5 634.074L1256.98 642.157L1280.73 648.62L1303.57 653.178L1312.74 654.229" stroke="white" stroke-width="1.78041" stroke-linecap="round" stroke-linejoin="round"/>
</g>
<g style="mix-blend-mode:overlay">
<path d="M1353.85 298.308L1363.57 306.889L1384.24 324.711L1388.98 329.358L1398.91 339.115L1422.24 361.993L1429.3 370.111L1451.36 395.5L1458.91 405.862L1476.47 429.986L1481.26 438.817L1495.2 464.473L1499.72 476.651L1508.07 499.155L1512.88 532.716L1510.4 565.511L1498.74 595.938L1492.12 605.339L1486.28 613.368" stroke="white" stroke-width="1.78041" stroke-linecap="round" stroke-linejoin="round"/>
</g>
<g style="mix-blend-mode:overlay">
<path d="M1354.62 307.299L1368.08 322.788L1370.3 325.797L1370.52 326.1L1371.32 327.186L1372.3 328.521L1373.77 330.408L1376.78 331.993L1381.54 335.572L1383.28 340.61L1383.58 343.726L1384.4 345.275L1384.94 347.465L1385.1 347.892L1383.35 348.818L1375.25 352.592L1365.81 355.352L1355.04 356.901L1342.35 357.061L1329.3 356.367L1315.22 354.604L1287.12 372.105L1264.08 391.601L1246.4 413.375L1232.09 436.877L1221.28 462.443L1212.2 489.559L1204.81 518.508L1197.57 548.882L1190.18 580.858L1181.35 614.027L1170.54 648.424L1168.81 652.804" stroke="white" stroke-width="1.78041" stroke-linecap="round" stroke-linejoin="round"/>
</g>
<g style="mix-blend-mode:overlay">
<path d="M1355.76 308.456L1364.82 316.86L1373.17 325.53L1374.18 326.723" stroke="white" stroke-width="1.78041" stroke-linecap="round" stroke-linejoin="round"/>
</g>
</g>
</g>
</g>
<defs>
<clipPath id="clip0_2040_1808">
<rect width="1400" height="788" fill="white"/>
</clipPath>
</defs>
</svg>
