<svg width="183" height="28" viewBox="0 0 183 28" fill="none" xmlns="http://www.w3.org/2000/svg">
<path d="M172.251 7.98926C175.486 7.98926 178.075 9.15903 180.016 11.4986C181.982 13.8132 182.704 16.5759 182.181 19.7866H167.323C167.671 20.9563 168.306 21.9021 169.227 22.6239C170.172 23.3208 171.292 23.6692 172.587 23.6692C174.777 23.6692 176.37 22.7732 177.365 20.9812L181.509 22.8479C180.638 24.4159 179.406 25.6728 177.813 26.6186C176.245 27.5394 174.453 27.9999 172.437 27.9999C169.5 27.9999 167.049 27.0417 165.083 25.1252C163.116 23.2088 162.133 20.8319 162.133 17.9946C162.133 15.1572 163.104 12.7804 165.045 10.8639C166.987 8.94748 169.388 7.98926 172.251 7.98926ZM172.251 12.3199C171.131 12.3199 170.123 12.6559 169.227 13.3279C168.356 13.975 167.746 14.8461 167.397 15.9412H177.141C176.793 14.8461 176.183 13.975 175.312 13.3279C174.441 12.6559 173.42 12.3199 172.251 12.3199Z" fill="white"/>
<path d="M157.475 27.6266H152.435V12.8053H148.552V8.36265H152.435V7.46665C152.435 4.95288 153.07 3.08622 154.339 1.86666C155.608 0.622221 157.562 0 160.2 0H162.478V4.44266H160.2C158.383 4.44266 157.475 5.3511 157.475 7.16799V8.36265H162.478V12.8053H157.475V27.6266Z" fill="white"/>
<path d="M140.353 7.98926C142.792 7.98926 144.77 8.62392 146.289 9.89325C147.807 11.1626 148.566 13.0168 148.566 15.4559V27.6266H143.526V22.8479C142.456 26.2826 140.241 27.9999 136.881 27.9999C135.313 27.9999 133.969 27.4897 132.849 26.4692C131.729 25.4488 131.169 24.1172 131.169 22.4746C131.169 18.8657 133.645 16.7999 138.598 16.2772L141.734 15.9786C142.929 15.9039 143.526 15.3937 143.526 14.4479C143.526 13.751 143.227 13.191 142.63 12.7679C142.058 12.3448 141.311 12.1333 140.39 12.1333C139.394 12.1333 138.573 12.3946 137.926 12.9172C137.304 13.415 136.906 14.1244 136.731 15.0452L131.729 13.9252C132.002 12.2079 132.911 10.7893 134.454 9.66925C135.997 8.54926 137.963 7.98926 140.353 7.98926ZM138.673 24.0052C139.992 24.0052 141.124 23.5572 142.07 22.6612C143.041 21.7652 143.526 20.7323 143.526 19.5626V19.0772C143.227 19.351 142.655 19.5377 141.809 19.6372L138.561 20.0106C137.839 20.1101 137.266 20.3466 136.843 20.7199C136.42 21.0683 136.209 21.5163 136.209 22.0639C136.209 22.6363 136.433 23.1092 136.881 23.4826C137.329 23.831 137.926 24.0052 138.673 24.0052Z" fill="white"/>
<path d="M109.892 20.7201L115.305 19.6374C115.504 20.8321 116.027 21.7654 116.873 22.4374C117.744 23.0845 118.889 23.4081 120.308 23.4081C121.577 23.4081 122.61 23.1219 123.406 22.5494C124.228 21.9521 124.638 21.2179 124.638 20.3468C124.638 19.6748 124.377 19.1148 123.854 18.6668C123.332 18.1939 122.647 17.8205 121.801 17.5468C120.98 17.273 120.071 17.0117 119.076 16.7628C118.08 16.5139 117.072 16.2028 116.052 15.8294C115.056 15.4561 114.135 15.0081 113.289 14.4854C112.468 13.9628 111.796 13.2285 111.273 12.2828C110.751 11.3121 110.489 10.1672 110.489 8.84811C110.489 6.65789 111.41 4.82856 113.252 3.36011C115.119 1.86678 117.396 1.12012 120.084 1.12012C122.797 1.12012 125.037 1.79212 126.804 3.13612C128.571 4.48011 129.616 6.23478 129.94 8.40011L124.526 9.48277C124.327 8.33788 123.817 7.42944 122.996 6.75744C122.199 6.06056 121.166 5.71211 119.897 5.71211C118.752 5.71211 117.819 5.98589 117.097 6.53344C116.375 7.05611 116.015 7.72811 116.015 8.54944C116.015 9.19655 116.276 9.74411 116.798 10.1921C117.321 10.6152 117.993 10.9637 118.815 11.2374C119.661 11.4863 120.582 11.7352 121.577 11.9841C122.573 12.233 123.568 12.5565 124.564 12.9548C125.584 13.3281 126.505 13.7885 127.326 14.3361C128.173 14.8837 128.857 15.6552 129.38 16.6508C129.902 17.6463 130.164 18.8285 130.164 20.1974C130.164 22.4125 129.193 24.2668 127.252 25.7601C125.335 27.2534 122.971 28.0001 120.158 28.0001C117.346 28.0001 115.019 27.3405 113.177 26.0214C111.335 24.7023 110.24 22.9352 109.892 20.7201Z" fill="white"/>
<path d="M90.848 25.1252C88.8818 23.2088 87.8987 20.8319 87.8987 17.9946C87.8987 15.1572 88.8818 12.7804 90.848 10.8639C92.8142 8.94748 95.2658 7.98926 98.2027 7.98926C101.14 7.98926 103.591 8.94748 105.557 10.8639C107.524 12.7804 108.507 15.1572 108.507 17.9946C108.507 20.8319 107.524 23.2088 105.557 25.1252C103.591 27.0417 101.14 27.9999 98.2027 27.9999C95.2658 27.9999 92.8142 27.0417 90.848 25.1252ZM93.1253 17.9946C93.1253 19.5377 93.6107 20.8319 94.5813 21.8772C95.552 22.8977 96.7591 23.4079 98.2027 23.4079C99.6462 23.4079 100.853 22.8977 101.824 21.8772C102.795 20.8319 103.28 19.5377 103.28 17.9946C103.28 16.4515 102.795 15.1697 101.824 14.1492C100.853 13.1288 99.6462 12.6186 98.2027 12.6186C96.7591 12.6186 95.552 13.1412 94.5813 14.1866C93.6107 15.207 93.1253 16.4764 93.1253 17.9946Z" fill="white"/>
<path d="M86.1001 27.6266H81.0601V0H86.1001V27.6266Z" fill="white"/>
<path d="M61.6058 25.1252C59.6396 23.2088 58.6565 20.8319 58.6565 17.9946C58.6565 15.1572 59.6396 12.7804 61.6058 10.8639C63.572 8.94748 66.0236 7.98926 68.9605 7.98926C71.8974 7.98926 74.3489 8.94748 76.3151 10.8639C78.2814 12.7804 79.2645 15.1572 79.2645 17.9946C79.2645 20.8319 78.2814 23.2088 76.3151 25.1252C74.3489 27.0417 71.8974 27.9999 68.9605 27.9999C66.0236 27.9999 63.572 27.0417 61.6058 25.1252ZM63.8832 17.9946C63.8832 19.5377 64.3685 20.8319 65.3392 21.8772C66.3098 22.8977 67.5169 23.4079 68.9605 23.4079C70.404 23.4079 71.6111 22.8977 72.5818 21.8772C73.5525 20.8319 74.0378 19.5377 74.0378 17.9946C74.0378 16.4515 73.5525 15.1697 72.5818 14.1492C71.6111 13.1288 70.404 12.6186 68.9605 12.6186C67.5169 12.6186 66.3098 13.1412 65.3392 14.1866C64.3685 15.207 63.8832 16.4764 63.8832 17.9946Z" fill="white"/>
<path d="M39.438 27.6265H34.0994V1.49316H39.438V12.2078H51.534V1.49316H56.8727V27.6265H51.534V16.9118H39.438V27.6265Z" fill="white"/>
<path fill-rule="evenodd" clip-rule="evenodd" d="M10.291 25.0016L0 10.1532L5.07489 6.63592L15.3659 21.4843L12.8284 23.243L10.291 25.0016Z" fill="white"/>
<path fill-rule="evenodd" clip-rule="evenodd" d="M15.3659 25.0016L25.6569 10.1532L20.582 6.63592L10.291 21.4843L12.8284 23.243L15.3659 25.0016Z" fill="white"/>
<path fill-rule="evenodd" clip-rule="evenodd" d="M4.80715 10.6723L0 10.1532L3.53873 3.70996L6.80972 4.83144C10.7107 6.16893 14.9461 6.16893 18.8471 4.83144L22.1181 3.70996L25.6569 10.1532L20.8497 10.6723C15.6507 12.4548 10.0061 12.4548 4.80715 10.6723Z" fill="white"/>
<path d="M12.8284 23.243L10.291 25.0016H15.3659L12.8284 23.243Z" fill="white"/>
</svg>
