<svg width="1400" height="261" viewBox="0 0 1400 261" fill="none" xmlns="http://www.w3.org/2000/svg">
<g clip-path="url(#clip0_82_1824)">
<rect width="1400" height="261" fill="#100F0F"/>
<g opacity="0.2">
<g style="mix-blend-mode:overlay">
<path d="M1072.7 -155.64L730.099 -28.0645L705.133 -18.7635L703.665 -18.2101L412.694 128.35L395.774 136.885L393.581 137.098L389.239 137.672L384.961 138.353L380.322 139.95L373.106 142.078L363.571 145.079L351.716 149.123L228.93 238.855L154.862 294.278L153.649 296.449L153.096 296.832L49.082 397.994" stroke="white" stroke-width="2.12838" stroke-linecap="round" stroke-linejoin="round"/>
</g>
<g style="mix-blend-mode:overlay">
<path d="M1410.67 -251.544L1400.41 -248.799L1314.08 -225.727L1247.42 -207.912L1198.94 -194.929L1158.01 -183.989L1125.42 -175.284L1093.41 -166.728L1063.55 -158.747L1034.59 -151L1030.31 -149.85L1012.36 -147.105L991.188 -143.976L966.69 -140.187L901.455 -113.625L857.568 -95.7469L822.343 -81.4229L786.012 -66.6307L751.745 -52.6685L660.842 -15.656L654.819 -13.2084L631.406 -3.69452L630.81 -3.43912L377.98 134.778L354.504 147.612L353.036 148.399L351.716 149.123L336.796 154.359L318.897 160.914L178.892 268.993L145.817 294.513L144.476 295.555L143.54 296.3L143.369 298.918L141.56 302.686L28.5007 417.384L14.879 427.728L3.27942 439.562L3.7689 440.966L0.0655437 446.181L-1.29658 447.522L-1.97768 447.437L-11.4915 454.162L-24.8365 467.124L-26.5392 469.125L-27.0926 469.785L-53.7611 520.099L-67.1699 538.616" stroke="white" stroke-width="2.12838" stroke-linecap="round" stroke-linejoin="round"/>
</g>
<g style="mix-blend-mode:overlay">
<path d="M1868.23 -311.798L1860.97 -309.883L1852.41 -309.223L1845.97 -310.138L1830.24 -308.819L1813.81 -307.435L1737.69 -295.069L1726.16 -293.452L1659.26 -284.151L1599.29 -275.786L1555.89 -269.742L1521.37 -266.549L1493.61 -262.101L1484.48 -260.164L1457.34 -258.887L1424.59 -255.269L1386.94 -249.437L1385.49 -249.033L1358.12 -241.562L1285.24 -221.662L1231.84 -209.147L1192.19 -200.144L1153.2 -187.416L1118.02 -175.965L1085.69 -167.154L1049.7 -157.321L1013.75 -147.488L1012.36 -147.105L811.105 -68.5035L777.2 -55.265L751.362 -43.8143L727.524 -33.2789L686.212 -17.3799L682.849 -16.0816L676.443 -13.6126L663.971 -11.0373L649.072 -7.67447L630.81 -3.43899L609.207 1.86068L583.497 8.35221L568.172 17.185L358.421 138.141L321.536 159.403L320.216 160.148L318.897 160.914L297.506 169.002L272.881 178.729L255.024 193.628L155.799 276.294L123.469 303.218L92.0327 326.672L81.1141 333.377L81.029 333.462L77.7087 336.357L72.9624 340.507L-1.33928 433.24L-20.218 456.823L-38.0538 479.086L-38.1177 479.171L-67.1913 538.659L-68.5747 540.574L-73.5126 547.939L-74.9386 550.535L-79.5572 558.261L-88.6666 569.946L-91.4974 571.691L-92.0295 572.628L-111.206 621.644L-111.313 622.645L-119.549 645.44L-122.636 654.805L-126.977 663.595L-129.766 668.852" stroke="white" stroke-width="2.12838" stroke-linecap="round" stroke-linejoin="round"/>
</g>
<g style="mix-blend-mode:overlay">
<path d="M1948 -310.628L1700.17 -278.788L1567.23 -261.718L1565.96 -261.399L1234.29 -180.605L1156.56 -161.663L1152.63 -160.705L846.33 -51.7747L766.665 -23.4459L766.261 -23.3182L766.091 -23.2331L512.281 98.5101L443.726 131.415L442.747 131.883L441.981 132.373L441.811 132.479L440.406 133.373L328.794 204.589L250.172 254.754L196.898 288.766L192.812 292.299L120.702 354.916L64.726 403.528L27.6709 435.688L27.3304 436.114L12.9851 454.396L-17.472 493.111L-52.5264 537.722L-75.2575 566.647L-75.896 568.073L-114.76 655.422L-125.296 679.068L-130.915 730.596L-135.554 773.206L-134.192 778.953L-120.315 836.802L-118.527 851.254L-121.337 853.574L-121.443 854.319L-102.905 882.243L-81.4511 915.063L-81.1744 915.658" stroke="white" stroke-width="2.12838" stroke-linecap="round" stroke-linejoin="round"/>
</g>
<g style="mix-blend-mode:overlay">
<path d="M1822.91 -308.627L1812.95 -307.201L1810.49 -306.861L1752.3 -298.56L1670.91 -286.982L1608.74 -278.128L1563.87 -271.743L1527.6 -266.571L1500 -262.654L1473.33 -257.312L1468.01 -255.95L1414.27 -243.542L1310.59 -216.873L1236.36 -197.76L1178.93 -182.989L1137.43 -170.134L1101.71 -158.96L1098.65 -158.172L1085.24 -157.087L742.103 -30.1717L712.753 -19.317L712.348 -19.168L712.114 -19.0829L703.665 -18.2102L695.555 -17.0609L406.288 129.776L393.581 137.098L362.826 158.999L171.804 287.446L162.46 293.746L35.5879 412.744L17.9224 430.324" stroke="white" stroke-width="2.12838" stroke-linecap="round" stroke-linejoin="round"/>
</g>
<g style="mix-blend-mode:overlay">
<path d="M1948 -304.605L1688.93 -272.466L1594.33 -260.717L1280.16 -185.458L1182.51 -162.046L1178.59 -161.109L892.112 -60.9053L791.546 -25.7232L790.077 -25.2124L789.673 -25.0208L552.486 87.0596L464.882 128.457L463.456 129.138L461.37 130.436L461.221 130.521L459.008 131.926L388.686 175.983L284.502 241.282L214.266 285.297L206.795 291.639L167.675 324.885L91.7135 389.481L41.6114 432.07L41.505 432.219L17.7949 461.505L16.5391 463.038L-32.7115 523.888L-64.2967 562.922L-64.999 564.391L-100.692 640.757L-116.868 675.343L-116.974 675.599L-125.424 740.152L-129.319 769.95L-112.504 847.38L-75.1514 909.486" stroke="white" stroke-width="2.12838" stroke-linecap="round" stroke-linejoin="round"/>
</g>
<g style="mix-blend-mode:overlay">
<path d="M1948 -189.034L1613.12 -139.336L1242.29 -46.4962L914.757 67.9467L902.285 72.3099L895.9 74.5447L605.887 207.632L601.779 209.505L380.598 340.89L371.531 346.275L208.093 474.275L206.412 475.595L99.9078 591.336L98.8436 592.507L39.3767 694.414L17.1777 781.209L23.2862 853.361L49.7419 912.274L90.6919 959.12L141.305 995.388L198.047 1022.21L258.046 1040.76L282.097 1045.17" stroke="white" stroke-width="2.12838" stroke-linecap="round" stroke-linejoin="round"/>
</g>
<g style="mix-blend-mode:overlay">
<path d="M1948 -297.006L1674.65 -264.399L1625.61 -258.546L1210.22 -161.429L946.768 -70.9937L821.917 -28.1282L819.874 -27.4258L769.091 -3.90726L603.099 72.9698L491.295 124.753L490.21 125.264L486.506 127.541L464.307 141.163L327.453 225.128L237.082 280.572L236.933 280.678L224.716 290.788L126.066 372.475L60.6392 426.664L60.2774 426.962L59.724 427.622L23.8182 470.423L-6.7027 506.797L-49.4619 557.772L-49.5682 557.921L-49.8875 558.559L-82.8135 625.007L-105.481 670.767L-114.207 725.446L-120.614 765.629L-105.885 843.464L-70.2348 906.187L-20.1328 955.395L-9.68242 961.972L-6.53246 963.951L39.5469 992.876" stroke="white" stroke-width="2.12838" stroke-linecap="round" stroke-linejoin="round"/>
</g>
<g style="mix-blend-mode:overlay">
<path d="M831.048 -339.638L570.173 -219.193L553.636 -211.552L321.685 -68.8442L302.487 -57.0317L289.78 -49.2419L110.656 97.6588L87.8613 116.367L-37.2235 257.798L-46.2904 268.036L-52.335 274.889L-56.081 281.274L-128.744 404.805L-137.555 419.789L-142.685 436.007L-176.441 542.788L-178.101 548.045L-184.529 658.806L-166.565 752.774L-144.026 804.259L-139.96 813.539L-133.533 828.246L-132.213 831.226L-124.828 841.953" stroke="white" stroke-width="2.12838" stroke-linecap="round" stroke-linejoin="round"/>
</g>
<g style="mix-blend-mode:overlay">
<path d="M1948 -287.407L1661.86 -255.29L1248 -161.28L1210.22 -161.429L1178.59 -161.11L1152.62 -160.705L1131.28 -159.96L1113.59 -159.215L1098.65 -158.172L760.301 -34.173L721.862 -20.1044L721.501 -19.9554L712.115 -19.0828L423.506 125.008L400.477 136.502L395.518 137.012L390.9 137.587L386.196 138.524L309.021 191.414L164.61 292.15L17.6885 428.6" stroke="white" stroke-width="2.12838" stroke-linecap="round" stroke-linejoin="round"/>
</g>
<g style="mix-blend-mode:overlay">
<path d="M1948 -51.1786L1678.67 -14.5279H1678.53L1371.36 56.4322L1081.22 149.315L1071.19 152.528L809.977 260.969L802.889 263.928L595.011 373.369L585.497 378.371L580.389 381.074L412.8 493.729L409.757 495.793L337.456 516.162L269.837 536.296L176.508 640.736L175.294 642.077L125.256 660.615L79.7729 678.217L39.3763 694.414L3.64078 709.312L-27.1994 722.551L-53.719 734.299L-75.8754 744.345L-94.2646 752.944L-108.993 759.925L-120.614 765.629L-129.319 769.95L-135.555 773.206L-139.62 775.42" stroke="white" stroke-width="2.12838" stroke-linecap="round" stroke-linejoin="round"/>
</g>
<g style="mix-blend-mode:overlay">
<path d="M913.842 -339.638L683.339 -244.797L667.632 -238.327L417.292 -99.9186L398.711 -89.6598L386.175 -82.7213L186.256 63.775L172.422 73.9061L163.27 80.6318L156.757 87.0807L18.2421 224.659L8.96233 233.875L2.68365 240.132L-10.0228 258.33L-71.5117 346.488L-90.9437 374.327L-96.6478 382.521L-100.5 388.034L-111.802 415.192L-150.56 508.393L-153.433 515.332L-155.434 520.121L-160.414 553.025L-172.844 634.989L-162.734 732.831L-142.812 789.084L-141.28 793.404L-133.703 814.795L-130.617 819.86L-124.189 842.868L-121.337 853.574" stroke="white" stroke-width="2.12838" stroke-linecap="round" stroke-linejoin="round"/>
</g>
<g style="mix-blend-mode:overlay">
<path d="M1948 -161.705L1689.51 -128.588L1329.28 -45.5811L1242.29 -46.4963L1159.48 -45.4534L1148.56 -41.4095L828.962 77.0348L817.852 81.1426L813.404 82.8027L738.229 91.4652L671.909 99.7659L613.911 107.62L564.809 114.494L523.604 120.496L490.21 125.264L463.456 129.137L442.747 131.883L427.018 133.905L415.354 135.161L406.862 136.012L189.236 279.869L168.995 293.235L164.61 292.15L160.077 293.917L46.5703 400.485" stroke="white" stroke-width="2.12838" stroke-linecap="round" stroke-linejoin="round"/>
</g>
<g style="mix-blend-mode:overlay">
<path d="M1700.19 -339.638L1453.09 -310.266L1411.52 -300.22L1249.68 -261.079L1118.25 -229.281L1115.53 -228.622L1112.29 -227.834L1052.7 -221.832L987.335 -214.234L915.949 -204.613L779.286 -145.168L628.171 -79.4436L618.764 -75.3571L610.569 -71.7814L604.908 -69.3338L538.013 -51.8172L467.308 -31.555L393.432 -8.24928L332.05 36.4467L191.109 139.098L182.382 145.441L176.572 149.676L118.169 177.345L59.8303 207.547L2.68337 240.132L-52.3352 274.889L-104.034 311.433L-151.645 349.489L-194.128 388.523L-231.034 428.153L-261.704 467.805L-286.031 507.18L-303.761 545.64L-315.211 583.036L-320.426 618.814L-319.958 652.974L-283.179 723.147L-269.877 748.538L-237.036 792.638L-226.032 804.493L-189.743 844.209L-179.399 853.872L-142.429 889.692L-133.171 897.248L-95.5626 929.791L-87.7727 935.197L-49.2065 964.909L-43.3535 968.123L-30.9663 979.765L-16.919 993.557L-8.63962 1000.24L-0.530503 1005.97L17.731 1017.84L39.9725 1031.42L62.0013 1044.15L64.2786 1045.64L70.7063 1048.96L85.8391 1056.49L104.164 1064.86L115.36 1069.48L124.937 1073.78L130.578 1077.29L139.857 1081.1L146.221 1084.55L156.714 1085.95L162.525 1085.23L191.087 1091.1L192.45 1091.38L202.964 1096.25L213.84 1100.85L240.806 1098.95L249.192 1102.15L257.791 1105.13L266.602 1107.85L282.65 1096.27L297.655 1077.29L319.067 1051.96L304.232 1008.65L297.677 958.482L297.74 958.226L306.892 913.062L310.085 897.397L310.319 896.907L342.649 831.034L344.863 826.479L345.459 825.734L346.714 824.117L407.586 746.218L411.162 742.898L415.035 739.322L503.023 657.954L505.002 656.55L509.046 653.676L515.388 649.143L634.365 564.285L637.408 562.561L643.559 559.049L652.903 553.728L801.293 469.252L805.699 467.209L814.234 463.293L844.414 449.395L998.892 378.222L1004.7 376.072L1216.28 297.471L1268.66 297.875L1312.51 300.387L1512.43 249.008L1687.06 218.21L1822.79 207.781L1911.24 215.039L1948 234.237" stroke="white" stroke-width="2.12838" stroke-linecap="round" stroke-linejoin="round"/>
</g>
<g style="mix-blend-mode:overlay">
<path d="M1948 -275.871L1703.02 -250.373L1292.84 -160.747L1090.48 -94.9593L907.116 -35.3221L901.051 -33.364L856.759 -30.2779L819.874 -27.4259L790.077 -25.2123L766.26 -23.3181L747.595 -21.9559L733.058 -20.8066L721.501 -19.9552L436.404 121.369L406.862 136.012L400.477 136.502L178.317 284.765L166.93 293.534L112.529 344.466L66.6837 386.076L35.5881 412.744L31.0972 415.319" stroke="white" stroke-width="2.12838" stroke-linecap="round" stroke-linejoin="round"/>
</g>
<g style="mix-blend-mode:overlay">
<path d="M1593.94 -339.638L1392.19 -310.99L1212.33 -263.761L1062.62 -224.429L1056.81 -222.918L1052.7 -221.832L864.868 -150.255L734.164 -100.451L728.95 -98.45L724.97 -96.9388L681.7 -74.7186L546.888 -5.48241L447.301 45.6625L442.364 48.1953L439.299 49.7703L300.614 144.334L296.953 146.846L292.675 149.762L285.523 154.636L218.948 200.013L215.862 202.12L213.563 203.695L113.593 296.045L109.826 299.535L101.355 307.347L81.497 325.715L73.7923 332.823L63.5335 342.295L63.4271 342.401L59.7024 345.849L51.87 353.064L-4.55335 428.494L-29.9662 462.463L-50.0793 489.344L-50.6753 490.132L-80.4513 557.367L-85.0912 564.199L-90.4121 571.393L-109.865 619.537L-110.461 620.495L-111.249 621.964L-118.741 640.906L-119.401 642.545" stroke="white" stroke-width="2.12838" stroke-linecap="round" stroke-linejoin="round"/>
</g>
<g style="mix-blend-mode:overlay">
<path d="M1076.79 -339.638L899.241 -281.767L885.79 -277.383L870.061 -270.274L604.844 -150.382L588.285 -142.912L577.026 -137.825L544.675 -118.372L353.632 -3.58812L317.385 18.2065L276.904 50.5365L133.43 165.15L118.169 177.345L79.007 220.381L-10.2359 318.478L-16.1953 325.012L-20.1754 329.397L-47.0143 373.624L-50.6112 379.541L-94.8602 452.417L-104.332 468.061L-121.912 521.696L-141.834 582.546L-144.345 590.251L-150.773 695.307L-140.344 747.495" stroke="white" stroke-width="2.12838" stroke-linecap="round" stroke-linejoin="round"/>
</g>
<g style="mix-blend-mode:overlay">
<path d="M1948 -262.335L1749.49 -243.776L1344.46 -159.343L1179.38 -107.581L963.22 -39.792L953.749 -36.8335L901.05 -33.3643L737.25 38.6813L569.002 112.642L564.809 114.494L554.933 120.22L444.662 184.113L303.976 265.673L301.657 267.014L221.757 328.822L117.935 409.168L115.87 410.764L114.402 411.892L114.168 412.084L114.019 412.233L67.2369 463.144L-5.29818 542.085L-6.21343 543.086L-6.25598 543.171L-29.5617 583.823L-71.2566 656.592L-71.3631 656.762L-78.7698 687.922L-94.2644 752.944L-85.7509 832.332L-54.9746 896.695L-8.63975 947.584L48.0815 986.725L111.635 1015.48L178.104 1036.04L247.596 1049.19L250.448 1048.36L251.916 1045L253.725 1043.74L255.79 1042.34L258.046 1040.76L260.515 1039L263.218 1037.1L266.091 1035.06L269.177 1032.87L319.067 1051.96L322.366 1082.12L326.09 1104.36L331.709 1119.79L333.88 1130.22L347.927 1131.37L359.846 1130.43L372.297 1130.9L384.685 1131.09L395.859 1133.01L409.565 1132.9L425.06 1134.73L439.98 1134.26L454.751 1133.6L469.309 1132.69L483.675 1131.6L498.574 1130.41L504.597 1129.88L513.558 1129.07L523.178 1128.05L530.84 1127.75L537.715 1127.2L546.399 1126.07L552.975 1124.54L564.532 1121.62L587.732 1120.6L601.715 1119L616.891 1116.56L631.321 1113.13L645.198 1110.34L658.735 1107.38L671.931 1104.3L686.616 1102.55L696.705 1101.04L701.728 1100.1L715.158 1095.89L743.678 1089.27L761.556 1085.29L776.817 1080.86L790.056 1077.99L797.931 1076.18L819.555 1070.16L839.264 1064.41L857.525 1059.35L873.062 1054.17L881.789 1051.19L889.919 1048.26L901.944 1043.11L905.669 1041.94L939.063 1031.8L955.941 1026.19L972.67 1019.74L988.591 1012.95L1003.62 1005.84L1007.58 1004.43L1013.3 1003.05L1019.77 999.453L1030.97 990.471L1043.2 982.149L1054.51 973.359L1064.85 964.079L1074.26 954.246L1082.79 943.817L1086.5 942.71L1162.44 920.022L1173.4 908.167L1183.49 895.63L1192.74 882.349L1201.3 868.281L1209.24 853.425L1216.67 837.76L1223.73 821.243L1230.54 803.918L1230.89 803.833L1319.96 777.995L1327.94 759.648L1328.51 759.499L1400.45 738.79L1408.33 720.039L1457.17 705.247L1463.39 686.645L1468.43 667.66L1472.56 648.377L1475.9 628.859L1478.71 609.193L1481.23 589.463L1483.78 569.776L1486.55 550.216L1487.21 548.066L1487.44 545.172L1487.53 544.597L1489.95 530.89" stroke="white" stroke-width="2.12838" stroke-linecap="round" stroke-linejoin="round"/>
</g>
<g style="mix-blend-mode:overlay">
<path d="M1948 -19.7849L1752.96 1.3286L1462.41 61.0296L1371.36 56.4323L1275.18 55.1127L1177.36 56.6877L880.341 168.087L872.381 171.067L631.917 287.17L620.637 292.618L615.337 295.173L425.103 412.702L418.058 417.065L414.333 419.363L338.818 438.689L269.114 457.653L206.412 475.595L150.329 492.431L101.504 507.606L59.1918 521.27L23.584 533.019L-6.21326 543.086L-30.3065 551.28L-49.5683 557.921L-64.2967 562.922L-75.2578 566.647L-82.8774 569.095L-87.7727 570.67" stroke="white" stroke-width="2.12838" stroke-linecap="round" stroke-linejoin="round"/>
</g>
<g style="mix-blend-mode:overlay">
<path d="M1948 -133.973L1765 -114.711L1419.35 -42.3885L1088.82 58.0922L1079.71 60.8804L796.973 174.876L783.139 180.453L776.796 183.007L532.309 309.816L527.563 312.263L341.628 436.795L338.818 438.689L208.838 554.451L207.051 556.048L126.087 659.551L125.257 660.615L84.0941 750.475L83.711 751.284L48.5927 766.8L17.1779 781.209L-10.2995 794.192L-34.2437 805.877L-54.5485 816.05L-71.7032 824.926L-85.7505 832.332L-97.0947 838.547L-105.885 843.464L-112.504 847.38L-117.08 850.232L-120.911 852.531L-121.571 853.808L-121.656 856.021L-104.267 880.476" stroke="white" stroke-width="2.12838" stroke-linecap="round" stroke-linejoin="round"/>
</g>
<g style="mix-blend-mode:overlay">
<path d="M1157.8 -339.638L999.297 -293.856L987.101 -290.323L885.79 -277.383L778.903 -260.185L667.631 -238.327L553.635 -211.552L438.597 -179.775L226.759 -33.8111L207.817 -20.7642L195.067 -11.9739L37.4185 134.203L24.0949 146.569L15.2195 154.806L-89.9437 292.938L-104.034 311.433L-168.46 446.266L-171.588 452.843L-172.929 459.164L-196.81 571.074L-198.023 576.799L-193.979 683.303L-168.545 773.227L-157.541 794.234L-157.009 795.235L-133.363 840.293L-130.979 844.847L-129.255 848.146L-121.614 855.638L-102.906 882.243L-80.2383 913.253L-27.9227 961.972L-21.8143 970.507L-1.59468 984.533L27.0959 1004.45L30.5438 1004.67L45.5915 1011.14L72.3878 1026.23L73.303 1026.76L74.0053 1027.16L97.2685 1036.59L123.66 1047.28L123.98 1047.43L124.32 1047.55L148.243 1053.58L172.634 1058.11L197.026 1058.17L212.754 1058.28L262.814 1057.05L319.067 1051.96L390.772 1072.69L463.711 1086.14L466.18 1084.69L540.503 1091.06L543.951 1088.84L618.892 1088.93L623.34 1085.91L627.256 1082.8L630.64 1079.56L633.513 1076.18L635.833 1072.65L637.621 1068.94L639.579 1064.96L722.054 1056.81L801.953 1045.89L805.912 1040.1L809.147 1034L811.659 1027.55L813.617 1027.1L898.709 1008.03L902.477 1000.09L905.52 991.642L907.393 991.152L995.891 968.08L1000.68 957.971L1004.81 947.201L1008.38 935.75L1011.53 923.533L1014.37 910.508L1017 896.673L1019.58 881.988L1022.22 866.429L1025.07 850.019L1028.22 832.758L1031.73 814.688L1035.73 795.895L1040.2 776.42L1045.23 756.392L1050.74 735.917L1056.78 715.101L1063.25 694.116L1070.13 673.13L1077.24 652.25L1202.54 609.896L1211.43 588.654L1220.54 567.881L1229.65 547.683L1238.7 528.23L1247.44 509.606L1255.72 491.92L1263.24 475.212L1269.77 459.59L1274.92 445.053L1278.37 431.665L1279.63 419.427L1278.26 408.402L1273.71 398.569L1265.41 389.992L1252.77 382.713L1071.92 446.394L893.516 522.802L868.763 523.058L837.135 539.915L716.882 604.043L710.369 607.512L707.049 609.278L669.93 633.563L586.583 688.071L579.538 692.668L574.728 695.818L572.301 697.393L534.799 728.255L472.97 779.08L469.799 781.698L468.224 782.997L434.297 819.711L399.945 856.894L397.2 859.874L395.369 861.853L394.497 862.811L367.317 905.017L349.332 932.92L348.524 934.218L348.119 934.835L339.819 957.141L325.814 994.813L326.686 996.473L319.812 1050.98L319.067 1051.96L264.282 1058.11L214.287 1059.43L211.201 1057.13L208.263 1054.98L205.454 1052.98L202.751 1051.15L200.154 1049.51L196.791 1047.43L195.238 1046.75L192.982 1045.32L190.662 1044.7L187.214 1044.04L183.532 1043.36L182.191 1043.77L175.529 1042.51L172.315 1040.89L135.813 1031.68L122.149 1028.4L103.739 1021.5L38.1634 993.983L1.4915 973.593L-0.381486 972.465L-23.8575 958.184L-76.8541 910.742L-118.528 851.254L-121.295 847.082L-126.552 826.543L-133.937 797.64L-140.961 775.249L-141.94 769.779L-157.371 713.612L-159.308 612.067L-158.435 608.448L-141.067 536.552L-130.66 493.388L-128.467 489.11L-80.8768 396.398L-61.168 357.96L-61.0616 357.811L-57.0602 352.83L-51.1646 345.508L35.2262 238.132L59.8303 207.547L86.3073 184.114L218.288 67.2869L240.253 47.8334L249.299 41.874L262.686 33.0199L472.416 -105.665L482.399 -112.263L494.296 -118.201L512.281 -127.162L778.903 -260.185L793.78 -265.634L995.614 -339.638" stroke="white" stroke-width="2.12838" stroke-linecap="round" stroke-linejoin="round"/>
</g>
<g style="mix-blend-mode:overlay">
<path d="M1497.64 -339.638L1330.45 -311.735L1324.9 -310.82L1169.52 -266.358L1007.92 -220.108L1000.08 -217.873L992.848 -215.809L987.335 -214.234L824.897 -148.275L679.082 -89.0638L671.995 -86.1692L667.291 -84.2537L604.908 -69.3338L383.514 58.8585L375.448 63.5196L368.85 67.3507L360.911 71.948L342.947 82.3557L289.802 102.214L234.06 124.647L176.572 149.676L120.787 204.801L31.0762 293.448L25.3084 299.152L21.4134 303.005L-20.1751 329.397L-61.0613 357.811L-61.2102 357.917L-100.5 388.034L-137.555 419.789L-171.588 452.843L-201.811 486.769L-227.756 521.313L-248.869 555.941L-265.024 590.464L-275.921 624.326L-281.71 657.422L-282.413 689.22L-278.39 719.741L-246.017 770.12L-238.057 782.486L-230.672 793.979L-226.032 804.493L-210.261 828.565L-178.122 862.023L-167.927 872.665L-158.009 882.988L-146.516 894.949L-140.216 901.398L-139.151 902.633L-127.105 914.041L-103.82 931.898L-101.288 932.792L-71.1072 956.332L-51.3559 972.38L-40.0967 980.638L-36.3295 983.405L-21.516 994.26L7.83432 1012.76L11.4951 1015.05L15.6242 1017.59L16.6458 1018.2L36.2482 1028.51L52.1685 1036.06L78.5178 1048.3L83.264 1050.77L87.0739 1052.73L98.184 1057.13L130.599 1068.09L162.525 1075.24L163.419 1075.5L172.656 1080.95L182.34 1086.27L192.45 1091.38L224.78 1091.93L232.655 1095.53L240.807 1098.95L265.645 1090.27L271.157 1092.44L292.101 1075.24L319.067 1051.96L321.344 1051.83L386.43 1044.87L456.496 1029.08L533.225 1008.65L617.21 983.043L709.178 953.139L808.977 920.043L914.949 885.223L915.056 885.201L915.226 885.138L1025.07 850.019L1134.24 816.37L1237.21 785.806L1243.85 766.906L1250.53 747.325L1257.34 727.084L1349.9 700.82L1421.86 681.047L1427.8 660.955L1433.34 640.566L1438.64 619.984L1443.87 599.318L1449.19 578.672L1454.88 558.155L1460.98 537.871L1467.82 517.95L1475.48 498.454L1484.23 479.49L1494.06 461.122L1505.21 443.414L1517.6 426.366L1531.39 409.998L1546.35 394.248L1562.55 379.073L1579.66 364.366L1606.84 367.388L1609.29 367.835L1609.46 367.75L1609.82 367.559L1616.44 366.643L1619.34 366.069L1680.53 356.619L1748.59 344.444L1819.6 329.695L1885.49 302.345L1897.79 297.237L1943.98 264.566L1948 247.22" stroke="white" stroke-width="2.12838" stroke-linecap="round" stroke-linejoin="round"/>
</g>
<g style="mix-blend-mode:overlay">
<path d="M1948 116.708L1776.22 128.307L1736.69 110.152L1685.02 93.8489L1621.19 79.9506L1546.63 68.883L1462.41 61.0293L1180.15 143.93L1169.74 146.995L907.266 247.709L899.071 250.838L673.868 360.471L668.334 363.153L495.893 469.316L488.933 473.594L485.166 475.893L352.972 581.162L350.844 582.844L261.878 679.11L260.686 680.409L208.902 765.672L208.413 766.48L186.341 840.676L187.725 903.122L206.327 954.586L237.124 995.92L274.137 1029.31L319.067 1051.96L320.578 1051.41L365.806 1013.78L426.678 971.911L500.958 922.895L591.18 869.366L697.259 813.113L815.554 757.115L816.427 756.711L816.916 756.477L817.022 756.413L817.767 756.115L945.981 701.884L1076.02 652.718L1076.9 652.378L1077.24 652.25L1084.54 631.69L1091.82 611.577L1098.97 592.081L1105.74 573.351L1111.93 555.515L1115.48 554.302L1247.34 509.649L1247.44 509.606L1247.81 509.5L1362.48 476.063L1363.21 475.85L1449.6 454.524L1450.79 454.226L1505.21 443.414L1525.01 441.009" stroke="white" stroke-width="2.12838" stroke-linecap="round" stroke-linejoin="round"/>
</g>
<g style="mix-blend-mode:overlay">
<path d="M1407.84 -339.638L1267.83 -312.48L1258.26 -310.628L1251 -309.202L1122.27 -269.018L932.274 -209.7L922.654 -206.699L915.949 -204.613L838.838 -192.567L756.172 -177.668L668.653 -159.534L577.027 -137.825L482.399 -112.263L386.175 -82.7213L289.781 -49.2419L195.068 -11.9739L103.547 28.7845L17.1141 72.4588L-62.9981 118.581L-135.257 166.299L-199.023 215.06L-253.36 263.906L-298.333 312.433L-333.685 359.726L-360.035 405.571L-377.615 449.203L-387.342 490.685L-389.768 529.443L-385.894 565.732L-381.936 580.588L-376.317 599.147L-361.971 630.051L-344.732 655.464L-340.794 662.786L-340.283 663.893L-334.537 676.258L-309.039 712.952L-300.206 724.7L-295.481 731.745L-293.225 735.619L-292.373 736.917L-288.67 743.068L-270.132 768.907L-251.126 789.105L-243.485 797.938L-241.761 800.045L-241.08 800.982L-221.626 824.5L-202.301 842.57L-197.448 847.593L-192.659 852.148L-189.743 855.298L-173.61 872.538L-153.369 889.756L-145.09 896.652L-125.083 914.552L-105.459 931.515L-95.8178 938.666L-91.3055 942.348L-89.0495 944.264L-88.1768 945.009L-82.6643 949.755L-60.4867 966.356L-51.3559 972.38L-43.6937 977.935L-39.735 981L-38.3941 980.574L-19.4515 994.153L-2.5522 1006.01L5.13128 1010.56L15.3901 1017.44L17.71 1018.97L18.8593 1019.69L35.035 1029.87L62.2144 1044.68L73.0691 1050.38L80.1779 1054.17L83.3705 1055.9L85.8394 1056.49L102.228 1062.64L114.019 1069.8L123.81 1075.1L137.538 1080.86L146.434 1084.63L147.392 1085.03L162.865 1091.46L173.656 1094.68L190.023 1100.34L196.919 1102.57L210.52 1106.87L225.12 1111.32L231.655 1113.19L240.423 1115.49L260.303 1116.09L272.477 1119.07L284.715 1112.53L294.676 1099.44L303.53 1079.01L319.067 1051.96L391.283 1052.32L392.411 1054.13L393.433 1055.83L394.327 1057.43L395.093 1058.9L395.731 1060.28L396.2 1061.56L396.54 1062.77L396.753 1063.9L396.795 1064.96L396.71 1065.96L396.476 1066.92L396.072 1067.86L395.54 1068.73L394.88 1069.58L394.05 1070.39L393.092 1071.18L392.007 1071.95L338.84 1056.64L319.067 1051.96L291.994 1050.64L265.815 1050.6L250.618 1051.96L244.936 1051.3L189.087 1044.19L182.51 1044.15L178.296 1042.4L172.933 1041.91L171.123 1041.7L169.08 1040.98L139.028 1034.25L135.814 1033.32L128.896 1031.7L119.83 1030.7L107.379 1027.31L101.206 1026.44L99.8654 1026.95L95.9491 1023.46L95.7364 1023.27L94.289 1022.29L91.884 1020.78L85.2434 1017.8L69.5147 1012.39L53.0623 1006.77" stroke="white" stroke-width="2.12838" stroke-linecap="round" stroke-linejoin="round"/>
</g>
<g style="mix-blend-mode:overlay">
<path d="M1322.28 -339.638L1179 -307.648L1170.01 -305.648L1082.03 -299.56L987.101 -290.323L943.427 -272.381L711.157 -177.008L694.087 -169.985L678.827 -163.727L668.653 -159.534L611.613 -128.183L413.418 -19.2317L393.433 -8.24928L317.386 18.2065L240.253 47.8334L163.27 80.6318L87.8613 116.367L15.2197 154.806L-53.1438 195.5L-116.25 238.047L-172.865 281.785L-222.435 326.289L-264.194 370.751L-298.163 414.851L-324.044 457.844L-342.305 499.518L-353.096 539.276L-357.161 577.097L-354.948 612.514L-347.222 645.674L-338.921 665.68L-334.537 676.258L-317.637 704.566L-299.227 727.489L-293.97 734.619L-293.225 735.619L-291.948 737.322L-290.586 739.493L-288.67 743.068L-259.575 775.696L-226.032 812.666L-215.667 824.904L-205.578 836.823L-197.874 845.912L-193.383 851.211L-164.394 876.326L-129.297 905.017L-119.4 914.701L-111.547 923.214L-103.672 931.728L-94.9452 939.603L-94.1364 940.22L-88.8154 944.306L-85.0269 945.051L-74.981 951.011L-57.9327 965.356L-37.0107 977.552L-30.9661 979.765L6.98287 1003.86L10.367 1004.97L21.1153 1015.78L32.2467 1023.82L36.2481 1028.51L53.5518 1039.19L68.2376 1046.38L90.6707 1056.3L96.6302 1059.24L100.844 1061.3L111.657 1065.35L141.411 1076.44L142.603 1079.12L164.483 1090.29L179.765 1097.76L187.15 1098.55L213.84 1100.85L225.057 1105.17L236.55 1109.13L248.32 1112.81L260.302 1116.09L275.605 1110.32L288.61 1097.93L300.55 1078.18L319.067 1051.96L320.961 1051.62L375.895 1028.61L439.108 996.069L513.75 959.333L600.375 917.872L699.387 872.963L809.126 826.543L811.191 808.963L812.936 791.446L814.937 773.866L817.022 756.413L819.129 739.237L821.045 722.487L822.62 706.332L823.62 690.944L823.897 676.471L823.152 663.041L821.173 650.824L817.682 639.884L812.468 630.371L805.231 622.368L795.739 615.94L783.735 611.151L641.814 694.052L627.703 692.519L513.282 776.59L499.681 777.442L459.008 817.115L420.378 854.787L418.377 856.724L417.356 857.724L383.557 902.909L363.997 929.046L363.018 930.366L362.507 931.025L355.505 932.622L334.37 982L329.879 995.92L319.791 1050.98L319.067 1051.96L288.95 1048.96L262.942 1049L248.447 1049.75L245.979 1049.17L182.808 1040.38L172.741 1040.17L172.102 1040.81L171.826 1041.3L171.23 1041.72L167.633 1040.96L140.943 1035.49L133.77 1032.04L124.895 1026.82L105.442 1020.03L103.398 1021.69L102.015 1022.97L101.185 1023.93L100.887 1024.61L101.078 1025.08L102.632 1025.44L103.1 1025.61L116.147 1028.46L124.044 1030.59L134.345 1035.06L144.625 1038.17L151.117 1040.59L164.376 1043.34L170.421 1043.72L178.317 1047.87L192.897 1051.39L204.816 1052.13L213.734 1050.73L215.99 1049.75L217.182 1050.38L223.056 1050.9L226.036 1050.66L229.76 1051.47L235.677 1051.98L239.359 1051.3L240.998 1050.51L242.041 1050.9L245.638 1051.09L250.022 1050.81L252.789 1051.56L253.896 1051.94L255.024 1052.41L256.216 1052.94L257.429 1053.58L258.706 1054.3L260.005 1055.11L261.367 1056.03L262.771 1057L264.24 1058.07L265.772 1059.2L267.369 1060.41L269.05 1061.67L270.795 1062.96L272.647 1064.28L274.563 1065.65L276.585 1067.01L278.692 1068.37L280.926 1069.71L283.225 1071.03L285.651 1072.31L319.067 1051.96L320.025 1051.11L357.037 1003.56L409.31 945.732L482.271 882.732L576.516 815.135L691.491 745.346L823.897 676.471L967.116 612.045L969.329 596.678L970.223 582.503L969.563 569.627L967.009 558.133L962.22 548.13L954.878 539.702L944.661 532.891L783.735 611.151L769.049 608.065L751.426 606.703L709.476 632.456L613.975 691.029L611.442 692.583L592.989 694.201L572.301 697.393L549.443 702.118L524.498 708.333L497.595 715.953L478.908 734.172L418.143 793.362L414.44 796.98L412.12 799.258L411.034 800.3L389.729 808.197L367.637 816.944L344.863 826.479L321.749 836.632L294.867 904.74L294.697 905.144L288.695 963.632L300.359 1011.14L319.067 1051.96L306.552 1079.74L300.827 1100.76L293.973 1114.49L284.779 1121.64L270.987 1122.62L255.684 1119.28" stroke="white" stroke-width="2.12838" stroke-linecap="round" stroke-linejoin="round"/>
</g>
<g style="mix-blend-mode:overlay">
<path d="M1948 -246.883L1800.31 -234.943L1403.37 -157.002L1279.46 -119.776L1018.47 -41.3882L1014.37 -40.1538L953.749 -36.8335L822.875 18.8023L619.828 105.108L613.911 107.62L520.284 159.978L354.441 252.69L345.225 257.84L285.715 301.983L153.053 400.335L150.584 402.166L150.521 402.23L116.956 436.816L23.9246 532.657L23.5841 533.018L8.04694 557.878L-47.6101 646.929L-47.8868 647.398L-53.0162 665.106L-75.7899 744.111L-75.875 744.345L-71.7034 824.926L-44.2473 890.331L-0.615571 942.433L54.0412 982.617L115.849 1012.52L180.616 1034.25L248.937 1047.04L250.32 1046.11L257.812 1046.17L286.843 1047.79L319.067 1051.96L320.152 1051.17L347.289 996.984L391.836 932.877L460.349 862.257L553.87 786.338L672.356 707.843L812.468 630.371L967.009 558.133L1125.36 495.261L1274.92 445.053L1282.52 442.946L1403.28 409.36L1403.45 409.296L1500.32 388.076L1501.19 387.884L1514.26 373.05L1579.66 364.366L1597.56 349.999L1615.72 335.845L1652.56 338.208" stroke="white" stroke-width="2.12838" stroke-linecap="round" stroke-linejoin="round"/>
</g>
<g style="mix-blend-mode:overlay">
<path d="M1948 10.0548L1817.1 20.271L1546.63 68.8832L1263.92 144.504L1003.02 236.983L994.508 239.984L763.366 343.997L757.024 346.849L567.13 454.396L563.064 456.695L485.166 475.893L409.757 495.793L290.504 601.212L288.631 602.851L212.521 697.798L211.648 698.905L171.187 782.018L170.804 782.805L135.771 798.555L103.271 813.688L73.729 827.906" stroke="white" stroke-width="2.12838" stroke-linecap="round" stroke-linejoin="round"/>
</g>
<g style="mix-blend-mode:overlay">
<path d="M1948 167.64L1819.7 167.746L1644.79 189.115L1437.85 232.939L1385.87 227.639L1324.17 224.595L1252.85 224.191L1173.29 226.553L1086.41 231.874L994.508 239.983L899.072 250.838L802.89 263.928L707.411 278.954L615.337 295.172L527.563 312.263L446.238 329.375L371.532 346.275L304.786 362.195L245.532 377.094L194.408 390.353L150.585 402.166L114.168 412.084L84.1368 420.427L60.2777 426.961L41.6118 432.07L27.6709 435.688L17.625 438.221L17.476 438.433L7.38748 447.969L-35.4568 501.199" stroke="white" stroke-width="2.12838" stroke-linecap="round" stroke-linejoin="round"/>
</g>
<g style="mix-blend-mode:overlay">
<path d="M1948 -106.346L1837.88 -97.556L1509.06 -36.3013L1187.23 53.9207L1177.36 56.6876L1079.71 60.8805L985.526 66.9464L895.9 74.5447L813.404 82.8028L528.52 221.19L524.924 222.935L306.807 360.918L304.785 362.195L154.586 488.834L151.776 491.196L150.329 492.43L56.1482 605.767L54.4242 607.831L53.7644 608.64L4.0029 708.61L3.64105 709.312L-10.2998 794.192L2.32146 864.429L34.2471 921.214L79.4539 966.144L133.6 1000.45L193.237 1025.5L254.768 1043.04L287.12 1047.96" stroke="white" stroke-width="2.12838" stroke-linecap="round" stroke-linejoin="round"/>
</g>
<g style="mix-blend-mode:overlay">
<path d="M1948 -229.792L1855.31 -223.726L1468.31 -153.085L1388.3 -130.269L1088.03 -44.5806L1083.43 -43.261L1014.37 -40.1536L920.1 -1.65125L691.193 91.891L671.91 99.766L609.293 133.352L402.351 244.325L396.583 247.433L360.23 273.122L195.345 389.694L194.408 390.353L177.7 406.55L61.4057 519.142L59.1922 521.27L53.403 529.741L-19.047 635.713L-19.3662 636.16L-20.0899 638.246L-53.548 733.852L-53.7183 734.299L-54.5483 816.05L-31.2639 882.924L9.15401 936.304L61.1929 977.892L120.915 1009.01L183.617 1032.14L248.554 1047.6L264.325 1049.79L291.973 1050.64L319.067 1051.96L320.11 1051.15L349.844 998.197L396.625 935.218L466.692 866.089L560.936 791.915L679.104 715.336L817.682 639.885L969.563 569.627L1124.32 508.478L1132.07 505.861L1269.77 459.59L1275.67 457.93L1393.96 424.642L1394.09 424.599L1394.73 424.45L1486.89 403.677L1488.1 403.4L1546.35 394.248L1567.79 394.376" stroke="white" stroke-width="2.12838" stroke-linecap="round" stroke-linejoin="round"/>
</g>
<g style="mix-blend-mode:overlay">
<path d="M1948 -323.1L1917.93 -325.867L1858.57 -331.316L1812.49 -338.829L1508.23 -309.01L1412.31 -287.578L1284.03 -258.951L1169.82 -233.453L1167.55 -232.942L1166.06 -232.602L908.351 -144.912L899.306 -141.848L827.643 -117.456L825.111 -116.605L603.44 -13.3148L525.435 23.0167L521.774 24.7193L519.88 25.6132L481.761 36.7234L317.705 142.993L314.491 145.079L310.767 147.505L308.979 148.676L249.618 187.115L246.49 189.158L244.766 190.265L213.564 203.695L179.254 219.211L100.653 296.662L96.2048 301.047L86.3504 310.752L63.9386 332.823L55.5528 341.103L44.549 351.936L44.4427 352.043L40.42 356.001L28.7778 367.473L3.81192 383.841L-14.7475 413.425L-54.5482 476.829L-78.833 515.545L-79.7908 517.077L-95.7537 533.061L-112.1 550.62L-128.467 569.733L-137.087 632.797L-143.259 678.046L-150.772 695.308L-157.37 713.612L-162.734 732.831L-166.565 752.774L-168.544 773.227L-168.48 794.043L-166.097 814.965L-128.914 867.515L-124.849 873.283L-124.04 874.411L-118.208 882.626L-82.6641 916.85L-77.8753 918.149L-77.0665 919.128L-76.428 919.915L-74.4911 923.682L-65.8074 937.836L-54.2928 950.223L-36.457 966.74L-8.72426 987.981L-4.65905 991.11L-1.48779 993.536L28.9906 1010.56L40.3774 1016.31L50.7639 1025.59L64.0237 1033.8L74.7082 1042.32L106.038 1054.47L108.571 1055.6L110.103 1056.28L121.66 1061.79L153.777 1069.65L154.65 1069.92L163.419 1075.5L173.103 1078.82L209.924 1084.23L245.362 1080.46L250.129 1083.08L255.11 1085.59L284.439 1071.67L319.067 1051.96L319.621 1050.87L321.132 999.432L319.706 998.708L329.241 953.437L332.306 940.944L332.583 940.412L333.157 939.305L349.737 907.571L368.595 871.473L370.68 868.877L372.937 866.067L376.087 862.151L431.297 793.426L432.574 792.276L435.234 789.829L439.406 786.019L498.596 731.98L524.498 708.333L526.584 706.865L530.862 703.8L625.618 636.373L650.115 618.92L653.159 617.196L659.31 613.663L668.611 608.342L680.934 601.276L787.608 540.149L806.679 529.23L839.818 525.186L843.968 523.313L852.098 519.631L1004.41 450.736L1021.16 443.159L1049.04 443.882L1071.92 446.394L1090.07 450.629L1265.41 389.992L1425.53 345.615L1557.17 318.585L1651.05 307.645L1666.86 293.342L1728.76 295.023L1748.21 307.027L1783.14 291.512L1818.17 274.719" stroke="white" stroke-width="2.12838" stroke-linecap="round" stroke-linejoin="round"/>
</g>
<g style="mix-blend-mode:overlay">
<path d="M1948 38.3408L1869.91 41.8526L1621.19 79.9506L1352.1 145.1L1095.65 228.852L1086.41 231.874L864.634 324.31L845.224 332.419L646.263 436.369L641.58 438.816L484.825 542.192L481.973 544.065L370.787 639.076L367.552 641.821L365.828 643.311L290.206 732.32L289.376 733.299L246.575 812.006L246.213 812.666L229.952 880.859L234.187 938.219L253.449 985.32L283.034 1022.97L319.067 1051.96L320.451 1051.34L359.315 1005.84L413.056 950.266L486.549 889.756L580.24 824.734L693.662 757.477L823.62 690.944L824.663 690.476L963.945 628.476L967.392 627.135L1105.67 573.372L1105.74 573.351L1108.12 572.542L1237.76 528.549L1238.4 528.336L1238.7 528.23L1352.03 494.814L1352.67 494.623L1438.32 472.977L1439.53 472.658L1494.06 461.122L1514.81 457.844" stroke="white" stroke-width="2.12838" stroke-linecap="round" stroke-linejoin="round"/>
</g>
<g style="mix-blend-mode:overlay">
<path d="M680.317 -339.638L608.59 -308.585L366.913 -167.707L341.713 -153.022L324.835 -143.167L134.515 4.71258L115.913 19.1855L103.547 28.7845L-44.7154 186.519L-53.1438 195.5L-146.494 341.465L-151.645 349.489L-199.193 479.66L-201.811 486.769L-214.837 606.235L-200.811 708.184L-196.086 720.742L-170.141 789.616L-168.481 794.043L-133.213 851.339L-124.615 865.322L-118.208 882.626L-109.929 899.866L-99.7552 916.936L-87.7725 935.197L-73.6826 949.819L-57.9326 965.356L-40.4799 980.255L-2.25423 1005.24L15.986 1017.74" stroke="white" stroke-width="2.12838" stroke-linecap="round" stroke-linejoin="round"/>
</g>
<g style="mix-blend-mode:overlay">
<path d="M1948 -319.227L1945.6 -319.503L1900.77 -324.803L1603.01 -306.244L1502.4 -286.854L1422.04 -271.338L1341.07 -255.737L1257.62 -239.647L1217.33 -227.153L1139.43 -203.017L1062.51 -179.179L982.781 -154.49L906.67 -130.886L905.18 -130.418L867.486 -124.118L825.11 -116.605L777.498 -107.623L576.665 -9.59013L487.975 33.6798L484.485 35.3825L481.76 36.7234L439.299 49.7703L392.986 64.9031L259.366 161.383L185.873 214.422L181.829 217.359L179.254 219.211L142.433 236.812L125.065 255.244L24.0099 362.429L19.817 366.877L3.81158 383.841L-22.4526 402.102L-49.632 422.279L-77.1307 444.287L-103.31 508.244L-125.743 563.05L-127.339 566.988L-128.467 569.733L-144.345 590.251L-159.307 612.067L-172.844 634.989L-184.529 658.806L-193.979 683.303L-200.811 708.184L-204.812 733.32L-205.727 758.307L-203.514 783.06L-202.13 785.125L-162.883 843.421L-157.988 850.7L-154.135 856.426L-114.441 897.482L-109.929 899.866L-85.1972 920.575L-78.2374 924.725L-68.4043 935.091L-65.8077 937.836L-54.2932 950.223L-50.9303 950.096L-49.483 951.288L-33.3712 962.419L-27.9225 961.972L5.79096 979.425L7.23824 981.34L9.70717 983.852L10.2606 984.171L35.3116 996.537L42.0585 997.175L43.6974 997.835L44.4849 998.154L44.719 998.24L104.42 1020.86L108.166 1017.99L111.635 1015.48L115.849 1012.52L120.915 1009.01L126.811 1005.03L133.6 1000.45L141.305 995.388L149.946 989.747L159.46 983.639L169.931 976.977L181.233 969.911L193.429 962.398L206.327 954.587L219.97 946.499L234.187 938.219L248.916 929.833L252.278 869.579L252.449 869.132L277.904 798.576L278.372 797.874L331.859 716.911L332.923 715.804L334.987 713.675L420.548 625.348L426.337 620.857L548.889 526.016L558.403 520.248L719.734 422.471L724.651 420.087L734.228 415.447L930.593 320.33L937.787 317.563L950.897 312.476L1173.29 226.553L1182.51 223.765L1431.68 148.846L1685.02 93.8491L1909.97 65.5203L1937.46 90.6139L1948 108.875" stroke="white" stroke-width="2.12838" stroke-linecap="round" stroke-linejoin="round"/>
</g>
<g style="mix-blend-mode:overlay">
<path d="M1948 -59.7347L1904.75 -77.0597L1837.88 -97.556L1765 -114.711L1689.51 -128.588L1613.12 -139.336L1539.01 -147.424L1468.31 -153.085L1403.37 -157.002L1344.46 -159.343L1292.84 -160.748L1248 -161.28L1013.13 -82.6361L861.186 -31.7466L856.759 -30.278L855.737 -29.8097L664.29 56.8366L525.541 119.624L523.604 120.496L517.347 124.242L380.364 206.121L267.368 273.654L265.921 274.506L246.957 289.745L169.314 352.064L84.8387 419.853L84.1364 420.427L83.4341 421.215L31.0546 481.107L25.9678 486.918L-29.6893 550.556L-30.3065 551.28L-32.52 555.43L-59.2099 605.681L-90.3694 664.361L-90.4971 664.616L-99.0106 708.525L-108.993 759.925L-97.095 838.547L-63.5518 901.909L-15.1311 951.905L43.2928 990.088L108.166 1017.99L119.851 1021.2L176.976 1036.85L179.232 1035.23L181.999 1033.27L185.234 1031.04L189.002 1028.42L193.237 1025.5L198.047 1022.21L203.326 1018.61L209.157 1014.65L215.457 1010.39L222.247 1005.82L229.462 1001.01L237.124 995.92L245.127 990.705L253.449 985.32L262.026 979.872L270.816 974.402L279.713 968.953L279.287 913.211L279.394 912.87L298.422 847.316L298.762 846.742L342.883 771.227L343.65 770.375L345.267 768.524L418.398 685.645L419.888 684.389L422.847 681.92L530.01 592.188L532.501 590.57L537.481 587.314L680.338 494.048L684.254 491.984L691.661 488.131L868.401 395.823L873.893 393.503L884.513 389.034L1087.24 303.728L1094.75 301.238L1108.52 296.62L1324.17 224.595L1560.53 164.724L1776.22 128.307L1803.53 147.697L1948 142.568" stroke="white" stroke-width="2.12838" stroke-linecap="round" stroke-linejoin="round"/>
</g>
<g style="mix-blend-mode:overlay">
<path d="M1948 -79.252L1904.75 -77.0597L1596.63 -27.1067L1275.18 55.1126L980.163 157.658L971.543 160.659L726.29 270.504L713.966 276.017L707.411 278.954L499.617 397.526L495.467 399.889L345.331 510.373L340.202 514.14L337.456 516.162L231.463 621.24L230.058 622.645L166.164 716.059L165.441 717.123L135.771 798.555L132.812 867.323L149.925 924.066L181.233 969.911L222.247 1005.82L267.645 1033.95L319.067 1051.96L325.622 1082.44L332.476 1104.87L332.561 1105L341.202 1120.51L350.695 1121.05L359.847 1130.43L363.976 1133.92L379.428 1134.58L395.88 1133.01L409.566 1132.9L421.187 1130.41L433.063 1129.79L444.79 1129.01L456.326 1128.07L467.67 1126.99L478.802 1125.75L489.699 1124.39L500.341 1122.92L510.706 1121.32L520.816 1119.62L564.533 1121.62L576.941 1119.45L602.035 1116.13L631.321 1113.13L646.071 1111.15L654.393 1109.51L660.778 1108.17L664.779 1107.32L675.89 1104.96L684.765 1101.04L697.216 1097.63L709.326 1094.08L721.054 1090.33L732.441 1086.44L743.508 1082.33L753.597 1079.65L755.108 1079.37L757.811 1078.88L808.147 1070.88L835.88 1063.2L878.767 1051L887.876 1048.77L892.452 1047.43L914.587 1040.08L915.204 1038.53L927.677 1030.97L939.298 1024.48L950.046 1017.67L959.879 1010.5L968.84 1002.94L976.885 994.962L984.057 986.512L987.612 985.533L1064.85 964.079L1066.68 963.526L1137.58 941.752L1150.5 931.196L1162.44 920.022L1164.42 919.362L1230.52 897.674L1245 885.308L1258.36 872.24L1270.73 858.448L1282.14 843.89L1292.69 828.565L1302.44 812.475L1311.49 795.618L1319.96 777.995L1391.77 756.945L1400.45 738.79L1449.73 723.402L1472.24 713.122L1478.8 695.754L1483.55 678.004" stroke="white" stroke-width="2.12838" stroke-linecap="round" stroke-linejoin="round"/>
</g>
<g style="mix-blend-mode:overlay">
<path d="M1939.76 -319.227L1900.77 -324.803L1858.57 -331.316L1557.97 -307.606L1522.07 -300.178L1417.61 -278.532L1313.4 -256.929L1215.69 -236.688L1214.48 -236.433L975.31 -159.024L971.564 -157.811L960.156 -154.107L955.26 -152.532L938.17 -146.998L930.018 -144.359L868.763 -124.544L867.486 -124.118L625.277 -15.7412L557.786 14.4604L555.828 15.3331L553.891 16.2057L519.879 25.6131L389.41 106.492L328.283 144.377L276.521 176.473L274.584 177.686L272.881 178.729L244.765 190.264L124.384 295.534L121.255 298.28L114.189 304.452L97.1409 319.372L92.0327 326.672L92.203 329.269L91.6071 329.78L72.9624 340.507L51.8702 353.064L28.7773 367.473L-8.91627 422.045L-41.225 468.827L-64.02 501.795L-64.7011 502.796L-89.7308 571.202L-104.629 611.343L-110.397 625.284L-119.549 645.44L-126.765 661.381L-125.339 663.254L-132.511 680.515L-135.023 683.282L-137.492 722.806L-140.024 749.049L-141.685 770.716L-141.833 776.867" stroke="white" stroke-width="2.12838" stroke-linecap="round" stroke-linejoin="round"/>
</g>
<g style="mix-blend-mode:overlay">
<path d="M1948 65.2226L1909.97 65.5205L1869.91 41.853L1817.1 20.2712L1752.96 1.32867L1678.68 -14.5278H1678.53L1596.63 -27.1065L1509.06 -36.3011L1419.35 -42.3882L1329.28 -45.5808L1008.6 59.3908L992.656 64.6053L985.526 66.9466L702.473 188.924L685.808 196.118L449.771 327.418L446.238 329.376L276.265 452.481L271.562 455.886L269.114 457.653L151.393 573.564L150.138 574.799L80.4758 677.195L79.7734 678.217L48.5926 766.8L46.9751 841.229L67.4075 902.271L103.313 951.416L149.946 989.748L203.326 1018.61L260.515 1039L277.883 1042.85L319.067 1051.96L319.876 1051.02L354.717 1001.52L405.33 941.689L477.589 876.39L572.131 806.388L688.468 734.193L823.152 663.041L969.329 596.679L975.118 594.423L1117.27 538.68L1129.06 534.7L1255.55 491.962L1255.72 491.92L1258.62 491.09L1373.19 458.036L1373.72 457.887L1461.39 436.859L1462.73 436.539L1517.6 426.366L1537.22 424.855" stroke="white" stroke-width="2.12838" stroke-linecap="round" stroke-linejoin="round"/>
</g>
<g style="mix-blend-mode:overlay">
<path d="M1948 -211.297L1912.43 -209.615L1539.01 -147.424L1505.15 -138.315L1166.27 -47.2838L1159.48 -45.4534L1083.43 -43.2612L1029.99 -22.4031L749.914 86.9104L738.229 91.4652L709.475 106.194L465.095 231.3L458.922 234.45L456.709 235.578L448.046 241.388L250.746 373.603L247.298 375.902L245.531 377.094L104.782 504.647L102.376 506.84L101.504 507.606L15.943 621.112L14.2829 623.326L-27.1992 722.551L-34.2441 805.877L-15.7485 874.219L20.7106 929.28L69.6845 972.358L126.81 1005.03L187.107 1029.74L251.916 1045L256.173 1043.91L283.544 1045.98L319.067 1051.96L320.259 1051.24L352.333 999.708L401.116 938.177L472.416 870.835L566.98 798.619L684.403 724.147L821.172 650.824L970.223 582.503L1121.51 522.973L1127.77 520.866L1263.24 475.212L1264.34 474.914L1267.47 474.02L1383.66 440.945L1384.13 440.796H1384.19L1473.99 419.874L1475.18 419.597L1531.39 409.998L1551.4 409.296" stroke="white" stroke-width="2.12838" stroke-linecap="round" stroke-linejoin="round"/>
</g>
<g style="mix-blend-mode:overlay">
<path d="M1907.2 257.543L1883.53 236.557L1812.64 227.022L1694.89 233.449L1536.12 258.99L1348.27 304.665L1312.51 300.387L1110.36 367.856L1104.5 369.815L933.338 440.902L919.27 446.755L905.073 452.63L749.893 531.827L738.804 537.488L731.504 541.213L727.907 543.043L589.137 630.498L583.944 633.776L581.411 635.372L575.281 640.225L486.911 710.589L479.334 716.613L473.97 720.891L470.586 723.594L468.99 724.871L458.007 736.406L395.774 801.833L392.602 805.174L390.644 807.239L389.729 808.197L377.257 827.075L341.564 881.136L340.606 882.583L340.18 883.222L329.964 910.295L315.512 948.585L315.364 948.968L311.916 985.363V1004.01L319.344 1051.43L319.705 1050.94L319.791 1050.98L319.854 1051L319.897 1051.04L320.365 1051.3L379.641 1034.42L445.109 1007.84L520.199 976.977L605.504 941.242L701.643 901.718L796.398 864.407L807.572 860.023L807.955 859.874L920.951 817.902L921.696 817.604L922.143 817.455L1039.82 776.569L1040.2 776.42L1156.24 738.897L1156.52 738.812L1264.34 706.311L1271.62 685.07L1279.2 663.509L1287.12 641.715L1295.35 619.878L1304.02 598.083L1313.02 576.48L1400.45 552.791L1401.07 552.621L1460.98 537.871L1489.95 530.89" stroke="white" stroke-width="2.12838" stroke-linecap="round" stroke-linejoin="round"/>
</g>
<g style="mix-blend-mode:overlay">
<path d="M1948 169.343L1933.72 192.01L1911.24 215.039L1883.53 236.557L1851.97 256.415L1818.17 274.719L1776.69 262.885L1690.17 263.885L1586.71 277.954L1560.93 281.444L1397.22 317.712L1212.01 372.496L1021.16 443.158L987.91 444.329L949.258 447.458L905.073 452.63L855.674 459.888L801.293 469.252L742.657 480.639L680.338 494.048L615.486 509.202L548.889 526.016L481.973 544.065L415.461 563.178L350.844 582.844L288.631 602.851L230.058 622.645L175.295 642.077L122.83 734.597L103.271 813.688L108.953 879.732L132.961 933.835L169.931 976.977L215.457 1010.39L267.645 1033.95L272.434 1030.53L275.839 1028.1L279.373 1025.57L283.033 1022.97L286.801 1020.31L290.61 1017.65L294.505 1015.01L298.4 1012.39L302.295 1009.86L306.19 1007.43L306.595 953.565L306.68 953.246L318.918 911.678L325.282 890.054L325.601 889.479L326.325 888.245L360.634 829.012L367.636 816.944L368.36 816.114L369.978 814.263L435.574 738.769L438.852 735.002L440.235 733.831L443.109 731.362L447.749 727.403L543.27 645.929L581.411 635.372L617.167 626.327L650.115 618.92L680.146 613.237L707.049 609.278L730.802 607.107L734.164 605.383L859.334 540.51L893.516 522.802L914.268 524.377L1090.07 450.629L1103.95 456.503L1113.97 463.974L1120.59 472.956L1124.23 483.406L1125.36 495.261L1124.32 508.478L1121.51 522.973L1117.27 538.68L1111.93 555.516L968.371 611.556L967.116 612.045L963.944 628.476L959.985 645.823L955.558 663.956L950.812 682.686L945.981 701.884L941.192 721.359L936.616 740.961L932.338 760.521L928.464 779.868L925.059 798.896L922.143 817.455L919.184 835.631L807.679 875.9L807.296 876.049L703.175 915.446L608.292 952.394L523.476 985.427L448.047 1013.5L381.428 1037.21L320.663 1051.47L319.067 1051.96L292.611 1050.98L265.027 1050.17L251.065 1050.81L250.107 1050.68L246.851 1050.51L246.127 1050.64L245.148 1050.53L244.978 1050.36L244.893 1050.15L191.875 1044.62L188.193 1043.28L184.149 1041.17L179.53 1040.08L173.72 1040.66L173.23 1041.98L172.209 1041.83L171.996 1041.3L137.474 1032.89L133.791 1032.53L129.258 1029.91L102.696 1022.33L89.4574 1019.99L77.73 1017.35L53.2111 1006.92L53.0621 1006.77L51.8276 1005.63L50.8699 1004.58L49.2949 1003.96L36.0989 998.069L33.8216 998.027L33.5023 998.899L33.8003 999.453L43.0374 1002.96L52.2533 1006.48L52.7854 1006.67L52.8705 1006.71L53.2111 1006.92L59.6175 1013.39L66.5348 1020.14L74.0053 1027.16L82.0719 1034.34L90.7557 1041.64L100.099 1048.96L110.103 1056.28L121.66 1061.79L132.004 1070.56L143.901 1077.37L156.352 1083.95L169.357 1090.19L181.297 1096.93L190.215 1100.74L206.135 1105.74L212.903 1107.72L225.695 1111.3L240.594 1115.53L255.684 1119.28L271.71 1120.86L286.396 1125.5L301.891 1127.99L309.681 1125.84L312.746 1117.64L313.363 1102.89L315.938 1081.4L319.067 1051.96L279.373 1025.57L245.127 990.705L219.97 946.499L208.349 892.119L215.649 826.735L246.212 812.666L277.904 798.576L310.213 784.721L342.883 771.227L375.426 758.35L407.586 746.218L438.852 735.002L468.99 724.871L497.595 715.953L499.447 714.569L503.321 711.675L509.365 707.12L601.354 638.161L617.167 626.327L619.934 624.645L625.66 621.219L634.492 615.94L646.454 608.768L661.48 599.765L759.875 540.83L769.283 535.19L773.135 533.295L780.861 529.528L792.546 523.845L808.083 516.268L949.258 447.458L954.132 445.521L963.774 441.69L1147.03 368.835L1182.81 369.772L1376.25 310.539L1397.22 317.712L1411.84 326.055L1421.01 335.377L1431.49 333.206L1562.49 305.857L1567.25 305.303L1666.86 293.342L1680.21 278.763L1690.17 263.885L1695.45 248.731L1694.89 233.449L1687.06 218.21L1670.8 203.29L1479.84 240.196L1268.66 297.875L1072.26 366.856L1060.96 370.836L1055.02 372.922L882.853 448.032L860.228 457.887L855.674 459.888L717.286 534.211L703.154 541.83L692.81 547.364L686.106 550.961L682.764 552.77L634.365 564.285L583.177 577.502L530.01 592.188L475.46 608.257L420.548 625.348L365.827 643.311L312.405 661.7L260.685 680.409L211.648 698.904L165.44 717.123L122.83 734.597L83.7107 751.284L73.7287 827.905L46.9749 841.229L23.2861 853.361L2.32155 864.428L-15.7484 874.219L-31.2643 882.924L-44.2473 890.331L-54.9744 896.695L-63.5518 901.909L-70.2349 906.187L-75.1514 909.486L-78.5568 911.998L-80.5575 913.786L-81.3876 914.977L-81.1747 915.658L-77.067 919.128L-28.0504 962.334L-22.1761 965.122L7.2381 981.34L34.1834 997.835L41.356 1001.9L51.0189 1005.58L52.0405 1005.99L52.4023 1006.11L75.4101 1014.88L91.8837 1020.78L92.8415 1021.33L94.0972 1022.42L95.2253 1022.84L97.5665 1023.82L100.269 1025.89L100.78 1027.57L106.123 1032.17L118.212 1037.47L141.028 1044.38L158.736 1048.68L163.27 1052.22L168.037 1055.94L173.081 1059.81L199.856 1062.37L219.225 1063.11L265.815 1059.24L319.067 1051.96L343.245 1082.4L346.353 1082.23L349.439 1082.01L352.461 1081.76L355.42 1081.46L358.335 1081.12L361.166 1080.74L363.933 1080.33L366.593 1079.88L369.19 1079.42L371.702 1078.93L374.107 1078.39L376.405 1077.86L378.598 1077.29L380.705 1076.69L382.684 1076.07L384.557 1075.44L386.302 1074.8L387.92 1074.12L389.41 1073.41L390.772 1072.69L392.006 1071.95L466.18 1084.69L468.373 1083.18L543.951 1088.84L546.995 1086.57L549.655 1084.2L551.89 1081.74L553.72 1079.18L555.147 1076.52L556.36 1073.71L608.569 1070.65L637.621 1068.94L639.047 1066.9L639.579 1060.96L639.771 1056.6L639.473 1051.96L638.707 1047.02L637.472 1041.72L635.855 1036.06L633.854 1029.97L631.555 1023.44L628.98 1016.42L626.213 1008.86L623.276 1000.81L620.254 992.195L617.21 983.043L614.166 973.338L611.166 963.121L608.292 952.394L605.504 941.242L602.865 929.706L600.375 917.872L597.991 905.804L595.692 893.63L593.436 881.434L591.18 869.366L588.818 857.532L586.285 846.061L583.454 835.099L580.24 824.734L576.515 815.135L572.131 806.388L566.98 798.619L560.936 791.915L553.869 786.338L545.654 781.975L536.204 778.889L445.514 857.447L436.958 856.532L375.384 929.77L369.148 930.068L340.223 981.191L333.135 995.196L319.599 1050.87L319.067 1051.96L291.76 1050.51L266.624 1051.04L266.389 1050.92L265.9 1050.64L249.213 1050.07L245.17 1051.26L239.763 1051.13L238.997 1050.24L237.869 1050.6L235.081 1050.51L234.272 1050.79L229.952 1050.66L228.121 1050.09L226.993 1049.98L224.46 1051.19L215.053 1052.75L205.411 1051.45L203.9 1050.53L202.751 1051.15L192.109 1047.21L190.768 1044.15L187.256 1043.3L184.596 1043.19L182.361 1041.15L175.146 1038.21L173.72 1040.66L172.209 1041.83L171.889 1041.68L170.719 1041.49L168.165 1042.42L158.225 1043.96L154.458 1045.36L150.372 1042.28L136.878 1038.55L121.404 1032.4L119.297 1028.85L113.976 1027.33L106.889 1026.01L100.355 1025.84L91.2452 1021.95L78.7942 1016.59L72.9199 1012.99L54.3178 1004.37L46.4429 1001.28L34.1408 997.984L31.7996 998.878L26.2233 996.133L21.2854 993.195L14.283 989.024L12.7719 987.193L12.559 987.066L9.91987 985.342L-12.7261 972.146L-26.6457 964.079L-27.944 963.483L-28.2845 962.845L-27.795 961.823L-26.3477 960.269L-23.8575 958.184L-20.1328 955.395L-15.1311 951.905L-8.63959 947.584L-0.615625 942.433L9.15362 936.304L20.7108 929.28L34.2472 921.214L49.7418 912.274L67.4074 902.271L87.0736 891.459L108.953 879.732L132.812 867.323L158.715 854.212L170.804 782.805L208.412 766.48L247.979 749.943L289.376 733.299L331.858 716.911L375.128 700.926L418.398 685.645L461.264 671.236L462.966 669.916L466.5 667.213L471.884 663.063L583.177 577.502L585.987 575.778L742.657 480.639L746.764 478.639L936.382 385.863L942.15 383.585L953.004 379.307L1155.75 299.344L1163.1 297.045L1385.87 227.639L1608.31 176.09L1803.53 147.697L1819.7 167.746L1825.55 187.923L1822.79 207.781L1812.64 227.022L1796.84 245.432L1776.69 262.885L1753.68 279.401L1728.76 295.023L1703.15 309.922L1677.46 324.246L1652.56 338.208L1650.75 348.275L1635.47 355.256L1633.55 356.129L1633.02 356.385L1631.42 357.108L1623.4 360.769L1622.61 361.152L1621.57 361.663L1609.55 365.856H1606.57L1595.99 373.901L1593.99 375.731L1588.54 378.86L1586.69 379.924L1584.52 381.201L1580.09 384.692L1578.81 385.671L1571.17 391.694L1568.17 394.057L1567.79 394.376L1564.44 397.42L1557.31 403.932L1556.91 404.273L1556.74 404.443L1555.82 405.273L1551.4 409.296L1547.57 413.51L1546.2 415L1541.8 419.81L1538.78 423.13L1537.52 424.514L1537.22 424.854L1534.73 428.132L1531.65 432.197L1531.41 432.517L1530.2 434.134L1528.28 436.646L1526.43 439.115L1525.01 441.009L1514.81 457.844L1506.34 475.297L1499.59 493.346L1494.17 511.905L1489.95 530.89L1487.48 548.066L1487.84 566.69L1488.57 585.441L1489.12 604.234L1489.27 622.943L1488.55 641.523L1486.74 659.891L1483.55 678.004L1463.39 686.645L1415.39 700.777L1408.33 720.039L1335.52 740.642L1327.94 759.648L1237.21 785.806L1230.54 803.919L1129.34 833.844L1124.55 850.466L1119.7 866.238L1114.72 881.157L1109.4 895.247L1103.69 908.507L1097.41 921.001L1090.48 932.749L1082.79 943.817L996.892 967.783L995.891 968.08L990.357 977.573L984.057 986.512L899.688 1007.77L898.709 1008.03L894.155 1015.5L811.403 1033.51L809.147 1034L724.714 1049.3L722.16 1054.56L719.819 1059.41L716.818 1064.01L711.838 1066.54L708.879 1072.58L703.941 1076.61L698.386 1080.48L692.214 1084.18L671.888 1085.5L619.615 1088.89L618.892 1088.93L613.954 1091.82L540.503 1091.06L536.672 1093.19L463.711 1086.14L460.987 1087.55L389.41 1073.41L319.067 1051.96L269.092 1061.69L226.397 1068.33L184.085 1067.88L183.83 1067.82L156.437 1062.26L138.559 1058.64L137.112 1058.13L136.218 1057.81L108.059 1047.79L90.7557 1041.64L89.6489 1041.08L87.9249 1040.21L86.1796 1039.32L57.9148 1025.12L40.377 1016.31L30.182 1008.14L-12.2152 982.021L-21.8143 970.507L-26.4116 964.143L-28.0504 962.334L-78.7484 915.424L-81.3024 914.318L-124.615 865.322L-129.255 848.146L-132.213 831.226L-133.703 814.795L-133.788 809.346L-142.493 777.612L-141.834 776.867L-140.514 773.547L-140.024 749.049L-138.194 717.379L-143.26 678.046L-135.236 661.956L-134.405 657.933L-127.063 622.538L-112.1 550.62L-110.972 548.279L-85.7295 496.432L-49.6322 422.279L-36.8193 405.933L5.98236 351.298L62.8526 278.72L78.2408 264.885L84.5195 259.224L159.885 191.393L234.059 124.647L239.487 121.007L247.553 115.601L383.472 24.5916L467.308 -31.555L474.587 -35.2372L485.506 -40.7497L497.893 -47.0283L672.931 -135.569L756.172 -177.668L765.388 -181.116L778.754 -186.118L793.653 -191.694L1009.62 -272.487L1082.03 -299.56L1092.52 -302.242L1239.34 -339.638" stroke="white" stroke-width="2.12838" stroke-linecap="round" stroke-linejoin="round"/>
</g>
<g style="mix-blend-mode:overlay">
<path d="M1862.18 277.273L1851.97 256.414L1796.84 245.432L1695.45 248.731L1584.49 265.098L1551.99 269.908L1376.25 310.539L1348.27 304.665L1147.03 368.835L1104.5 369.814L1055.02 372.922L998.893 378.222L936.382 385.862L868.402 395.823L795.675 408.083L719.735 422.471L641.581 438.816L563.065 456.695L422.932 557.793L418.079 561.305L415.462 563.178L313.789 660.402L312.406 661.7L248.682 748.985L247.98 749.943L215.884 826.16L215.649 826.735L186.342 840.676L158.715 854.212" stroke="white" stroke-width="2.12838" stroke-linecap="round" stroke-linejoin="round"/>
</g>
<g style="mix-blend-mode:overlay">
<path d="M1890.3 -312.927L1868.23 -311.799L1852.41 -309.223L1828.02 -306.073L1824.75 -307.201L1813.81 -307.436L1790.03 -308.436L1761.09 -307.414L1723.63 -306.095L1680.63 -304.605L1672.74 -303.264L1632.79 -296.453L1594.37 -289.898L1560.89 -284.194L1522.58 -277.66L1483.38 -270.998L1436.78 -263.059L1386.79 -254.524L1330.15 -244.883L1329.64 -244.734L1296.21 -235.113L1251.42 -222.215L1206.49 -209.253L1165.52 -197.462L1119.64 -184.245L1073.07 -170.815L1020.81 -155.767L967.733 -140.486L966.69 -140.188L937.999 -135.739L905.18 -130.418L644.985 -18.1677L587.562 6.58539L584.518 7.90498L583.497 8.35192L553.891 16.2056L345.374 140.482L301.167 166.831L298.549 168.406L297.506 169.002L205.646 242.495L140.304 294.789L138.644 296.109L137.516 297.024L134.941 299.088L133.941 299.876L108.89 319.904L108.677 320.095L107.889 320.713L91.6072 329.78L35.6946 395.717L0.682842 439.114L-11.1722 454.439L-10.8317 455.098L-17.8766 461.952L-27.0925 469.784L-38.1175 479.17L-50.6749 490.132L-64.7009 502.795L-79.7912 517.077L-98.7976 573.692L-109.546 605.745L-118.677 632.967L-118.932 633.712L-119.4 642.545L-126.977 663.467L-131.064 673.619L-134.022 679.366L-134.044 680.898L-134.299 682.963L-135.789 683.771L-138.194 717.379" stroke="white" stroke-width="2.12838" stroke-linecap="round" stroke-linejoin="round"/>
</g>
<g style="mix-blend-mode:overlay">
<path d="M1948 196.863L1933.72 192.01L1825.55 187.923L1670.8 203.29L1644.79 189.115L1608.31 176.09L1560.53 164.724L1501.64 155.487L1431.68 148.846L1352.1 145.1L1263.92 144.504L1169.74 146.995L1071.19 152.528L971.543 160.659L872.382 171.067L776.796 183.007L685.808 196.118L601.779 209.505L524.924 222.935L456.709 235.578L396.583 247.433L345.225 257.841L301.657 267.014L265.921 274.506L236.933 280.678L214.266 285.297L196.898 288.766L184.149 291.022L175.125 292.512L168.995 293.235L166.931 293.533L162.461 293.746L160.077 293.917L158.417 294.278L157.395 294.662L156.544 295.257L49.1248 398.016" stroke="white" stroke-width="2.12838" stroke-linecap="round" stroke-linejoin="round"/>
</g>
<g style="mix-blend-mode:overlay">
<path d="M1948 -312.884L1936.46 -313.501H1934.97L1934.63 -313.48L1912.71 -313.693L1890.3 -312.927L1860.97 -309.883L1844.05 -309.181L1822.92 -308.627L1798.69 -306.989L1796.18 -306.627L1795.2 -306.499L1771.47 -304.349L1746.27 -305.116L1714.09 -304.562L1680.63 -304.605L1643.68 -305.265L1603.01 -306.244L1557.97 -307.606L1508.23 -309.011L1453.09 -310.266L1392.2 -310.99L1324.9 -310.82L1251 -309.202L1170.01 -305.648L1068.89 -271.125L858.27 -199.208L846.756 -195.291L838.838 -192.567L728.993 -141.188L554.189 -59.3943L544.547 -54.8822L538.013 -51.8173L430.552 14.8648L301.955 94.6577L294.697 99.1699L289.802 102.213L196.302 179.686L123.49 240.026L117.382 245.091L111.806 249.689L103.398 256.67L31.4379 339.826L-10.9593 388.821L-14.0029 392.333L-22.4526 402.102L-69.3195 485.811L-90.4117 523.505L-90.582 523.824L-91.9229 526.208L-95.754 533.061L-105.715 569.414L-117.847 613.705L-126.637 645.78L-126.999 647.142L-135.235 661.956L-134.214 681.303L-130.936 681.515L-125.296 679.068L-116.974 675.599L-105.481 670.767L-90.4969 664.616L-71.3627 656.762L-47.8867 647.398L-19.3665 636.16L14.2832 623.326L53.7647 608.64L98.8437 592.507L150.138 574.799L207.05 556.048L269.838 536.296L414.333 419.363L495.467 399.888L580.389 381.074L668.334 363.153L757.023 346.849L845.223 332.419L930.593 320.33L1011.9 310.709L1087.24 303.728L1155.75 299.344L1216.28 297.471L1437.85 232.938L1479.84 240.196L1512.43 249.008L1536.12 258.99L1551.99 269.908L1560.93 281.444L1564.13 293.47L1562.49 305.857L1557.17 318.584L1548.93 331.589L1538.63 344.976L1426.87 367.941L1423.67 368.601L1418.69 381.329L1411.76 394.887L1403.45 409.296L1394.09 424.599L1384.13 440.796L1373.72 457.887L1363.21 475.85L1352.67 494.623L1342.35 514.182L1332.24 534.402L1322.45 555.217L1313.02 576.48L1312.53 576.629L1202.54 609.896L1193.85 631.456L1185.55 653.187L1177.61 674.939L1170.12 696.542L1163.08 717.868L1156.52 738.811L1150.37 759.201L1144.66 778.995L1139.3 798.065L1134.24 816.37L1129.34 833.844L1022.22 866.429L914.417 900.121L809.956 933.281L711.476 964.398L620.254 992.195L536.396 1015.59L459.136 1033.74L386.43 1044.87L320.089 1051.83L319.152 1050.62L323.153 997.835L322.068 996.367L322.6 994.706L340.372 937.623L340.713 937.049L341.436 935.835L358.74 906.251L381.875 866.727L382.663 865.833L384.302 863.917L386.856 860.98L390.304 857L394.603 852.041L450.409 787.615L468.224 782.997L484.655 779.57L486.336 778.25L551.55 726.871L592.989 694.201L595.48 692.626L600.332 689.561L690.277 632.733L730.802 607.107L751.426 606.703L914.268 524.377L931.231 527.761L944.661 532.891L1113.97 463.974L1278.26 408.402L1423.67 368.601" stroke="white" stroke-width="2.12838" stroke-linecap="round" stroke-linejoin="round"/>
</g>
<g style="mix-blend-mode:overlay">
<path d="M1948 90.9758L1937.46 90.614L1736.69 110.153L1501.64 155.487L1252.85 224.191L1244.53 227.171L1032.97 303.154L1019.13 308.113L1011.9 310.71L801.06 405.678L795.675 408.083L625.979 503.307L619.02 507.223L615.486 509.202L482.037 603.596L477.738 606.639L475.46 608.257L378.917 697.415L376.363 699.777L375.129 700.927L310.83 783.912L310.213 784.721L275.435 857.831L275.201 858.32L263.963 921.49L270.817 974.402L288.716 1018.99L319.067 1051.96L320.749 1081.97L322.366 1082.12L327.198 1082.42L327.304 1082.61L338.861 1105.23L338.967 1105.36L350.695 1121.05L360.124 1121.37L369.531 1121.49L378.853 1121.45L388.09 1121.26L397.221 1120.9L406.224 1120.41L415.121 1119.77L423.847 1119.03L432.425 1118.17L440.81 1117.19L449.026 1116.13L457.029 1114.98L464.819 1113.73L472.374 1112.41L520.816 1119.62L530.607 1117.81L576.941 1119.45L589.116 1118.51L601.184 1116.88L611.932 1112.21L622.808 1109.55L633.237 1106.79L643.198 1103.89L644.347 1103.79L683.382 1101.91L686.617 1102.55L689.362 1101.44L704.963 1098.95L717.053 1097.06L732.973 1093.46L748.404 1089.72L763.281 1085.76L774.2 1082.72L778.158 1081.54L791.312 1077.35L804.38 1072.88L816.788 1068.22L828.516 1063.35L839.498 1058.28L849.736 1053L859.186 1047.47L867.827 1041.7L875.659 1035.64L882.662 1029.27L886.365 1028.38L959.879 1010.5L964.881 1009.09L1030.97 990.471L1038.1 988.109L1092.71 970.081L1097.76 968.038L1110.74 962.717L1120.15 957.779L1161.63 940.731L1180.42 930.898L1180.72 930.749L1187.7 927.429L1213.99 914.892L1219.97 909.614L1263.49 889.437L1280.65 878.965L1283.12 877.369L1300.63 864.918L1317.3 851.637L1332.66 837.632L1346.8 822.904L1359.72 807.473L1371.49 791.319L1382.13 774.462L1391.77 756.945L1440.91 741.068L1449.73 723.402L1457.17 705.247L1478.8 695.755" stroke="white" stroke-width="2.12838" stroke-linecap="round" stroke-linejoin="round"/>
</g>
<g style="mix-blend-mode:overlay">
<path d="M1948 -318.248L1939.76 -319.227L1935.4 -319.035L1912.86 -315.842L1881.77 -309.564L1872.66 -308.329L1842.62 -306.286L1836.92 -307.478L1825.68 -305.052L1712.98 -287.939L1619.51 -274.445L1563.72 -266.996L1528.5 -262.271L1523.09 -261.548L1504.28 -260.696L1485.48 -257.44L1479.22 -257.355L1473.33 -257.312L1458.11 -257.12L1431.76 -253.736L1411.8 -251.672L1410.67 -251.544L1386.94 -249.437L1360.4 -247.16L1330.15 -244.882L1296.14 -242.371L1257.62 -239.646L1214.48 -236.433L1166.06 -232.602L1112.29 -227.834L874.914 -142.592L864.996 -139.038L780.393 -108.666L777.499 -107.623L724.97 -96.9387L667.291 -84.2536L421.974 49.1532L414.653 53.1332L408.821 56.3045L402.159 59.9228L392.986 64.9032L342.948 82.3559L170.017 215.571L165.803 218.828L155.118 227.043L149.84 231.13L145.477 234.492L142.433 236.812L103.398 256.67L62.8529 278.72L21.4134 303.005L-36.2018 385.629L-71.4478 436.156L-77.1305 444.287L-104.331 468.061L-130.659 493.388L-155.434 520.121L-178.101 548.045L-198.022 576.8L-214.837 606.235L-228.011 635.883L-237.397 665.617L-242.697 694.967L-243.974 723.807L-241.165 751.71L-207.366 803.408L-200.789 813.475L-189.53 830.694L-153.05 872.41L-144.962 878.859L-105.161 913.53L-99.7552 916.936L-88.4322 926.918L-53.8035 957.417L-48.44 962.142L-44.0555 965.995L-2.44572 994.323L8.79212 1005.16L13.3681 1009.46L23.3715 1016.18L37.2698 1025.4L66.6201 1039.79L71.111 1042.23L74.1121 1043.89L86.6482 1050.85L116.169 1061.56L118.808 1062.67L120.745 1063.47L130.599 1068.09L132.004 1070.56L140.901 1072.82L171.528 1080.67L173.103 1078.82L202.985 1080.2L209.924 1084.23L217.203 1088.14L224.78 1091.93L255.109 1085.59L260.281 1087.99L265.645 1090.27L289.461 1074.09L319.067 1051.96L321.11 1051.7L384.025 1041.19L453.772 1024.12L530.011 1001.28L614.167 973.338L706.985 941.199L808.232 906.038L915.715 869.537L916.077 869.43L916.333 869.345L1028.03 832.822L1028.22 832.758L1139.3 798.066L1243.85 766.906L1243.91 766.885L1335.52 740.642L1342.82 720.997L1349.9 700.82L1356.84 680.175L1363.76 659.168L1370.76 637.905L1377.87 616.494L1385.24 595.061L1392.94 573.713L1401.07 552.621L1409.71 531.848L1418.99 511.543L1428.89 491.771L1439.53 472.658L1450.79 454.226L1462.73 436.539L1475.18 419.597L1488.1 403.401L1501.19 387.885L1562.55 379.073L1586.11 379.903L1587.39 379.052L1591.84 375.987L1595.05 374.71L1643.2 369.793L1730.74 348.744L1748.59 344.444L1818.87 320.096L1832.51 315.392L1888.02 285.276L1907.2 257.543L1948 236.983" stroke="white" stroke-width="2.12838" stroke-linecap="round" stroke-linejoin="round"/>
</g>
<g style="mix-blend-mode:overlay">
<path d="M-146.601 896.035L-151.475 892.097L-153.369 889.756L-154.774 887.819L-164.394 876.326L-177.952 853.191L-184.486 844.571L-191.85 834.865L-199.811 824.372L-234.482 778.655L-239.356 769.545L-245.485 758.116L-282.413 689.22L-315.211 583.036L-324.044 457.844L-298.333 312.433L-292.438 299.067L-225.181 146.441L-156.988 93.9129L-77.8331 41.8102L-64.2541 28.4226L15.475 -50.2847L109.783 -143.359L129.152 -157.321L369.701 -330.677L400.35 -339.638" stroke="white" stroke-width="2.12838" stroke-linecap="round" stroke-linejoin="round"/>
</g>
<g style="mix-blend-mode:overlay">
<path d="M1948 -313.352L1936.1 -313.459L1932.8 -313.033L1708.81 -283.683L1543.78 -262.058L1531.28 -258.951L1194.75 -175.668L1134.04 -160.662L1131.28 -159.96L810.914 -44.7297L747.85 -22.0412L747.594 -21.956L747.403 -21.8496L479.759 108.258L427.486 133.671L427.018 133.905L426.103 134.501L368.232 171.939L281.926 227.767L223.907 265.29L184.149 291.022L182.127 292.81L146.051 324.714L84.4556 379.137L44.0377 414.894L17.6245 438.221L10.8563 439.689L6.42919 439.455L3.76872 440.626L4.38597 441.69L-26.4117 484.066L-34.4995 493.984L-40.5441 502.029L-53.9742 520.504L-67.1914 538.68" stroke="white" stroke-width="2.12838" stroke-linecap="round" stroke-linejoin="round"/>
</g>
<g style="mix-blend-mode:overlay">
<path d="M1575.02 -274.531L1537.65 -267.145L1507.96 -261.186L1504.85 -258.908L1164.71 -172.007L1117.23 -160.13L1113.59 -159.215L781.415 -38.3871L733.377 -20.9344L733.058 -20.8067L455.73 115.324L415.355 135.161L415.035 135.374L402.414 143.632L308.68 205.036L246.212 245.943L203.496 273.91L175.125 292.512L174.38 293.172L166.803 299.961L100.397 359.471L57.106 398.25L28.9476 423.492L10.8564 439.689L10.5584 440.115L6.72732 445.159L7.38711 447.969L-4.63821 467.209L-42.8001 516.907L-67.3615 548.896L-82.8774 569.095L-82.9839 569.35L-93.498 593.954L-94.5197 596.338L-111.951 637.075L-120.124 656.231L-123.7 664.574" stroke="white" stroke-width="2.12838" stroke-linecap="round" stroke-linejoin="round"/>
</g>
<g style="mix-blend-mode:overlay">
<path d="M1913.03 -317.971L1896.47 -317.184L1876.4 -316.247L1855.61 -315.268L1826.43 -313.885L1643.68 -305.265L1638.15 -304.264L1591.35 -295.793L1544.27 -287.28L1429.8 -266.549L1364.12 -254.673L1296.14 -242.371L1288.27 -240.03L1238.97 -225.344L1183.55 -208.849L1128.3 -192.397L1066.74 -174.071L1004.19 -155.448L940.149 -136.378L937.999 -135.739L844.265 -96.5133L649.029 -14.8048L648.603 -14.6345L644.049 -12.719L642.091 -11.9102L610.718 1.22188L609.207 1.8604L370.041 135.735L340.18 152.443L337.456 153.976L336.796 154.359L163.291 284.445L152.138 293.895L143.369 298.918L123.064 312.093L121.617 313.2L121.511 313.285L39.9299 404.103L37.9931 408.508L29.7988 416.362L24.3715 421.555L15.8367 430.856L6.70591 440.477L4.76908 441.711L3.7475 440.668L3.59849 440.647L0.0653793 445.649L-0.551869 447.075L-15.6208 468.188L-26.7947 483.129L-37.7346 501.135L-53.9741 525.782L-61.5724 535.892L-73.6616 549.726L-79.8127 555.92L-88.6667 569.946L-90.412 571.393L-91.3059 571.627L-110.461 620.495L-111.291 622.474L-118.932 633.712L-126.999 647.142L-126.978 661.679L-129.808 668.83L-131.064 673.619L-132.469 681.835L-135.895 735.193L-140.961 775.249L-142.153 777.229L-133.81 806.877L-130.617 819.86L-124.828 841.953L-120.912 852.531L-90.412 898.419L-81.2599 914.126L-81.5579 915.254L-81.0471 916.042L-80.515 916.659L-75.4708 921.788L-29.3701 962.206L-28.4123 963.079L-27.9441 963.483L-27.3907 963.802L-26.4117 964.143L-12.7262 972.146L9.70693 985.405L13.538 988.109L26.5211 995.217L31.7995 998.878L34.8431 1001.26L41.0154 1004.94L65.5343 1019.54L66.0451 1019.84L66.5347 1020.14L68.7269 1019.31L89.5637 1026.97L111.805 1037.06L118.212 1037.47L138.836 1041.3L154.458 1045.36L158.63 1047.38L177.593 1048.53L191.385 1048.9L199.026 1048.79L212.818 1050L217.181 1050.38L219.842 1050.09L221.14 1050.21L223.056 1050.9L228.76 1050.13L241.53 1050.45L243.296 1050.6L244.765 1050.24L244.871 1050.26L245.02 1050.34L245.212 1050.7L246.872 1051.58L250.533 1051.39L264.197 1049.7L290.078 1049.6L319.067 1051.96L319.748 1050.96L336.094 995.132L340.223 981.191L362.507 931.025L369.147 930.068L369.658 929.408L391.389 902.101L427.571 856.639L428.614 855.66L470.863 816.221L513.281 776.59L525.434 777.08L641.814 694.052L653.882 697.138L664.013 701.756L805.231 622.368L962.22 548.13L1124.23 483.406L1278.37 431.665L1287.84 429.069L1411.75 394.887L1413.54 394.504L1513.6 373.177L1514.26 373.05L1526.86 358.747L1538.63 344.976L1615.72 335.846L1633.81 321.777L1651.05 307.645L1703.15 309.922L1714.01 321.479" stroke="white" stroke-width="2.12838" stroke-linecap="round" stroke-linejoin="round"/>
</g>
<g style="mix-blend-mode:overlay">
<path d="M-385.894 565.732V565.625L-390.683 544.065L-395.153 523.973L-415.053 434.198L-406.753 392.099L-404.241 373.199L-391.428 276.315L-385.469 231.193L-377.509 211.442L-328.918 90.6565L-311.231 46.7267L-278.156 -0.565861L-196.788 -116.924L-167.331 -159.066L-145.324 -180.244L17.0502 -336.509L20.3066 -339.638" stroke="white" stroke-width="2.12838" stroke-linecap="round" stroke-linejoin="round"/>
</g>
<g style="mix-blend-mode:overlay">
<path d="M-300.887 722.764L-310.018 707.567L-319.404 691.945L-347.222 645.674L-347.648 644.482L-354.033 627.072L-367.186 591.102L-389.768 529.443L-406.753 392.099L-390.088 347.041L-364.441 299.684L-328.684 249.987L-282.519 198.821L-273.495 183.645L-174.653 17.6105L-159.946 1.32843L2.74709 -178.881L24.2437 -195.845L206.39 -339.638" stroke="white" stroke-width="2.12838" stroke-linecap="round" stroke-linejoin="round"/>
</g>
<g style="mix-blend-mode:overlay">
<path d="M-192.063 852.978L-197.448 847.593L-199.342 845.975L-202.301 842.57L-211.878 829.395L-224.074 804.259L-234.482 778.655L-241.165 751.71L-244.826 743.175L-281.71 657.422L-303.76 545.64L-298.163 414.851L-294.694 403.23L-253.36 263.906L-246.039 251.008L-156.988 93.9129L-144.813 79.8656L3.70503 -91.5753L21.6685 -106.41L237.039 -284.13L328.41 -339.638" stroke="white" stroke-width="2.12838" stroke-linecap="round" stroke-linejoin="round"/>
</g>
<g style="mix-blend-mode:overlay">
<path d="M-40.4796 980.255L-43.6934 977.935L-48.6313 974.529L-60.4863 966.356L-82.664 949.755L-85.0265 945.051L-117.889 914.935L-132.34 896.12L-144.451 876.624L-154.135 856.426L-161.35 835.866L-166.096 814.965L-168.416 810.091L-171.503 803.599L-201.342 740.642L-204.812 733.32L-228.011 635.883L-227.756 521.313L-225.84 513.778L-194.127 388.523L-189.679 379.903L-116.25 238.047L-108.545 228.469L17.1144 72.4588L46.4221 46.5139L214.202 -102.026L230.676 -112.88L477.504 -275.276L608.463 -339.638" stroke="white" stroke-width="2.12838" stroke-linecap="round" stroke-linejoin="round"/>
</g>
<g style="mix-blend-mode:overlay">
<path d="M-96.7543 937.644L-113.952 922.895L-125.083 914.552L-136.321 904.974L-140.216 901.398L-146.601 896.035L-152.986 890.48L-173.61 872.537L-189.743 855.298L-192.659 852.148L-211.878 829.395L-241.229 800.726L-241.846 799.832L-242.506 799.002L-245.805 794.49L-253.594 783.805L-263.449 770.248L-273.559 756.349L-303.526 715.186L-311.529 699.202L-319.532 683.261L-354.948 612.513L-359.247 596.359L-378.743 523.036L-387.342 490.685L-390.087 347.041L-385.894 329.524L-356.033 204.333L-350.329 180.453L-303.782 127.392L-245.528 72.9908L-174.653 17.6105L-91.6036 -37.472L3.70514 -91.5753L109.784 -143.359L225.652 -191.928L348.864 -236.135L477.503 -275.276L608.59 -308.585L739.826 -335.828L749.829 -339.638" stroke="white" stroke-width="2.12838" stroke-linecap="round" stroke-linejoin="round"/>
</g>
<g style="mix-blend-mode:overlay">
<path d="M1798.69 -306.988L1778.5 -306.094L1773.2 -305.903L1746.27 -305.115L1743.68 -304.711L1736.42 -303.583L1670.06 -293.303L1617.7 -285.194L1576.43 -280.511L1543.67 -275.318L1513.85 -270.593L1481.14 -266.762L1446.49 -261.122L1405.2 -254.417L1360.4 -247.16L1338.6 -241.073L1280.5 -224.812L1231.84 -209.147L1188.08 -195.121L1153.2 -187.416L1117.98 -179.392L1078.2 -168.282L1037.33 -156.853L993.465 -144.614L991.187 -143.976L847.948 -86.8928L809.956 -71.7813L779.201 -59.5219L747.701 -46.9644L672.867 -15.8262L664.886 -12.6975L650.604 -8.29179L649.072 -7.67457L387.899 133.203L378.172 140.248L262.686 221.594L161.354 291.937L158.417 294.278L156.544 295.258L153.096 296.833L148.626 297.237L133.472 306.793L132.791 307.304L121.511 313.285L107.889 320.713L15.7304 427.515L7.23812 438.199L4.49249 440.711L3.89655 440.966L3.854 440.392L13.3892 431.495L16.007 429.047L132.791 307.304L141.56 302.686L148.35 299.238L149.307 298.557L150.435 297.748L156.267 294.087L159.949 292.001L272.902 212.57L373.106 142.078L374.469 141.376L378.172 140.248L384.961 138.353L395.88 131.883L646.177 2.0734L675.591 -14.4428L678.805 -16.8479L721.416 -33.4918L751.362 -43.8144L784.437 -55.2012L1030.03 -149.744L1030.31 -149.85L1046.04 -152.085L1048.19 -152.66L1049.46 -152.979L1073.51 -157.598L1085.24 -157.087L1089.69 -158.215L1118.61 -167.452L1154.65 -178.711L1198.39 -190.055L1257.92 -205.529L1334.9 -225.514L1441.06 -254.63L1468.82 -258.951L1486.59 -259.249L1504.85 -258.908L1523.09 -261.548L1543.78 -262.058L1567.23 -261.718L1594.33 -260.717L1625.61 -258.547L1661.86 -255.29L1703.02 -250.374L1749.49 -243.776L1800.31 -234.943L1855.31 -223.726L1912.43 -209.615L1948 -199.143" stroke="white" stroke-width="2.12838" stroke-linecap="round" stroke-linejoin="round"/>
</g>
<g style="mix-blend-mode:overlay">
<path d="M83.3494 1055.94L80.1782 1054.17L68.8126 1047.77L60.4055 1043.4L53.5521 1039.19L45.7197 1033.53L18.8383 1016.44L-16.4503 993.068L-23.0482 988.087L-44.183 972.103L-73.6823 949.819L-87.6445 933.601L-93.0506 928.173L-99.3719 921.809L-105.161 913.53L-114.441 897.482L-124.912 881.221L-161.35 835.866L-164.33 830.672L-168.353 823.627L-172.694 816.029L-205.727 758.307L-237.397 665.617L-248.869 555.941L-231.033 428.153L-227.436 419.108L-172.865 281.785L-165.99 271.59L-62.9979 118.581L-52.0793 107.428L54.9994 -1.80029L109.124 -57.0104L214.202 -102.026L324.835 -143.167L438.597 -179.775L455.39 -188.48L739.826 -335.828L763.068 -339.638" stroke="white" stroke-width="2.12838" stroke-linecap="round" stroke-linejoin="round"/>
</g>
<g style="mix-blend-mode:overlay">
<path d="M-243.485 797.938L-251.126 789.105L-259.576 775.696L-269.877 748.538L-278.39 719.741L-288.415 695.669L-320.426 618.813L-342.306 499.518L-333.686 359.726L-329.259 345.806L-282.52 198.821L-225.181 146.441L-214.56 131.819L-91.6039 -37.472L-51.2499 -75.8466L114.274 -233.198L137.324 -249.16L268.071 -339.638" stroke="white" stroke-width="2.12838" stroke-linecap="round" stroke-linejoin="round"/>
</g>
<g style="mix-blend-mode:overlay">
<path d="M-241.952 799.619L-257.298 775.739L-265.875 762.075L-274.665 748.027L-283.413 734.044L-314.104 685.049L-319.702 671.044L-325.81 655.72L-357.161 577.097L-377.615 449.203L-364.44 299.684L-358.63 283.211L-304.229 128.605L-303.782 127.392L-292.544 109.727L-180.995 -65.6304L-95.69 -122.735L2.74753 -178.881L114.275 -233.198L237.039 -284.13L369.701 -330.677L386.494 -339.638" stroke="white" stroke-width="2.12838" stroke-linecap="round" stroke-linejoin="round"/>
</g>
<g style="mix-blend-mode:overlay">
<path d="M-291.522 737.726L-303.526 715.186L-314.104 685.049L-319.957 652.974L-323.576 640.48L-352.075 542.766L-353.096 539.276L-360.035 405.571L-357.097 391.056L-328.684 249.987L-321.277 234.215L-245.528 72.9908L-232.524 56.0064L-95.6901 -122.735L-48.057 -165.856L132.174 -328.996L158.034 -339.638" stroke="white" stroke-width="2.12838" stroke-linecap="round" stroke-linejoin="round"/>
</g>
<g style="mix-blend-mode:overlay">
<path d="M-341.539 661.658L-344.732 655.464L-345.668 652.293L-353.501 635.436L-361.567 618.069L-385.852 567.456L-389.215 558.559L-397.303 533.125L-416.224 474.829L-432.123 376.923L-433.741 368.538L-434.124 365.877L-432.74 359.173L-427.356 305.708L-425.972 291.937L-416.777 200.332L-392.28 151.805L-357.353 100.341L-311.231 46.7267L-252.53 -8.97298L-180.996 -65.6304L-163.117 -84.275L-138.258 -110.199L18.4972 -273.765L107.123 -339.638" stroke="white" stroke-width="2.12838" stroke-linecap="round" stroke-linejoin="round"/>
</g>
<g style="mix-blend-mode:overlay">
<path d="M-340.283 663.893L-341.539 661.658L-344.902 655.592L-353.16 640.757L-376.317 599.147L-381.936 580.588L-382.851 578.587L-385.448 571.266L-391.535 557.474L-404.433 525.803L-410.839 510.032L-414.989 483.044L-416.245 475.893L-421.715 456.227L-433.826 407.168L-433.613 370.772L-433.698 370.198L-433.719 369.24L-433.826 367.856L-434.315 365.856L-439.7 288.83L-432.293 246.177L-432.059 245.39L-431.655 239.026L-421.46 153.635L-405.05 107.811L-404.39 106.449L-402.56 102.831L-400.857 99.7446L-399.623 97.3821L-379.68 59.0074L-344.498 7.71356L-297.971 -46.177L-239.398 -101.855L-167.331 -159.066L-81.6429 -216.596L18.4973 -273.765L132.174 -328.996L148.435 -339.638" stroke="white" stroke-width="2.12838" stroke-linecap="round" stroke-linejoin="round"/>
</g>
<g style="mix-blend-mode:overlay">
<path d="M1843.13 -304.392L1712.98 -287.94L1636.3 -278.553L1579.22 -270.827L1537.65 -267.145L1510.96 -263.91L1493.61 -262.101L1468.82 -258.951L1451.11 -255.695L1431.76 -253.737L1429.97 -253.268L1429.23 -253.077L1364.23 -235.943L1282.9 -214.511L1220.07 -197.952L1174.12 -185.841L1135.47 -175.646L1104.57 -167.516L1075.45 -158.087L1072.7 -155.64L1059.79 -154.065L1046.04 -152.085L764.09 -45.0491L734.867 -33.9389L710.859 -24.8295L689.681 -16.7842L686.595 -15.6136L399.775 131.542L389.24 137.672L299.613 199.565L166.569 289.915L160.843 293.81L160.673 293.938L158.779 294.363L49.1034 397.994L46.5706 400.463L44.9956 401.953L39.9301 404.103L4.00304 440.2L3.64119 440.604L3.51349 440.689L3.0027 441.2L2.00236 442.286L-1.23275 446.415L-4.61693 450.544L-8.51183 455.333L-12.0663 462.484L-25.3686 482.321L-34.478 496.006L-45.6095 510.99L-57.273 526.719L-69.2132 542.809L-73.3635 548.407" stroke="white" stroke-width="2.12838" stroke-linecap="round" stroke-linejoin="round"/>
</g>
<g style="mix-blend-mode:overlay">
<path d="M-140.514 901.334L-145.09 896.652L-163.543 874.708L-179.399 853.872L-189.53 830.694L-198.065 807.196L-203.514 783.06L-210.303 767.779L-242.697 694.967L-265.024 590.464L-261.704 467.805L-259.043 458.249L-222.435 326.289L-216.603 315.583L-135.257 166.299L-125.381 154.487L11.1332 -8.71752L33.6514 -27.9794L47.9967 -40.2176L225.652 -191.928L246.106 -204.89L458.944 -339.638" stroke="white" stroke-width="2.12838" stroke-linecap="round" stroke-linejoin="round"/>
</g>
<g style="mix-blend-mode:overlay">
<path d="M670.973 -16.4009L664.886 -12.6975L387.899 133.203L367.232 143.142L364.295 144.696L363.571 145.079L244.297 230.534L156.97 293.065" stroke="white" stroke-width="2.12838" stroke-linecap="round" stroke-linejoin="round"/>
</g>
<g style="mix-blend-mode:overlay">
<path d="M-88.5598 944.37L-101.288 932.792L-119.4 914.701L-129.297 905.017L-133.171 897.248L-138.449 889.118L-144.962 878.859L-149.197 870.473L-155.284 862.577L-161.648 854.361L-196.277 809.538L-198.065 807.196L-201.981 800.109L-206.919 791.127L-243.974 723.806L-275.921 624.326L-286.031 507.18L-264.194 370.751L-259.511 359.556L-199.023 215.06L-190.36 202.694L-77.8328 41.8102L11.1335 -8.71752L38.398 -22.1689L109.124 -57.0104L124.938 -68.8442L348.864 -236.135L370.042 -247.947L534.566 -339.638" stroke="white" stroke-width="2.12838" stroke-linecap="round" stroke-linejoin="round"/>
</g>
<g style="mix-blend-mode:overlay">
<path d="M-382.574 579.46L-383.298 577.715L-384.043 575.884L-385.022 573.841L-400.091 543.746L-410.839 510.032L-414.99 483.044L-415.351 481.874L-416.224 474.829L-426.078 325.033L-410.477 279.614L-385.469 231.193L-350.329 180.453L-340.752 161.893L-262.789 10.9061L-252.53 -8.97298L-236.482 -28.4689L-214.837 -54.7757L-96.1584 -198.952L-81.6429 -216.596L-57.8689 -236.667L64.1085 -339.638" stroke="white" stroke-width="2.12838" stroke-linecap="round" stroke-linejoin="round"/>
</g>
</g>
</g>
<defs>
<clipPath id="clip0_82_1824">
<rect width="1400" height="261" fill="white"/>
</clipPath>
</defs>
</svg>
