<svg width="24" height="24" viewBox="0 0 24 24" fill="none" xmlns="http://www.w3.org/2000/svg">
<g opacity="0.4">
<path fill-rule="evenodd" clip-rule="evenodd" d="M6 18C5.46957 18 4.96086 17.7893 4.58579 17.4142C4.21071 17.0391 4 16.5304 4 16V13C4 12.4696 4.21071 11.9609 4.58579 11.5858C4.96086 11.2107 5.46957 11 6 11H9C9 10.2044 8.68393 9.44129 8.12132 8.87868C7.55871 8.31607 6.79565 8 6 8H5C4.73478 8 4.48043 7.89464 4.29289 7.70711C4.10536 7.51957 4 7.26522 4 7C4 6.73478 4.10536 6.48043 4.29289 6.29289C4.48043 6.10536 4.73478 6 5 6H6C7.32608 6 8.59785 6.52678 9.53553 7.46447C10.4732 8.40215 11 9.67392 11 11V16C11 16.5304 10.7893 17.0391 10.4142 17.4142C10.0391 17.7893 9.53043 18 9 18H6ZM15 18C14.4696 18 13.9609 17.7893 13.5858 17.4142C13.2107 17.0391 13 16.5304 13 16V13C13 12.4696 13.2107 11.9609 13.5858 11.5858C13.9609 11.2107 14.4696 11 15 11H18C18 10.2044 17.6839 9.44129 17.1213 8.87868C16.5587 8.31607 15.7956 8 15 8H14C13.7348 8 13.4804 7.89464 13.2929 7.70711C13.1054 7.51957 13 7.26522 13 7C13 6.73478 13.1054 6.48043 13.2929 6.29289C13.4804 6.10536 13.7348 6 14 6H15C16.3261 6 17.5979 6.52678 18.5355 7.46447C19.4732 8.40215 20 9.67392 20 11V16C20 16.5304 19.7893 17.0391 19.4142 17.4142C19.0391 17.7893 18.5304 18 18 18H15Z" fill="#100F0F"/>
</g>
</svg>
